<?xml version="1.0" standalone="no"?>
<!DOCTYPE svg PUBLIC "-//W3C//DTD SVG 20010904//EN"
 "http://www.w3.org/TR/2001/REC-SVG-20010904/DTD/svg10.dtd">
<svg version="1.0" xmlns="http://www.w3.org/2000/svg"
 width="1586.000000pt" height="992.000000pt" viewBox="0 0 1586.000000 992.000000"
 preserveAspectRatio="xMidYMid meet">

<g transform="translate(0.000000,992.000000) scale(0.100000,-0.100000)"
fill="#000000" stroke="none">
<path d="M14385 9720 c-77 -11 -169 -22 -205 -25 -36 -4 -90 -17 -120 -30 -30
-13 -107 -44 -170 -68 -170 -66 -319 -144 -504 -264 l-164 -108 -83 -150
c-167 -300 -251 -482 -329 -707 l-23 -67 27 -93 c15 -51 41 -136 58 -188 30
-96 43 -184 56 -396 5 -81 11 -117 23 -130 38 -44 353 -658 574 -1117 55 -115
130 -266 168 -335 47 -89 67 -136 67 -161 0 -45 -44 -195 -67 -230 -23 -35
-26 -227 -5 -253 23 -27 31 -22 54 29 26 59 44 144 53 255 5 67 11 90 26 104
19 17 21 16 49 -5 22 -16 32 -18 35 -9 3 7 12 31 20 53 l15 40 -6 -35 c-3 -19
-9 -44 -13 -55 -26 -64 -33 -97 -22 -108 17 -17 14 -45 -19 -179 -30 -123 -36
-169 -22 -166 4 0 15 -2 24 -6 12 -6 33 3 68 29 27 20 79 52 115 71 100 53 73
22 -104 -121 -36 -30 -46 -33 -59 -23 -15 13 -51 12 -65 -1 -4 -4 -9 -17 -12
-29 -2 -13 -13 -34 -24 -49 -21 -25 -21 -25 -21 -3 0 12 9 35 21 52 12 16 20
30 18 31 -2 2 -22 15 -44 29 -22 14 -57 43 -78 64 -37 36 -42 38 -160 55 -67
10 -134 21 -148 24 -21 5 -34 0 -65 -30 -41 -38 -132 -90 -142 -81 -3 3 16 15
41 26 25 11 61 33 78 48 l33 27 -40 7 c-21 4 -57 7 -79 8 -36 0 -48 8 -122 82
-46 44 -83 88 -83 97 0 9 -33 49 -73 90 -92 95 -155 126 -232 116 -29 -3 -70
-15 -91 -25 -37 -20 -65 -18 -31 2 12 6 15 13 8 21 -5 7 -9 17 -9 22 1 6 -12
17 -28 25 -16 8 -43 25 -59 37 -33 23 -142 63 -172 63 -36 0 -94 -22 -113 -42
-10 -11 -22 -34 -25 -49 -4 -16 -11 -29 -16 -29 -11 0 -12 -90 -1 -108 14 -21
44 -3 36 22 -60 188 134 231 305 67 23 -22 41 -44 41 -49 0 -12 -109 -34 -124
-25 -13 9 -20 8 -156 -17 -58 -10 -147 -24 -199 -31 -58 -8 -95 -18 -98 -26
-4 -10 -9 -11 -19 -3 -9 8 -19 8 -32 1 -11 -6 -66 -18 -122 -27 -84 -14 -103
-15 -110 -4 -7 11 -21 11 -81 1 -39 -6 -76 -14 -82 -18 -5 -3 -7 -26 -4 -52 5
-46 5 -46 -13 -23 -31 38 -53 28 -93 -44 -20 -37 -37 -77 -37 -89 0 -13 30
-61 70 -111 68 -85 115 -124 152 -124 23 0 131 -103 223 -211 110 -130 110
-123 11 -143 -166 -33 -810 -287 -726 -286 23 0 104 26 141 45 24 13 45 15 82
11 27 -4 54 -3 60 2 7 5 28 12 47 16 19 3 54 16 77 28 39 21 43 21 61 5 25
-22 48 -22 69 3 10 11 26 20 36 20 10 0 38 13 62 30 34 23 124 56 131 47 1 -1
-1 -22 -5 -47 l-6 -45 -75 -28 c-41 -16 -90 -42 -108 -58 -18 -16 -37 -27 -42
-24 -13 8 -125 -30 -235 -80 -176 -79 -257 -127 -320 -190 -79 -79 -165 -183
-165 -199 0 -8 14 -16 30 -20 23 -4 35 -15 46 -41 17 -41 40 -45 120 -20 71
23 308 59 386 59 45 0 74 -6 92 -17 14 -9 34 -17 44 -17 11 0 31 -11 46 -25
17 -16 44 -27 76 -31 42 -5 47 -9 35 -20 -7 -8 -24 -14 -37 -14 -13 0 -59 -9
-103 -20 -148 -36 -290 -63 -359 -67 -39 -3 -80 -12 -93 -20 -23 -15 -23 -16
-4 -29 16 -12 26 -11 64 0 39 12 47 12 51 0 3 -7 -2 -17 -10 -22 -13 -7 -10
-11 15 -22 58 -24 34 -41 -42 -29 -45 7 -94 35 -82 47 9 9 -70 42 -101 42 -24
0 -34 -5 -39 -20 -7 -23 -61 -70 -81 -70 -8 0 -20 11 -26 25 -6 14 -17 25 -23
25 -7 0 -24 9 -38 20 -14 12 -41 26 -59 32 -18 6 -45 21 -60 34 -15 12 -43 27
-62 34 -41 13 -51 37 -40 88 4 21 9 42 9 47 7 53 128 201 225 275 40 30 84 65
99 78 l26 24 -40 -7 c-22 -4 -63 -10 -90 -14 -38 -5 -69 -19 -120 -55 -141
-99 -511 -429 -560 -500 -16 -24 -38 -55 -48 -69 -10 -14 -17 -33 -15 -42 4
-19 67 41 148 140 107 133 170 192 239 229 l68 36 11 -25 c10 -21 9 -25 -4
-25 -35 0 -98 -58 -169 -155 -16 -22 -41 -51 -57 -64 -28 -24 -34 -44 -22 -75
9 -22 23 -20 17 3 -2 10 3 25 12 34 15 15 19 15 57 -10 37 -23 46 -24 73 -14
17 6 40 11 51 11 11 0 27 13 37 31 l17 31 19 -23 c32 -43 43 -71 37 -100 -5
-25 1 -33 54 -75 33 -26 60 -50 60 -54 0 -4 -7 -13 -15 -20 -23 -19 -70 -5
-165 49 -47 27 -96 52 -110 56 -24 8 -24 7 5 -17 17 -14 50 -35 73 -47 24 -12
65 -37 90 -55 56 -40 114 -60 148 -52 28 7 30 20 9 60 -8 15 -15 30 -15 32 0
9 33 3 61 -12 22 -11 38 -13 57 -6 20 6 42 3 89 -15 60 -23 62 -26 56 -53 -4
-25 -1 -31 21 -41 14 -7 26 -18 26 -26 0 -18 -45 -35 -73 -27 -16 3 -30 -2
-45 -19 l-23 -24 23 -15 c13 -8 37 -18 53 -22 17 -4 86 -31 155 -60 69 -29
143 -59 165 -66 66 -21 155 -69 155 -84 0 -11 -84 -183 -95 -194 -2 -2 -10 9
-19 26 -18 34 -72 58 -345 146 -189 62 -244 71 -79 13 419 -146 468 -176 409
-248 -19 -23 -20 -23 -26 -4 -21 68 -14 64 -330 172 -165 56 -315 102 -333
102 -53 1 -105 -32 -156 -102 -26 -35 -57 -69 -69 -75 -54 -27 -97 -40 -102
-31 -10 15 -44 10 -73 -11 -34 -25 -57 -19 -78 21 -8 16 -16 29 -19 29 -12 0
-25 -86 -20 -125 l7 -43 37 5 c20 3 141 23 269 44 129 22 238 39 243 39 12 0
49 75 49 101 0 22 45 69 68 69 19 0 14 -14 -13 -40 -14 -13 -25 -28 -25 -34 0
-6 -11 -28 -25 -49 l-26 -37 23 0 c30 0 40 8 67 52 26 43 69 80 83 72 5 -3 -9
-26 -32 -50 -22 -24 -40 -48 -40 -54 0 -19 54 2 84 32 55 55 92 61 40 7 l-27
-28 27 -7 c21 -5 30 -1 47 20 19 24 49 36 49 19 0 -4 -12 -20 -27 -35 -26 -28
-27 -28 -10 -63 9 -20 17 -40 17 -46 0 -6 6 -25 14 -42 7 -18 30 -77 51 -132
20 -55 43 -113 50 -130 7 -16 25 -60 40 -97 16 -38 29 -68 30 -68 0 0 19 16
41 36 22 21 34 39 27 41 -7 2 -10 10 -7 18 3 8 -4 16 -16 20 -30 9 -21 39 12
43 38 4 87 -21 153 -79 31 -27 66 -49 79 -49 12 0 27 -5 33 -11 10 -10 45 -16
148 -23 39 -3 121 27 137 49 10 14 -40 64 -79 81 -18 8 -33 16 -33 19 0 25
193 -77 299 -157 20 -16 44 -18 175 -18 83 0 257 4 386 10 129 5 298 12 375
14 77 3 170 8 206 12 l65 6 19 -88 c10 -49 18 -91 17 -94 -5 -12 -69 -20 -301
-39 -334 -27 -430 -31 -932 -40 -416 -8 -589 -1 -691 24 -20 5 -27 3 -30 -11
-1 -9 -29 50 -60 132 -238 625 -251 657 -282 663 -11 2 -108 -12 -215 -30
-166 -29 -188 -34 -141 -37 51 -3 80 -15 80 -32 0 -13 -58 -28 -150 -40 -115
-14 -173 -13 -195 4 -19 13 -18 15 15 24 19 6 29 11 22 11 -20 1 -363 -56
-512 -85 -41 -8 -102 -19 -135 -25 -84 -15 -93 -18 -76 -29 8 -4 11 -15 8 -25
-4 -9 -12 -13 -18 -9 -8 4 -9 3 -5 -5 5 -7 -1 -20 -13 -30 -37 -32 -26 -40 46
-34 62 6 67 5 54 -10 -12 -15 -10 -17 18 -17 35 0 42 -15 10 -23 -12 -3 -19
-9 -16 -14 3 -4 -3 -24 -12 -44 -10 -20 -17 -42 -15 -51 1 -9 -11 -20 -31 -27
-37 -13 -53 -47 -25 -56 9 -3 25 -2 34 1 13 5 17 2 14 -12 -2 -13 5 -20 27
-25 17 -4 22 -7 12 -8 -9 0 -16 -6 -15 -12 2 -7 -11 -16 -29 -21 -32 -8 -32
-9 -31 -68 1 -32 -4 -65 -10 -72 -6 -8 -10 -27 -8 -43 2 -17 -2 -33 -8 -37 -6
-5 -2 -8 11 -8 34 0 36 -17 4 -28 -16 -6 -31 -8 -33 -6 -9 8 -5 -33 7 -86 15
-65 16 -90 1 -90 -5 0 -2 -6 8 -13 22 -16 11 -47 -17 -47 -21 0 -21 0 1 -16
29 -20 28 -36 -2 -28 -14 3 -27 1 -31 -7 -6 -8 -4 -10 6 -5 8 4 5 -1 -6 -11
-23 -21 -35 -54 -13 -36 10 9 13 6 13 -13 0 -13 -5 -22 -10 -20 -6 2 -12 -5
-12 -15 -1 -10 1 -18 5 -18 37 6 43 -18 12 -46 -25 -22 -26 -35 -2 -35 12 0 8
-7 -15 -26 -38 -29 -45 -65 -13 -57 13 4 20 0 20 -9 0 -22 -37 -61 -50 -53
-15 9 -100 -14 -100 -27 0 -6 10 -7 23 -4 12 4 40 9 62 12 22 3 43 10 46 16 4
6 10 2 14 -11 9 -28 -1 -41 -33 -41 -15 0 -34 -5 -42 -10 -11 -7 -8 -10 15 -9
17 0 39 4 49 8 25 10 68 2 63 -12 -2 -6 -17 -15 -34 -21 -33 -12 -63 -38 -63
-55 0 -6 -4 -11 -10 -11 -5 0 -10 -9 -10 -20 0 -11 -4 -20 -8 -20 -4 0 -8 -13
-7 -30 0 -16 3 -30 7 -30 23 0 3 -18 -34 -31 -32 -12 -44 -22 -46 -40 -2 -13
-8 -29 -14 -36 -18 -22 0 -31 44 -22 24 5 88 18 143 29 55 10 163 34 240 53
77 19 248 60 380 91 132 32 311 75 397 97 86 21 167 39 179 39 l22 0 -21 -23
c-12 -13 -19 -27 -15 -30 3 -4 -3 -8 -15 -8 -12 -1 -28 -2 -34 -3 -7 -1 -16
-5 -20 -11 -5 -6 -11 -6 -19 2 -6 6 -17 10 -23 8 -6 -2 -23 -6 -38 -9 -16 -4
-28 -13 -28 -21 0 -18 -31 -24 330 65 408 101 452 114 439 127 -9 9 6 17 58
32 39 12 79 21 90 21 11 0 22 3 26 6 3 3 -14 63 -38 132 -25 69 -43 127 -41
129 3 3 25 -54 83 -214 13 -36 20 -43 42 -43 15 0 99 -18 186 -40 88 -22 164
-39 170 -37 5 2 -23 12 -63 22 -40 9 -71 19 -69 21 5 6 180 -14 201 -22 9 -3
16 -10 16 -14 0 -9 84 -25 210 -40 114 -14 175 -28 235 -52 36 -15 72 -21 130
-21 44 0 65 -2 47 -4 -31 -4 -32 -6 -16 -17 15 -12 9 -13 -40 -11 -32 2 -61 8
-65 13 -4 6 -29 11 -56 11 -28 -1 -97 9 -155 21 -156 33 -155 33 -150 27 3 -4
79 -24 168 -46 90 -22 166 -43 171 -45 4 -3 88 -26 186 -51 99 -25 181 -47
182 -49 23 -23 -206 -109 -715 -267 -52 -16 -101 -37 -110 -48 -25 -28 -255
-104 -322 -107 -40 -1 -166 -39 -475 -143 -231 -78 -428 -146 -437 -151 -10
-6 -48 -10 -84 -10 -67 0 -89 5 -384 97 -80 25 -192 58 -250 73 -58 15 -167
46 -242 69 -76 23 -150 41 -165 39 -25 -3 -22 -6 32 -31 33 -16 68 -33 77 -38
9 -4 61 -20 116 -33 54 -14 119 -35 143 -46 24 -11 62 -20 85 -20 25 0 66 -13
110 -34 38 -19 101 -43 139 -55 56 -16 86 -33 146 -84 88 -73 194 -120 311
-138 40 -6 111 -24 157 -40 45 -16 100 -29 121 -29 44 0 74 -25 44 -36 -11 -4
-45 -18 -76 -30 -32 -13 -72 -24 -91 -24 -18 0 -37 -4 -42 -9 -6 -5 -30 -16
-55 -25 -44 -15 -38 -15 158 -16 171 0 202 2 202 15 0 21 34 37 48 23 7 -7 12
-18 12 -25 0 -10 38 -13 174 -13 155 0 180 2 223 21 78 34 877 354 1278 512
204 80 422 167 485 192 177 70 291 108 300 99 5 -5 10 -31 12 -57 l3 -49 -150
-64 c-82 -36 -260 -111 -395 -166 -135 -55 -321 -132 -415 -170 -93 -39 -251
-103 -350 -143 -99 -40 -232 -96 -295 -124 l-115 -50 517 -1 518 0 187 84
c208 92 416 181 451 191 18 5 22 2 22 -17 0 -13 3 -32 6 -44 4 -16 1 -20 -18
-21 -78 -1 -85 -3 -96 -27 -10 -22 -8 -25 11 -28 16 -2 -7 -17 -78 -51 -55
-26 -118 -56 -140 -66 -40 -20 -32 -20 1153 -20 l1192 -1 0 3359 0 3359 -42
-16 c-137 -54 -374 -194 -401 -238 -9 -15 -162 -144 -171 -144 -3 0 -6 8 -6
18 1 9 37 46 82 82 44 36 101 84 127 108 70 66 114 93 269 168 l142 69 -2 530
c-2 296 -7 538 -12 549 -7 14 -6 17 2 12 9 -5 12 170 12 731 l0 738 -222 130
c-123 71 -248 145 -278 166 -30 20 -77 46 -105 57 -126 54 -615 77 -870 42z
m705 -114 c188 -28 230 -38 250 -63 16 -21 17 -27 4 -70 -11 -37 -11 -49 -1
-61 11 -13 1 -15 -80 -9 -93 6 -136 18 -114 31 17 11 13 61 -6 79 -10 8 -35
18 -55 22 -34 6 -39 4 -49 -18 -10 -22 -8 -30 15 -60 24 -31 25 -35 9 -41 -9
-4 -67 -4 -127 -1 -101 6 -109 5 -92 -9 10 -8 49 -27 87 -41 95 -37 173 -107
297 -270 59 -77 134 -259 146 -355 3 -19 9 -69 15 -110 6 -44 6 -80 1 -90 -7
-10 -10 0 -10 35 -1 28 -3 57 -5 65 -2 8 -12 56 -23 107 -11 50 -24 98 -28
105 -5 7 -15 33 -24 58 -28 81 -111 208 -189 287 -92 95 -116 114 -134 107 -8
-3 -20 3 -28 12 -13 16 -12 16 11 4 23 -12 24 -12 11 3 -7 10 -25 17 -39 17
-13 0 -30 7 -37 16 -6 9 -32 18 -61 22 -43 4 -47 3 -37 -10 15 -17 7 -29 -12
-21 -8 2 -12 10 -9 18 8 20 -17 23 -71 9 -69 -18 -73 -18 -67 11 3 20 0 25
-17 25 -12 0 -25 -8 -29 -20 -6 -17 -10 -18 -32 -6 -21 10 -29 10 -49 -3 -22
-14 -25 -14 -39 7 -8 12 -23 22 -33 22 -26 0 -24 -16 4 -24 20 -6 21 -7 4 -17
-13 -7 -22 -7 -31 0 -18 16 -96 11 -96 -5 0 -8 -6 -11 -16 -7 -11 4 -22 -1
-30 -12 -8 -10 -14 -13 -14 -7 0 18 -14 15 -59 -15 -26 -17 -40 -32 -36 -41 3
-10 0 -12 -10 -8 -10 4 -35 -13 -72 -50 -31 -30 -64 -61 -72 -67 -9 -7 -27
-26 -41 -43 -14 -18 -44 -56 -68 -84 -24 -29 -41 -59 -38 -67 3 -7 1 -13 -4
-13 -5 0 -7 -7 -4 -15 4 -8 1 -15 -5 -15 -6 0 -11 -9 -11 -20 0 -25 -20 -27
-20 -2 -1 9 -10 0 -22 -23 -11 -22 -25 -42 -30 -43 -11 -5 -38 -69 -38 -92 0
-10 -9 -20 -20 -23 -11 -3 -22 -17 -25 -33 -9 -42 -20 -59 -41 -62 -30 -6 -36
-17 -24 -47 9 -25 9 -27 -5 -15 -13 11 -18 10 -30 -6 -8 -10 -15 -26 -16 -34
0 -8 -5 -2 -10 15 -6 21 -5 33 6 45 8 9 15 26 15 37 0 19 18 33 45 38 30 4 46
22 61 68 15 45 26 64 73 123 4 5 14 21 21 35 7 13 27 42 44 64 18 22 38 52 45
66 7 15 23 37 34 50 12 13 35 42 50 64 16 22 61 70 100 107 l72 68 -38 0 c-36
0 -130 -25 -152 -40 -5 -4 -35 -15 -65 -25 -30 -9 -70 -24 -88 -31 -40 -17
-75 -18 -70 -2 4 11 49 38 203 118 44 23 100 61 125 85 25 23 60 50 78 59 18
10 37 28 43 42 7 20 14 24 27 19 46 -20 71 -18 83 9 13 28 24 33 79 38 31 3
35 0 38 -22 2 -13 11 -29 20 -36 15 -11 14 -14 -1 -37 -15 -23 -23 -57 -13
-57 1 0 17 5 35 11 25 9 31 17 31 39 l0 28 42 -15 c43 -15 96 -4 83 17 -3 5 4
7 15 5 11 -2 20 0 20 4 0 4 7 8 15 8 8 0 15 -4 15 -9 0 -5 6 -6 12 -1 7 4 47
8 88 9 115 4 172 13 190 29 9 8 24 15 33 15 22 0 30 17 11 24 -9 3 -48 9 -87
13 -71 8 -71 8 -27 14 75 10 121 9 220 -5z m-490 -6 c-8 -5 -28 -9 -45 -9 -30
2 -30 2 5 9 51 11 57 11 40 0z m138 3 c-21 -2 -57 -2 -80 0 -24 2 -7 4 37 4
44 0 63 -2 43 -4z m-72 -290 c-7 -7 -26 7 -26 19 0 6 6 6 15 -2 9 -7 13 -15
11 -17z m41 -15 c-3 -8 -6 -5 -6 6 -1 11 2 17 5 13 3 -3 4 -12 1 -19z m-127
-58 c0 -5 -2 -10 -4 -10 -3 0 -8 5 -11 10 -3 6 -1 10 4 10 6 0 11 -4 11 -10z
m-450 -71 c0 -11 -4 -17 -10 -14 -5 3 -10 13 -10 21 0 8 5 14 10 14 6 0 10 -9
10 -21z m-540 -28 c0 -21 -13 -41 -26 -41 -17 0 -17 5 -4 31 11 20 30 26 30
10z m452 -23 c-9 -18 -18 -35 -19 -37 -1 -1 -7 0 -13 4 -8 5 -3 17 16 36 15
16 29 29 30 29 2 0 -5 -15 -14 -32z m-34 -106 c2 -21 0 -23 -13 -12 -18 15
-20 37 -2 37 7 0 14 -11 15 -25z m1272 -86 c0 -6 -7 -2 -15 8 -8 11 -15 25
-15 30 0 6 7 2 15 -8 8 -11 15 -25 15 -30z m-1870 -52 c17 -43 11 -73 -20
-119 -38 -55 -67 -66 -91 -34 -26 34 -24 50 18 105 60 80 78 89 93 48z m410
-138 c-19 -18 -60 -30 -60 -18 0 10 38 30 60 31 13 1 13 -1 0 -13z m-558 -81
c38 -38 62 -89 55 -117 -4 -14 -20 -40 -36 -57 -26 -28 -32 -30 -54 -20 -34
15 -61 78 -53 121 7 37 41 98 54 98 5 0 20 -11 34 -25z m388 -66 c0 -6 -4 -7
-10 -4 -5 3 -10 11 -10 16 0 6 5 7 10 4 6 -3 10 -11 10 -16z m803 -35 c18 -9
46 -32 63 -52 33 -38 49 -37 64 4 7 17 14 22 27 17 41 -15 93 -57 139 -113 27
-33 55 -60 62 -60 7 0 17 -11 22 -25 6 -15 17 -25 29 -25 11 0 24 -6 28 -14 4
-7 24 -21 43 -31 19 -10 39 -24 43 -31 4 -8 21 -14 37 -14 15 0 30 -4 32 -8 2
-5 15 -12 29 -15 32 -8 92 28 98 58 2 11 9 24 17 28 8 4 14 19 14 32 0 51 27
40 111 -49 53 -56 77 -57 72 -5 -1 19 0 52 3 73 l6 40 32 -90 c17 -50 62 -143
100 -208 37 -64 67 -119 65 -120 -2 -2 -49 -13 -104 -25 -63 -13 -130 -35
-180 -60 -102 -51 -278 -183 -376 -283 -94 -95 -102 -91 -108 44 -3 82 -5 89
-22 85 -22 -6 -35 8 -44 50 -7 33 -71 107 -84 98 -4 -2 -14 11 -21 30 -10 26
-20 35 -47 40 -18 3 -41 14 -51 25 -9 10 -24 20 -32 22 -8 2 -22 13 -30 25 -8
11 -48 63 -87 113 -83 105 -102 153 -83 211 12 34 11 51 -6 161 -11 72 63 110
139 72z m-545 -116 c5 -18 10 -53 11 -77 1 -25 5 -49 8 -53 11 -20 48 -24 90
-12 68 21 93 4 173 -118 26 -39 45 -48 53 -25 3 9 8 9 17 1 9 -9 9 -17 1 -32
-15 -28 -13 -72 4 -102 21 -36 19 -97 -2 -110 -17 -9 -17 -11 1 -21 13 -8 15
-13 6 -19 -7 -4 -14 -29 -17 -56 -3 -37 1 -54 16 -75 22 -30 28 -51 35 -123 2
-27 8 -52 14 -55 12 -8 25 -61 15 -61 -5 0 -19 9 -33 20 -14 11 -32 20 -41 20
-11 0 -20 15 -28 44 -12 49 -41 82 -49 56 -3 -8 -24 -34 -48 -56 -24 -23 -44
-50 -44 -60 -1 -18 -1 -18 -14 -2 -8 12 -15 68 -20 163 -4 80 -11 157 -17 172
-12 33 -2 44 17 18 13 -17 16 -18 25 -5 14 20 2 117 -19 160 -16 32 -21 35
-67 38 -62 3 -120 -27 -112 -58 3 -11 1 -18 -3 -15 -5 3 -16 40 -25 83 -9 42
-29 106 -43 142 -33 78 -33 147 -2 213 32 67 79 69 98 5z m-718 -15 c11 -19
20 -36 20 -39 0 -10 -34 -3 -61 13 -26 16 -39 50 -23 65 12 13 45 -6 64 -39z
m386 -12 c3 -14 10 -34 15 -45 8 -14 7 -17 -3 -14 -7 3 -17 18 -23 34 -5 16
-15 33 -22 37 -20 13 -15 26 7 20 12 -3 23 -17 26 -32z m-468 -129 c2 -11 -2
-31 -9 -44 -11 -21 -13 -21 -19 -4 -9 27 0 78 14 73 6 -2 12 -13 14 -25z m567
8 c-27 -12 -43 -12 -25 0 8 5 22 9 30 9 10 0 8 -3 -5 -9z m-645 -271 c0 -20
-24 -26 -35 -9 -8 13 14 42 26 34 5 -3 9 -14 9 -25z m2777 -75 c-3 -3 -12 -4
-19 -1 -8 3 -5 6 6 6 11 1 17 -2 13 -5z m-2751 -76 c7 -25 -14 -42 -33 -26 -7
6 -13 21 -13 33 0 18 4 22 20 18 10 -3 22 -14 26 -25z m1342 -100 c-6 -18 -25
-21 -25 -3 0 8 7 15 15 15 7 0 12 -5 10 -12z m2 -98 c0 -5 -2 -10 -4 -10 -3 0
-8 5 -11 10 -3 6 -1 10 4 10 6 0 11 -4 11 -10z m-33 -277 c-10 -23 -12 -24
-24 -7 -26 36 -12 75 18 48 15 -13 16 -20 6 -41z m1463 17 c12 -8 12 -10 -5
-10 -11 0 -27 5 -35 10 -12 8 -12 10 5 10 11 0 27 -5 35 -10z m-1263 -380
c-28 -22 -85 -45 -93 -38 -6 6 87 57 105 58 8 0 2 -9 -12 -20z m-663 -241 c42
-22 76 -44 76 -48 0 -11 -31 -37 -52 -44 -32 -11 -167 61 -168 90 0 14 38 43
56 43 7 0 47 -18 88 -41z m376 -94 c-33 -34 -50 -43 -50 -27 0 15 51 62 67 62
12 0 8 -9 -17 -35z m-80 -20 c0 -32 -23 -65 -47 -65 -35 0 -85 28 -77 43 18
31 30 37 75 37 36 0 49 -4 49 -15z m-87 -991 c9 -10 -4 -34 -18 -34 -17 0 -28
17 -20 30 7 11 28 13 38 4z m-1344 -55 c-14 -8 -29 -3 -29 11 0 4 9 6 21 3 15
-4 17 -8 8 -14z m1321 -3 c0 -18 -30 -30 -43 -17 -5 5 -6 14 -3 20 10 16 46
13 46 -3z m-2287 -3 c-7 -2 -19 -2 -25 0 -7 3 -2 5 12 5 14 0 19 -2 13 -5z
m-216 -25 c13 -12 23 -26 23 -31 0 -6 11 -25 25 -42 13 -18 21 -36 17 -40 -4
-3 -2 -5 3 -3 6 1 30 -20 55 -47 l44 -50 -45 42 c-42 40 -46 42 -71 29 -28
-15 -28 -14 -88 69 -12 18 -12 19 1 8 9 -7 19 -10 23 -6 4 4 4 0 1 -9 -8 -20
23 -33 42 -17 14 12 9 24 -10 24 -7 0 -11 8 -9 18 2 12 -4 17 -20 17 -22 1
-22 1 -4 15 17 13 17 15 4 15 -9 0 -20 -5 -24 -11 -5 -8 -10 -6 -16 5 -21 37
14 47 49 14z m772 -42 c-2 -2 -24 -6 -49 -9 -30 -4 -38 -3 -25 3 19 8 83 14
74 6z m-204 -16 c-17 -7 -16 -9 9 -9 48 -1 26 -9 -74 -27 -91 -15 -102 -14
-101 13 0 9 109 30 156 31 25 1 27 -1 10 -8z m-380 -80 c3 -6 -1 -7 -9 -4 -18
7 -21 14 -7 14 6 0 13 -4 16 -10z m241 -22 c5 -8 2 -9 -11 -4 -15 5 -16 4 -6
-8 11 -13 9 -16 -11 -21 -155 -36 -147 -35 -163 -12 -14 19 -14 22 -1 25 8 2
25 -2 38 -9 20 -11 22 -11 10 4 -11 13 -7 16 40 25 75 14 96 14 104 0z m-256
-108 c3 -3 11 -6 19 -8 11 -2 10 3 -3 25 -10 15 3 6 28 -22 49 -54 53 -61 34
-62 -7 0 -20 -4 -29 -7 -12 -5 -29 9 -63 51 -25 32 -46 62 -46 67 0 8 30 -14
60 -44z m1171 33 c13 -16 12 -17 -3 -4 -10 7 -18 15 -18 17 0 8 8 3 21 -13z
m-380 -80 c13 -16 12 -17 -3 -4 -17 13 -22 21 -14 21 2 0 10 -8 17 -17z m-141
-37 c0 -2 -7 -6 -15 -10 -8 -3 -15 -1 -15 4 0 6 7 10 15 10 8 0 15 -2 15 -4z
m-405 -214 c-7 -7 -50 38 -87 93 -11 17 6 4 37 -28 32 -32 54 -61 50 -65z
m235 8 c10 -6 6 -9 -18 -8 -17 1 -29 5 -26 10 7 11 25 10 44 -2z m133 -78 c16
-7 32 -10 35 -8 4 2 18 -2 32 -10 19 -11 20 -14 5 -10 -11 2 -39 8 -62 11 -24
4 -43 10 -43 14 0 4 -11 13 -25 19 -14 6 -25 16 -25 22 0 6 12 3 28 -7 15 -11
40 -24 55 -31z m284 -154 c17 -19 17 -19 -12 -12 -35 8 -71 32 -105 70 l-25
27 62 -33 c34 -18 70 -41 80 -52z m-740 2 c-6 -16 -15 -30 -19 -30 -12 0 -10
8 8 35 22 33 25 31 11 -5z m890 -136 c-3 -3 -12 -4 -19 -1 -8 3 -5 6 6 6 11 1
17 -2 13 -5z m80 -55 c67 -22 92 -34 82 -39 -13 -8 -115 -13 -179 -10 -28 2
-62 28 -54 41 3 5 -1 9 -8 9 -20 1 23 30 44 30 10 0 61 -14 115 -31z m-861
-81 c22 -42 13 -55 -43 -60 -45 -4 -141 -27 -275 -65 -86 -24 -189 0 -175 41
7 23 83 55 165 70 47 9 91 21 98 27 8 7 32 9 61 5 30 -4 65 -1 93 8 52 16 55
15 76 -26z m41 -272 c1 -1 -5 -18 -15 -37 -18 -37 -10 -35 -127 -29 -22 1 -55
-1 -73 -5 -29 -7 -33 -5 -30 11 1 9 15 21 30 25 15 4 40 17 54 28 24 19 35 20
93 15 36 -4 67 -7 68 -8z m105 -12 c17 -9 48 -34 69 -56 l38 -40 -40 6 c-111
18 -139 27 -139 47 0 26 18 59 31 59 5 0 24 -7 41 -16z m-910 -41 c23 -21 23
-38 -2 -63 -13 -13 -33 -20 -58 -20 -43 0 -62 14 -62 46 0 47 83 72 122 37z
m318 -18 c0 -19 -32 -36 -49 -25 -8 4 -11 15 -8 24 8 20 57 22 57 1z m244 -61
c20 -8 21 -38 2 -53 -17 -15 -96 5 -96 24 0 29 52 45 94 29z m791 -14 c3 -5 2
-10 -4 -10 -5 0 -13 5 -16 10 -3 6 -2 10 4 10 5 0 13 -4 16 -10z m-390 -240
c3 -5 1 -10 -4 -10 -6 0 -11 5 -11 10 0 6 2 10 4 10 3 0 8 -4 11 -10z m-147
-21 c50 -9 62 -15 62 -30 0 -12 -7 -19 -19 -19 -11 0 -33 -11 -49 -25 -17 -14
-36 -25 -44 -25 -24 0 -98 54 -98 72 0 27 29 50 59 44 14 -3 54 -11 89 -17z
m226 15 c24 -9 19 -24 -8 -24 -33 0 -57 10 -50 21 6 10 35 12 58 3z m-428 -39
c-18 -28 -39 -29 -44 -3 -2 10 8 20 25 26 36 12 39 8 19 -23z m1147 -96 c-1
-19 3 -36 8 -39 5 -4 12 -33 15 -67 l7 -60 -64 -12 c-146 -26 -269 -43 -340
-48 -73 -5 -80 -3 -160 35 -69 33 -178 66 -159 49 25 -23 158 -87 180 -87 16
0 31 -4 34 -9 7 -11 -43 -55 -86 -77 -95 -49 106 -36 494 32 59 10 110 16 113
12 3 -3 8 -21 11 -40 l6 -35 -53 -6 c-30 -4 -95 -7 -144 -7 -50 0 -148 -7
-218 -15 -99 -12 -150 -13 -230 -5 -184 18 -187 18 -202 4 -7 -8 -15 -19 -17
-26 -4 -10 -13 -11 -49 -1 -24 7 -113 31 -197 53 -84 22 -169 47 -187 55 l-34
14 15 38 c23 56 27 58 86 39 98 -32 253 -89 262 -97 5 -5 -1 -17 -15 -28 -22
-18 -22 -20 -6 -26 10 -4 38 0 62 9 35 14 52 15 82 7 47 -13 120 -14 127 -2 9
13 -48 45 -134 75 -41 15 -94 36 -117 46 -24 11 -50 20 -58 20 -27 0 -16 37
20 69 19 16 57 37 84 45 26 8 62 21 79 30 43 22 307 61 492 72 85 5 113 3 144
-10 54 -22 79 -20 105 10 28 33 46 26 44 -17z m-1509 10 c36 -28 22 -41 -36
-33 -62 9 -76 18 -59 38 19 22 63 20 95 -5z m556 -34 c0 -8 -9 -15 -20 -15
-11 0 -20 7 -20 15 0 8 9 15 20 15 11 0 20 -7 20 -15z m1143 -78 c37 -16 67
-33 67 -37 0 -9 -153 -20 -162 -11 -4 3 -10 26 -14 50 -7 42 -6 43 17 36 13
-4 54 -21 92 -38z m-1552 22 c27 -14 14 -29 -24 -29 -38 0 -62 13 -53 29 9 14
51 14 77 0z m1888 -35 c48 -10 37 -22 -26 -28 -32 -4 -80 -11 -107 -16 -54
-11 -77 -2 -51 20 27 22 127 35 184 24z m-2339 -34 c0 -5 -10 -10 -22 -10 -19
0 -20 2 -8 10 19 13 30 13 30 0z m208 -33 c2 -19 -1 -27 -13 -27 -19 0 -30 24
-21 46 9 23 31 11 34 -19z m2400 1 c-3 -19 -16 -25 -93 -44 -184 -44 -534
-114 -572 -114 -12 0 -30 66 -21 75 6 6 317 55 350 55 20 0 26 -4 22 -15 -5
-12 2 -15 31 -15 32 0 36 3 30 20 -7 22 -5 23 125 44 125 20 132 20 128 -6z
m-2131 -10 c36 -13 40 -23 18 -52 -14 -18 -15 -18 -71 0 -66 22 -77 38 -37 52
38 14 51 14 90 0z m-369 -53 c8 -8 -75 -25 -120 -25 -67 0 -63 25 6 40 27 5
104 -4 114 -15z m-93 -76 c5 -5 26 -9 46 -9 20 0 61 -11 91 -25 67 -31 82 -31
97 1 10 22 15 25 44 18 17 -3 41 -13 52 -20 11 -8 27 -14 35 -14 22 0 40 -20
33 -36 -3 -8 -12 -14 -20 -14 -8 0 -24 -5 -36 -11 l-21 -12 22 -8 c23 -9 28
-25 13 -47 -6 -10 -35 -3 -131 33 -139 52 -298 122 -319 141 -11 10 -12 16 -2
28 11 13 17 13 49 -1 20 -8 41 -19 47 -24z m2639 12 c11 -17 -6 -41 -33 -47
-14 -4 -39 -13 -54 -21 -22 -11 -26 -17 -17 -27 8 -11 -11 -16 -104 -26 -62
-7 -142 -10 -177 -7 -46 4 -71 1 -92 -9 -33 -18 -98 -11 -136 13 -32 21 -12
33 55 33 28 0 77 9 110 21 81 28 202 52 222 43 10 -4 22 -6 27 -5 6 2 42 11
80 21 80 21 111 24 119 11z m-23 -100 c-12 -8 -51 -4 -51 5 0 2 15 4 33 4 22
0 28 -3 18 -9z m-2095 -77 c6 -8 19 -14 28 -14 20 0 20 -9 -1 -32 -19 -21 -69
-24 -108 -6 -26 12 -27 35 -2 66 12 16 67 7 83 -14z m304 -14 c0 -5 -4 -10
-10 -10 -5 0 -10 5 -10 10 0 6 5 10 10 10 6 0 10 -4 10 -10z m1058 -18 c4 -12
-20 -20 -101 -32 -49 -8 -48 -8 28 -8 64 1 81 -2 83 -14 3 -16 -32 -27 -87
-29 -14 0 -20 -3 -13 -6 20 -8 14 -23 -15 -34 -15 -5 -88 -19 -163 -30 -74
-11 -155 -26 -180 -34 -73 -23 -660 -91 -713 -82 -18 3 -99 -3 -182 -13 -200
-25 -257 -28 -262 -13 -5 13 33 52 110 115 34 28 44 43 40 58 -5 18 -2 20 43
14 75 -9 83 -13 60 -29 -17 -13 -17 -14 8 -21 15 -3 46 -4 70 -1 36 5 43 3 51
-16 8 -18 20 -23 60 -25 27 -2 55 -8 62 -14 9 -7 32 -7 75 1 204 37 346 59
431 67 55 5 66 8 57 19 -14 17 23 45 62 45 15 0 29 4 32 9 3 5 41 9 83 9 75 0
124 8 188 31 86 29 151 49 159 47 6 -1 11 -7 14 -14z m-1068 -33 c41 1 100 3
130 5 30 2 105 6 165 9 l110 6 -105 -25 c-137 -32 -355 -52 -407 -36 -21 6
-50 13 -64 16 -18 4 -28 14 -31 31 -3 13 -3 26 -1 29 2 2 32 -5 66 -16 40 -12
89 -19 137 -19z m1325 12 c-13 -13 -121 -41 -157 -41 -34 0 -46 19 -23 37 22
15 195 19 180 4z m490 -31 c4 -16 4 -38 1 -47 -3 -10 -2 -24 3 -32 5 -8 3 -24
-5 -40 -14 -28 -35 -241 -27 -272 3 -10 -4 -30 -15 -44 l-21 -26 5 38 5 38
-18 -25 c-10 -13 -46 -62 -80 -109 -35 -47 -60 -87 -58 -90 3 -2 11 3 18 12 6
9 29 23 50 30 21 7 38 16 37 21 -2 10 51 66 62 66 4 0 8 -14 8 -30 0 -23 -6
-33 -24 -40 -35 -13 -42 -30 -12 -30 36 0 42 -18 10 -30 -82 -31 -459 -88
-476 -72 -3 4 -13 39 -21 77 -9 39 -27 122 -42 185 -14 63 -29 140 -34 170 -5
30 -12 65 -16 78 -8 26 12 30 45 10 18 -11 24 -8 57 26 l38 38 -77 -7 c-66 -6
-78 -4 -78 8 0 11 16 17 58 22 136 14 242 33 527 94 67 15 73 13 80 -19z
m-2011 -9 c10 -16 -21 -20 -41 -6 -17 13 -16 14 9 15 15 0 29 -4 32 -9z m-232
-27 c-3 -17 -8 -22 -15 -15 -7 7 -6 15 3 26 17 20 18 19 12 -11z m-965 -81
c-37 -37 -70 -63 -74 -59 -4 3 24 36 61 72 37 37 70 63 74 60 3 -4 -24 -37
-61 -73z m171 65 c-3 -7 -20 -22 -39 -33 -18 -11 -60 -47 -91 -79 -62 -64 -83
-55 -25 10 65 75 168 142 155 102z m2330 -135 c6 -32 21 -101 32 -153 11 -52
29 -139 40 -193 11 -53 25 -109 30 -123 6 -14 10 -27 10 -29 0 -5 -106 -14
-225 -18 -55 -3 -89 -1 -75 2 23 6 20 11 -50 60 -99 70 -108 73 -188 60 -37
-5 -134 -13 -215 -17 l-149 -7 41 -25 c22 -14 39 -29 38 -34 -7 -24 -57 -46
-113 -52 -61 -7 -62 -6 -130 41 -38 26 -85 63 -105 81 -34 33 -40 35 -142 44
-188 16 -179 43 18 54 66 4 140 11 165 14 44 7 45 7 42 43 -3 32 1 38 37 63
22 16 43 37 46 47 7 20 18 24 87 34 30 4 49 2 53 -5 9 -15 -59 -86 -106 -110
-36 -19 -65 -47 -57 -55 2 -2 35 -2 74 2 l70 6 26 56 c15 31 54 90 87 131 33
41 61 78 61 82 0 16 93 30 249 38 149 7 170 6 203 -10 33 -16 42 -16 75 -5 20
7 39 18 41 24 8 24 18 8 30 -46z m-2403 7 c-16 -16 -31 -28 -34 -25 -2 3 8 19
24 35 16 16 31 28 34 25 2 -3 -8 -19 -24 -35z m445 -11 c0 -12 -82 -91 -88
-85 -1 2 11 24 28 50 29 43 60 61 60 35z m55 -46 c-15 -13 -30 -22 -33 -18 -9
9 40 55 51 48 6 -4 -2 -16 -18 -30z m105 -13 c0 -5 -13 -16 -30 -25 -33 -17
-38 -11 -13 17 17 19 43 24 43 8z m471 -34 c-25 -27 -65 -38 -80 -23 -6 6 -25
12 -43 14 -64 7 -50 21 28 28 44 3 86 7 94 9 24 4 25 -3 1 -28z m272 18 c64
-8 80 -23 53 -53 -9 -10 -16 -27 -16 -39 0 -19 -6 -22 -37 -22 -21 0 -55 -11
-80 -26 -49 -29 -88 -25 -80 7 4 15 0 19 -20 19 -43 0 -103 22 -103 38 0 8 19
33 42 55 l41 39 71 -5 c39 -4 97 -9 129 -13z m-509 -10 c25 -9 19 -24 -9 -24
-14 0 -25 -4 -25 -10 0 -5 -5 -10 -11 -10 -5 0 -7 5 -4 10 3 6 -4 10 -17 10
-22 -1 -22 -1 -4 -15 11 -8 30 -15 42 -15 19 0 22 -4 18 -26 -4 -21 -2 -25 11
-20 10 3 14 2 10 -5 -4 -5 -1 -16 5 -24 7 -8 9 -22 6 -31 -5 -13 -15 -15 -46
-10 -38 6 -39 5 -42 -26 l-3 -33 -66 3 c-59 3 -68 1 -82 -18 -8 -12 -17 -18
-20 -13 -6 10 36 96 96 198 38 64 39 65 82 65 24 0 50 -3 59 -6z m-384 -17 c0
-2 -16 -19 -37 -38 -37 -35 -37 -23 0 19 18 19 37 29 37 19z m585 -226 c9 -15
-29 -31 -74 -31 -29 0 -41 4 -41 14 0 8 6 17 13 19 22 9 96 7 102 -2z m-1788
-17 c-3 -3 -12 -4 -19 -1 -8 3 -5 6 6 6 11 1 17 -2 13 -5z m1648 -58 c17 -9
36 -16 43 -16 6 0 12 -3 12 -7 0 -5 -59 -8 -130 -8 -72 -1 -130 2 -130 6 0 3
21 16 48 28 52 24 107 23 157 -3z m-1555 -6 c0 -5 -4 -10 -10 -10 -5 0 -10 5
-10 10 0 6 5 10 10 10 6 0 10 -4 10 -10z m-37 -7 c-7 -2 -19 -2 -25 0 -7 3 -2
5 12 5 14 0 19 -2 13 -5z m537 -43 c-8 -5 -22 -10 -30 -10 -13 0 -13 1 0 10 8
5 22 10 30 10 13 0 13 -1 0 -10z m3212 -112 c-2 -40 -6 -75 -8 -77 -2 -2 -31
-12 -66 -22 -35 -10 -101 -30 -148 -44 -102 -31 -198 -46 -207 -32 -10 17 -41
166 -35 172 3 3 26 5 51 5 62 0 305 37 361 54 25 8 48 15 51 15 4 1 4 -32 1
-71z m-3595 36 c-3 -3 -12 -4 -19 -1 -8 3 -5 6 6 6 11 1 17 -2 13 -5z m60 -20
c-9 -9 -28 6 -21 18 4 6 10 6 17 -1 6 -6 8 -13 4 -17z m493 -4 c0 -5 -2 -10
-4 -10 -3 0 -8 5 -11 10 -3 6 -1 10 4 10 6 0 11 -4 11 -10z m-617 -17 c-7 -2
-19 -2 -25 0 -7 3 -2 5 12 5 14 0 19 -2 13 -5z m138 -15 c11 -21 11 -22 -4 -9
-10 7 -17 17 -17 22 0 15 9 10 21 -13z m-294 -3 c0 -8 -6 -15 -13 -15 -6 0
-14 7 -18 15 -3 10 1 15 13 15 10 0 18 -7 18 -15z m39 -50 c-28 -15 -46 -13
-46 6 0 5 17 9 38 9 l37 0 -29 -15z m4841 -49 c3 -3 -40 -6 -96 -6 -67 0 -100
4 -96 10 7 11 181 8 192 -4z m-4830 -12 c-3 -3 -12 -4 -19 -1 -8 3 -5 6 6 6
11 1 17 -2 13 -5z m4901 -66 c7 -7 12 -19 12 -27 0 -11 -5 -9 -16 7 -22 31
-43 28 -51 -9 -4 -22 -8 -27 -14 -17 -12 18 -11 24 7 42 18 19 45 21 62 4z
m-4390 -32 c-3 -15 -5 -16 -23 -2 -17 13 -18 17 -5 25 18 12 33 -1 28 -23z
m-251 8 c-3 -3 -12 -4 -19 -1 -8 3 -5 6 6 6 11 1 17 -2 13 -5z m-98 -18 c-2
-2 -17 -6 -34 -10 -22 -5 -26 -4 -15 4 14 9 59 15 49 6z m58 -12 c-3 -3 -12
-4 -19 -1 -8 3 -5 6 6 6 11 1 17 -2 13 -5z m-152 -42 l-28 -27 23 33 c12 18
25 31 28 27 3 -3 -7 -18 -23 -33z m102 32 c-3 -3 -12 -4 -19 -1 -8 3 -5 6 6 6
11 1 17 -2 13 -5z m456 -11 c-7 -2 -19 -2 -25 0 -7 3 -2 5 12 5 14 0 19 -2 13
-5z m776 -197 c39 -104 70 -191 67 -193 -2 -2 -34 79 -71 179 -80 215 -80 215
-72 208 3 -3 38 -90 76 -194z m-1276 169 c-3 -9 -8 -14 -10 -11 -3 3 -2 9 2
15 9 16 15 13 8 -4z m44 -31 c11 -10 9 -12 -12 -10 -16 0 -23 6 -20 14 3 8 5
19 6 25 0 7 3 5 6 -3 3 -8 12 -20 20 -26z m-147 -74 c0 -5 -2 -10 -4 -10 -3 0
-8 5 -11 10 -3 6 -1 10 4 10 6 0 11 -4 11 -10z m-174 -34 c-32 -30 -35 -37
-32 -78 2 -27 12 -59 25 -77 18 -25 30 -31 64 -33 l42 -1 -38 -4 c-48 -5 -84
17 -103 62 -24 57 -18 93 20 131 19 19 39 34 46 34 6 0 -5 -15 -24 -34z m401
-28 c-3 -8 -6 -5 -6 6 -1 11 2 17 5 13 3 -3 4 -12 1 -19z m-11 -25 c-7 -7 -26
7 -26 19 0 6 6 6 15 -2 9 -7 13 -15 11 -17z m-41 7 c3 -5 1 -10 -4 -10 -6 0
-11 5 -11 10 0 6 2 10 4 10 3 0 8 -4 11 -10z m-307 -39 c2 -6 -3 -11 -12 -11
-19 0 -22 -36 -3 -43 6 -2 9 -8 5 -12 -13 -14 -48 27 -48 56 0 24 3 27 27 25
15 -2 29 -8 31 -15z m142 -55 c8 -3 5 -4 -8 -2 -19 4 -22 1 -17 -17 5 -20 5
-20 -5 -4 -12 19 -4 60 8 41 4 -6 14 -14 22 -18z m-120 4 c0 -5 -4 -10 -10
-10 -5 0 -10 5 -10 10 0 6 5 10 10 10 6 0 10 -4 10 -10z m3200 -70 c0 -5 -12
-10 -27 -10 -16 0 -46 -2 -68 -5 l-40 -5 45 14 c56 17 90 19 90 6z m218 -8 c3
-9 -2 -13 -14 -10 -9 1 -19 9 -22 16 -3 9 2 13 14 10 9 -1 19 -9 22 -16z
m-383 -12 c3 -5 -13 -13 -37 -17 l-43 -8 45 -5 c25 -3 77 0 115 7 39 7 94 12
124 12 l54 1 -6 -42 c-4 -26 -15 -50 -31 -65 -23 -21 -30 -23 -59 -14 -57 18
-80 20 -260 26 -97 3 -210 10 -249 15 -40 6 -92 11 -114 12 -23 0 -47 4 -54 8
-12 7 15 11 88 12 12 0 22 5 22 11 0 6 3 7 7 4 3 -4 14 0 24 9 12 11 42 18 91
20 40 3 109 8 153 13 117 12 123 12 130 1z m345 1 c0 -17 -14 -18 -50 -5 l-35
13 43 0 c23 1 42 -3 42 -8z m-3010 -51 c0 -5 -4 -10 -10 -10 -5 0 -10 5 -10
10 0 6 5 10 10 10 6 0 10 -4 10 -10z m-157 -37 c-7 -2 -19 -2 -25 0 -7 3 -2 5
12 5 14 0 19 -2 13 -5z m3277 2 c0 -8 -95 -105 -103 -105 -16 0 -4 19 39 63
41 42 64 57 64 42z m-1757 -92 c-18 -2 -48 -2 -65 0 -18 2 -4 4 32 4 36 0 50
-2 33 -4z m104 -9 c-3 -3 -12 -4 -19 -1 -8 3 -5 6 6 6 11 1 17 -2 13 -5z m40
-10 c-3 -3 -12 -4 -19 -1 -8 3 -5 6 6 6 11 1 17 -2 13 -5z m50 -10 c-3 -3 -12
-4 -19 -1 -8 3 -5 6 6 6 11 1 17 -2 13 -5z m-1497 -8 c0 -3 -4 -8 -10 -11 -5
-3 -10 -1 -10 4 0 6 5 11 10 11 6 0 10 -2 10 -4z m1547 -2 c-3 -3 -12 -4 -19
-1 -8 3 -5 6 6 6 11 1 17 -2 13 -5z m-222 -15 c11 -16 -2 -22 -32 -15 -21 6
-24 9 -12 17 19 12 36 11 44 -2z m340 -4 l60 -14 -53 5 c-61 7 -120 22 -87 23
11 0 47 -6 80 -14z m108 -22 c-7 -2 -21 -2 -30 0 -10 3 -4 5 12 5 17 0 24 -2
18 -5z m-1958 -13 c-3 -5 -10 -10 -16 -10 -5 0 -9 5 -9 10 0 6 7 10 16 10 8 0
12 -4 9 -10z m2008 3 c-7 -2 -19 -2 -25 0 -7 3 -2 5 12 5 14 0 19 -2 13 -5z
m354 -59 c-3 -3 -12 -4 -19 -1 -8 3 -5 6 6 6 11 1 17 -2 13 -5z m66 -11 c-7
-2 -19 -2 -25 0 -7 3 -2 5 12 5 14 0 19 -2 13 -5z m234 -39 c-3 -3 -12 -4 -19
-1 -8 3 -5 6 6 6 11 1 17 -2 13 -5z m-1897 -34 c-34 -11 -60 -11 -35 0 11 5
29 8 40 8 16 0 15 -2 -5 -8z m2187 -16 c-3 -3 -12 -4 -19 -1 -8 3 -5 6 6 6 11
1 17 -2 13 -5z m116 -21 c-7 -2 -19 -2 -25 0 -7 3 -2 5 12 5 14 0 19 -2 13 -5z
m60 -10 c-7 -2 -21 -2 -30 0 -10 3 -4 5 12 5 17 0 24 -2 18 -5z m60 -10 c-7
-2 -21 -2 -30 0 -10 3 -4 5 12 5 17 0 24 -2 18 -5z m75 -10 c-10 -2 -26 -2
-35 0 -10 3 -2 5 17 5 19 0 27 -2 18 -5z m65 -10 c-7 -2 -21 -2 -30 0 -10 3
-4 5 12 5 17 0 24 -2 18 -5z m60 -10 c-7 -2 -21 -2 -30 0 -10 3 -4 5 12 5 17
0 24 -2 18 -5z m161 -64 c31 -12 54 -24 52 -26 -8 -9 -116 20 -127 34 -17 20
9 17 75 -8z m-627 -79 c163 -28 235 -45 258 -58 23 -14 37 -16 -160 24 -269
56 -311 70 -98 34z m-147 -85 c52 -14 129 -32 171 -40 42 -8 89 -19 104 -25
14 -5 40 -10 56 -10 40 0 36 -14 -8 -33 -145 -62 -622 -241 -1028 -386 -44
-16 -127 -49 -185 -74 -58 -25 -118 -49 -135 -52 -16 -4 -48 -18 -70 -30 -22
-13 -80 -36 -130 -53 -49 -17 -126 -46 -170 -65 -44 -19 -102 -43 -128 -52
l-49 -18 -21 26 c-15 17 -36 27 -67 32 -99 14 -367 82 -374 94 -2 3 19 6 47 7
52 1 171 27 282 63 33 11 92 25 130 32 39 7 74 16 80 21 5 4 18 8 30 8 12 0
25 4 30 9 9 8 65 26 163 51 19 4 42 16 52 25 10 9 45 25 77 35 32 10 83 29
114 44 83 37 137 54 199 58 30 2 109 21 175 42 323 100 466 150 535 184 63 31
75 41 75 62 0 21 -8 27 -48 40 -27 9 -45 19 -41 23 12 11 33 8 134 -18z m1030
-14 c0 -40 -18 -49 -30 -16 -11 30 -6 45 16 45 9 0 14 -10 14 -29z m-312 -63
c11 -14 5 -65 -9 -74 -13 -7 -31 45 -24 67 7 22 18 24 33 7z m-1051 -395 c4
-11 -26 -27 -35 -19 -2 3 -2 12 2 21 6 18 27 16 33 -2z"/>
<path d="M15150 9550 c0 -5 5 -10 11 -10 5 0 7 5 4 10 -3 6 -8 10 -11 10 -2 0
-4 -4 -4 -10z"/>
<path d="M15302 9513 c-16 -30 -22 -72 -13 -77 13 -9 28 15 36 57 8 39 -7 52
-23 20z"/>
<path d="M14170 9430 c-9 -17 -8 -26 5 -46 17 -27 41 -30 69 -9 15 11 16 19 9
42 -13 37 -66 46 -83 13z"/>
<path d="M14674 9415 c-11 -29 2 -33 31 -9 l30 24 -28 0 c-15 0 -30 -7 -33
-15z"/>
<path d="M14352 8514 c-15 -10 -22 -25 -22 -48 0 -27 10 -42 51 -81 49 -46 50
-47 19 -40 -30 7 -31 6 -21 -13 6 -12 23 -22 38 -24 27 -3 33 -13 51 -91 10
-40 26 -34 32 10 4 30 10 39 28 41 20 3 23 8 17 30 -8 32 -25 53 -25 32 0 -8
-9 0 -20 18 -11 18 -31 37 -44 43 -32 15 -53 88 -30 106 14 10 13 13 -5 22
-27 15 -43 14 -69 -5z"/>
<path d="M14570 8416 c0 -8 9 -36 21 -63 17 -39 20 -58 14 -103 -17 -123 1
-180 55 -180 38 0 50 104 20 179 -11 29 -20 67 -20 86 0 25 -8 42 -32 64 -35
33 -58 40 -58 17z"/>
<path d="M15140 8170 c-8 -5 -12 -12 -9 -15 8 -8 39 5 39 16 0 11 -11 11 -30
-1z"/>
<path d="M14556 8103 c-11 -11 -6 -23 9 -23 8 0 15 4 15 9 0 13 -16 22 -24 14z"/>
<path d="M11935 3450 c3 -5 15 -10 26 -10 10 0 19 5 19 10 0 6 -12 10 -26 10
-14 0 -23 -4 -19 -10z"/>
<path d="M13264 3475 c-9 -23 0 -28 36 -20 37 8 35 29 -3 33 -18 2 -29 -2 -33
-13z"/>
<path d="M11467 3343 c-4 -3 -7 -15 -7 -25 0 -14 8 -18 35 -18 33 0 34 1 23
25 -11 24 -37 33 -51 18z"/>
<path d="M11665 3231 c-7 -12 12 -24 25 -16 11 7 4 25 -10 25 -5 0 -11 -4 -15
-9z"/>
<path d="M13397 3033 c-13 -12 -7 -43 8 -43 16 0 38 34 28 44 -8 8 -28 8 -36
-1z"/>
<path d="M13490 3035 c0 -13 50 -55 66 -55 22 0 11 24 -12 29 -10 1 -27 10
-36 19 -10 8 -18 12 -18 7z"/>
<path d="M13785 3001 c-3 -5 -1 -12 5 -16 5 -3 10 1 10 9 0 18 -6 21 -15 7z"/>
<path d="M13777 2932 c-3 -4 -3 -20 1 -37 4 -26 6 -27 13 -10 11 28 11 55 0
55 -6 0 -12 -3 -14 -8z"/>
<path d="M13490 2906 c0 -13 11 -16 57 -16 68 0 62 16 -10 26 -39 6 -47 4 -47
-10z"/>
<path d="M13650 2877 c0 -15 7 -18 48 -15 34 2 47 7 47 18 0 11 -12 15 -47 15
-40 1 -48 -3 -48 -18z"/>
<path d="M13430 2591 c0 -18 94 -29 104 -12 3 5 -4 11 -17 15 -33 9 -87 7 -87
-3z"/>
<path d="M12680 2954 c0 -8 5 -12 10 -9 6 3 10 10 10 16 0 5 -4 9 -10 9 -5 0
-10 -7 -10 -16z"/>
<path d="M12654 2864 c-9 -34 10 -53 25 -26 11 21 5 52 -10 52 -5 0 -12 -12
-15 -26z"/>
<path d="M12756 2863 c-3 -3 -6 -9 -6 -13 0 -10 72 -19 104 -13 44 9 29 23
-22 22 -27 -1 -54 1 -59 4 -6 4 -13 4 -17 0z"/>
<path d="M10886 9018 c-9 -130 -16 -166 -32 -182 -15 -16 -18 -147 -30 -1276
-8 -795 -15 -1240 -21 -1358 -6 -124 5 -162 47 -162 43 0 68 -48 49 -96 -6
-16 -5 -40 3 -69 11 -39 10 -46 -7 -65 -35 -39 -55 -18 -55 63 0 41 -13 48
-31 15 -10 -19 -18 -277 -11 -388 1 -19 -1 -87 -4 -150 -3 -63 -7 -270 -9
-459 -3 -215 -8 -356 -15 -377 -18 -55 -11 -67 26 -44 30 19 31 22 21 60 -9
33 -8 43 4 56 21 21 75 21 97 1 22 -20 46 -22 61 -4 8 10 9 342 4 1208 -3 657
-7 1408 -8 1669 -2 384 -6 623 -16 895 0 6 2 75 6 155 13 340 12 423 -7 456
-18 31 -26 55 -32 100 -4 25 -14 44 -26 44 -4 0 -11 -42 -14 -92z m-29 -3330
c-3 -8 -6 -5 -6 6 -1 11 2 17 5 13 3 -3 4 -12 1 -19z"/>
<path d="M10060 5365 c1 -26 2 -28 11 -12 8 14 8 22 0 30 -8 8 -11 3 -11 -18z"/>
<path d="M10060 5298 c0 -20 -5 -40 -11 -43 -6 -5 -8 -26 -4 -59 6 -49 5 -54
-20 -75 -15 -11 -34 -21 -41 -21 -7 0 -16 -5 -20 -12 -4 -6 -3 -8 4 -4 5 3 24
-6 42 -20 33 -29 55 -23 48 12 -2 11 7 30 24 47 15 15 28 33 28 40 0 7 14 18
31 26 20 9 27 16 19 21 -8 5 -9 10 -2 14 11 7 4 46 -8 46 -5 0 -11 -6 -13 -12
-3 -8 -6 -5 -6 5 -1 10 -5 16 -9 13 -12 -7 -11 26 1 42 14 18 1 15 -19 -5 -15
-16 -17 -16 -30 2 -13 17 -14 16 -14 -17z"/>
<path d="M10135 5310 c-3 -5 -1 -10 5 -10 6 0 9 -4 6 -8 -3 -5 1 -9 9 -9 10 0
11 5 4 19 -11 21 -15 22 -24 8z"/>
<path d="M10349 5243 c-5 -41 -1 -63 11 -63 13 0 13 40 0 60 -7 10 -10 11 -11
3z"/>
<path d="M9970 4933 c-30 -2 -61 -6 -69 -8 -22 -9 33 -45 68 -45 24 0 36 -7
51 -32 10 -17 16 -36 13 -41 -3 -6 -1 -7 5 -3 6 4 9 13 5 21 -3 8 0 15 6 15 7
0 7 8 1 26 -6 14 -10 36 -10 50 0 13 -3 23 -7 22 -5 -1 -33 -3 -63 -5z"/>
<path d="M10013 4776 c-6 -7 -44 -21 -85 -31 -40 -10 -76 -20 -79 -24 -4 -3
-2 -17 3 -31 6 -14 11 -48 11 -77 1 -28 5 -49 9 -47 13 8 9 -21 -4 -35 -10
-11 -10 -13 0 -7 6 4 12 2 12 -3 0 -6 -5 -11 -10 -11 -7 0 -7 -6 0 -19 13 -25
13 -44 0 -36 -5 3 -10 2 -10 -4 0 -10 19 -26 32 -26 4 0 18 -9 30 -20 13 -11
35 -25 51 -32 19 -9 27 -19 27 -38 0 -17 -4 -24 -12 -19 -7 4 -8 3 -4 -4 4 -7
15 -12 26 -12 20 0 25 50 34 348 4 143 0 163 -31 128z"/>
<path d="M10768 4073 c-35 -22 -42 -42 -23 -63 8 -9 15 -24 15 -33 0 -20 10
-22 33 -4 9 7 19 34 23 65 7 58 -1 64 -48 35z"/>
<path d="M10081 3612 c-6 -11 -8 -22 -5 -25 10 -9 34 4 34 18 0 23 -18 27 -29
7z"/>
<path d="M10665 3511 c-6 -11 9 -23 19 -14 9 9 7 23 -3 23 -6 0 -12 -4 -16 -9z"/>
<path d="M10914 3508 c-3 -4 1 -8 9 -8 8 0 20 -7 27 -15 15 -18 60 -20 60 -2
0 14 -88 38 -96 25z"/>
<path d="M10205 3500 c-3 -5 -1 -10 4 -10 6 0 11 -7 11 -15 0 -8 7 -15 16 -15
13 0 14 -3 5 -14 -10 -12 -8 -13 8 -9 12 3 21 1 21 -6 0 -6 6 -11 14 -11 7 0
20 -9 27 -20 11 -15 18 -17 29 -10 13 9 10 14 -15 36 -61 51 -114 84 -120 74z"/>
<path d="M10530 3457 c-31 -25 -110 -117 -110 -127 0 -6 11 -5 29 5 33 17 81
74 81 96 0 8 5 20 12 27 16 16 7 15 -12 -1z"/>
<path d="M10811 3401 c-28 -18 -1 -32 30 -16 16 9 29 18 29 20 0 8 -44 5 -59
-4z"/>
<path d="M10267 3328 c-49 -61 -62 -88 -43 -88 13 0 12 -6 -5 -39 -24 -47 -44
-66 -53 -52 -4 6 -13 8 -20 5 -8 -3 -17 -1 -21 5 -8 14 -52 14 -60 1 -3 -5
-16 -10 -28 -10 -16 0 -18 -3 -9 -9 11 -6 10 -10 -3 -15 -10 -4 -15 -12 -11
-22 3 -8 2 -13 -3 -10 -5 3 -12 -2 -15 -11 -6 -14 -9 -15 -15 -4 -10 15 -32
-62 -30 -106 1 -24 2 -22 10 12 5 22 15 44 21 50 8 7 9 5 4 -8 -3 -10 -9 -43
-12 -73 -5 -36 -11 -53 -18 -51 -8 3 -13 -8 -14 -29 -3 -33 11 -47 21 -21 3 6
6 0 6 -15 1 -17 -5 -28 -16 -32 -10 -3 2 -3 27 0 25 4 70 9 100 13 l55 6 12
63 c7 34 20 76 28 92 8 16 15 47 15 69 0 62 32 124 81 157 29 20 46 41 55 68
13 36 13 38 -6 33 -11 -3 -23 -1 -26 4 -3 5 0 9 6 9 14 0 40 25 40 39 0 26
-41 8 -73 -31z"/>
<path d="M10682 3298 c-62 -24 -149 -98 -138 -116 13 -22 71 -11 150 28 58 28
75 41 63 46 -21 8 -22 22 0 46 15 17 15 18 -3 17 -10 0 -43 -10 -72 -21z"/>
<path d="M10185 3210 c-3 -5 -1 -10 4 -10 6 0 11 5 11 10 0 6 -2 10 -4 10 -3
0 -8 -4 -11 -10z"/>
<path d="M10512 3087 c-24 -25 -28 -37 -12 -37 11 0 45 48 38 55 -2 3 -14 -5
-26 -18z"/>
<path d="M11523 1363 c-13 -2 -23 -7 -23 -9 0 -10 29 -34 40 -34 7 0 10 -7 6
-15 -6 -16 4 -17 43 -6 23 6 22 8 -17 19 -48 15 -56 32 -14 32 21 0 24 2 12
10 -8 5 -17 9 -20 8 -3 0 -15 -3 -27 -5z"/>
<path d="M11460 1340 c0 -6 -16 -10 -35 -10 -42 0 -44 -8 -10 -40 14 -13 25
-29 25 -37 0 -7 9 -13 20 -13 27 0 25 -16 -2 -25 -23 -8 -23 -8 2 -12 14 -3
29 -9 35 -14 12 -12 86 -11 104 0 10 6 1 8 -26 4 -40 -5 -83 9 -83 27 0 6 12
10 28 10 25 1 24 2 -11 15 -52 18 -53 21 -15 31 33 8 32 8 -14 12 -54 4 -63
17 -18 27 32 7 39 19 15 29 -8 3 -15 1 -15 -4z"/>
<path d="M11690 1340 c-35 -7 -35 -7 -5 -9 17 0 37 4 45 9 17 11 11 11 -40 0z"/>
<path d="M11328 1309 c-19 -7 -25 -15 -21 -26 5 -13 2 -15 -11 -10 -15 6 -17
3 -12 -17 8 -31 -22 -43 -65 -26 -29 12 -31 37 -1 25 8 -3 19 0 24 7 13 22 9
29 -11 18 -11 -5 -29 -10 -40 -10 -11 0 -23 -5 -27 -11 -13 -21 24 -41 85 -46
52 -5 61 -3 61 11 0 9 7 16 15 16 8 0 15 -7 15 -15 0 -8 -4 -15 -10 -15 -5 0
-10 -7 -10 -15 0 -18 -32 -20 -62 -4 -17 9 -24 8 -34 -6 -7 -10 -15 -22 -17
-28 -4 -13 -60 -12 -65 2 -6 18 -19 13 -51 -21 -29 -31 -29 -32 -10 -46 39
-27 -5 -43 -56 -20 -28 12 -33 28 -10 28 23 0 18 17 -7 24 -34 9 -38 8 -38
-10 0 -10 -5 -14 -15 -10 -9 3 -25 0 -35 -6 -16 -10 -23 -10 -37 5 -16 16 -16
17 0 17 9 0 17 5 17 11 0 7 -7 8 -17 4 -39 -16 -63 -16 -94 -1 -20 10 -36 13
-42 7 -5 -5 -4 -11 2 -15 20 -13 12 -43 -11 -48 -37 -7 -73 6 -72 26 1 11 -4
16 -15 14 -9 -2 -15 -11 -13 -21 2 -9 -2 -26 -8 -38 -10 -18 -18 -20 -48 -14
-21 3 -42 13 -49 22 -19 25 -33 7 -21 -27 11 -32 28 -40 28 -14 0 9 7 14 17
12 31 -6 24 -26 -22 -58 -50 -34 -81 -34 -70 0 5 14 2 20 -10 20 -9 0 -13 -5
-10 -11 8 -12 -22 -49 -39 -49 -6 0 -17 -9 -24 -20 -16 -26 -8 -26 18 0 24 24
91 27 110 5 18 -22 -16 -32 -39 -11 -23 21 -31 20 -31 -4 0 -13 7 -20 19 -20
29 0 36 -18 15 -41 -24 -27 -44 -24 -44 6 0 34 -22 32 -57 -5 -31 -33 -45 -37
-62 -16 -7 8 -21 12 -32 9 -15 -4 -22 0 -26 16 -7 27 -29 27 -36 1 -5 -21 -31
-27 -42 -10 -8 13 -25 13 -25 0 0 -5 7 -10 15 -10 8 0 20 -9 27 -20 10 -15 24
-20 55 -20 46 0 55 -14 26 -35 -16 -12 -14 -14 17 -27 30 -13 36 -12 51 3 9 9
19 25 21 35 4 25 36 30 45 8 3 -9 1 -25 -6 -35 -13 -23 -2 -25 25 -4 10 8 29
15 41 15 17 0 24 8 29 36 4 19 13 38 20 41 8 3 14 14 14 24 0 10 6 19 14 19 8
0 18 9 21 20 7 23 45 28 45 6 0 -8 -13 -26 -30 -39 -23 -20 -30 -34 -30 -62 0
-20 3 -35 8 -33 4 2 24 10 45 18 34 13 37 17 35 50 -3 29 1 36 18 38 18 3 23
-4 28 -32 7 -38 20 -44 49 -21 11 7 26 11 35 8 11 -5 14 -2 9 10 -3 9 -3 17 2
17 4 0 6 11 4 24 -7 35 25 43 37 10 6 -14 10 -30 10 -35 0 -12 47 -12 55 1 3
6 18 10 32 10 14 0 111 25 217 56 105 31 239 70 298 87 115 32 134 43 48 27
-29 -5 -64 -10 -79 -10 l-26 1 25 19 c14 11 32 27 41 35 17 16 59 21 59 6 0
-5 14 -11 31 -15 17 -3 28 -10 24 -16 -9 -15 4 -12 22 5 13 14 11 16 -16 21
-39 8 -39 19 -1 33 36 12 39 26 8 35 -40 10 -55 6 -29 -8 29 -16 18 -24 -43
-32 -29 -4 -51 -2 -60 5 -7 6 -21 9 -30 5 -11 -4 -16 -1 -16 10 0 10 9 16 23
17 20 1 20 2 2 6 -41 10 -61 43 -27 43 12 1 9 5 -11 16 -15 8 -25 20 -21 25 3
6 -3 13 -15 16 -30 8 -25 29 14 51 24 14 10 14 -27 1z m32 -148 c0 -31 -72
-42 -106 -16 -21 16 -16 18 32 15 18 -1 35 3 38 9 7 11 36 4 36 -8z m-123 -26
c8 -22 1 -26 -50 -31 -35 -4 -46 -2 -51 12 -6 14 -1 16 34 10 32 -5 40 -3 40
9 0 20 19 19 27 0z m156 -18 l26 -13 -36 -13 c-27 -10 -38 -10 -46 -1 -9 8 -7
15 7 26 24 17 18 17 49 1z m-278 -18 c-10 -15 -25 -10 -19 6 4 8 10 12 15 9 5
-3 7 -10 4 -15z m-297 -25 c-24 -24 -44 -7 -22 17 12 13 21 16 28 9 7 -7 5
-15 -6 -26z m480 25 c-10 -5 -18 -16 -18 -24 0 -17 -60 -39 -73 -26 -13 13 1
31 24 31 10 0 19 7 19 15 0 10 10 15 33 15 26 -1 29 -2 15 -11z m-388 -29 c0
-13 -20 -13 -40 0 -12 8 -9 10 13 10 15 0 27 -4 27 -10z m70 -4 c0 -8 -4 -17
-9 -21 -12 -7 -24 12 -16 25 9 15 25 12 25 -4z m200 4 c0 -6 -7 -13 -15 -16
-8 -4 -15 -12 -15 -19 0 -14 -46 -29 -61 -19 -10 6 28 47 53 57 22 9 38 8 38
-3z m-480 -14 c0 -8 -13 -23 -30 -33 -16 -9 -30 -21 -30 -25 0 -4 -7 -8 -15
-8 -8 0 -15 7 -15 15 0 8 8 15 17 15 9 0 14 3 10 6 -8 8 33 43 51 44 6 0 12
-6 12 -14z m61 -11 c-1 -15 -24 -12 -29 3 -3 9 2 13 12 10 10 -1 17 -7 17 -13z
m579 5 c0 -5 -4 -10 -9 -10 -6 0 -13 5 -16 10 -3 6 1 10 9 10 9 0 16 -4 16
-10z m-478 -15 c0 -5 -5 -11 -11 -13 -6 -2 -11 4 -11 13 0 9 5 15 11 13 6 -2
11 -8 11 -13z m181 9 c10 -10 -22 -51 -44 -57 -11 -3 -23 -15 -26 -26 -6 -22
-18 -27 -28 -12 -3 5 -1 12 5 16 5 3 10 15 10 27 0 15 5 19 20 15 12 -3 20 0
20 7 0 23 29 43 43 30z m-101 -16 c-9 -9 -15 -9 -24 0 -9 9 -7 12 12 12 19 0
21 -3 12 -12z m-120 -13 c0 -5 -5 -11 -11 -13 -6 -2 -11 4 -11 13 0 9 5 15 11
13 6 -2 11 -8 11 -13z m393 5 c3 -5 -1 -10 -9 -10 -9 0 -16 5 -16 10 0 6 4 10
9 10 6 0 13 -4 16 -10z m-457 -17 c2 -8 -5 -13 -17 -13 -21 0 -35 13 -24 24
10 10 36 3 41 -11z m-58 -24 c0 -5 -7 -9 -15 -9 -15 0 -20 12 -9 23 8 8 24 -1
24 -14z m392 6 c0 -5 -5 -11 -11 -13 -6 -2 -11 4 -11 13 0 9 5 15 11 13 6 -2
11 -8 11 -13z m-207 -15 c0 -8 -8 -16 -17 -18 -13 -2 -18 3 -18 18 0 15 5 20
18 18 9 -2 17 -10 17 -18z m-237 -14 c6 -6 -7 -26 -17 -26 -5 0 -19 9 -32 21
l-24 20 34 -5 c19 -4 36 -8 39 -10z m-92 -7 c8 -14 -11 -33 -25 -25 -11 7 -4
36 9 36 5 0 12 -5 16 -11z m165 -32 c-8 -8 -14 -7 -23 2 -11 10 -9 15 7 27 18
13 20 13 23 -2 2 -9 -1 -21 -7 -27z m114 23 c3 -5 -1 -10 -9 -10 -9 0 -16 5
-16 10 0 6 4 10 9 10 6 0 13 -4 16 -10z m95 0 c0 -5 -4 -10 -10 -10 -5 0 -10
5 -10 10 0 6 5 10 10 10 6 0 10 -4 10 -10z m-245 -40 c3 -5 -1 -10 -9 -10 -9
0 -16 5 -16 10 0 6 4 10 9 10 6 0 13 -4 16 -10z"/>
<path d="M11648 1313 c7 -3 16 -2 19 1 4 3 -2 6 -13 5 -11 0 -14 -3 -6 -6z"/>
<path d="M11693 1307 c17 -14 17 -15 0 -22 -15 -6 -14 -9 10 -17 15 -5 27 -14
27 -19 0 -5 9 -9 20 -9 32 0 190 42 190 50 0 4 -36 -3 -80 -15 -63 -19 -86
-22 -115 -14 -42 12 -37 29 8 30 29 1 28 2 -11 10 -23 4 -48 11 -55 14 -6 4
-4 0 6 -8z"/>
<path d="M11810 1310 c-21 -7 -21 -8 -5 -9 11 0 27 4 35 9 18 11 5 11 -30 0z"/>
<path d="M9302 1257 c3 -25 31 -30 36 -6 2 10 -6 19 -18 22 -17 4 -21 1 -18
-16z"/>
<path d="M11580 1270 c0 -5 17 -10 38 -9 33 1 34 2 12 9 -36 11 -50 11 -50 0z"/>
<path d="M12025 1265 c-5 -2 -44 -14 -85 -26 l-75 -21 38 -17 c20 -8 37 -19
37 -23 0 -11 -66 -29 -83 -22 -10 4 -17 1 -17 -6 0 -16 71 -6 114 16 16 7 40
14 54 14 13 0 38 6 55 14 18 8 49 17 69 21 21 3 40 11 44 16 4 8 -1 9 -17 3
-13 -4 -38 -8 -54 -8 -17 -1 -41 -9 -55 -19 -13 -9 -36 -17 -50 -17 -24 1 -24
1 -6 15 23 17 9 19 -30 5 -15 -6 -31 -7 -36 -2 -5 5 18 17 52 27 34 10 63 22
66 27 5 8 -3 9 -21 3z"/>
<path d="M11097 1229 c7 -7 15 -10 18 -7 3 3 -2 9 -12 12 -14 6 -15 5 -6 -5z"/>
<path d="M11047 1218 c18 -25 13 -57 -10 -61 -15 -3 -11 -5 11 -6 26 -1 32 3
30 17 -2 13 4 17 27 15 l30 -1 -32 14 c-17 7 -34 18 -38 24 -3 5 -11 10 -17
10 -7 0 -7 -4 -1 -12z"/>
<path d="M11616 1216 c4 -11 13 -14 33 -10 34 9 39 14 13 14 -11 0 -28 3 -36
6 -12 5 -15 2 -10 -10z"/>
<path d="M11755 1220 c-3 -5 1 -10 9 -10 29 0 17 -16 -20 -28 -29 -9 -44 -8
-70 3 -19 8 -34 10 -34 4 0 -5 7 -9 16 -9 23 0 11 -24 -14 -28 -12 -2 -22 -8
-22 -14 0 -5 7 -8 14 -5 8 3 30 -1 48 -10 l32 -17 -43 -14 c-23 -8 -40 -16
-38 -19 8 -7 87 19 87 29 0 4 15 9 33 9 27 1 24 3 -20 13 -55 12 -75 23 -52
30 8 2 34 9 59 17 25 7 49 16 55 21 5 4 23 8 40 9 26 1 24 2 -13 10 -23 4 -46
11 -51 14 -5 3 -12 1 -16 -5z"/>
<path d="M10992 1209 c2 -6 8 -10 13 -10 5 0 11 4 13 10 2 6 -4 11 -13 11 -9
0 -15 -5 -13 -11z"/>
<path d="M11173 1195 c0 -8 4 -15 9 -15 4 0 8 7 8 15 0 8 -4 15 -8 15 -5 0 -9
-7 -9 -15z"/>
<path d="M10891 1184 c-7 -8 -10 -18 -6 -22 3 -3 9 -2 13 4 4 6 16 16 27 22
l20 11 -20 0 c-11 0 -26 -7 -34 -15z"/>
<path d="M10940 1170 c0 -11 48 -25 57 -16 9 8 3 12 -29 20 -17 4 -28 2 -28
-4z"/>
<path d="M10810 1155 c0 -8 5 -15 10 -15 6 0 10 7 10 15 0 8 -4 15 -10 15 -5
0 -10 -7 -10 -15z"/>
<path d="M11455 1160 l-20 -9 20 0 c11 0 27 4 35 9 13 9 13 10 0 9 -8 0 -24
-4 -35 -9z"/>
<path d="M10697 1134 c-4 -4 -7 -14 -7 -23 0 -11 3 -12 11 -4 6 6 10 16 7 23
-2 6 -7 8 -11 4z"/>
<path d="M10565 1080 c3 -5 8 -10 11 -10 2 0 4 5 4 10 0 6 -5 10 -11 10 -5 0
-7 -4 -4 -10z"/>
<path d="M10380 1015 c0 -9 5 -15 11 -13 6 2 11 8 11 13 0 5 -5 11 -11 13 -6
2 -11 -4 -11 -13z"/>
<path d="M10245 965 c0 -14 3 -25 6 -25 10 0 20 31 13 41 -10 17 -19 9 -19
-16z"/>
<path d="M10307 936 c-4 -10 -1 -13 9 -9 15 6 19 23 5 23 -5 0 -11 -7 -14 -14z"/>
<path d="M10177 916 c-4 -10 -5 -21 -2 -24 9 -9 17 6 13 25 -3 17 -4 17 -11
-1z"/>
<path d="M9950 490 c-20 -13 48 -41 115 -48 l50 -5 -25 20 c-52 40 -108 53
-140 33z"/>
<path d="M10126 432 c-11 -18 35 -61 83 -77 119 -39 215 -111 189 -142 -9 -11
-26 -13 -73 -8 -48 6 -64 4 -74 -8 -10 -13 -8 -18 18 -31 32 -17 300 -88 312
-84 9 3 -80 126 -121 169 -14 14 -47 39 -75 54 -27 16 -62 39 -77 51 -51 41
-172 92 -182 76z"/>
<path d="M10082 123 c2 -13 -20 -61 -31 -68 -8 -4 -8 -12 -1 -25 7 -13 6 -20
-3 -23 -6 -3 137 -5 318 -5 302 0 327 1 295 15 -20 8 -51 13 -75 10 -27 -3
-79 7 -158 30 -225 64 -350 88 -345 66z"/>
<path d="M10783 78 c-30 -15 -29 -34 2 -54 22 -14 31 -15 70 -4 82 23 79 53
-5 64 -25 3 -55 1 -67 -6z"/>
</g>
</svg>
