<?xml version="1.0" standalone="no"?>
<!DOCTYPE svg PUBLIC "-//W3C//DTD SVG 20010904//EN"
 "http://www.w3.org/TR/2001/REC-SVG-20010904/DTD/svg10.dtd">
<svg version="1.0" xmlns="http://www.w3.org/2000/svg"
 width="1536.000000pt" height="1024.000000pt" viewBox="0 0 1536.000000 1024.000000"
 preserveAspectRatio="xMidYMid meet">

<g transform="translate(0.000000,1024.000000) scale(0.100000,-0.100000)"
fill="#000000" stroke="none">
<path d="M12370 7795 c27 -14 36 -13 25 4 -3 6 -16 11 -28 11 -21 -1 -21 -1 3
-15z"/>
<path d="M12224 7780 c16 -5 34 -6 39 -3 6 4 7 1 3 -6 -5 -7 -14 -10 -22 -7
-20 8 -74 -4 -74 -16 0 -6 12 -7 28 -3 21 5 24 4 15 -6 -6 -6 -22 -13 -35 -14
-13 -2 -39 -10 -58 -18 -19 -8 -44 -17 -55 -21 -13 -5 -16 -9 -7 -15 8 -4 -14
-26 -62 -60 -41 -30 -72 -59 -70 -65 3 -7 -12 -20 -32 -29 -22 -11 -34 -23
-31 -31 3 -7 -3 -19 -14 -26 -15 -11 -16 -17 -6 -29 10 -12 9 -13 -2 -6 -10 6
-12 4 -6 -4 4 -7 18 -11 32 -8 22 4 23 3 10 -11 -9 -8 -24 -15 -34 -16 -41 -4
-98 -46 -62 -46 8 0 8 -5 -1 -15 -7 -8 -8 -15 -2 -15 14 0 33 26 25 34 -4 4 1
4 11 0 17 -6 15 -10 -15 -35 -19 -16 -37 -29 -40 -29 -4 0 -9 -9 -12 -21 -5
-17 -3 -18 9 -8 8 6 17 9 20 7 3 -3 -7 -16 -23 -28 -16 -12 -29 -17 -31 -11
-5 14 -34 14 -69 -1 -39 -17 -38 -16 -18 -38 18 -19 17 -20 -3 -20 -12 0 -22
-4 -22 -10 0 -5 5 -10 10 -10 6 0 10 -9 10 -20 0 -14 7 -20 21 -20 19 0 20 -2
8 -17 -8 -9 -9 -14 -3 -10 6 3 21 -3 33 -14 26 -24 24 -26 39 26 13 48 67 135
82 135 14 0 40 -25 40 -38 0 -20 41 -105 47 -99 9 10 32 -25 33 -50 0 -13 4
-23 9 -23 5 0 24 -12 41 -26 17 -15 34 -24 37 -20 4 3 0 12 -9 19 -17 14 -58
80 -58 93 0 5 11 -4 25 -20 14 -16 35 -34 48 -40 12 -7 23 -17 23 -24 3 -29 4
-32 13 -32 12 0 9 33 -4 42 -5 4 -7 10 -3 13 3 3 20 -8 37 -26 18 -17 25 -29
17 -26 -8 3 -17 -1 -20 -9 -9 -22 -9 -22 27 -40 20 -10 27 -11 20 -3 -17 17
-16 28 1 25 38 -5 75 -98 45 -108 -18 -6 0 -50 18 -46 11 2 16 17 17 53 1 28
6 57 11 65 5 9 4 11 -4 6 -13 -8 -37 8 -51 34 -6 12 -5 17 6 17 7 0 12 -3 9
-5 -3 -3 4 -11 14 -19 29 -20 51 -6 51 32 0 81 52 127 120 106 20 -6 45 -20
55 -31 10 -11 29 -20 42 -20 13 0 37 -7 53 -15 16 -8 35 -12 43 -9 8 3 18 1
22 -5 3 -6 11 -11 16 -11 6 0 7 5 4 10 -3 6 1 10 9 10 9 0 16 -7 16 -15 0 -8
-5 -15 -11 -15 -5 0 -7 -5 -4 -10 4 -6 10 -8 15 -5 5 3 12 -10 15 -29 5 -24
11 -33 21 -29 8 3 14 0 14 -6 0 -6 4 -11 10 -11 5 0 9 3 9 8 -3 19 2 33 11 27
6 -3 7 -17 4 -31 -4 -15 -2 -24 6 -24 6 0 8 -5 4 -12 -5 -8 0 -7 11 2 17 14
18 13 13 -18 -2 -17 -1 -32 4 -32 4 0 8 5 8 10 0 6 5 10 11 10 5 0 7 -6 3 -12
-6 -10 -4 -10 7 0 17 16 32 15 26 -2 -4 -10 0 -12 14 -9 11 3 19 0 19 -6 0 -9
5 -9 20 -1 17 9 20 8 20 -12 1 -21 2 -21 11 -5 5 9 21 29 35 44 13 14 22 28
20 31 -3 2 2 11 10 19 8 8 11 20 7 26 -3 7 -3 9 2 5 4 -4 14 0 22 10 13 16 14
15 10 -6 -3 -12 -1 -20 4 -16 8 5 13 -9 10 -28 -1 -8 15 -12 33 -9 5 1 6 -4 3
-12 -3 -8 8 -34 24 -58 16 -24 29 -39 29 -33 0 18 -26 75 -31 69 -3 -2 -6 12
-6 31 -1 33 0 34 17 19 17 -15 18 -15 17 7 0 13 4 32 8 42 6 14 5 17 -3 12 -8
-5 -12 1 -11 16 0 13 3 17 6 11 2 -7 8 -13 12 -13 9 0 6 59 -4 83 -4 9 -5 24
-1 32 4 13 2 14 -14 5 -17 -9 -20 -8 -19 12 1 13 -2 31 -6 41 -6 13 -4 16 9
11 9 -3 16 -14 16 -23 0 -14 2 -14 10 -1 13 19 13 31 0 27 -6 -1 -16 9 -23 23
-8 14 -19 24 -25 23 -7 -2 -12 6 -12 16 0 14 6 19 20 16 11 -2 20 1 20 6 0 5
-9 27 -20 49 -23 45 -25 54 -8 44 7 -4 8 -3 4 5 -4 6 -12 9 -17 6 -8 -6 -13 8
-10 27 0 4 -6 5 -14 2 -8 -4 -15 -1 -15 6 0 6 -5 8 -12 4 -6 -4 -8 -3 -4 4 3
6 2 13 -3 16 -8 6 -27 82 -23 97 1 4 -26 34 -60 67 -39 40 -58 67 -55 76 4 9
1 15 -5 13 -7 -1 -12 4 -13 11 0 6 -3 12 -7 12 -5 0 -13 0 -20 0 -6 0 -2 -10
9 -22 42 -47 35 -51 -15 -9 -29 24 -52 47 -52 50 0 4 -14 12 -31 18 -33 13
-33 14 -15 -42 7 -19 6 -19 -6 -1 -37 52 -51 66 -70 66 -14 0 -18 -5 -15 -15
4 -8 2 -17 -3 -20 -6 -4 -10 -15 -10 -26 0 -17 21 -25 53 -20 4 0 7 -6 7 -14
0 -9 -6 -12 -17 -8 -11 4 -14 3 -9 -5 12 -19 -2 -14 -26 11 -17 16 -23 34 -23
66 0 40 -3 45 -28 54 -21 7 -32 6 -40 -3 -9 -10 -8 -12 4 -7 9 3 22 1 30 -4
11 -7 10 -9 -6 -10 -11 -1 -27 -2 -35 -3 -8 0 -19 5 -25 12 -7 9 -19 10 -43 3
-28 -9 -32 -8 -22 4 6 8 19 11 27 8 11 -4 14 -2 9 5 -4 7 -15 12 -25 12 -9 0
-21 4 -26 9 -14 14 -61 24 -135 27 -51 3 -59 1 -36 -6z m589 -220 c4 -17 3
-19 -9 -9 -8 6 -14 18 -14 26 0 20 16 8 23 -17z m-75 -5 c-3 -3 -9 2 -12 12
-6 14 -5 15 5 6 7 -7 10 -15 7 -18z m-808 -55 c-14 -11 -32 -19 -40 -19 -8 0
1 8 20 19 45 25 51 25 20 0z m0 -34 c0 -2 -12 -11 -27 -20 l-28 -17 24 20 c23
21 31 25 31 17z m1086 -178 c4 -7 3 -8 -4 -4 -17 11 -15 -20 3 -38 17 -16 20
-36 6 -36 -12 0 -34 67 -26 80 8 13 12 13 21 -2z m44 -59 c0 -6 -4 -7 -10 -4
-5 3 -10 11 -10 16 0 6 5 7 10 4 6 -3 10 -11 10 -16z m-1350 -23 c0 -8 -51
-13 -56 -5 -3 5 9 9 25 9 17 0 31 -2 31 -4z m1350 -58 c0 -7 -5 -20 -10 -28
-8 -12 -10 -9 -10 13 0 15 5 27 10 27 6 0 10 -6 10 -12z m-1016 -77 c-7 -9
-24 13 -24 32 0 21 1 21 13 -3 8 -14 12 -27 11 -29z m-24 -23 c0 -17 -10 -6
-25 25 l-16 32 20 -25 c11 -14 21 -28 21 -32z m216 15 c-7 -7 -26 7 -26 19 0
6 6 6 15 -2 9 -7 13 -15 11 -17z m-116 -13 c0 -5 -2 -10 -4 -10 -3 0 -8 5 -11
10 -3 6 -1 10 4 10 6 0 11 -4 11 -10z m70 -65 c0 -11 -14 7 -31 40 -7 13 -3
12 10 -5 11 -14 21 -29 21 -35z m-58 27 c-7 -2 -9 -9 -6 -14 4 -7 2 -8 -4 -4
-6 4 -9 13 -6 21 4 8 11 12 17 8 8 -5 7 -8 -1 -11z m548 -77 c0 -14 -4 -25
-10 -25 -5 0 -10 11 -10 25 0 14 5 25 10 25 6 0 10 -11 10 -25z m241 -112 c-8
-15 -10 -15 -11 -2 0 17 10 32 18 25 2 -3 -1 -13 -7 -23z"/>
<path d="M15230 7740 c0 -5 5 -10 10 -10 6 0 10 5 10 10 0 6 -4 10 -10 10 -5
0 -10 -4 -10 -10z"/>
<path d="M12750 7672 c0 -5 7 -13 16 -16 10 -4 14 -1 12 6 -5 15 -28 23 -28
10z"/>
<path d="M12890 7584 c0 -8 49 -54 57 -54 4 0 -6 14 -22 30 -30 31 -35 35 -35
24z"/>
<path d="M15290 7554 c0 -14 -4 -23 -10 -19 -6 4 -10 -6 -10 -24 0 -16 -4 -33
-10 -36 -14 -8 -12 -46 3 -70 14 -24 45 -25 78 -3 23 15 23 17 10 54 -8 22
-16 52 -18 68 -6 52 -43 78 -43 30z"/>
<path d="M12994 7398 c8 -18 19 -34 26 -36 8 -3 6 6 -4 26 -22 42 -38 50 -22
10z"/>
<path d="M13070 7301 c0 -14 27 -81 33 -81 5 0 -22 82 -29 89 -2 2 -4 -1 -4
-8z"/>
<path d="M14990 7022 c0 -5 8 -17 18 -28 9 -10 38 -48 64 -85 72 -101 102
-120 51 -31 -48 83 -133 175 -133 144z"/>
<path d="M12292 6998 c-7 -7 -8 -17 -1 -29 13 -25 46 -42 54 -29 3 5 -6 15
-20 22 -18 8 -22 14 -13 19 9 6 10 11 2 19 -7 7 -14 6 -22 -2z"/>
<path d="M11922 6978 c2 -6 10 -14 16 -16 7 -2 10 2 6 12 -7 18 -28 22 -22 4z"/>
<path d="M14764 6957 c3 -21 17 -37 31 -37 19 0 10 22 -14 37 -15 9 -19 9 -17
0z"/>
<path d="M12030 6951 c0 -5 6 -12 13 -14 8 -4 8 -6 -3 -6 -8 -1 3 -10 25 -21
51 -26 53 -25 24 6 -29 31 -59 49 -59 35z"/>
<path d="M12330 6905 c0 -19 61 -47 74 -35 12 12 -2 30 -24 30 -10 0 -22 5
-25 10 -9 15 -25 12 -25 -5z"/>
<path d="M14854 6910 c-27 -11 -55 -55 -48 -74 3 -9 17 -16 29 -16 14 0 33
-12 45 -27 27 -34 123 -59 141 -36 28 33 -19 123 -64 123 -12 0 -30 9 -40 20
-18 21 -30 23 -63 10z"/>
<path d="M14663 6855 c0 -9 4 -14 9 -13 5 2 10 8 10 13 0 5 -5 11 -10 13 -5 1
-9 -4 -9 -13z"/>
<path d="M12366 6832 c-3 -5 1 -27 7 -49 l12 -42 21 38 c11 20 18 43 16 49 -4
14 -48 16 -56 4z"/>
<path d="M12927 6778 c-15 -17 -26 -32 -23 -35 9 -10 56 30 56 48 0 23 1 24
-33 -13z"/>
<path d="M15320 6777 c-93 -42 -130 -56 -166 -66 -62 -16 -306 -136 -329 -161
-16 -18 -17 -23 -5 -31 8 -5 21 -7 28 -4 19 7 42 -6 42 -24 0 -21 -46 -67 -51
-52 -2 6 -16 12 -31 13 -16 1 -28 7 -28 13 0 5 -5 3 -10 -5 -9 -13 -10 -13
-10 0 0 13 -2 13 -9 0 -6 -8 -7 -18 -5 -22 3 -4 -1 -8 -9 -8 -30 0 -42 -32
-43 -117 -1 -47 -4 -86 -6 -88 -1 -2 -18 -6 -37 -8 -43 -7 -53 -24 -35 -59 12
-23 12 -40 4 -94 -6 -37 -17 -82 -25 -101 -20 -47 -19 -50 8 -25 l24 22 11
-25 c7 -14 12 -32 12 -39 0 -7 14 -34 31 -59 17 -26 32 -52 33 -59 10 -50 32
-110 54 -148 14 -25 54 -101 89 -170 34 -69 79 -153 100 -187 21 -34 73 -122
116 -195 124 -211 190 -309 223 -334 l31 -24 -2 31 c-2 32 14 79 28 79 4 0 7
441 7 980 0 539 -3 980 -7 979 -5 0 -19 -5 -33 -12z m-596 -712 c3 -9 0 -15
-10 -15 -9 0 -12 -5 -8 -12 4 -7 3 -10 -1 -5 -14 12 -13 47 1 47 6 0 14 -7 18
-15z"/>
<path d="M12503 6725 c-3 -9 -3 -18 -1 -21 3 -3 8 4 11 16 6 23 -1 27 -10 5z"/>
<path d="M11807 6653 c-14 -13 -6 -33 13 -33 11 0 20 4 20 9 0 13 -26 32 -33
24z"/>
<path d="M14613 6634 c-3 -8 -1 -20 6 -27 14 -14 47 15 37 32 -10 16 -36 13
-43 -5z"/>
<path d="M11905 6610 c-11 -21 -12 -28 -3 -25 16 6 40 55 27 55 -5 0 -15 -13
-24 -30z"/>
<path d="M14450 6499 c0 -12 29 -38 43 -39 5 0 7 10 5 23 -3 23 -48 39 -48 16z"/>
<path d="M13210 6439 c0 -5 5 -7 10 -4 6 3 10 1 10 -4 0 -6 5 -11 11 -11 8 0
8 5 -1 15 -14 17 -30 20 -30 4z"/>
<path d="M12420 6421 c0 -6 4 -13 10 -16 6 -3 7 1 4 9 -7 18 -14 21 -14 7z"/>
<path d="M12965 6364 c-73 -38 -192 -123 -244 -173 -25 -24 -37 -37 -26 -30
16 11 15 8 -4 -13 -13 -15 -27 -25 -31 -23 -9 5 -64 -52 -80 -84 -7 -13 -29
-42 -49 -65 -42 -46 -53 -91 -20 -83 10 3 19 0 19 -5 0 -6 8 -4 18 4 9 9 27
19 40 23 13 4 21 9 18 12 -3 3 8 18 24 33 17 16 30 32 30 37 0 14 172 168 189
168 12 1 66 40 79 57 7 10 18 16 23 13 5 -4 9 1 9 10 0 9 5 13 10 10 6 -3 10
1 10 9 0 9 3 16 8 17 13 1 76 9 94 12 34 6 28 15 -18 26 -28 7 -43 16 -38 21
11 11 59 14 92 7 25 -7 29 8 7 29 -8 9 -15 11 -15 6 0 -12 -82 -11 -91 1 -3 4
-27 -4 -54 -19z m-35 -40 c0 -11 -25 -29 -45 -32 -18 -2 -17 0 5 17 25 21 40
26 40 15z"/>
<path d="M12461 6371 c-11 -7 -11 -9 0 -13 17 -6 4 -38 -15 -38 -8 0 -27 12
-41 28 -21 21 -24 23 -19 7 4 -11 12 -26 18 -34 8 -11 8 -13 -2 -7 -7 4 -15 1
-18 -8 -3 -9 -14 -16 -24 -16 -11 0 -22 -5 -26 -11 -9 -16 -7 -70 3 -78 4 -3
15 -15 23 -25 12 -16 12 -18 1 -11 -11 6 -13 3 -9 -13 4 -14 -2 -30 -15 -44
-15 -17 -18 -18 -14 -5 4 11 1 17 -8 17 -8 0 -15 4 -15 9 0 22 -28 18 -39 -5
-7 -15 -7 -23 -1 -19 14 9 13 -1 -5 -36 -9 -17 -21 -27 -27 -23 -7 4 -8 3 -4
-4 12 -20 18 -54 21 -116 2 -73 18 -82 107 -65 56 11 63 16 133 93 68 74 75
85 74 121 -2 58 -13 101 -24 95 -6 -3 -11 10 -13 28 -2 19 -9 32 -17 32 -10 0
-13 10 -9 41 3 27 1 39 -6 34 -14 -9 -13 8 2 23 9 9 9 12 1 12 -7 0 -13 9 -15
20 -2 14 -7 17 -17 11z"/>
<path d="M12420 6363 c1 -18 18 -35 24 -24 4 6 2 11 -4 11 -6 0 -8 5 -5 10 3
6 1 10 -4 10 -6 0 -11 -3 -11 -7z"/>
<path d="M12336 6341 c-4 -6 0 -18 8 -27 12 -12 16 -12 16 -2 0 22 -17 42 -24
29z"/>
<path d="M13150 6278 c1 -18 29 -66 30 -50 0 7 -5 22 -10 33 -14 25 -2 24 27
-3 18 -16 23 -18 23 -6 0 8 -11 20 -25 26 -33 15 -45 15 -45 0z"/>
<path d="M13066 6271 c-3 -4 3 -19 14 -31 11 -13 20 -18 20 -12 0 16 27 15 33
0 4 -10 6 -10 6 -1 2 33 -58 69 -73 44z"/>
<path d="M11937 6263 c-13 -12 -7 -33 8 -33 8 0 15 5 15 10 0 6 10 15 23 20
20 8 20 9 -9 9 -17 1 -34 -2 -37 -6z"/>
<path d="M13041 6237 c-8 -11 -5 -16 14 -25 20 -9 23 -9 18 3 -3 8 -9 15 -15
15 -5 0 -6 5 -3 10 9 15 -1 12 -14 -3z"/>
<path d="M13009 6223 c-1 -5 -1 -11 0 -15 0 -4 -5 -5 -13 -2 -7 3 -21 -7 -30
-21 -17 -26 -17 -26 3 -15 13 6 21 7 21 1 0 -5 -9 -12 -19 -16 -29 -9 -131
-79 -176 -120 -36 -34 -37 -35 -8 -18 17 10 61 40 98 67 78 58 139 78 249 84
73 3 228 -9 305 -24 23 -5 32 -4 28 3 -13 20 64 -4 90 -29 23 -21 25 -21 22
-4 -11 57 -154 90 -364 83 -82 -2 -159 -8 -170 -12 -17 -7 -18 -6 -8 6 10 12
8 17 -8 27 -10 7 -20 9 -20 5z"/>
<path d="M12270 6212 c0 -5 11 -15 25 -22 14 -7 25 -17 25 -22 0 -4 5 -8 10
-8 18 0 10 29 -12 44 -24 17 -48 21 -48 8z"/>
<path d="M14321 6020 c11 -31 26 -46 36 -37 9 10 -8 47 -27 57 -18 9 -18 8 -9
-20z"/>
<path d="M12130 6036 c0 -2 7 -6 15 -10 8 -3 15 -1 15 4 0 6 -7 10 -15 10 -8
0 -15 -2 -15 -4z"/>
<path d="M14390 5905 c0 -11 71 -134 81 -141 5 -3 9 6 9 19 0 14 -7 27 -15 30
-8 4 -21 21 -28 39 -13 31 -47 69 -47 53z"/>
<path d="M12424 5841 c4 -5 0 -11 -6 -14 -7 -2 -10 -8 -6 -12 10 -10 40 14 32
26 -3 5 -10 9 -15 9 -6 0 -8 -4 -5 -9z"/>
<path d="M12615 5835 l-30 -15 35 6 c33 5 34 5 15 -9 -11 -8 -43 -22 -70 -30
-58 -18 -112 -44 -121 -59 -4 -5 4 -4 17 3 23 12 38 15 109 23 l34 4 -24 -19
c-14 -10 -31 -19 -37 -20 -52 -6 -234 -95 -241 -118 -3 -10 8 -6 34 10 32 19
27 12 -26 -38 -52 -49 -75 -81 -113 -156 -26 -52 -47 -100 -47 -107 0 -6 -5
-8 -12 -4 -7 4 -8 3 -4 -4 4 -7 -2 -42 -13 -79 -11 -38 -24 -88 -30 -113 -9
-39 -10 -34 -5 39 7 104 52 235 126 366 88 156 98 175 88 175 -18 0 -118 -140
-162 -227 -51 -98 -98 -227 -98 -267 0 -45 -24 -166 -33 -166 -4 0 -4 -7 1
-16 5 -9 7 -25 4 -36 -4 -15 -7 -16 -20 -6 -13 11 -14 8 -7 -21 5 -25 3 -38
-12 -54 -29 -35 -43 -65 -43 -92 0 -14 -7 -39 -15 -54 -8 -16 -11 -31 -8 -35
4 -3 1 -6 -5 -6 -17 0 -15 -27 3 -33 8 -4 23 -4 33 -2 17 3 19 0 13 -23 -5
-18 -14 -27 -27 -26 -17 0 -19 -8 -21 -60 -3 -87 -19 -206 -31 -238 -7 -17
-17 -26 -25 -22 -9 3 -18 -5 -25 -23 -12 -28 -35 -204 -47 -343 -3 -41 -8 -95
-12 -119 l-6 -44 24 22 24 22 3 -36 c3 -28 -2 -42 -17 -57 -12 -10 -21 -24
-21 -30 0 -6 -2 -9 -5 -6 -3 3 2 21 10 41 12 30 13 37 2 37 -7 0 -18 -5 -24
-11 -9 -9 -20 -3 -45 20 -18 17 -40 31 -49 31 -9 0 -19 6 -22 14 -8 19 -84 31
-102 16 -18 -15 -16 -28 13 -60 12 -13 22 -30 22 -37 0 -7 5 -13 10 -13 6 0
10 -11 10 -25 0 -21 5 -25 31 -25 17 0 44 9 60 20 l28 21 -20 -46 c-25 -56
-29 -123 -9 -135 10 -7 11 -10 3 -10 -7 0 -13 -7 -13 -16 0 -8 5 -12 10 -9 15
9 12 -4 -4 -20 -11 -11 -13 -37 -9 -117 3 -57 2 -99 -3 -95 -4 4 -9 31 -10 60
-2 46 -6 80 -20 151 -2 11 -7 36 -10 54 -3 17 -10 32 -15 32 -9 0 -10 -5 -34
-105 -28 -118 -40 -155 -51 -155 -6 0 -19 18 -29 39 -10 22 -24 42 -31 45 -18
7 -18 58 1 102 18 43 66 100 112 134 30 21 32 25 16 31 -26 10 -113 -1 -147
-18 -52 -27 -124 -107 -132 -148 -14 -74 18 -197 66 -259 52 -65 86 -96 159
-143 120 -78 122 -84 6 -23 -55 29 -93 44 -84 34 9 -11 14 -26 10 -34 -7 -18
-31 -25 -31 -9 0 5 -5 7 -11 4 -6 -4 -19 2 -30 14 -11 12 -25 19 -31 15 -6 -4
-14 0 -19 7 -13 21 -11 59 4 57 6 -2 11 3 10 10 -9 43 -7 39 -54 95 -27 32
-37 37 -73 37 -44 0 -94 -28 -123 -70 -8 -11 -19 -18 -24 -15 -16 10 -10 -7
25 -77 18 -38 29 -68 25 -68 -9 0 -22 20 -62 91 -10 17 -20 29 -23 26 -4 -3 3
-18 13 -34 36 -52 38 -56 14 -44 -11 7 -28 23 -37 37 -9 13 -19 22 -22 20 -2
-3 3 -17 12 -30 9 -14 16 -40 16 -58 0 -18 -4 -28 -8 -22 -4 6 -16 11 -26 11
-16 0 -14 -4 10 -24 40 -32 104 -50 204 -58 l85 -7 -19 21 c-10 11 -27 23 -38
26 -10 4 -41 40 -69 81 -70 104 -72 112 -16 80 29 -17 48 -23 52 -16 9 15 26
2 23 -18 -2 -9 2 -16 7 -15 6 1 12 -8 12 -20 1 -12 7 -23 12 -25 5 -2 29 -18
53 -36 24 -18 60 -43 81 -55 21 -13 36 -25 34 -27 -6 -6 -160 78 -200 109 -62
48 -53 23 12 -34 34 -29 61 -60 61 -67 0 -9 7 -12 20 -9 11 3 18 2 15 -2 -8
-15 110 -43 224 -55 109 -10 116 -12 119 -33 2 -13 7 -23 12 -23 4 0 11 -17
15 -38 5 -34 9 -38 38 -40 17 -2 33 -4 35 -6 2 -2 -1 -21 -7 -41 -17 -62 -12
-65 82 -52 25 4 28 2 23 -17 -3 -11 -6 -28 -6 -37 0 -9 -7 -20 -15 -23 -9 -3
-15 -1 -14 7 3 25 -1 38 -12 32 -5 -4 -8 -12 -6 -18 2 -7 -2 -20 -11 -29 -13
-16 -13 -20 1 -42 19 -29 9 -29 -48 1 -22 11 -47 18 -56 14 -15 -5 -15 -12 3
-80 10 -41 23 -82 29 -93 12 -22 29 -24 29 -3 0 15 17 52 39 84 8 12 12 12 26
-2 9 -10 25 -17 36 -17 24 0 91 -33 108 -54 11 -13 8 -14 -22 -13 -19 1 -33 5
-31 9 2 4 0 9 -5 13 -5 3 -13 -1 -18 -8 -4 -8 -15 -16 -23 -19 -8 -3 9 -8 38
-13 48 -6 52 -9 46 -28 -6 -22 -6 -22 10 -2 21 28 20 7 -3 -41 -13 -26 -16
-44 -10 -56 13 -24 11 -34 -7 -52 -19 -20 -27 -56 -11 -56 8 0 7 -3 -2 -9 -8
-5 -12 -18 -8 -32 5 -25 -4 -61 -16 -60 -4 1 -17 1 -29 1 -18 0 -20 -2 -8 -10
12 -8 12 -11 -3 -28 -21 -23 -24 -50 -4 -33 8 6 16 8 19 5 3 -3 16 8 28 23 16
19 20 21 15 8 -4 -11 -15 -47 -24 -80 -9 -33 -19 -65 -23 -70 -4 -6 -3 -17 3
-25 5 -8 9 -22 9 -30 0 -13 -1 -13 -10 0 -8 12 -10 12 -10 -5 0 -16 -2 -17
-10 -5 -11 18 -15 14 -49 -51 -16 -31 -40 -60 -57 -69 -24 -14 -29 -23 -29
-55 0 -33 5 -41 34 -57 19 -11 43 -31 54 -44 11 -14 26 -23 34 -20 9 4 11 2 7
-6 -5 -8 -2 -9 11 -4 15 5 16 4 6 -8 -10 -12 -8 -17 9 -26 11 -6 25 -8 30 -5
5 3 11 1 15 -4 7 -12 -33 -51 -52 -51 -22 0 -54 -61 -41 -77 9 -11 3 -22 -26
-52 l-37 -37 26 -12 c14 -6 25 -16 25 -22 0 -5 5 -10 11 -10 5 0 8 4 5 8 -3 5
1 9 8 9 7 0 13 -6 13 -13 0 -7 -4 -11 -8 -9 -3 3 -12 -1 -18 -8 -16 -20 19
-19 42 1 9 8 20 12 24 9 3 -4 12 -2 20 5 11 9 18 7 31 -7 16 -17 16 -17 -8
-12 -19 4 -29 0 -43 -19 -17 -23 -12 -30 17 -25 5 1 3 -5 -4 -14 -11 -13 -10
-18 6 -30 24 -18 31 -18 37 -2 3 9 8 8 22 -3 10 -8 16 -10 12 -3 -5 8 0 11 13
10 11 -1 20 -5 20 -10 0 -4 4 -6 9 -3 5 4 7 -3 4 -15 -3 -11 -11 -18 -18 -15
-8 3 -20 -9 -29 -29 -9 -19 -24 -41 -32 -50 -11 -10 -13 -20 -6 -28 13 -16 12
-50 -2 -59 -6 -4 0 -8 14 -8 14 0 21 -4 15 -8 -5 -4 -15 -16 -22 -28 -12 -23
-10 -24 59 -25 34 0 63 -14 35 -17 -29 -2 -48 -9 -59 -20 -7 -7 -22 -12 -34
-12 -24 0 -48 -22 -36 -35 4 -5 1 -5 -6 -1 -18 10 -52 -3 -52 -20 0 -11 5 -12
18 -6 9 5 27 8 40 7 13 -1 25 2 28 7 3 4 10 6 15 3 5 -4 9 -1 9 4 0 6 17 11
37 11 l36 0 -23 -25 c-13 -14 -29 -25 -35 -25 -7 0 -24 -11 -37 -25 -17 -17
-31 -23 -43 -18 -12 4 -16 3 -12 -4 4 -6 1 -14 -5 -17 -7 -3 -2 -3 12 1 14 4
41 8 60 9 19 1 40 3 45 4 6 1 19 2 30 1 19 -1 19 -1 0 -15 -11 -7 -33 -18 -50
-24 -26 -9 -27 -11 -7 -11 12 -1 22 -5 22 -10 0 -5 -8 -7 -19 -4 -11 3 -21 -2
-25 -13 -5 -14 -4 -15 8 -5 11 9 17 9 27 -1 8 -7 23 -14 34 -16 11 -2 16 1 10
5 -19 15 -15 33 8 33 15 0 18 -3 9 -8 -16 -10 -4 -45 13 -39 6 3 12 -1 12 -9
0 -13 -11 -18 -29 -15 -5 0 -8 -4 -8 -10 0 -5 -4 -7 -10 -4 -5 3 -10 1 -10 -4
0 -13 7 -14 83 -12 35 2 57 -2 53 -7 -3 -5 1 -15 8 -21 10 -9 16 -9 21 -1 4 7
15 2 28 -14 18 -20 30 -24 63 -21 53 4 71 -7 48 -26 -10 -8 -15 -9 -11 -2 4 6
3 15 -3 18 -6 4 -10 3 -9 -2 5 -28 -2 -36 -14 -18 -11 14 -16 15 -22 5 -6 -9
-4 -11 6 -5 12 8 12 6 0 -8 -15 -18 -26 -23 -16 -7 10 16 -12 12 -29 -5 -16
-16 -30 -20 -22 -6 9 14 -20 21 -33 8 -17 -17 -13 -27 9 -27 11 0 20 -5 20
-11 0 -5 -4 -7 -10 -4 -5 3 -10 -1 -10 -10 0 -9 4 -14 9 -11 4 3 13 -6 19 -19
11 -25 37 -34 44 -16 2 5 10 2 18 -7 13 -14 12 -15 -3 -9 -11 4 -20 0 -26 -11
-12 -22 1 -46 20 -40 8 3 23 -2 33 -11 14 -11 17 -12 11 -2 -6 11 -5 12 6 5 8
-5 16 -9 19 -9 19 -3 50 -18 50 -25 0 -5 -30 -11 -67 -14 -38 -4 -90 -10 -118
-15 l-50 -8 46 -2 c25 0 50 -6 57 -13 7 -7 12 -8 12 -4 0 4 14 -4 31 -19 23
-18 35 -23 42 -16 16 16 44 13 51 -4 3 -8 -2 -21 -10 -30 -14 -13 24 -15 365
-15 300 0 379 3 376 12 -3 7 -6 34 -9 59 -2 26 -7 52 -10 58 -4 6 -2 11 4 11
8 0 8 6 0 20 -6 12 -7 20 -1 20 5 0 13 -15 17 -32 11 -45 11 -47 12 -100 l2
-48 1100 0 1100 0 0 599 0 598 -47 -8 c-185 -35 -461 -122 -593 -189 -68 -34
-86 -38 -50 -11 l25 20 -56 53 c-91 87 -128 118 -141 118 -23 0 -103 33 -123
51 -19 17 -26 17 -100 4 -173 -29 -205 -29 -257 0 -80 45 -77 47 67 65 209 26
360 36 382 27 18 -8 38 -4 87 17 35 15 75 26 88 24 19 -3 15 -8 -29 -31 l-53
-27 28 -40 c17 -25 39 -43 61 -49 18 -6 41 -17 50 -25 26 -24 179 -96 203 -96
12 0 69 16 128 35 59 19 157 44 218 57 l112 23 0 162 c0 163 0 163 -23 163
-55 0 -271 -32 -305 -45 -20 -8 -84 -21 -142 -29 -144 -20 -414 -66 -420 -73
-3 -2 24 -2 60 1 l65 5 -80 -14 c-44 -8 -125 -19 -180 -25 -82 -8 -366 -52
-403 -62 -6 -2 -12 2 -14 7 -1 6 29 16 67 23 39 7 129 24 200 38 218 44 773
140 1030 179 61 9 118 18 128 21 16 5 17 25 17 241 0 184 -3 234 -12 231 -7
-3 -35 -11 -62 -19 -29 -8 -54 -23 -62 -36 -50 -82 -43 -77 -67 -56 -12 10
-39 26 -59 36 -35 15 -38 20 -38 58 0 32 6 47 30 71 17 16 30 31 30 34 0 2
-14 1 -32 -3 l-32 -6 24 33 c13 18 32 35 42 38 10 2 15 9 11 15 -4 6 -1 7 8 1
8 -5 32 -9 54 -9 34 0 39 -3 37 -19 -3 -15 1 -17 20 -12 31 10 38 10 76 2 l32
-8 0 147 c0 130 -2 146 -17 151 -10 3 -27 10 -38 15 -16 7 -12 8 18 6 l37 -3
0 207 c0 227 1 225 -61 212 -38 -7 -236 17 -256 32 -13 10 -13 16 -3 34 10 19
17 22 43 17 72 -15 227 -28 251 -22 24 6 26 11 26 57 0 50 0 51 -27 45 -60
-12 -240 -35 -273 -35 -20 1 -53 -4 -75 -9 -60 -16 -339 -62 -430 -72 -119
-12 -449 -58 -535 -75 -42 -8 -89 -15 -106 -15 -16 0 -36 -6 -44 -12 -19 -17
-8 -1 57 80 50 63 86 143 116 262 18 69 67 124 120 134 20 4 37 12 37 19 -1
18 -48 49 -62 41 -8 -5 -9 0 -4 17 16 58 27 195 31 378 2 108 10 245 19 305 8
60 13 113 10 118 -3 4 -1 8 4 8 18 0 32 146 33 331 1 191 -7 248 -29 192 -6
-15 -16 -107 -22 -203 -6 -96 -17 -199 -25 -229 -15 -57 -27 -127 -28 -173 0
-16 -4 -28 -9 -28 -4 0 -8 -13 -8 -29 0 -16 -4 -51 -10 -78 -27 -137 -41 -224
-59 -388 -24 -217 -32 -306 -33 -362 0 -24 -4 -43 -10 -43 -5 0 -7 -10 -3 -22
5 -21 5 -21 -6 -5 -6 11 -9 30 -6 43 2 13 0 24 -4 24 -9 0 -9 48 0 65 3 6 6
17 7 25 1 20 16 130 20 155 3 11 7 43 9 70 14 136 17 160 20 165 8 13 18 149
26 365 1 33 6 62 10 65 4 3 10 23 13 45 2 22 7 47 10 55 8 19 14 65 21 160 3
41 9 89 12 105 13 68 2 419 -17 548 -10 72 -17 134 -14 139 3 4 -8 8 -24 8
l-29 0 8 -52 c8 -50 5 -176 -5 -226 -3 -12 -10 -87 -16 -165 -6 -78 -15 -167
-20 -197 -5 -30 -14 -89 -20 -130 -12 -90 -41 -222 -51 -233 -3 -5 -3 11 2 35
38 189 50 342 34 443 -3 22 -8 54 -9 70 -2 17 -13 68 -24 115 -11 47 -23 105
-27 129 -4 24 -20 80 -35 125 -32 92 -32 98 -9 -129 14 -138 20 -662 9 -815
-5 -63 -11 -158 -14 -211 -8 -126 -22 -242 -36 -304 -6 -27 -11 -75 -11 -105
0 -31 -5 -63 -11 -71 -7 -11 -9 -8 -5 9 5 19 3 21 -9 11 -7 -6 -11 -15 -8 -20
3 -5 0 -9 -5 -9 -14 0 -15 -11 13 116 35 154 44 218 55 394 6 85 14 207 18
270 13 190 8 549 -8 588 l-14 33 -25 -93 c-23 -85 -26 -90 -31 -58 -6 34 -6
34 -14 -17 -4 -29 -11 -53 -15 -53 -6 0 -6 27 3 158 0 6 4 12 9 12 5 0 4 9 -2
19 -13 25 -13 34 1 25 7 -4 6 3 -2 17 -7 13 -12 25 -11 27 1 1 -1 1 -5 0 -5
-2 -7 -8 -7 -15 1 -6 -4 -9 -11 -7 -9 4 -11 14 -6 31 4 15 3 49 -1 77 -5 28
-10 76 -13 107 -6 71 -36 141 -54 129 -11 -6 -11 -8 0 -12 11 -4 11 -10 0 -35
-7 -18 -12 -61 -10 -100 1 -37 0 -120 -1 -183 l-3 -115 -8 82 c-10 105 -32
193 -67 263 -14 30 -25 58 -24 63 1 4 -7 7 -17 7 -11 0 -23 5 -26 10 -3 6 -1
10 4 10 6 0 11 8 11 18 0 14 -2 15 -10 2 -9 -13 -11 -13 -20 0 -6 10 -6 16 0
18 6 2 10 10 10 19 0 10 -6 12 -20 8 -12 -4 -20 -2 -20 5 0 6 -4 9 -9 6 -5 -4
-12 0 -14 6 -3 7 -6 2 -7 -12 l-1 -25 -23 29 c-14 16 -32 53 -41 82 -20 64
-71 134 -128 175 -49 36 -64 26 -43 -27 29 -75 27 -117 -3 -80 -11 13 -16 28
-27 86 -8 44 -27 84 -48 103 -53 47 -67 57 -105 79 -47 27 -59 48 -35 65 15
11 14 12 -5 10 -11 -1 -21 -4 -21 -7 0 -4 -7 -7 -15 -7 -12 0 -12 3 -2 16 9
12 9 13 0 7 -7 -4 -13 -2 -13 3 0 12 -27 10 -47 -2 -7 -5 -13 -4 -13 1 0 12
-64 11 -72 -2 -5 -7 -8 -6 -8 3 0 9 -6 7 -19 -8 l-19 -22 2 26 c0 14 5 25 10
25 5 0 6 3 3 6 -4 4 -13 1 -22 -6 -11 -9 -15 -9 -15 -1 0 7 -4 10 -10 6 -5 -3
-7 -13 -4 -23 5 -14 4 -15 -5 -2 -5 8 -13 11 -16 8 -11 -10 4 -28 23 -28 13 0
13 -3 4 -12 -7 -7 -20 -13 -30 -13 -9 0 -23 -13 -32 -30 -13 -27 -15 -28 -18
-9 -2 12 6 47 17 78 21 61 17 65 -34 41z m132 -81 c-4 -4 16 -17 43 -30 57
-26 104 -66 98 -84 -2 -7 -16 -3 -40 14 -20 13 -39 22 -42 18 -3 -3 -6 0 -6 7
0 6 -16 21 -35 32 -34 20 -47 49 -23 49 6 0 8 -3 5 -6z m213 -68 c0 -7 11 -23
25 -36 13 -12 29 -38 35 -56 7 -19 15 -34 19 -34 4 0 13 -12 20 -26 l11 -26
-25 20 c-34 27 -128 170 -120 183 8 12 35 -7 35 -25z m-529 -42 c-19 -8 -39
-13 -45 -10 -14 5 32 25 59 25 13 0 9 -5 -14 -15z m-18 -169 c-10 -13 -22 -25
-27 -25 -5 0 1 11 14 25 30 32 36 32 13 0z m-72 -110 c-22 -41 -46 -93 -52
-115 -8 -25 -15 -36 -20 -29 -5 9 -11 8 -23 -4 -9 -8 -16 -18 -16 -21 0 -3 -9
-20 -20 -38 -12 -21 -20 -27 -20 -16 0 9 7 23 15 31 8 8 11 17 8 20 -3 4 11
41 31 84 25 55 51 91 84 120 26 24 49 43 50 43 2 0 -14 -34 -37 -75z m-85
-219 c-4 -19 -49 -140 -100 -268 -51 -128 -99 -257 -106 -286 -7 -29 -14 -51
-17 -48 -6 6 24 132 42 171 34 77 99 246 117 305 22 73 58 160 65 160 3 0 2
-15 -1 -34z m-76 -56 c-6 -12 -14 -20 -17 -17 -2 3 1 14 8 26 17 26 24 19 9
-9z m230 -161 c-113 -345 -122 -369 -183 -454 -31 -44 -76 -107 -99 -140 -51
-73 -144 -191 -210 -267 -27 -31 -49 -60 -50 -65 0 -4 -4 -13 -9 -19 -12 -14
13 -26 38 -18 14 5 15 4 4 -4 -17 -12 -6 -33 14 -25 11 4 15 -2 15 -21 0 -38
-46 -46 -97 -18 -47 26 -14 114 79 208 78 80 94 108 152 264 20 52 57 138 83
190 43 85 51 95 77 97 15 1 29 3 30 5 6 8 52 89 78 135 16 29 40 83 54 120 62
168 76 204 80 200 3 -2 -23 -87 -56 -188z m-333 69 c-3 -8 -6 -5 -6 6 -1 11 2
17 5 13 3 -3 4 -12 1 -19z m-56 -155 c-12 -20 -14 -14 -5 12 4 9 9 14 11 11 3
-2 0 -13 -6 -23z m-51 -37 c0 -3 -4 -8 -10 -11 -5 -3 -10 -1 -10 4 0 6 5 11
10 11 6 0 10 -2 10 -4z m-30 -76 c0 -5 -5 -10 -11 -10 -5 0 -7 5 -4 10 3 6 8
10 11 10 2 0 4 -4 4 -10z m1707 -132 c-2 -18 -4 -6 -4 27 0 33 2 48 4 33 2
-15 2 -42 0 -60z m111 -23 c-3 -3 -9 2 -12 12 -6 14 -5 15 5 6 7 -7 10 -15 7
-18z m163 -462 c-8 -15 -10 -15 -11 -2 0 17 10 32 18 25 2 -3 -1 -13 -7 -23z
m-1 -43 c0 -5 -2 -10 -4 -10 -3 0 -8 5 -11 10 -3 6 -1 10 4 10 6 0 11 -4 11
-10z m-1840 -94 c0 -15 -24 -66 -32 -66 -5 0 -7 -4 -4 -9 7 -11 -16 -71 -27
-71 -4 0 -5 -4 -2 -10 3 -5 1 -10 -4 -10 -28 0 7 107 42 131 5 3 8 9 8 13 -3
18 0 26 9 26 6 0 10 -2 10 -4z m2067 -183 c-3 -10 -5 -4 -5 12 0 17 2 24 5 18
2 -7 2 -21 0 -30z m-10 -55 c-3 -7 -5 -2 -5 12 0 14 2 19 5 13 2 -7 2 -19 0
-25z m-2277 -28 c12 -8 9 -10 -12 -10 -16 0 -28 5 -28 10 0 13 20 13 40 0z
m-103 -92 c-2 -13 -4 -5 -4 17 -1 22 1 32 4 23 2 -10 2 -28 0 -40z m2007 -219
c-14 -67 -28 -93 -20 -39 7 58 18 100 26 100 3 0 1 -27 -6 -61z m-21 -99 c-3
-11 -9 -17 -14 -15 -10 7 -1 35 11 35 5 0 6 -9 3 -20z m207 -121 c0 -4 -7 -12
-15 -19 -8 -7 -15 -10 -15 -7 0 3 -2 12 -5 19 -4 9 2 14 15 14 11 0 20 -3 20
-7z m-2639 -56 c-12 -20 -14 -14 -5 12 4 9 9 14 11 11 3 -2 0 -13 -6 -23z
m-209 -75 c-7 -7 -12 -8 -12 -2 0 14 12 26 19 19 2 -3 -1 -11 -7 -17z m417
-15 c9 -18 9 -23 -1 -23 -8 0 -15 12 -16 27 -2 29 0 29 17 -4z m-304 -23 c3
-5 -1 -10 -9 -10 -9 0 -16 5 -16 10 0 6 4 10 9 10 6 0 13 -4 16 -10z m3432
-197 c-3 -3 -11 -2 -17 2 -9 6 -9 10 1 16 14 8 27 -7 16 -18z m-812 -23 c-51
-57 63 -100 185 -70 25 6 64 18 88 26 48 16 102 19 102 5 0 -13 -34 -23 -68
-21 -43 3 -54 1 -46 -11 7 -12 78 -8 184 11 171 30 390 8 405 -41 4 -11 4 -23
1 -26 -3 -4 -61 -7 -128 -9 -161 -3 -372 -36 -402 -62 -27 -25 -98 -72 -108
-72 -17 0 -7 67 12 85 22 20 27 64 8 66 -54 4 -98 -4 -163 -31 -43 -18 -69
-19 -97 -2 -34 20 -36 32 -5 27 21 -4 21 -3 4 9 -12 9 -14 16 -7 21 5 3 8 11
5 16 -4 5 1 9 11 9 15 0 15 2 0 25 -20 31 -20 45 -1 45 9 0 18 7 22 15 3 9 8
13 11 10 3 -2 -3 -14 -13 -25z m1245 -170 c3 -5 18 -12 33 -15 38 -10 43 -23
10 -30 -15 -4 -37 -10 -48 -15 -11 -5 -35 -12 -52 -15 -37 -7 -54 -25 -24 -25
11 0 22 -9 26 -20 3 -11 11 -20 16 -20 6 0 8 -4 4 -9 -3 -5 -1 -12 5 -16 16
-10 12 -28 -5 -21 -29 11 -15 -12 15 -24 38 -16 59 -39 33 -38 -42 2 -239 -14
-245 -21 -4 -4 1 -7 12 -8 11 -1 27 -9 36 -17 8 -9 21 -16 27 -16 7 0 6 -4 -3
-10 -10 -6 -11 -10 -2 -10 18 0 -61 -76 -86 -82 -12 -3 -26 0 -32 7 -13 16
-47 8 -63 -15 -16 -23 -89 -43 -148 -41 -63 3 -97 -13 -148 -67 l-44 -47 7 42
c3 23 9 48 12 57 5 13 -1 15 -33 12 -85 -9 -163 -30 -168 -46 -5 -16 -10 -18
-60 -21 -13 -1 -22 -5 -19 -10 16 -26 -17 -2 -62 46 -30 32 -61 55 -73 55 -11
0 -24 8 -30 18 -9 16 -12 16 -38 2 -15 -9 -29 -25 -31 -37 -4 -30 -77 -58
-112 -43 -23 10 -22 10 9 5 19 -3 32 -2 28 1 -4 4 -2 13 4 21 9 10 7 13 -11
13 -15 0 -20 5 -17 14 6 15 -16 40 -25 30 -3 -3 -9 -1 -12 5 -4 6 2 8 14 6 14
-3 18 0 13 8 -12 20 -15 59 -3 52 13 -8 13 5 0 25 -9 13 -10 13 -10 0 0 -13
-1 -13 -10 0 -5 8 -9 26 -9 40 0 14 3 19 6 13 2 -7 11 -13 19 -13 11 0 12 4 4
19 -13 26 -13 32 3 28 6 -1 20 -18 29 -37 l17 -35 -3 30 c-2 17 -1 25 1 18 5
-14 69 -15 94 -2 8 4 22 3 30 -2 11 -7 11 -9 1 -9 -31 0 15 -27 56 -32 37 -5
47 -3 68 18 13 14 29 22 36 18 8 -5 7 -10 -3 -18 -19 -15 -25 -51 -7 -43 7 3
38 16 68 29 30 13 57 26 58 31 2 4 12 7 23 7 10 0 19 4 19 8 0 5 -13 7 -30 4
-32 -5 -40 10 -17 33 9 9 19 10 31 3 12 -7 27 -5 51 6 20 10 59 16 99 16 l66
0 19 38 c26 50 81 98 127 111 20 6 48 20 61 33 20 19 34 22 91 21 37 -1 83 1
101 5 39 8 193 -6 201 -18z m25 -150 c4 -6 -2 -9 -14 -7 -29 4 -39 17 -13 17
11 0 24 -5 27 -10z m68 -20 c3 -11 3 -20 1 -20 -3 0 -14 9 -26 20 -22 20 -22
20 -1 20 12 0 23 -8 26 -20z m-1359 -16 c3 -8 2 -12 -4 -9 -6 3 -10 10 -10 16
0 14 7 11 14 -7z m1433 -58 c4 -3 -3 -6 -15 -6 -12 0 -22 -4 -22 -10 0 -14
-33 -13 -47 1 -6 6 -9 17 -7 24 3 7 1 16 -5 20 -6 3 -11 10 -11 15 0 8 93 -30
107 -44z m-1511 -122 c-6 -22 -8 -23 -21 -10 -8 8 -14 27 -14 43 1 17 3 21 6
11 6 -25 23 -22 24 5 2 22 2 22 6 -2 3 -12 2 -34 -1 -47z m-79 -51 c-3 -10 -5
-2 -5 17 0 19 2 27 5 18 2 -10 2 -26 0 -35z m-90 2 c9 0 18 -7 20 -15 4 -13 3
-13 -7 0 -10 13 -11 13 -7 0 2 -8 -3 -24 -12 -34 -9 -11 -11 -16 -4 -13 6 4
13 4 16 0 2 -5 2 -3 1 4 -2 7 1 15 6 18 6 4 10 1 10 -6 0 -7 3 -10 6 -6 7 7
34 -17 34 -31 0 -5 -7 -9 -15 -9 -8 0 -12 4 -9 9 3 4 0 8 -5 8 -6 0 -11 -4
-11 -10 0 -5 -6 -9 -12 -7 -18 3 -40 35 -33 46 3 6 -5 20 -17 32 -16 15 -19
23 -10 26 6 3 10 10 6 16 -3 7 2 3 11 -8 9 -11 23 -20 32 -20z m-1457 -35 c0
-5 -4 -10 -10 -10 -5 0 -10 5 -10 10 0 6 5 10 10 10 6 0 10 -4 10 -10z m1680
-12 c0 -4 -4 -8 -9 -8 -6 0 -12 4 -15 8 -3 5 1 9 9 9 8 0 15 -4 15 -9z m1235
-18 c4 -6 11 -8 16 -5 5 4 9 2 9 -4 0 -5 -4 -13 -10 -16 -5 -3 -10 -13 -10
-21 0 -21 -21 -41 -45 -41 -22 0 -45 19 -45 37 0 16 47 60 64 60 8 0 18 -5 21
-10z m-1335 -50 c0 -5 10 -6 23 -3 17 3 19 2 7 -6 -9 -5 -45 -12 -80 -15 -62
-6 -63 -6 -27 6 22 7 37 15 34 18 -3 3 6 6 19 6 13 1 24 -2 24 -6z m364 -27
c-12 -12 -18 -13 -27 -4 -14 14 8 32 29 24 11 -4 10 -8 -2 -20z m66 -11 c-7
-3 -19 3 -28 13 -16 15 -15 16 12 4 15 -7 23 -15 16 -17z m-470 -50 c0 -15 -2
-15 -10 -2 -13 20 -13 33 0 25 6 -3 10 -14 10 -23z m830 -19 c-1 -20 -20 -36
-51 -42 -19 -4 -34 -12 -34 -18 0 -21 -14 -25 -44 -12 -34 15 -42 34 -11 26
11 -3 18 -1 14 4 -3 5 8 9 25 9 20 0 34 7 41 20 10 19 60 29 60 13z m-193 -44
c-3 -12 0 -19 8 -19 25 0 24 -16 -1 -43 -17 -18 -23 -34 -19 -47 5 -15 -1 -22
-28 -34 -20 -8 -38 -23 -41 -34 -10 -29 -25 -32 -107 -18 -45 7 -67 15 -56 19
11 4 17 17 17 36 0 27 -3 30 -37 33 -31 2 -39 7 -41 26 -3 21 -1 23 31 17 29
-6 37 -3 46 14 20 37 99 64 204 68 24 1 28 -2 24 -18z m321 -56 c9 -16 11 -15
27 1 13 12 20 14 30 6 8 -6 32 -13 56 -15 48 -5 60 -12 40 -24 -21 -13 -254
-8 -258 5 -12 37 86 62 105 27z m325 -40 c-7 -2 -19 -2 -25 0 -7 3 -2 5 12 5
14 0 19 -2 13 -5z m-78 -15 c-89 -21 -373 -80 -413 -85 -42 -6 -69 -23 -36
-23 28 0 124 -49 124 -64 0 -7 12 -18 26 -24 14 -7 23 -16 20 -21 -4 -5 0 -11
6 -14 7 -3 -32 -3 -86 0 -92 4 -104 7 -150 38 -91 59 -109 62 -243 37 -64 -12
-119 -19 -122 -16 -12 12 22 26 80 34 87 12 375 67 413 79 17 5 91 19 163 31
73 11 143 25 155 30 13 5 41 9 63 8 l40 0 -40 -10z m-365 -8 c0 -5 -7 -10 -16
-10 -8 0 -12 5 -9 10 3 6 10 10 16 10 5 0 9 -4 9 -10z m-793 -62 c-3 -8 -6 -5
-6 6 -1 11 2 17 5 13 3 -3 4 -12 1 -19z m223 -538 c-21 -7 -18 -8 20 -9 l45
-2 -27 -22 c-15 -12 -43 -32 -64 -45 l-37 -23 6 37 c7 44 33 74 61 73 19 -1
18 -2 -4 -9z m117 -196 c4 -13 -50 -12 -59 1 -4 5 -2 13 4 16 13 8 51 -4 55
-17z m513 -108 c0 -7 -142 -97 -147 -92 -3 2 15 17 39 31 23 15 57 36 73 46
32 20 35 21 35 15z m-200 -137 c-14 -11 -79 -64 -145 -117 -65 -53 -145 -121
-175 -149 -52 -49 -80 -67 -65 -43 18 30 382 330 400 329 6 0 -1 -9 -15 -20z
m-451 -408 c-29 -34 -55 -61 -57 -61 -9 0 26 50 61 87 61 64 57 43 -4 -26z
m-1512 7 c-3 -8 -6 -5 -6 6 -1 11 2 17 5 13 3 -3 4 -12 1 -19z m-117 -65 c0
-5 -7 -16 -14 -26 -11 -14 -15 -15 -19 -4 -3 8 0 20 6 26 13 13 27 15 27 4z
m1554 -38 c-4 -8 -11 -15 -16 -15 -6 0 -5 6 2 15 7 8 14 15 16 15 2 0 1 -7 -2
-15z m-1534 -65 c0 -5 -5 -10 -11 -10 -5 0 -7 5 -4 10 3 6 8 10 11 10 2 0 4
-4 4 -10z m274 -68 c3 -5 -1 -9 -9 -9 -8 0 -12 4 -9 9 3 4 7 8 9 8 2 0 6 -4 9
-8z m406 -123 c0 -14 -17 -10 -23 5 -4 10 -1 13 9 9 7 -3 14 -9 14 -14z"/>
<path d="M12264 4612 c-6 -10 -21 -18 -34 -19 -12 -1 -28 -10 -36 -20 -11 -15
-11 -20 3 -30 20 -16 55 9 77 55 16 34 9 45 -10 14z"/>
<path d="M13887 2304 c-22 -12 -27 -20 -21 -37 11 -39 20 -39 53 -2 44 51 28
71 -32 39z"/>
<path d="M14548 5845 c-3 -6 -8 -23 -12 -40 l-6 -30 16 28 c8 16 14 33 11 40
-2 6 -6 7 -9 2z"/>
<path d="M12354 5806 c-18 -11 -38 -25 -47 -31 -8 -5 -18 -20 -22 -32 -10 -37
33 -29 83 15 37 32 41 39 30 53 -12 15 -16 14 -44 -5z"/>
<path d="M13010 5791 c0 -10 14 -15 33 -12 5 1 5 -3 2 -9 -4 -7 0 -10 10 -8
10 2 22 -6 29 -17 15 -26 25 -33 45 -30 9 2 19 4 24 4 4 1 7 6 7 12 0 5 -4 7
-10 4 -5 -3 -10 0 -10 9 0 8 4 16 10 18 5 2 6 8 2 15 -10 16 -142 30 -142 14z"/>
<path d="M13215 5781 c-3 -5 -2 -12 3 -15 5 -3 9 1 9 9 0 17 -3 19 -12 6z"/>
<path d="M13200 5732 c-41 -13 -48 -52 -9 -52 10 0 19 -4 19 -9 0 -5 11 -8 25
-8 28 0 31 6 13 26 -11 11 -10 12 0 6 10 -5 13 -2 10 10 -3 20 -35 35 -58 27z
m30 -32 c0 -21 -15 -27 -25 -10 -3 6 0 10 7 10 9 0 9 3 -2 10 -13 8 -12 10 3
10 10 0 17 -8 17 -20z"/>
<path d="M13280 5720 c13 -8 12 -11 -3 -23 -17 -12 -17 -14 -3 -26 14 -12 16
-11 10 3 -5 12 -2 15 10 10 14 -5 22 -38 17 -67 -2 -12 19 -47 27 -46 22 4 32
-3 32 -22 0 -11 5 -29 10 -39 10 -19 57 -70 65 -70 11 0 -9 58 -27 78 -12 12
-16 22 -10 22 6 0 9 7 6 15 -4 8 -12 15 -20 15 -8 0 -13 6 -11 13 1 6 -4 11
-10 10 -7 -2 -12 0 -12 5 3 19 -2 45 -7 39 -10 -10 -56 64 -50 79 4 9 -2 14
-17 14 -18 0 -19 -2 -7 -10z m62 -107 c-8 -11 -16 -4 -18 17 -4 23 -3 24 8 5
6 -11 11 -21 10 -22z"/>
<path d="M14508 5705 c-3 -14 -1 -25 3 -25 5 0 9 11 9 25 0 14 -2 25 -4 25 -2
0 -6 -11 -8 -25z"/>
<path d="M14635 5640 c-4 -6 7 -26 23 -45 17 -18 33 -42 36 -53 8 -24 46 -37
46 -16 0 7 -11 21 -24 29 -14 9 -27 30 -30 50 -4 18 -14 36 -22 39 -21 8 -22
8 -29 -4z"/>
<path d="M14566 5593 c3 -11 16 -33 30 -49 l24 -29 -11 32 c-6 17 -19 39 -29
48 -18 16 -18 16 -14 -2z"/>
<path d="M14790 5390 c13 -24 35 -27 26 -4 -3 9 -6 18 -6 20 0 2 -7 4 -15 4
-13 0 -14 -4 -5 -20z"/>
<path d="M13590 5361 c0 -6 4 -13 10 -16 6 -3 7 1 4 9 -7 18 -14 21 -14 7z"/>
<path d="M14715 5343 c8 -15 27 -48 41 -73 14 -25 31 -52 39 -60 13 -12 14
-10 6 15 -15 49 -23 65 -33 65 -5 0 -14 14 -20 30 -5 17 -19 35 -30 41 -18 10
-19 9 -3 -18z"/>
<path d="M13758 5253 c-10 -2 -15 -10 -11 -19 7 -20 20 -17 26 6 3 11 4 19 4
19 -1 -1 -10 -3 -19 -6z"/>
<path d="M13830 5235 c7 -9 15 -13 17 -11 7 7 -7 26 -19 26 -6 0 -6 -6 2 -15z"/>
<path d="M14216 5195 c4 -8 8 -15 10 -15 2 0 4 7 4 15 0 8 -4 15 -10 15 -5 0
-7 -7 -4 -15z"/>
<path d="M13878 5193 c7 -3 16 -2 19 1 4 3 -2 6 -13 5 -11 0 -14 -3 -6 -6z"/>
<path d="M13914 5140 c4 -30 8 -71 11 -90 2 -19 9 -55 15 -80 6 -25 15 -65 21
-90 12 -59 29 -100 41 -100 16 0 5 175 -13 196 -8 11 -9 15 -1 10 8 -5 12 -1
12 13 0 11 -5 23 -12 27 -6 4 -8 3 -5 -3 3 -5 0 -10 -7 -10 -11 0 -12 4 -3 18
6 9 16 15 23 12 8 -3 11 2 7 16 -3 11 -10 18 -16 14 -5 -3 -7 -1 -4 4 4 6 -3
26 -16 44 -21 31 -25 69 -8 69 3 0 14 -12 23 -27 16 -28 18 -34 18 -53 0 -5 5
-10 10 -10 11 0 9 58 -3 77 -4 6 -1 14 5 17 7 3 -13 4 -46 3 l-58 -2 6 -55z"/>
<path d="M14128 5183 c7 -3 16 -2 19 1 4 3 -2 6 -13 5 -11 0 -14 -3 -6 -6z"/>
<path d="M14160 5176 c0 -2 7 -7 16 -10 8 -3 12 -2 9 4 -6 10 -25 14 -25 6z"/>
<path d="M14836 5140 c9 -19 27 -51 39 -70 12 -19 41 -69 65 -110 24 -41 67
-113 96 -160 28 -47 89 -150 134 -230 46 -80 97 -167 115 -195 17 -27 41 -66
53 -85 15 -24 22 -29 22 -17 0 16 -12 41 -83 167 -11 19 -31 48 -44 64 -14 17
-36 54 -48 83 -13 29 -44 79 -69 111 -24 32 -58 85 -74 118 -16 32 -50 93 -75
134 -26 41 -59 97 -74 124 -16 27 -38 60 -51 75 l-23 26 17 -35z"/>
<path d="M14230 5110 c0 -5 5 -10 11 -10 5 0 7 5 4 10 -3 6 -8 10 -11 10 -2 0
-4 -4 -4 -10z"/>
<path d="M14234 5082 c12 -20 46 -259 48 -334 2 -124 13 -139 28 -37 7 48 9
95 5 105 -13 30 -16 46 -24 109 -9 72 -39 165 -52 165 -6 0 -8 -4 -5 -8z"/>
<path d="M11926 4653 c-6 -14 -5 -15 5 -6 7 7 10 15 7 18 -3 3 -9 -2 -12 -12z"/>
<path d="M14282 4590 c0 -14 2 -19 5 -12 2 6 2 18 0 25 -3 6 -5 1 -5 -13z"/>
<path d="M14251 4454 c0 -11 3 -14 6 -6 3 7 2 16 -1 19 -3 4 -6 -2 -5 -13z"/>
<path d="M11749 4402 c-25 -22 -31 -34 -26 -53 9 -37 29 -59 58 -64 25 -5 27
-2 39 56 12 57 12 63 -5 75 -26 19 -30 18 -66 -14z"/>
<path d="M11204 4016 c-27 -14 -19 -36 12 -36 17 0 24 6 24 19 0 26 -10 30
-36 17z"/>
<path d="M11260 4005 c-10 -13 -9 -15 9 -15 12 0 21 6 21 15 0 8 -4 15 -9 15
-5 0 -14 -7 -21 -15z"/>
<path d="M11090 3855 c12 -13 27 -22 32 -19 12 8 -21 44 -40 44 -12 0 -10 -6
8 -25z"/>
<path d="M11255 3830 c-11 -4 -20 -13 -21 -21 -3 -38 -3 -38 -40 -23 -20 8
-37 14 -39 12 -3 -4 190 -171 204 -176 27 -9 7 28 -28 52 -21 15 -49 38 -61
51 l-23 25 49 0 c66 0 78 -9 70 -53 -5 -25 -2 -38 9 -47 10 -9 15 -9 16 -1 1
6 3 16 4 21 1 6 3 24 4 40 1 33 15 38 41 15 14 -13 14 -8 -4 29 -15 31 -32 49
-57 61 -41 19 -95 26 -124 15z"/>
<path d="M11596 3630 c-49 -41 -48 -52 3 -26 27 14 70 66 54 66 -5 -1 -30 -19
-57 -40z"/>
<path d="M11315 3591 c-30 -9 -85 -40 -85 -49 -1 -4 -21 -29 -45 -56 -29 -32
-50 -67 -60 -102 -23 -79 -20 -89 13 -57 32 31 206 263 201 267 -2 2 -13 0
-24 -3z"/>
<path d="M11576 3571 c-10 -11 -16 -26 -14 -33 3 -8 12 0 22 20 19 37 17 40
-8 13z"/>
<path d="M14360 3375 c-15 -19 3 -27 25 -11 16 11 16 14 2 19 -8 3 -21 0 -27
-8z"/>
<path d="M11082 3265 c0 -16 2 -22 5 -12 2 9 2 23 0 30 -3 6 -5 -1 -5 -18z"/>
<path d="M14162 3214 c-10 -5 -8 -12 9 -30 21 -22 22 -28 11 -57 -7 -19 -12
-36 -12 -39 0 -4 61 -7 135 -7 124 -1 156 5 125 24 -5 3 -10 17 -10 30 0 13
-5 27 -10 30 -6 4 -8 11 -5 16 4 5 -3 9 -15 9 -12 0 -19 4 -16 8 2 4 -12 9
-32 10 -20 1 -66 4 -102 6 -36 3 -71 3 -78 0z"/>
<path d="M11808 2644 c-8 -7 3 -44 13 -44 4 0 6 10 4 21 -5 25 -9 31 -17 23z"/>
<path d="M11650 2543 c-27 -5 -52 -23 -32 -23 7 0 12 -8 10 -17 -4 -22 50 -32
63 -11 7 10 9 10 9 1 0 -7 4 -13 9 -13 4 0 3 16 -3 35 -6 19 -15 34 -21 34 -5
-1 -21 -4 -35 -6z m0 -43 c0 -5 -5 -10 -11 -10 -5 0 -7 5 -4 10 3 6 8 10 11
10 2 0 4 -4 4 -10z"/>
<path d="M11474 2473 c1 -7 7 -18 14 -25 9 -9 11 -6 7 11 -3 18 0 21 15 16 10
-3 21 -2 24 3 3 5 -10 9 -28 9 -23 0 -33 -5 -32 -14z"/>
<path d="M11845 2420 c3 -5 2 -10 -3 -10 -5 0 -9 -7 -9 -15 0 -8 6 -15 13 -15
8 0 11 6 8 14 -3 8 -1 17 5 21 6 3 11 1 11 -4 0 -6 4 -11 10 -11 5 0 7 7 4 15
-4 8 -15 15 -26 15 -10 0 -16 -4 -13 -10z"/>
<path d="M11807 2023 c-4 -3 -7 -13 -7 -22 1 -13 3 -13 11 2 11 19 8 33 -4 20z"/>
<path d="M11866 1914 c-5 -14 -4 -15 9 -4 17 14 19 20 6 20 -5 0 -12 -7 -15
-16z"/>
<path d="M11610 1905 c-129 -18 -147 -27 -136 -69 4 -15 1 -26 -7 -29 -18 -8
137 -8 214 -1 66 7 67 7 78 44 19 63 16 70 -26 69 -21 -1 -76 -7 -123 -14z"/>
<path d="M11592 1436 c15 -8 40 -17 57 -21 27 -6 31 -4 31 14 0 19 -6 21 -57
21 -56 0 -57 -1 -31 -14z"/>
<path d="M11339 1421 c11 -7 11 -9 0 -14 -8 -3 0 -6 16 -6 17 0 44 6 60 14 29
13 29 13 -30 14 -37 0 -55 -3 -46 -8z"/>
</g>
</svg>
