<?xml version="1.0" standalone="no"?>
<!DOCTYPE svg PUBLIC "-//W3C//DTD SVG 20010904//EN"
 "http://www.w3.org/TR/2001/REC-SVG-20010904/DTD/svg10.dtd">
<svg version="1.0" xmlns="http://www.w3.org/2000/svg"
 width="1586.000000pt" height="992.000000pt" viewBox="0 0 1586.000000 992.000000"
 preserveAspectRatio="xMidYMid meet">

<g transform="translate(0.000000,992.000000) scale(0.100000,-0.100000)"
fill="#000000" stroke="none">
<path d="M14785 9373 c-16 -3 -40 -14 -52 -25 -16 -15 -26 -17 -39 -10 -11 6
-28 6 -50 -1 -27 -8 -36 -7 -50 8 -26 25 -119 15 -219 -24 -115 -44 -318 -207
-397 -317 -18 -26 -52 -67 -76 -93 -45 -49 -123 -170 -132 -205 -4 -12 -14
-21 -25 -21 -11 0 -24 -10 -30 -22 -5 -12 -18 -23 -29 -25 -12 -2 -24 -17 -32
-38 -12 -34 -12 -34 -13 -7 -1 15 8 44 18 65 18 36 21 43 21 60 0 4 4 1 8 -6
9 -13 42 -6 42 9 0 5 6 9 13 9 14 0 33 27 59 83 9 20 21 37 25 37 4 0 35 35
68 78 104 134 268 289 375 352 30 18 0 19 -121 5 -301 -36 -552 -83 -717 -133
-89 -28 -168 -54 -175 -60 -13 -10 -143 -61 -212 -82 -54 -17 -328 -155 -343
-172 -6 -8 -26 -41 -43 -74 -18 -32 -53 -90 -79 -129 -89 -133 -143 -244 -225
-462 l-43 -112 67 -133 c36 -73 139 -297 228 -498 146 -330 162 -372 166 -433
l5 -69 -34 -14 c-59 -25 -93 -18 -135 26 -32 34 -45 40 -78 40 -51 0 -60 -16
-62 -106 -2 -83 9 -94 78 -83 27 4 85 8 130 8 90 1 133 12 133 36 0 21 10 18
45 -10 27 -22 29 -28 27 -85 -1 -33 2 -60 7 -60 14 0 -27 -74 -45 -80 -8 -3
-83 -5 -166 -3 -170 3 -182 6 -223 77 -23 40 -29 44 -76 49 -34 4 -56 13 -67
27 l-17 21 -34 -26 c-19 -14 -47 -25 -63 -25 -15 0 -36 -10 -48 -22 l-20 -22
32 -26 c55 -43 62 -43 96 6 58 82 114 38 58 -45 -22 -34 -52 -108 -48 -122 3
-15 -38 -40 -67 -41 -40 -1 -49 8 -57 57 -3 22 -8 42 -10 44 -17 18 -196 26
-326 15 l-76 -7 4 -35 c3 -40 -10 -72 -31 -72 -31 0 -63 24 -72 53 -7 27 -15
33 -48 38 -50 8 -471 3 -485 -6 -7 -4 -10 -77 -10 -216 1 -150 -2 -214 -11
-225 -12 -14 -57 -18 -96 -8 -21 6 -21 6 -3 37 15 27 16 44 10 109 -5 42 -11
82 -15 89 -10 14 -18 209 -14 324 7 199 -1 511 -15 595 -10 58 -16 193 -22
470 -3 162 -9 298 -13 302 -3 3 -22 8 -41 10 -33 3 -35 2 -33 -27 3 -53 2
-723 -2 -965 -2 -129 -4 -307 -5 -395 -1 -95 -6 -165 -12 -173 -6 -7 -8 -15
-5 -19 4 -3 2 -14 -3 -23 -5 -10 -12 -49 -15 -87 -3 -37 -8 -82 -10 -100 -3
-17 -8 -55 -11 -83 -2 -29 -11 -65 -19 -81 -11 -21 -16 -83 -19 -256 -2 -125
-2 -237 0 -248 3 -13 28 -32 68 -52 60 -29 67 -30 154 -25 58 3 108 0 135 -8
39 -10 49 -10 84 9 22 11 43 27 46 36 4 8 18 15 35 15 16 0 45 13 68 30 59 44
266 108 732 225 122 31 236 62 253 69 27 11 40 11 91 -5 101 -32 158 -23 158
24 0 21 5 21 -89 0 -17 -4 -22 -2 -19 8 3 8 14 15 26 17 11 2 26 10 32 18 7 8
18 14 25 14 7 0 35 31 62 68 36 48 71 83 122 116 43 29 78 61 89 81 9 18 47
59 85 91 37 32 67 63 67 69 0 7 17 17 38 24 36 12 40 11 65 -12 30 -27 79
-138 96 -216 6 -28 19 -68 30 -89 39 -79 33 -172 -13 -180 -10 -2 -49 6 -87
17 -66 22 -94 22 -200 5 -31 -4 -38 -10 -43 -35 -7 -34 -14 -35 -66 -9 -47 24
-92 24 -145 1 -38 -17 -39 -18 -18 -30 23 -11 201 -51 232 -51 31 0 44 16 32
38 -9 17 -7 21 14 26 28 7 69 -10 60 -24 -3 -6 6 -15 21 -22 22 -10 28 -10 38
3 14 18 179 23 173 5 -2 -6 7 -24 19 -39 29 -35 30 -69 4 -112 -23 -38 -42
-47 -163 -81 -51 -14 -126 -38 -167 -54 -89 -33 -169 -56 -228 -65 -24 -4 -41
-9 -38 -12 3 -3 46 0 94 7 80 11 92 11 114 -4 14 -9 80 -77 146 -150 l121
-133 43 7 c24 4 50 10 59 14 16 7 37 -10 26 -21 -3 -2 -24 -9 -47 -14 -31 -7
-46 -6 -58 3 -25 21 -6 -8 48 -72 47 -55 65 -80 57 -80 -5 0 -350 389 -360
406 -4 8 -20 20 -35 28 -24 12 -47 11 -196 -14 -93 -15 -177 -25 -186 -23 -17
5 -477 -70 -545 -88 -22 -6 -87 -19 -144 -30 -109 -19 -136 -29 -82 -29 25 0
36 -6 49 -30 11 -19 25 -30 40 -30 13 0 141 20 285 45 576 98 740 125 757 125
10 0 63 -51 122 -117 190 -216 322 -367 443 -508 66 -77 142 -164 169 -192
l49 -53 -34 -32 c-100 -95 -174 -144 -242 -161 -38 -9 -80 -25 -95 -35 -15
-11 -44 -22 -65 -25 -36 -6 -50 -12 -122 -51 -50 -27 -102 -21 -149 17 -42 34
-215 113 -257 118 -13 1 -44 -1 -69 -5 -31 -5 -59 -3 -86 7 -33 11 -50 11 -88
2 -43 -11 -61 -5 -35 11 7 4 -2 12 -21 21 -18 7 -35 11 -38 8 -3 -2 3 -7 12
-11 16 -6 13 -24 -4 -24 -5 0 -34 33 -64 73 -48 63 -223 278 -492 603 -81 98
-85 101 -123 100 -38 -1 -38 -1 -22 -21 9 -11 81 -99 161 -195 247 -297 462
-569 458 -579 -1 -6 -34 28 -73 76 -38 47 -97 118 -130 158 -33 39 -71 86 -85
104 -47 63 -114 146 -120 151 -4 3 -29 32 -56 66 -133 164 -262 312 -268 307
-12 -12 -5 -21 77 -115 181 -209 240 -281 300 -365 33 -47 35 -56 25 -78 -9
-20 -8 -31 2 -50 10 -19 11 -30 2 -50 -14 -31 -11 -33 80 -38 37 -2 70 -6 73
-9 13 -12 -90 -28 -182 -28 -128 0 -203 -17 -203 -46 0 -13 -21 -39 -57 -70
-96 -82 -206 -203 -199 -220 3 -9 1 -24 -5 -35 -8 -16 -6 -23 13 -39 l23 -19
-38 -16 c-61 -25 -157 -2 -157 39 0 29 201 288 250 323 12 8 18 26 18 52 1 39
0 39 -56 60 -39 14 -104 23 -207 31 -165 12 -379 43 -667 96 -103 19 -195 34
-204 34 -10 0 -28 -9 -39 -20 -15 -14 -43 -23 -85 -28 -60 -7 -64 -9 -72 -37
-5 -16 -11 -83 -13 -147 l-4 -118 32 0 c17 0 58 -7 91 -17 57 -15 69 -24 177
-132 63 -64 134 -144 158 -178 23 -35 49 -63 57 -63 9 0 56 -13 104 -30 49
-16 157 -43 242 -60 84 -17 165 -34 180 -40 17 -5 41 -5 64 1 26 8 44 7 65 -1
16 -7 58 -12 94 -12 69 1 90 8 193 70 39 23 50 27 43 14 -8 -15 -5 -18 16 -20
14 -1 32 3 40 9 12 11 37 10 154 -8 20 -2 55 2 80 10 26 9 66 14 97 11 38 -2
52 0 52 9 0 16 -67 55 -124 73 l-41 13 41 0 c67 1 241 -68 301 -120 17 -15 46
-30 65 -34 18 -4 54 -27 80 -51 26 -24 52 -44 59 -44 6 0 29 -14 51 -31 22
-18 55 -37 74 -44 32 -11 19 -13 -123 -21 -87 -4 -258 -7 -379 -5 -180 2 -227
0 -250 -12 -23 -12 -41 -13 -84 -5 -79 14 -105 23 -103 36 2 6 -14 19 -35 29
-20 9 -40 22 -44 27 -5 8 -8 7 -8 -1 0 -6 -9 -15 -20 -18 -27 -9 -25 -25 3
-25 12 -1 32 -6 45 -13 19 -11 21 -15 9 -31 -12 -16 -22 -18 -86 -11 -56 6
-78 13 -98 31 -25 23 -32 24 -97 18 -74 -7 -172 8 -306 46 -36 10 -108 26
-160 35 -52 9 -115 26 -139 36 -24 10 -49 19 -57 19 -8 0 -15 20 -19 58 -10
78 -35 133 -99 211 -76 92 -188 199 -218 206 -14 4 -65 0 -114 -9 -83 -14 -91
-18 -121 -53 -18 -21 -49 -68 -68 -105 -20 -37 -40 -70 -45 -73 -21 -13 -8
-36 31 -55 53 -27 69 -21 69 27 0 80 63 143 143 143 30 0 39 -5 46 -23 5 -13
22 -35 38 -48 40 -34 62 -67 56 -88 -2 -10 7 -46 21 -79 14 -34 26 -71 26 -82
0 -11 6 -20 14 -20 7 0 25 -9 39 -20 14 -11 45 -23 70 -26 43 -6 45 -8 51 -44
4 -24 12 -39 23 -43 10 -2 25 -8 34 -11 14 -6 16 0 15 31 l-1 38 44 -3 c23 -2
89 -19 145 -37 76 -25 104 -39 113 -57 9 -16 13 -79 13 -199 0 -204 -2 -210
-71 -190 -36 11 -42 10 -53 -5 -11 -15 -18 -15 -64 -3 -56 14 -52 7 -57 104
-5 91 -4 89 -53 121 -88 59 -247 151 -337 196 -180 90 -375 156 -375 127 0 -6
-8 -3 -17 7 -13 13 -18 14 -22 3 -2 -7 1 -15 8 -17 6 -2 18 -11 27 -19 11 -12
12 -18 3 -30 -7 -7 -18 -12 -26 -9 -7 3 -13 1 -13 -5 0 -5 -6 -9 -12 -8 -39 5
-59 -3 -71 -28 -19 -38 -30 -86 -18 -79 5 3 15 4 23 1 11 -4 13 -82 13 -419 0
-228 -3 -418 -7 -422 -5 -4 -8 12 -8 36 0 24 -3 41 -6 37 -3 -3 -6 -22 -6 -41
0 -20 -5 -36 -10 -36 -6 0 -7 -7 -4 -16 5 -12 2 -15 -10 -10 -12 4 -15 2 -10
-9 3 -8 1 -15 -5 -15 -5 0 -12 14 -16 30 -5 29 -23 52 -23 31 0 -20 -19 -11
-26 12 -6 19 -9 15 -21 -28 -8 -27 -15 -57 -16 -65 -1 -8 -8 -25 -15 -37 -7
-13 -9 -23 -4 -23 5 0 9 -7 9 -15 0 -8 -4 -12 -8 -9 -4 2 -8 -4 -8 -13 -1 -38
-5 -53 -12 -53 -5 0 -11 -16 -15 -35 -3 -19 -12 -39 -20 -46 -8 -6 -14 -18
-14 -26 0 -7 -7 -25 -16 -38 -9 -14 -13 -25 -9 -25 3 0 -3 -13 -15 -30 -12
-16 -17 -30 -11 -30 14 0 6 -31 -17 -70 -20 -33 -21 -33 -26 -9 -3 13 -10 213
-17 444 -6 231 -13 422 -15 424 -2 2 -5 -196 -5 -440 -1 -244 -5 -473 -9 -509
-4 -40 -8 -52 -9 -30 -1 19 -6 42 -11 50 -7 10 -10 -15 -11 -80 -1 -52 -2
-104 -3 -115 -1 -15 -16 -23 -71 -37 -38 -10 -73 -14 -77 -10 -4 4 -9 73 -11
152 l-3 145 -2 -157 c-3 -204 -20 -211 -25 -10 l-3 147 -2 -152 c-1 -84 -6
-153 -10 -153 -11 0 -22 195 -22 372 0 79 4 128 10 128 6 0 10 -10 11 -22 l0
-23 9 23 c10 24 26 29 33 10 4 -8 6 -7 6 3 1 11 16 20 44 28 66 17 107 46 107
77 0 25 -1 26 -18 11 -67 -61 -300 -94 -466 -67 -64 10 -83 6 -66 -15 11 -13
83 -31 108 -26 6 1 12 -3 12 -10 0 -8 4 -8 15 1 12 10 16 9 21 -6 3 -11 9 -28
14 -39 7 -17 9 -15 9 13 1 17 6 32 11 32 6 0 10 -97 10 -270 0 -173 -4 -270
-10 -270 -6 0 -11 83 -11 228 -2 217 -2 222 -11 112 -5 -63 -7 -165 -6 -226 3
-105 4 -113 28 -133 37 -30 92 -45 103 -26 4 8 34 20 67 27 33 6 60 16 60 21
0 5 12 6 26 3 18 -5 24 -3 18 5 -5 9 0 10 20 5 15 -4 26 -2 26 4 0 5 11 10 25
10 14 0 25 5 25 11 0 7 10 9 25 5 14 -4 25 -2 25 4 0 5 14 10 30 10 17 0 30 5
30 10 0 6 11 8 25 4 16 -4 25 -2 25 6 0 7 8 10 20 7 11 -3 20 -1 20 3 0 4 23
11 50 15 28 4 50 11 50 17 0 6 9 8 20 5 11 -3 22 -1 25 3 3 5 26 12 50 16 25
3 45 11 45 16 0 6 9 8 20 5 11 -3 20 -1 20 4 0 5 11 9 23 9 13 0 26 3 30 6 11
11 97 14 97 3 0 -6 9 -8 20 -4 12 4 20 2 20 -5 0 -7 8 -9 20 -5 12 4 20 2 20
-5 0 -7 8 -9 20 -5 11 3 20 2 20 -3 0 -5 45 -19 100 -32 55 -14 100 -27 100
-31 0 -4 9 -5 20 -2 12 3 20 0 20 -7 0 -7 8 -10 20 -7 11 3 20 2 20 -3 0 -4
27 -13 60 -20 103 -22 123 -13 -325 -150 -93 -29 -210 -65 -260 -80 -49 -15
-118 -36 -153 -45 l-62 -18 -143 46 c-292 94 -405 127 -419 122 -7 -3 -39 3
-71 14 l-57 20 0 -37 c0 -20 -5 -44 -10 -52 -6 -10 -10 57 -10 199 0 118 -2
212 -5 210 -2 -3 -5 -99 -5 -215 -1 -201 -10 -297 -23 -264 -4 8 -8 49 -10 90
l-3 75 -2 -88 c-1 -56 -6 -86 -12 -82 -5 3 -11 21 -11 38 -2 30 -2 30 -9 -8
-4 -22 -8 -35 -9 -30 0 6 -13 10 -28 10 -16 0 -42 3 -59 7 l-31 7 11 -34 c9
-28 20 -39 58 -55 26 -11 51 -20 57 -20 6 0 11 -7 11 -15 0 -8 4 -15 9 -15 5
0 29 -19 54 -42 24 -24 53 -48 63 -54 11 -6 19 -23 19 -37 1 -15 4 -29 8 -33
6 -6 209 -85 440 -172 54 -20 94 -38 89 -40 -5 -1 -74 18 -153 43 -139 45
-215 67 -289 85 -32 8 -33 7 -16 -6 11 -8 24 -14 29 -14 4 0 6 -4 3 -9 -5 -8
55 -36 196 -92 32 -12 56 -24 54 -26 -2 -2 -30 3 -62 13 -33 9 -66 19 -74 21
-8 2 -2 -3 14 -13 37 -21 81 -72 82 -96 3 -35 4 -38 19 -38 8 0 15 -5 15 -11
0 -5 4 -8 8 -5 10 6 74 -31 85 -50 4 -8 16 -14 26 -14 10 0 24 -7 31 -15 6 -8
78 -39 158 -70 81 -31 170 -65 198 -76 76 -29 431 -147 499 -166 42 -11 60
-13 63 -4 4 13 29 15 34 1 3 -8 34 -11 98 -9 80 3 315 -62 565 -156 36 -14 77
-25 90 -25 40 0 29 -19 -27 -45 -59 -28 -107 -31 -188 -11 -30 7 -332 106
-670 219 -579 194 -691 229 -831 262 -54 12 -58 12 -56 -5 1 -10 5 -16 9 -14
4 3 8 1 8 -5 0 -5 3 -17 7 -27 4 -12 3 -15 -5 -10 -8 4 -10 2 -6 -8 3 -8 12
-17 21 -20 9 -4 13 -13 9 -22 -3 -8 -2 -12 4 -9 6 3 14 -5 20 -19 5 -14 12
-26 15 -26 4 0 3 6 -1 12 -4 7 2 4 14 -6 16 -14 19 -22 12 -32 -8 -8 -7 -14 2
-17 10 -4 9 -6 -1 -6 -14 -1 45 -61 59 -61 16 0 182 -81 177 -86 -3 -4 -36 4
-74 16 -37 12 -74 23 -80 25 -18 6 -16 -8 5 -31 9 -10 19 -32 20 -49 2 -16 8
-34 13 -39 13 -14 11 -39 -3 -30 -7 5 -8 3 -2 -7 4 -8 9 -20 10 -26 1 -7 9
-20 18 -29 9 -8 14 -20 11 -25 -4 -5 0 -9 7 -10 7 0 4 -4 -7 -9 -11 -5 -14 -9
-7 -9 16 -1 36 -21 40 -41 2 -8 9 -18 15 -22 8 -5 7 -8 -3 -8 -10 0 -11 -3 -4
-8 6 -4 12 -28 12 -54 0 -27 1 -57 1 -68 1 -20 8 -20 821 -20 l820 0 0 53 c0
63 -39 40 355 210 154 66 378 164 499 218 120 55 220 99 223 99 2 0 91 38 196
84 314 137 1386 596 1391 596 3 0 51 20 106 45 55 25 102 45 105 45 3 0 5 -18
5 -40 l0 -40 -47 6 c-27 3 -56 5 -65 5 -26 0 -53 -23 -54 -46 0 -11 -4 -30 -8
-42 -6 -18 -4 -21 16 -16 13 3 21 4 18 1 -11 -12 -531 -244 -835 -373 -55 -23
-131 -57 -170 -75 -38 -17 -119 -53 -180 -80 -60 -26 -247 -107 -415 -180
-168 -73 -370 -161 -450 -195 -209 -91 -540 -239 -575 -258 -28 -15 15 -16
634 -17 l665 0 400 192 c648 309 1025 483 1033 475 2 -2 -10 -19 -27 -37 -16
-18 -30 -38 -30 -44 0 -7 -10 -21 -23 -33 -28 -23 -67 -36 -67 -20 0 11 -15 0
-15 -11 -1 -4 -6 -17 -13 -30 -15 -26 -2 -29 43 -12 119 45 -163 -100 -750
-386 l-190 -93 483 0 483 -1 48 25 49 24 6 -24 6 -25 765 0 765 0 0 3331 0
3330 -22 -6 c-52 -16 -289 -135 -348 -175 -35 -24 -100 -77 -145 -119 -86 -80
-130 -110 -142 -97 -5 5 3 16 17 25 13 9 73 57 133 106 60 50 136 109 170 132
52 36 220 119 310 152 l27 11 -2 1107 -3 1107 -55 28 c-77 39 -213 88 -440
159 -58 18 -110 33 -115 34 -6 0 -36 26 -68 57 -61 61 -96 83 -201 122 -47 18
-66 21 -66 12 0 -8 -10 -11 -30 -8 -16 2 -27 8 -24 13 8 13 -70 11 -84 -3 -9
-9 -13 -7 -18 5 -8 23 3 37 31 37 13 0 27 5 30 10 3 6 5 9 3 9 -2 -1 -16 -4
-33 -6z m-195 -43 c0 -5 -7 -10 -15 -10 -8 0 -15 5 -15 10 0 6 7 10 15 10 8 0
15 -4 15 -10z m218 -96 c11 4 25 -1 35 -12 16 -18 16 -19 -10 -17 -16 1 -38 7
-49 13 -12 6 -24 8 -28 4 -4 -3 -4 1 0 11 5 13 10 15 20 6 7 -6 22 -8 32 -5z
m-64 -23 c22 -18 20 -28 -4 -26 -11 1 -27 11 -36 23 -14 21 -14 22 4 19 11 -2
27 -9 36 -16z m-197 -13 c-3 -8 -6 -5 -6 6 -1 11 2 17 5 13 3 -3 4 -12 1 -19z
m91 -7 c3 -8 -1 -12 -9 -9 -7 2 -15 10 -17 17 -3 8 1 12 9 9 7 -2 15 -10 17
-17z m43 -8 c13 -16 12 -17 -3 -4 -10 7 -18 15 -18 17 0 8 8 3 21 -13z m-460
-11 c-5 -9 -19 -26 -30 -36 -12 -11 -21 -27 -21 -38 0 -10 -4 -18 -10 -18 -5
0 -10 6 -10 14 0 8 5 18 10 21 6 3 10 15 10 26 0 12 4 17 11 14 6 -4 17 2 25
14 18 25 28 28 15 3z m381 -24 c-7 -7 -12 -8 -12 -2 0 14 12 26 19 19 2 -3 -1
-11 -7 -17z m-271 -19 c-5 -13 -10 -19 -10 -12 -1 15 10 45 15 40 3 -2 0 -15
-5 -28z m116 9 c-3 -8 -6 -5 -6 6 -1 11 2 17 5 13 3 -3 4 -12 1 -19z m63 -8
c0 -5 -4 -10 -10 -10 -5 0 -10 5 -10 10 0 6 5 10 10 10 6 0 10 -4 10 -10z
m807 -109 c13 -23 22 -41 20 -41 -7 0 -78 99 -84 118 -8 23 35 -28 64 -77z
m-1097 64 c0 -8 -4 -15 -10 -15 -5 0 -7 7 -4 15 4 8 8 15 10 15 2 0 4 -7 4
-15z m100 -6 c0 -6 -4 -7 -10 -4 -5 3 -10 11 -10 16 0 6 5 7 10 4 6 -3 10 -11
10 -16z m-124 -36 c-7 -7 -26 7 -26 19 0 6 6 6 15 -2 9 -7 13 -15 11 -17z
m-42 1 c9 -22 8 -24 -9 -24 -8 0 -15 9 -15 20 0 24 15 27 24 4z m-424 -24 c0
-5 -7 -10 -15 -10 -8 0 -15 5 -15 10 0 6 7 10 15 10 8 0 15 -4 15 -10z m360
-20 c0 -5 -7 -7 -15 -4 -8 4 -15 8 -15 10 0 2 7 4 15 4 8 0 15 -4 15 -10z
m-264 -26 c35 -14 37 -17 21 -29 -24 -17 -98 -28 -110 -16 -6 6 0 19 16 35 31
31 25 30 73 10z m-192 -32 c28 -54 -1 -69 -204 -111 -52 -11 -113 -22 -135
-26 -22 -3 -74 -20 -115 -37 -41 -17 -87 -32 -101 -34 -40 -5 -94 -45 -119
-88 -37 -65 -111 -138 -125 -126 -40 33 -18 118 37 146 18 9 52 32 75 50 23
19 50 34 60 34 10 0 50 23 88 50 67 49 73 51 130 49 43 -1 74 4 110 20 75 32
118 54 136 69 23 18 66 30 111 31 31 1 40 -4 52 -27z m1732 -7 c10 -24 20 -35
32 -33 23 4 29 -37 6 -46 -9 -4 -18 -5 -19 -4 -1 2 -10 25 -21 53 -10 27 -20
53 -22 57 -2 5 -1 8 3 8 3 0 13 -16 21 -35z m43 -128 c0 -21 -1 -21 -9 -2 -12
28 -12 37 0 30 6 -3 10 -16 9 -28z m21 -85 c0 -15 -2 -15 -10 -2 -13 20 -13
33 0 25 6 -3 10 -14 10 -23z m-3 -44 c-3 -8 -6 -5 -6 6 -1 11 2 17 5 13 3 -3
4 -12 1 -19z m-911 -167 c18 -11 44 -35 60 -54 24 -31 30 -34 51 -24 13 5 23
16 23 24 0 7 9 13 20 13 22 0 110 -85 110 -107 0 -7 7 -16 15 -19 8 -3 17 -15
20 -25 4 -11 20 -33 36 -50 16 -16 29 -34 29 -38 0 -5 11 -12 25 -15 14 -4 25
-11 25 -16 0 -6 9 -10 19 -10 11 0 28 -10 38 -23 20 -25 64 -47 93 -47 11 0
20 -5 20 -11 0 -6 7 -8 16 -5 11 4 14 1 10 -12 -5 -15 0 -18 38 -18 25 0 42 4
40 8 -2 3 0 9 6 13 5 3 10 11 10 16 0 6 -4 7 -10 4 -5 -3 -10 -2 -10 4 0 5 5
13 11 16 6 4 8 13 5 20 -6 17 21 42 55 50 22 5 33 -1 69 -39 52 -55 90 -62 91
-18 0 15 4 36 8 47 7 16 10 12 15 -22 4 -24 37 -102 73 -174 35 -72 63 -132
61 -133 -2 -1 -48 -9 -104 -18 -55 -10 -126 -26 -156 -38 -66 -24 -190 -98
-303 -181 -79 -57 -103 -70 -90 -49 3 6 -1 10 -9 10 -9 0 -16 -6 -16 -12 0 -9
-4 -8 -10 2 -9 13 -11 13 -20 0 -5 -8 -8 -22 -5 -30 3 -9 -1 -7 -10 4 -8 11
-15 32 -15 48 0 29 -17 37 -37 17 -7 -7 -10 5 -9 43 1 43 -2 53 -15 50 -9 -1
-16 4 -17 10 0 7 -7 30 -14 51 -11 32 -24 42 -50 38 -4 0 -10 8 -13 19 -3 10
-15 22 -26 25 -10 4 -19 13 -19 22 0 9 -6 13 -15 9 -8 -3 -21 4 -29 16 -8 11
-19 17 -24 14 -6 -3 -13 1 -16 10 -3 8 -10 12 -16 9 -5 -3 -10 -2 -10 3 0 5
-13 25 -30 43 -16 19 -30 39 -30 45 0 6 -9 19 -20 29 -11 10 -20 22 -20 28 0
5 -15 30 -33 56 -18 25 -36 54 -40 63 -7 19 11 138 22 138 12 -1 38 -25 49
-47 8 -14 18 -20 32 -16 13 4 20 0 20 -9 0 -8 7 -38 15 -66 16 -54 35 -69 35
-29 0 13 7 32 15 43 26 34 16 67 -47 155 -9 13 -20 36 -23 52 -9 34 9 36 42 5
13 -12 23 -17 23 -12 0 6 -15 25 -33 42 -43 42 -82 46 -109 11 -26 -34 -16
-69 30 -114 27 -26 32 -35 19 -35 -23 0 -68 70 -74 119 -5 33 -1 44 20 65 31
31 70 33 113 7z m-881 -18 c-9 -36 -14 -41 -25 -23 -6 9 -5 17 2 21 6 4 7 12
4 18 -4 6 0 11 9 11 14 0 16 -6 10 -27z m325 -10 c16 -21 20 -36 16 -77 -2
-28 1 -66 7 -83 12 -36 27 -40 91 -22 21 6 49 8 61 5 23 -6 78 -77 96 -123 9
-23 29 -32 29 -12 0 6 7 4 15 -5 18 -17 19 -40 5 -67 -8 -13 -7 -25 1 -40 6
-12 13 -40 15 -61 3 -32 1 -39 -11 -34 -8 3 -15 1 -15 -4 0 -5 -6 -7 -14 -4
-8 3 -17 1 -21 -5 -3 -7 0 -8 9 -5 9 3 19 -3 26 -16 8 -15 8 -20 1 -16 -6 4
-20 2 -31 -4 -17 -9 -19 -14 -9 -26 8 -10 8 -14 0 -14 -6 0 -11 -10 -11 -22 0
-19 -2 -20 -11 -8 -9 13 -10 13 -6 0 2 -8 9 -16 15 -16 7 -1 15 -3 20 -4 4 -1
10 -2 13 -2 4 1 4 -8 1 -20 -3 -14 -1 -19 6 -14 7 4 12 2 12 -3 0 -6 -5 -11
-11 -11 -5 0 -8 -4 -4 -10 3 -5 13 -7 23 -4 13 5 14 4 3 -4 -11 -8 -9 -14 8
-31 17 -17 20 -25 11 -36 -12 -14 -10 -20 23 -125 14 -43 14 -46 -3 -47 -29
-2 -77 50 -84 93 -4 21 -13 47 -21 58 -14 18 -16 18 -49 -12 -19 -17 -44 -33
-55 -37 -12 -3 -24 -18 -27 -31 -5 -18 -10 -22 -17 -15 -10 10 -11 340 -1 351
3 2 9 -2 14 -10 8 -13 12 -13 26 2 16 16 16 22 -2 110 -21 101 -19 99 -89 84
-79 -16 -90 -22 -96 -52 -5 -26 -6 -24 -17 24 -7 29 -12 68 -12 87 0 19 -10
60 -22 92 -30 79 -28 147 5 200 23 37 38 50 59 52 4 1 16 -11 28 -26z m-1240
-227 c0 -3 -4 -8 -10 -11 -5 -3 -10 -1 -10 4 0 6 5 11 10 11 6 0 10 -2 10 -4z
m-129 -190 c9 -20 7 -33 -12 -70 -12 -25 -27 -46 -32 -46 -6 0 -7 -21 -4 -52
l7 -53 -20 30 c-23 35 -26 63 -7 71 8 3 13 23 13 52 1 49 17 92 35 92 5 0 14
-11 20 -24z m1448 -80 c7 -8 8 -17 3 -19 -4 -3 -13 3 -20 14 -14 22 0 26 17 5z
m-1436 -236 c7 -29 -17 -25 -31 4 -6 13 -8 27 -5 30 9 9 30 -12 36 -34z m1782
-29 c-3 -6 -11 -11 -16 -11 -5 0 -4 6 3 14 14 16 24 13 13 -3z m428 -136 c-3
-9 -8 -14 -10 -11 -3 3 -2 9 2 15 9 16 15 13 8 -4z m26 -54 c8 -14 7 -20 -3
-24 -9 -4 -13 3 -13 19 0 29 3 30 16 5z m-481 -101 c11 -18 10 -20 -9 -20 -13
0 -18 -4 -13 -12 4 -7 3 -8 -4 -4 -17 10 -16 67 1 60 7 -2 18 -13 25 -24z
m192 -397 c0 -9 -74 -53 -87 -53 -4 0 12 14 37 30 52 33 50 32 50 23z m-714
-374 c5 -9 -5 -11 -61 -13 -40 -1 -48 17 -10 24 34 7 63 2 71 -11z m414 17 c0
-2 -8 -10 -17 -17 -16 -13 -17 -12 -4 4 13 16 21 21 21 13z m-1284 -121 c28
-19 48 -69 40 -100 -8 -31 -40 -45 -104 -46 -48 -1 -109 -15 -82 -19 8 -1 20
-2 26 -1 6 1 16 -5 22 -12 8 -9 7 -13 -6 -14 -9 -1 -45 -4 -78 -8 -59 -6 -94
5 -58 19 13 5 11 12 -14 41 -25 28 -29 39 -23 62 7 26 12 28 63 33 34 3 64 12
76 23 38 35 105 46 138 22z m-912 -51 c18 -17 21 -61 6 -84 -11 -18 -136 -18
-168 -1 -28 15 -25 57 6 81 32 26 132 28 156 4z m-584 -27 c14 -2 31 -5 38 -5
7 -1 10 -6 7 -12 -3 -5 -2 -10 4 -10 5 0 13 5 16 11 5 6 12 4 21 -8 13 -17 13
-17 14 0 0 20 20 14 20 -6 0 -14 -51 -39 -86 -41 -13 0 -24 -6 -24 -12 0 -19
-35 -44 -66 -47 -16 -2 -38 -8 -49 -14 -11 -6 -25 -8 -32 -6 -18 7 -9 -28 12
-43 10 -8 15 -17 11 -21 -4 -4 -12 0 -17 10 -6 9 -15 17 -20 17 -6 0 -7 -4 -4
-10 3 -5 -3 -10 -14 -10 -11 0 -23 -4 -26 -10 -11 -19 -33 -10 -43 18 -6 15
-11 52 -11 82 0 31 -1 60 -2 65 -5 16 11 55 22 55 6 0 8 3 6 8 -5 6 159 -2
223 -11z m788 -188 c32 -11 59 -57 48 -84 -8 -21 -80 -20 -117 2 -28 17 -48
57 -36 70 3 3 21 9 39 13 18 4 33 8 34 9 1 1 15 -4 32 -10z m-866 -67 c-2 -10
2 -10 18 -2 17 9 20 8 20 -10 0 -14 -7 -20 -22 -20 -19 -1 -16 -4 12 -16 21
-10 61 -16 101 -15 36 0 81 -4 99 -9 18 -5 38 -6 44 -2 6 4 20 7 32 7 28 1 20
-32 -10 -41 -11 -4 -27 -15 -33 -25 -19 -26 -81 -33 -136 -14 -38 13 -55 14
-87 5 -52 -14 -153 -15 -178 -1 -21 11 -31 48 -26 96 1 17 3 35 3 42 1 15 21
18 101 18 48 0 64 -3 62 -13z m2577 -124 c-1 -29 -8 -62 -14 -73 -7 -11 -15
-36 -19 -55 -4 -19 -23 -61 -43 -94 -34 -56 -35 -60 -21 -90 10 -22 12 -46 7
-81 -4 -27 -8 -86 -8 -130 -1 -94 -41 -285 -60 -285 -21 0 -31 53 -21 113 44
278 61 398 58 407 -1 5 -25 -6 -53 -25 -93 -67 -125 -25 -53 71 24 31 67 81
97 111 56 56 67 85 12 33 -48 -46 -152 -134 -183 -154 -55 -36 -77 7 -37 71
35 57 176 171 231 188 26 7 58 21 70 29 35 25 39 20 37 -36z m-633 -82 c-9
-90 -14 -106 -33 -106 -12 0 -14 7 -8 33 3 17 9 55 11 82 7 64 11 78 25 69 8
-4 9 -29 5 -78z m-2456 64 c0 -5 -7 -10 -15 -10 -8 0 -15 5 -15 10 0 6 7 10
15 10 8 0 15 -4 15 -10z m437 -106 c-3 -3 -12 -4 -19 -1 -8 3 -5 6 6 6 11 1
17 -2 13 -5z m-7 -18 c0 -2 -6 -9 -14 -15 -11 -9 -16 -9 -22 0 -4 8 -3 9 4 5
7 -4 12 -2 12 3 0 6 5 11 10 11 6 0 10 -2 10 -4z m2208 -83 c64 -36 55 -58
-23 -54 -64 3 -75 11 -75 52 0 47 20 47 98 2z m-2564 -145 c-3 -4 -11 -5 -19
-1 -21 7 -19 12 4 10 11 0 18 -5 15 -9z m3096 -48 c0 -5 -5 -10 -11 -10 -5 0
-7 5 -4 10 3 6 8 10 11 10 2 0 4 -4 4 -10z m-16 -55 c-4 -8 -8 -15 -10 -15 -2
0 -4 7 -4 15 0 8 4 15 10 15 5 0 7 -7 4 -15z m-496 -67 c19 -19 14 -28 -13
-28 -24 0 -34 18 -18 33 9 10 17 9 31 -5z m-413 -93 c0 -11 -139 -26 -167 -18
-10 2 -18 10 -18 17 0 10 23 13 93 12 54 -1 92 -5 92 -11z m150 -405 c3 -6 -1
-7 -9 -4 -18 7 -21 14 -7 14 6 0 13 -4 16 -10z m152 -44 c9 -9 -80 -7 -94 2
-6 4 11 7 38 6 28 -1 53 -5 56 -8z m136 -46 c48 -16 93 -30 101 -30 16 0 38
-24 30 -33 -7 -6 -64 15 -164 62 -82 38 -75 39 33 1z m-1453 -580 l32 -40 -59
0 c-69 0 -92 -10 -68 -30 8 -7 18 -10 22 -7 10 11 33 -14 33 -34 0 -25 4 -24
55 11 l43 30 27 -36 c28 -37 39 -80 23 -91 -6 -3 -14 0 -18 7 -12 19 -40 -29
-40 -70 0 -42 20 -75 61 -95 32 -17 41 -50 12 -41 -10 3 -82 6 -161 8 -112 2
-145 6 -151 17 -7 12 -12 11 -32 -3 -33 -23 -58 -20 -68 8 -10 25 -57 36 -145
36 -38 -1 -40 -2 -22 -15 11 -8 28 -13 38 -9 10 3 25 1 34 -4 11 -6 -12 -11
-74 -16 -90 -7 -136 1 -144 25 -2 7 -24 17 -49 23 -56 14 -64 40 -16 55 19 7
46 9 59 6 22 -6 28 0 53 50 16 31 56 86 88 121 42 46 58 70 54 84 -10 39 5 41
295 48 l86 2 32 -40z m654 -129 c3 -5 -1 -11 -9 -15 -8 -3 -15 -1 -15 5 0 6
-4 7 -10 4 -5 -3 -10 -1 -10 4 0 13 37 15 44 2z m-229 -10 c-3 -5 3 -12 12
-14 14 -4 12 -5 -5 -6 -13 0 -36 -8 -52 -16 -42 -22 -37 -10 8 19 42 28 45 30
37 17z m-105 -71 c0 -5 -4 -10 -9 -10 -6 0 -13 5 -16 10 -3 6 1 10 9 10 9 0
16 -4 16 -10z m474 -13 c16 -12 15 -14 -10 -27 -21 -12 -28 -12 -31 -2 -3 6
-10 9 -16 5 -7 -3 -3 3 7 15 22 26 26 26 50 9z m41 -7 c3 -5 1 -10 -4 -10 -6
0 -11 5 -11 10 0 6 2 10 4 10 3 0 8 -4 11 -10z m-555 -10 c-8 -5 -22 -10 -30
-10 -13 0 -13 1 0 10 8 5 22 10 30 10 13 0 13 -1 0 -10z m-515 -190 c22 -24
17 -26 -85 -34 l-75 -5 24 20 c13 10 33 19 45 19 11 0 28 5 36 10 22 14 35 12
55 -10z m985 -329 c0 -11 -137 -26 -166 -18 -10 2 4 6 31 7 28 1 61 6 75 10
35 11 60 12 60 1z m-2855 -37 c24 -11 25 -13 5 -8 -14 4 -38 13 -55 20 -24 11
-25 13 -5 8 14 -4 39 -13 55 -20z m3854 -62 c14 -26 -9 -50 -57 -58 -42 -7
-42 -6 -42 24 0 27 5 33 33 41 47 14 55 13 66 -7z m-3549 -77 c50 -25 90 -47
90 -50 0 -5 -179 82 -189 91 -14 13 20 -1 99 -41z m2945 2 c92 -14 125 -29
125 -58 0 -32 -43 -42 -160 -34 -58 3 -145 8 -195 10 -153 7 -268 15 -277 21
-20 13 -3 24 61 38 39 9 112 16 163 17 51 1 104 5 118 9 36 12 74 11 165 -3z
m-2785 -93 c0 -2 -13 2 -30 11 -16 9 -30 18 -30 21 0 2 14 -2 30 -11 17 -9 30
-18 30 -21z m257 -256 c-2 -13 -4 -5 -4 17 -1 22 1 32 4 23 2 -10 2 -28 0 -40z
m0 -140 c-2 -13 -4 -5 -4 17 -1 22 1 32 4 23 2 -10 2 -28 0 -40z m102 -80 c41
-11 86 -25 100 -33 14 -7 49 -17 76 -23 28 -6 66 -18 85 -27 l35 -16 -40 6
c-22 3 -65 14 -95 24 -56 19 -226 61 -248 61 -13 0 -17 -187 -4 -205 8 -12
243 -105 264 -105 7 0 46 -16 86 -36 61 -30 80 -35 127 -32 30 1 50 -1 46 -5
-4 -4 -39 -9 -77 -11 -38 -1 -78 -7 -89 -13 -11 -6 -47 -16 -79 -22 -59 -11
-84 -21 -53 -21 8 0 46 6 84 14 70 15 221 33 518 62 118 12 211 15 305 11
l135 -7 -38 21 c-44 23 -66 62 -50 87 5 9 16 17 24 18 8 0 29 4 46 8 18 4 42
5 53 1 28 -9 25 -43 -5 -55 -30 -11 -32 -25 -5 -47 13 -12 16 -19 8 -24 -6 -4
15 -10 48 -14 32 -4 66 -9 75 -11 10 -3 25 5 35 18 11 13 24 23 29 23 50 3
146 19 151 26 7 13 58 11 88 -2 44 -20 35 -69 -13 -69 -5 0 -22 -5 -38 -11
-25 -10 -17 -13 92 -34 66 -13 167 -35 225 -50 58 -15 115 -28 127 -27 13 0
21 -3 19 -7 -8 -13 106 -12 123 1 40 34 94 42 251 40 127 -2 162 0 192 14 20
9 44 14 52 11 18 -7 22 -42 6 -52 -5 -3 -10 -15 -10 -25 0 -11 -12 -28 -27
-37 -29 -19 -48 -20 -321 -22 l-143 -1 56 -54 c47 -47 55 -60 55 -91 0 -34 -2
-37 -22 -31 -13 3 -56 12 -96 18 -71 11 -75 11 -90 -9 -16 -21 -22 -21 -97
-13 -44 5 -92 12 -107 16 -23 4 -28 2 -28 -13 0 -28 -37 -56 -58 -44 -9 6 -13
11 -8 11 5 0 3 7 -4 15 -10 12 -10 19 -2 27 32 32 4 99 -49 124 -22 9 -39 24
-39 33 -1 11 -7 8 -21 -11 -23 -31 -166 -89 -264 -108 -33 -7 -85 -19 -115
-27 -133 -35 -537 -23 -728 22 -77 18 -196 77 -239 118 l-33 31 -1 -30 c0 -16
-3 -23 -6 -16 -8 20 -30 14 -67 -22 -39 -37 -46 -68 -20 -104 21 -30 30 -28
50 13 24 51 34 52 35 3 2 -70 5 -86 20 -101 8 -7 20 -12 28 -9 8 3 11 0 8 -6
-4 -5 15 -19 42 -31 59 -25 72 -27 45 -5 -19 15 -19 15 1 10 34 -9 247 -46
264 -46 11 0 12 3 4 11 -6 6 -40 14 -75 19 -35 4 -84 17 -109 29 l-44 21 45
-5 c25 -3 83 -12 130 -20 185 -33 389 -40 665 -20 l60 4 -80 -20 c-86 -22
-223 -26 -450 -15 -97 5 -115 4 -95 -6 41 -19 498 -16 645 5 77 11 121 14 123
7 5 -14 31 -12 86 6 48 17 73 11 45 -9 -23 -17 -53 -77 -59 -117 -5 -34 -7
-35 -65 -47 -246 -50 -816 -39 -1173 22 -98 17 -292 68 -370 97 -66 24 -159
75 -169 91 -4 7 0 6 9 -1 24 -19 79 -18 93 1 7 10 12 27 11 40 -1 21 -5 22
-75 21 -46 0 -76 -5 -79 -12 -11 -34 -72 46 -72 95 0 17 7 36 15 43 8 7 15 10
15 7 0 -3 13 -2 29 3 17 4 32 5 34 2 2 -4 2 -2 1 5 -2 7 1 15 6 18 6 4 5 12
-3 20 -9 9 -16 10 -27 2 -8 -6 -4 1 10 16 14 15 59 45 100 67 41 22 67 40 58
40 -16 0 -18 12 -18 100 l0 99 65 -40 c66 -42 81 -64 70 -101 -6 -17 -4 -20 9
-15 19 7 203 57 211 57 3 0 5 4 5 8 0 5 -45 21 -100 37 -55 15 -103 31 -106
36 -6 10 -130 50 -147 46 -9 -1 -13 40 -15 157 -2 148 -1 158 15 151 10 -4 51
-16 92 -27z m1008 -222 c-3 -7 0 -19 6 -25 6 -6 7 -14 4 -18 -11 -10 -51 33
-43 46 10 16 39 14 33 -3z m463 -6 c24 -24 25 -36 4 -44 -36 -14 -54 -7 -54
22 0 47 18 54 50 22z m-786 4 c15 -6 23 -34 10 -34 -15 0 -44 22 -39 31 7 11
9 11 29 3z m680 0 c23 -9 20 -34 -5 -34 -11 0 -17 5 -14 10 3 6 1 10 -5 10 -6
0 -8 5 -5 10 7 12 8 12 29 4z m-554 -98 c10 -13 10 -16 -4 -16 -20 0 -46 23
-46 40 0 13 31 -2 50 -24z m474 -41 c17 -13 18 -15 3 -15 -9 0 -17 5 -17 11 0
6 -7 8 -16 5 -8 -3 -12 -2 -9 4 8 13 16 12 39 -5z m1542 -131 c-11 -8 -26 -14
-33 -14 -7 0 -13 -4 -13 -10 0 -5 -12 -17 -26 -26 -22 -15 -27 -15 -40 -2 -14
13 -10 18 33 45 59 38 75 43 88 31 7 -6 3 -14 -9 -24z m995 -55 c30 -5 158
-11 284 -11 202 -1 219 -2 140 -10 -90 -9 -405 -4 -457 8 -16 4 -28 10 -28 15
0 11 -4 11 61 -2z m-5541 -278 c0 -159 -4 -251 -9 -245 -6 5 -10 117 -11 254
-2 298 -2 279 10 260 6 -9 10 -122 10 -269z m40 6 c0 -163 -3 -246 -10 -242
-6 4 -10 102 -10 263 0 170 4 252 10 242 6 -9 10 -120 10 -263z m40 16 c0
-148 -4 -253 -9 -247 -10 10 -23 489 -14 498 20 19 23 -19 23 -251z m1420 222
c-16 -19 -90 -46 -273 -100 -417 -122 -448 -128 -463 -104 -5 8 1 10 18 6 15
-4 59 3 109 18 46 14 140 41 209 60 246 68 358 103 381 119 29 20 35 20 19 1z
m4238 -27 c34 -34 -13 -82 -57 -59 -37 21 -20 71 24 71 12 0 26 -5 33 -12z
m-1243 -98 c17 -10 47 -23 68 -30 20 -6 35 -15 32 -20 -3 -4 -41 -11 -85 -15
-106 -9 -159 10 -160 58 0 11 8 17 23 17 12 0 29 5 37 10 17 11 42 5 85 -20z
m-1062 -60 c-3 -10 -11 -25 -19 -31 -12 -10 -14 -3 -14 42 l1 54 18 -22 c11
-13 17 -31 14 -43z m712 28 c7 -6 -13 -8 -59 -6 -38 2 -71 8 -73 13 -4 13 119
7 132 -7z m-785 -63 c-7 -8 -20 -15 -28 -15 -13 0 -12 3 4 15 25 19 40 19 24
0z m359 -11 l31 -7 -6 -51 c-4 -28 -9 -53 -11 -56 -3 -3 -15 7 -28 22 -35 40
-94 78 -124 79 -23 0 -24 1 -6 9 24 10 101 12 144 4z m441 -135 c0 -7 -11 1
-25 17 -33 38 -33 57 0 22 14 -15 25 -33 25 -39z m-95 31 c3 -5 -1 -10 -10
-10 -9 0 -13 5 -10 10 3 6 8 10 10 10 2 0 7 -4 10 -10z m55 -31 c0 -11 -27
-12 -34 0 -3 4 -3 11 0 14 8 8 34 -3 34 -14z m417 -15 c-3 -3 -12 -4 -19 -1
-8 3 -5 6 6 6 11 1 17 -2 13 -5z m-804 -36 c12 -6 29 -19 38 -30 9 -10 29 -19
45 -19 27 -2 27 -2 4 -6 -14 -2 -72 -15 -129 -29 -57 -14 -110 -23 -117 -20
-8 3 -14 2 -14 -3 0 -14 -62 -22 -77 -10 -11 9 -12 8 -7 -5 12 -32 -35 -18
-56 17 -41 67 -26 80 115 97 49 6 92 13 94 16 9 9 83 4 104 -8z m530 -5 c-7
-2 -19 -2 -25 0 -7 3 -2 5 12 5 14 0 19 -2 13 -5z m-2461 -52 c101 -27 190
-52 198 -55 8 -2 76 -21 150 -41 181 -50 186 -56 74 -90 -116 -35 -562 -181
-734 -240 -74 -26 -153 -47 -175 -47 -22 0 -112 22 -200 50 -88 27 -208 65
-267 83 -102 32 -140 59 -83 59 14 0 25 5 25 10 0 6 9 10 19 10 11 0 23 5 26
10 4 6 15 8 26 5 10 -4 19 -2 19 3 0 6 23 13 50 17 28 4 50 11 50 17 0 6 9 8
20 5 11 -3 27 1 35 9 8 8 29 17 47 19 48 5 78 16 78 27 0 5 9 6 20 3 11 -3 20
-2 20 3 0 6 23 13 50 17 28 4 50 10 50 14 0 9 80 32 91 26 5 -4 9 -1 9 6 0 6
8 9 20 6 11 -3 20 -1 20 4 0 5 11 9 24 9 14 0 28 5 31 10 4 6 11 8 16 4 5 -3
15 -1 22 4 30 23 69 19 241 -25 100 -26 184 -51 187 -56 4 -5 11 -7 17 -3 6 3
13 2 16 -3 3 -5 35 -14 71 -21 36 -7 65 -16 65 -21 0 -5 6 -6 14 -3 8 3 17 1
20 -5 8 -12 96 16 96 30 0 12 33 2 -340 104 -173 48 -317 88 -319 91 -10 10
28 1 201 -45z m2390 42 c-18 -2 -30 -8 -27 -12 2 -5 -7 -6 -21 -3 -14 2 -24 1
-23 -4 4 -23 -2 -26 -15 -8 -13 17 -12 20 12 25 15 4 45 6 67 6 35 0 36 -1 7
-4z m-126 -55 c21 -24 54 -55 73 -70 19 -15 32 -30 29 -33 -6 -7 -158 123
-158 135 0 19 17 9 56 -32z m14 38 c0 -11 -19 -15 -25 -6 -3 5 1 10 9 10 9 0
16 -2 16 -4z m-280 -70 c0 -8 -7 -17 -16 -20 -8 -3 -12 -2 -9 4 10 17 -11 11
-33 -9 -25 -21 -29 -36 -7 -27 8 3 15 4 15 1 0 -8 -32 -35 -43 -35 -8 0 -8 3
1 12 8 8 9 15 1 25 -7 7 -8 13 -3 13 5 0 2 5 -6 11 -12 8 -10 9 9 4 14 -4 21
-3 18 2 -6 9 0 11 43 15 11 1 20 6 20 10 0 4 2 8 5 8 3 0 5 -6 5 -14z m-120
-24 c0 -17 -38 -44 -45 -33 -3 6 -11 11 -16 11 -6 0 -8 -4 -5 -8 2 -4 0 -14
-5 -22 -8 -13 -11 -13 -23 2 -18 24 -40 3 -25 -24 7 -13 6 -18 -2 -18 -7 0 -5
-8 6 -20 29 -32 1 -23 -52 16 -26 20 -50 38 -52 40 -8 7 9 17 36 20 15 2 60
13 98 23 84 23 85 23 85 13z m162 -26 c-3 -11 -10 -24 -15 -28 -14 -8 -38 2
-31 13 3 5 0 9 -5 9 -6 0 -11 5 -11 12 0 6 9 3 20 -7 11 -10 23 -15 27 -12 4
4 -2 13 -12 21 -18 13 -17 14 7 14 21 0 25 -4 20 -22z m104 -41 c-3 -9 -11
-13 -16 -10 -8 5 -7 11 1 21 14 18 24 11 15 -11z m-281 4 c11 -17 -1 -21 -15
-4 -8 9 -8 15 -2 15 6 0 14 -5 17 -11z m-77 -24 c-3 -3 -9 2 -12 12 -6 14 -5
15 5 6 7 -7 10 -15 7 -18z m189 18 c-9 -2 -15 -9 -12 -14 4 -5 -1 -9 -9 -9
-17 0 -21 12 -9 23 3 4 16 6 27 6 17 -1 18 -2 3 -6z m118 -3 c-3 -5 -10 -10
-16 -10 -5 0 -9 5 -9 10 0 6 7 10 16 10 8 0 12 -4 9 -10z m-185 -20 c0 -5 -7
-7 -15 -4 -8 4 -15 8 -15 10 0 2 7 4 15 4 8 0 15 -4 15 -10z m-13 -50 c-1 -22
-5 -24 -27 -10 -13 8 -12 10 3 10 9 0 17 5 17 10 0 6 2 10 4 10 3 0 4 -9 3
-20z m-3782 -10 c3 -5 1 -10 -4 -10 -6 0 -11 5 -11 10 0 6 2 10 4 10 3 0 8 -4
11 -10z m3825 -16 c0 -2 -7 -4 -15 -4 -8 0 -15 4 -15 10 0 5 7 7 15 4 8 -4 15
-8 15 -10z m-1342 -15 c31 -11 90 -32 130 -46 39 -14 72 -28 72 -33 0 -4 28
-13 63 -20 60 -12 98 -30 65 -30 -9 0 -28 -14 -43 -31 -25 -31 -27 -31 -64
-19 -60 20 -67 26 -51 44 7 9 10 19 6 23 -3 4 -12 -2 -19 -11 -13 -18 -17 -17
-85 5 -67 21 -89 41 -59 52 7 3 5 6 -5 6 -10 1 -18 -3 -18 -9 0 -5 -11 -9 -24
-8 -20 2 -23 5 -15 20 8 15 4 22 -20 36 -17 9 -31 23 -31 30 0 18 33 15 98 -9z
m-1748 -209 c333 -111 625 -203 650 -206 37 -5 69 3 175 39 72 25 234 81 360
125 127 44 255 89 285 101 30 11 56 21 58 21 1 0 2 -36 2 -79 0 -53 -4 -82
-12 -88 -15 -9 -70 -30 -223 -83 -60 -21 -222 -79 -360 -129 -137 -50 -259
-91 -269 -91 -19 0 -290 87 -921 295 -176 58 -325 105 -331 105 -6 0 -14 26
-18 61 -6 65 -8 129 -3 129 1 0 275 -90 607 -200z m4438 62 c3 -23 -13 -52
-28 -52 -11 0 -21 46 -14 65 9 23 38 14 42 -13z m-2297 -28 c24 -8 93 -28 153
-44 59 -16 111 -32 115 -35 3 -4 -7 -17 -23 -30 l-28 -23 -157 53 c-109 36
-157 57 -159 69 -3 11 1 14 14 9 12 -4 15 -3 10 5 -10 17 23 15 75 -4z m525
-149 c-3 -8 -9 -21 -12 -29 -3 -9 3 -17 16 -21 17 -5 19 -10 9 -21 -9 -11 -9
-14 0 -14 7 0 9 -4 6 -10 -3 -5 -17 -10 -30 -10 -13 0 -27 -4 -30 -10 -8 -12
105 -19 145 -9 9 3 14 -2 13 -11 -3 -19 48 -40 97 -40 l33 0 -19 -21 c-19 -22
-19 -22 2 -11 22 12 65 5 76 -12 6 -9 58 4 161 40 20 8 43 14 50 14 15 0 -40
-25 -223 -102 -80 -33 -205 -87 -278 -119 -74 -33 -168 -73 -210 -90 -80 -31
-263 -109 -559 -235 -94 -41 -179 -74 -187 -74 -9 0 -16 8 -16 18 0 25 -20 42
-50 42 -14 0 -55 12 -91 26 -35 14 -102 36 -149 49 -140 40 -501 166 -435 152
39 -9 161 -40 227 -58 72 -21 92 -23 84 -11 -2 4 5 9 17 9 12 1 23 7 25 13 2
5 12 10 22 10 10 0 22 5 25 10 10 16 43 12 55 -7 10 -17 10 -17 20 0 6 9 16
17 23 17 8 0 6 -4 -3 -11 -11 -8 -4 -9 29 -4 24 3 49 9 55 12 6 4 19 8 30 8
20 2 55 42 56 63 0 8 8 30 17 49 18 39 21 35 -52 73 -22 11 -30 23 -32 45 -6
82 -12 109 -27 117 -28 16 -20 54 15 68 37 16 236 7 374 -15 50 -8 110 -15
135 -15 25 0 79 -7 121 -15 42 -8 93 -15 115 -15 21 -1 58 -2 81 -3 22 -1 48
5 57 12 23 19 20 56 -6 74 -22 14 -22 15 -5 34 9 11 17 25 17 31 0 10 24 14
154 20 49 2 57 0 52 -13z m711 -232 c2 -6 -8 -13 -22 -15 -27 -6 -32 1 -13 20
14 14 30 11 35 -5z m-4 -84 c-11 -11 -43 -2 -43 12 0 5 9 9 20 9 11 0 21 6 21
13 1 6 3 4 6 -7 3 -10 1 -22 -4 -27z m1167 -349 c0 -5 -2 -10 -4 -10 -3 0 -8
5 -11 10 -3 6 -1 10 4 10 6 0 11 -4 11 -10z m-2275 -40 c4 -6 1 -17 -5 -25
-10 -12 -10 -15 -1 -15 19 0 8 -44 -11 -48 -20 -4 -36 37 -19 48 7 4 11 11 10
16 -5 30 12 46 26 24z m-680 -356 c0 -32 -21 -39 -38 -12 -8 12 -7 21 3 32 19
24 35 14 35 -20z m-339 -12 c1 -27 -1 -30 -17 -21 -26 14 -32 28 -18 45 18 22
34 11 35 -24z"/>
<path d="M14635 8376 c-16 -11 -16 -16 -1 -66 20 -67 20 -98 1 -144 -9 -20
-13 -47 -9 -61 5 -20 1 -26 -20 -35 -14 -5 -26 -16 -26 -24 0 -22 16 -28 30
-11 16 19 29 19 49 1 9 -8 27 -16 41 -18 50 -7 74 98 41 175 -23 54 -27 103
-9 109 8 3 4 15 -12 35 -34 42 -63 55 -85 39z"/>
<path d="M14586 8237 c-9 -35 -7 -40 9 -23 17 16 19 32 6 40 -5 3 -11 -4 -15
-17z"/>
<path d="M14510 8123 c0 -5 7 -17 15 -27 14 -19 15 -19 15 7 0 17 -5 27 -15
27 -8 0 -15 -3 -15 -7z"/>
<path d="M11916 4315 c4 -8 10 -12 15 -9 14 8 10 24 -6 24 -9 0 -12 -6 -9 -15z"/>
<path d="M11985 4128 c-32 -34 -53 -64 -47 -66 5 -1 21 8 34 21 93 97 101 107
86 107 -9 0 -42 -28 -73 -62z"/>
<path d="M11768 4153 c-21 -9 -38 -19 -38 -23 0 -4 30 -10 67 -13 54 -5 70 -3
85 10 43 39 -38 57 -114 26z"/>
<path d="M12053 4083 c9 -2 23 -2 30 0 6 3 -1 5 -18 5 -16 0 -22 -2 -12 -5z"/>
<path d="M11517 2433 c-37 -6 -24 -23 17 -23 49 0 96 11 90 21 -5 9 -54 10
-107 2z"/>
<path d="M12006 2420 c15 -15 106 -17 111 -2 3 9 -12 12 -58 12 -41 0 -60 -3
-53 -10z"/>
<path d="M11633 2396 c-79 -18 -103 -32 -103 -57 0 -47 181 -86 349 -76 110 7
159 19 193 47 l23 20 -27 24 c-15 13 -51 29 -80 36 -87 18 -284 22 -355 6z"/>
<path d="M12157 2293 c-18 -17 -2 -24 50 -21 77 4 86 28 11 28 -30 0 -58 -3
-61 -7z"/>
<path d="M11332 2282 c-42 -12 -28 -27 27 -30 57 -3 88 11 61 28 -17 11 -53
11 -88 2z"/>
<path d="M11500 2271 c0 -11 67 -24 80 -16 6 4 8 11 5 16 -8 12 -85 12 -85 0z"/>
<path d="M10645 2250 c-4 -14 -13 -28 -19 -32 -8 -6 -7 -8 1 -8 15 0 36 37 30
53 -2 7 -7 1 -12 -13z"/>
<path d="M11928 2243 c-31 -5 -37 -18 -12 -27 20 -8 84 3 84 14 0 8 -27 21
-38 19 -4 -1 -19 -4 -34 -6z"/>
<path d="M11855 2190 c-3 -5 5 -15 19 -21 33 -15 116 -3 116 17 0 11 -15 14
-64 14 -36 0 -68 -4 -71 -10z"/>
<path d="M11000 2080 c0 -5 -7 -10 -17 -10 -9 0 -13 -3 -9 -7 10 -11 76 -10
76 0 0 5 6 5 13 1 8 -5 8 -2 -2 9 -14 18 -61 24 -61 7z"/>
<path d="M14787 2274 c-14 -15 -6 -43 14 -49 25 -8 42 6 37 31 -3 19 -38 31
-51 18z"/>
<path d="M12607 1790 c3 -11 7 -20 9 -20 2 0 4 9 4 20 0 11 -4 20 -9 20 -5 0
-7 -9 -4 -20z"/>
<path d="M14166 1424 c-4 -10 -1 -14 6 -12 15 5 23 28 10 28 -5 0 -13 -7 -16
-16z"/>
<path d="M10784 8545 c-3 -14 -2 -46 4 -72 l10 -48 1 73 c1 74 -4 91 -15 47z"/>
<path d="M11138 6863 c-40 -4 -46 -17 -32 -71 5 -17 11 -21 26 -16 11 3 31 1
44 -6 22 -12 22 -13 -27 -38 -41 -21 -49 -30 -49 -53 0 -15 5 -29 10 -31 6 -2
52 1 103 7 67 7 101 16 122 31 l29 21 -36 17 c-42 20 -51 37 -38 70 17 47 80
61 121 27 17 -14 23 -29 23 -62 l1 -44 55 0 c72 0 74 21 3 55 -35 17 -56 35
-66 56 -15 30 -18 31 -93 37 -78 7 -128 7 -196 0z"/>
<path d="M12061 6774 c0 -11 3 -14 6 -6 3 7 2 16 -1 19 -3 4 -6 -2 -5 -13z"/>
<path d="M13095 6030 c-13 -15 -15 -24 -8 -31 14 -14 80 16 80 36 0 22 -51 18
-72 -5z"/>
<path d="M10324 5765 c-16 -25 -15 -28 15 -88 19 -37 29 -70 26 -80 -8 -19
-40 -31 -55 -22 -12 7 -4 -83 11 -122 14 -39 29 -25 29 27 0 41 4 52 24 65 18
12 30 13 50 5 40 -15 48 -13 44 13 -2 16 -11 23 -30 25 -22 3 -29 11 -38 40
-5 20 -10 57 -10 82 -1 45 -17 80 -38 80 -7 0 -19 -11 -28 -25z"/>
<path d="M11325 5415 c-16 -7 -41 -23 -55 -34 l-25 -20 25 -10 c14 -5 61 -37
105 -70 l79 -59 27 22 c18 16 52 27 105 36 44 7 72 15 64 17 -102 27 -154 51
-198 89 -53 47 -77 52 -127 29z"/>
<path d="M9896 5282 c-3 -4 -3 -17 -2 -28 2 -10 -1 -27 -6 -36 -5 -12 -5 -18
2 -18 5 0 9 -3 9 -7 -3 -21 2 -33 16 -33 17 0 17 0 19 50 1 19 7 44 13 55 10
19 8 21 -17 23 -16 1 -31 -1 -34 -6z"/>
<path d="M10315 5280 c-13 -21 -35 -129 -29 -145 7 -17 30 -20 39 -5 10 16 14
135 6 149 -7 10 -10 10 -16 1z"/>
<path d="M11910 5165 l-35 -14 40 6 c22 3 49 9 60 14 18 7 17 8 -5 8 -14 0
-41 -7 -60 -14z"/>
<path d="M11827 5149 c8 -8 16 -8 30 0 16 9 14 10 -11 11 -22 0 -27 -3 -19
-11z"/>
<path d="M10059 5142 c-27 -3 -39 -23 -39 -69 0 -11 -14 -33 -31 -47 -17 -14
-28 -30 -25 -35 6 -9 92 -31 121 -31 8 0 15 7 15 15 0 8 9 32 20 52 22 41 25
79 10 103 -9 15 -25 18 -71 12z"/>
<path d="M11765 5140 c27 -12 35 -12 35 0 0 6 -12 10 -27 9 -25 0 -26 -1 -8
-9z"/>
<path d="M12215 4780 c21 -24 26 -25 19 -6 -3 8 -13 17 -22 21 -13 5 -13 2 3
-15z"/>
<path d="M12090 4745 c13 -14 26 -25 28 -25 3 0 -5 11 -18 25 -13 14 -26 25
-28 25 -3 0 5 -11 18 -25z"/>
<path d="M12120 4761 c0 -6 5 -13 12 -17 6 -4 8 -3 4 4 -3 6 2 13 11 15 14 4
13 5 -4 6 -13 0 -23 -3 -23 -8z"/>
<path d="M12195 4620 c3 -5 11 -10 16 -10 6 0 7 5 4 10 -3 6 -11 10 -16 10 -6
0 -7 -4 -4 -10z"/>
<path d="M12446 4506 c4 -11 0 -22 -12 -32 -18 -15 -18 -15 1 -6 11 5 26 7 33
5 19 -7 14 12 -8 32 -19 17 -20 17 -14 1z"/>
<path d="M12340 4490 c0 -5 7 -10 16 -10 8 0 12 5 9 10 -3 6 -10 10 -16 10 -5
0 -9 -4 -9 -10z"/>
<path d="M12315 4470 c10 -11 29 -19 44 -19 23 2 23 2 4 6 -12 2 -27 11 -33
19 -7 8 -17 14 -23 14 -5 0 -2 -9 8 -20z"/>
<path d="M10060 4290 c0 -5 4 -10 9 -10 6 0 13 5 16 10 3 6 -1 10 -9 10 -9 0
-16 -4 -16 -10z"/>
<path d="M9715 4160 c-27 -4 -86 -6 -130 -4 -52 2 -85 -1 -96 -9 -8 -7 -20
-38 -26 -71 -9 -54 -8 -59 8 -63 28 -8 23 -21 -6 -15 -24 4 -24 4 -9 -27 l15
-31 127 1 c160 1 216 14 220 50 3 24 0 26 -25 23 -27 -4 -27 -4 -5 7 19 10 22
20 22 65 0 29 -3 59 -6 68 -7 17 -12 17 -89 6z m-220 -51 c-6 -29 -15 -37 -15
-12 0 17 8 33 16 33 2 0 1 -10 -1 -21z m50 -109 c3 -5 -1 -10 -10 -10 -9 0
-13 5 -10 10 3 6 8 10 10 10 2 0 7 -4 10 -10z m135 0 c0 -5 -8 -10 -17 -10
-15 0 -16 2 -3 10 19 12 20 12 20 0z"/>
<path d="M10160 4070 c-12 -7 -7 -12 24 -25 45 -19 51 -16 30 13 -16 24 -31
27 -54 12z"/>
<path d="M9756 3922 c-2 -4 -1 -14 4 -22 7 -11 14 -12 34 -2 14 6 26 16 26 22
0 12 -57 14 -64 2z"/>
<path d="M10106 3885 c3 -8 26 -26 51 -40 48 -29 219 -86 228 -77 3 3 5 13 5
22 0 17 -45 34 -175 65 -38 10 -80 23 -92 31 -19 12 -22 12 -17 -1z"/>
<path d="M11528 3757 c-21 -10 -24 -16 -17 -30 8 -13 6 -17 -6 -17 -8 0 -14 3
-14 8 3 19 -3 21 -19 5 -13 -12 -16 -22 -9 -30 13 -18 28 -16 21 1 -4 11 0 13
15 9 11 -3 18 -9 15 -14 -3 -5 6 -8 20 -7 23 2 24 3 10 30 -18 35 -18 42 2 34
8 -3 13 -2 9 3 -3 5 1 12 7 14 7 3 9 5 3 5 -5 0 -22 -5 -37 -11z"/>
<path d="M10463 3656 c5 -14 57 -21 57 -7 0 6 -3 12 -7 12 -37 6 -53 5 -50 -5z"/>
<path d="M9461 3574 c0 -11 3 -14 6 -6 3 7 2 16 -1 19 -3 4 -6 -2 -5 -13z"/>
<path d="M9471 3114 c0 -11 3 -14 6 -6 3 7 2 16 -1 19 -3 4 -6 -2 -5 -13z"/>
<path d="M9033 2489 c-48 -11 -55 -26 -18 -35 32 -8 191 -1 201 9 27 26 -103
45 -183 26z"/>
<path d="M9232 2185 c0 -16 2 -22 5 -12 2 9 2 23 0 30 -3 6 -5 -1 -5 -18z"/>
<path d="M8775 1908 c-3 -13 -9 -41 -11 -62 -3 -22 -10 -48 -15 -57 -15 -29
-11 -39 16 -39 25 0 25 1 25 90 0 50 -2 90 -4 90 -2 0 -7 -10 -11 -22z"/>
<path d="M8961 1894 c0 -11 3 -14 6 -6 3 7 2 16 -1 19 -3 4 -6 -2 -5 -13z"/>
<path d="M8500 1465 c-7 -9 -8 -15 -2 -15 5 0 12 7 16 15 3 8 4 15 2 15 -2 0
-9 -7 -16 -15z"/>
</g>
</svg>
