<?xml version="1.0" standalone="no"?>
<!DOCTYPE svg PUBLIC "-//W3C//DTD SVG 20010904//EN"
 "http://www.w3.org/TR/2001/REC-SVG-20010904/DTD/svg10.dtd">
<svg version="1.0" xmlns="http://www.w3.org/2000/svg"
 width="1586.000000pt" height="992.000000pt" viewBox="0 0 1586.000000 992.000000"
 preserveAspectRatio="xMidYMid meet">

<g transform="translate(0.000000,992.000000) scale(0.100000,-0.100000)"
fill="#000000" stroke="none">
<path d="M15322 8805 c-50 -7 -88 -17 -93 -26 -5 -8 -14 -21 -19 -30 -10 -17
-60 -32 -60 -18 0 4 8 12 18 18 12 7 14 13 7 20 -17 18 -51 -14 -90 -83 -19
-35 -35 -69 -35 -76 0 -7 -9 -21 -21 -31 -15 -13 -19 -24 -14 -40 6 -17 4 -21
-8 -16 -69 26 -153 14 -126 -19 9 -12 4 -14 -29 -14 -44 0 -57 17 -54 73 2 17
-4 30 -13 33 -8 4 -15 13 -15 21 0 13 -3 13 -15 3 -9 -7 -13 -15 -11 -18 7 -7
-30 -72 -50 -87 -28 -20 -3 -42 42 -40 34 2 74 -18 74 -37 0 -11 -69 -10 -110
2 -38 11 -54 -1 -44 -32 4 -13 -2 -21 -21 -28 -33 -13 -58 -13 -50 -1 9 15
-51 41 -64 28 -18 -18 -12 -44 11 -50 18 -5 19 -8 8 -21 -10 -13 -10 -16 4
-16 9 0 16 -4 16 -10 0 -14 -70 -32 -110 -28 l-35 4 45 13 c53 17 73 31 43 31
-11 0 -40 7 -64 15 -38 14 -44 14 -58 0 -13 -13 -14 -19 -3 -36 12 -19 11 -20
-8 -14 -18 6 -21 3 -18 -17 4 -31 -23 -31 -38 1 l-12 23 -7 -31 c-4 -20 -2
-37 5 -46 9 -11 7 -17 -9 -27 -15 -9 -17 -15 -9 -25 8 -10 3 -14 -21 -19 -17
-4 -31 -10 -31 -15 0 -4 -9 -11 -21 -14 -15 -5 -19 -14 -17 -32 3 -25 -7 -35
-45 -47 -9 -3 -20 -14 -24 -23 -8 -21 -44 -58 -67 -66 -8 -3 -13 -13 -10 -21
3 -8 1 -17 -4 -20 -6 -3 -8 -15 -5 -26 7 -26 -7 -25 -41 1 l-26 20 0 -20 c0
-14 11 -25 36 -36 20 -8 38 -24 41 -34 3 -11 15 -21 27 -23 18 -3 22 -12 29
-63 5 -33 14 -82 22 -110 41 -152 40 -141 28 -220 -12 -81 -2 -115 47 -154 54
-44 88 -114 100 -209 6 -46 16 -81 25 -88 8 -6 12 -19 8 -32 -8 -31 18 -111
39 -118 9 -3 20 -14 23 -25 15 -47 50 3 66 97 6 38 20 90 30 116 14 37 17 62
12 108 -6 58 -5 60 30 95 38 38 55 42 95 21 58 -31 97 -89 126 -187 12 -44 13
-63 5 -88 -8 -22 -8 -40 0 -63 6 -17 9 -52 6 -77 -2 -25 -7 -93 -10 -151 -4
-71 -12 -118 -25 -148 -27 -60 -25 -93 6 -116 29 -21 77 -18 117 9 13 8 44 52
67 98 l43 82 -2 109 c-1 78 -8 126 -21 167 -35 101 -21 122 23 37 15 -29 40
-73 55 -98 16 -25 34 -67 42 -95 7 -27 21 -60 30 -72 9 -12 32 -57 50 -100 19
-43 38 -79 42 -81 4 -2 8 -8 8 -14 0 -6 10 -23 23 -38 12 -15 28 -36 36 -48 8
-11 32 -30 54 -42 29 -17 36 -25 26 -31 -10 -6 -6 -9 12 -9 27 0 51 -31 30
-38 -6 -2 -11 -8 -11 -14 0 -6 7 -7 16 -4 8 3 33 3 55 0 29 -5 39 -11 39 -25
0 -16 8 -19 50 -19 42 0 52 -4 66 -25 9 -14 22 -24 28 -22 6 2 19 0 30 -5 13
-7 16 -7 12 1 -9 13 35 15 49 2 6 -4 27 -11 48 -14 45 -7 47 10 4 31 -30 14
-27 32 4 32 10 0 19 6 19 13 0 18 37 47 60 47 20 0 20 9 20 1240 l0 1239 -38
11 c-22 5 -49 19 -62 30 -13 11 -31 20 -41 20 -9 0 -32 12 -50 27 -30 26 -37
27 -148 29 -64 1 -154 -4 -199 -11z m-46 -83 c-10 -11 -16 -12 -16 -4 0 19 4
27 13 25 4 -2 7 3 8 10 0 9 2 8 6 -1 3 -8 -2 -21 -11 -30z m-449 -377 c8 -22
-6 -33 -17 -15 -13 20 -12 30 0 30 6 0 13 -7 17 -15z m-142 -95 c3 -5 -1 -10
-9 -10 -9 0 -16 5 -16 10 0 6 4 10 9 10 6 0 13 -4 16 -10z"/>
<path d="M15036 8750 c-27 -21 -61 -59 -75 -84 -24 -43 -25 -48 -11 -73 21
-38 45 -41 48 -7 1 15 -3 33 -9 40 -8 9 -8 14 -1 14 6 0 12 -5 14 -12 7 -20
27 1 54 58 14 30 29 54 33 54 4 0 13 11 19 25 17 38 -12 32 -72 -15z"/>
<path d="M14880 8710 c-11 -11 -27 -20 -35 -20 -8 0 -19 -9 -25 -19 -15 -29
-12 -36 8 -19 9 8 29 19 44 26 15 6 32 20 38 32 14 26 -3 27 -30 0z"/>
<path d="M14580 8471 c0 -27 15 -34 31 -15 10 13 10 17 -2 25 -22 13 -29 11
-29 -10z"/>
<path d="M14441 8424 c-8 -17 -8 -31 -2 -37 22 -22 41 21 23 51 -6 9 -12 5
-21 -14z"/>
<path d="M14542 8439 c2 -6 8 -10 13 -10 5 0 11 4 13 10 2 6 -4 11 -13 11 -9
0 -15 -5 -13 -11z"/>
<path d="M14547 7123 c-4 -3 -7 -13 -7 -22 0 -19 61 -141 71 -141 8 0 19 52
19 87 0 54 -55 105 -83 76z"/>
<path d="M14150 6829 c0 -5 5 -7 10 -4 6 3 10 8 10 11 0 2 -4 4 -10 4 -5 0
-10 -5 -10 -11z"/>
<path d="M14630 6750 c0 -56 10 -75 25 -50 9 15 -5 110 -16 110 -5 0 -9 -27
-9 -60z"/>
<path d="M14396 6711 c-8 -13 12 -63 22 -57 5 3 7 19 4 36 -4 30 -15 39 -26
21z"/>
<path d="M14390 6601 c0 -6 4 -13 10 -16 6 -3 7 1 4 9 -7 18 -14 21 -14 7z"/>
<path d="M14506 6315 c-3 -8 -12 -12 -21 -9 -8 3 -15 2 -15 -2 1 -17 26 -42
45 -45 17 -4 20 -14 23 -67 2 -42 -1 -62 -9 -62 -8 0 -10 -12 -5 -39 5 -33 3
-39 -16 -48 -22 -10 -29 -36 -29 -104 0 -31 -4 -38 -24 -43 -22 -6 -23 -9 -13
-42 5 -20 7 -42 4 -50 -3 -8 -1 -50 5 -92 6 -42 12 -89 13 -103 3 -43 45 -88
108 -119 117 -57 253 -82 328 -61 21 6 25 12 22 42 -4 39 -45 168 -66 207 -35
66 -58 140 -62 196 -4 67 -27 142 -42 139 -6 -1 -13 13 -16 32 -4 20 -14 36
-25 40 -9 3 -24 20 -32 37 -8 18 -24 37 -35 43 -12 6 -28 16 -36 23 -8 6 -18
9 -21 5 -4 -3 -7 -2 -7 3 0 6 5 15 11 21 10 10 2 63 -10 63 -4 0 -12 -5 -18
-11 -7 -7 -12 0 -17 25 -7 37 -29 48 -40 21z m67 -181 c9 -9 -4 -35 -14 -28
-5 3 -9 12 -9 20 0 14 12 19 23 8z"/>
<path d="M15680 6086 c0 -2 14 -18 30 -36 17 -18 30 -27 30 -22 0 6 -11 23
-25 37 -24 24 -35 30 -35 21z"/>
<path d="M14012 6062 c-22 -17 -22 -19 -5 -33 10 -9 34 -16 53 -17 19 -1 44
-3 55 -4 15 -2 21 4 23 24 3 22 -2 30 -23 38 -39 15 -77 12 -103 -8z"/>
<path d="M15780 6041 c0 -6 5 -13 10 -16 6 -3 10 1 10 9 0 9 -4 16 -10 16 -5
0 -10 -4 -10 -9z"/>
<path d="M15837 6013 c-10 -3 -20 -17 -24 -34 -8 -40 -17 -45 -122 -73 -103
-28 -174 -69 -376 -219 -224 -165 -399 -350 -576 -604 -33 -48 -72 -98 -85
-111 -13 -13 -24 -29 -24 -37 0 -8 -5 -17 -11 -21 -8 -4 -9 3 -4 25 6 30 6 31
-29 31 -43 0 -56 -23 -56 -98 0 -36 5 -50 20 -60 27 -17 18 -31 -51 -82 -60
-43 -68 -70 -15 -50 33 12 46 13 46 1 0 -27 -156 -64 -170 -40 -7 10 -11 10
-24 0 -9 -7 -14 -16 -12 -20 3 -4 -4 -7 -14 -8 -10 -1 -89 -25 -176 -54 -155
-51 -161 -54 -221 -112 -35 -33 -74 -80 -88 -104 -16 -26 -41 -51 -64 -63 -94
-48 -222 -206 -260 -323 -16 -47 -33 -43 -45 11 -5 23 -14 42 -21 42 -6 0 -19
17 -29 38 -19 39 -146 371 -252 662 -66 178 -97 230 -142 230 -25 0 -624 -94
-1342 -211 -135 -22 -384 -62 -555 -90 -170 -27 -325 -56 -342 -64 -36 -16
-49 -48 -39 -92 6 -23 107 -337 257 -800 20 -61 36 -94 48 -98 25 -8 72 -60
130 -144 28 -41 51 -70 51 -65 0 6 -77 239 -171 520 -209 623 -191 564 -176
569 7 2 89 16 182 31 211 32 1892 312 1921 319 19 4 25 -5 52 -78 17 -45 93
-246 170 -447 76 -201 149 -395 161 -433 l23 -67 39 0 c21 0 39 -2 39 -4 0 -2
-11 -28 -25 -58 -14 -29 -25 -64 -25 -78 0 -36 -15 -56 -32 -43 -7 6 -44 16
-82 22 -38 7 -80 21 -94 31 -22 18 -37 19 -159 15 -76 -2 -141 -9 -146 -14 -6
-6 -29 -11 -51 -11 -23 0 -58 -5 -79 -11 -31 -8 -36 -13 -27 -24 21 -25 109
-38 175 -26 57 11 281 22 288 14 2 -2 -7 -25 -20 -50 -13 -26 -22 -54 -21 -61
2 -7 32 -23 68 -35 71 -24 71 -25 45 -97 -12 -32 -16 -65 -12 -112 l4 -67 -56
28 c-31 16 -61 26 -68 24 -28 -10 34 -129 73 -139 29 -7 32 -34 4 -34 -13 0
-27 14 -40 40 -11 22 -25 40 -31 40 -12 0 -333 -74 -977 -225 -271 -63 -495
-115 -498 -115 -3 0 -3 -19 1 -42 13 -89 17 -100 31 -94 16 6 274 66 283 66 4
0 -1 -5 -9 -10 -11 -7 -11 -10 -2 -10 7 0 10 -5 7 -10 -4 -6 -28 -8 -58 -5
-29 3 -46 2 -39 -1 23 -11 12 -21 -34 -34 -99 -28 27 -41 149 -15 89 19 121
35 125 64 2 14 0 21 -6 17 -6 -4 -13 -2 -16 3 -4 5 3 12 14 16 11 4 18 11 15
16 -4 5 6 9 22 10 36 1 44 3 128 27 39 12 113 30 165 42 52 12 136 30 185 41
50 11 127 26 171 34 45 8 125 29 178 46 53 17 101 29 107 27 7 -2 1 -16 -13
-33 -40 -48 -64 -102 -98 -225 -41 -149 -38 -142 -107 -235 -33 -44 -81 -121
-107 -171 -25 -51 -52 -96 -59 -101 -6 -5 -47 -22 -90 -37 -74 -27 -178 -86
-223 -128 l-22 -20 -78 60 c-77 58 -247 152 -276 152 -31 0 -137 81 -238 182
-135 134 -181 162 -269 162 -109 0 -193 -48 -280 -158 -62 -79 -84 -122 -117
-236 -45 -156 -26 -251 77 -387 38 -50 39 -54 29 -96 -7 -35 -5 -67 15 -162
14 -69 32 -126 42 -138 18 -20 17 -20 -22 -14 -22 3 -48 8 -57 12 -10 4 -18 3
-18 -2 0 -5 14 -14 31 -20 21 -8 30 -17 26 -26 -3 -8 0 -20 6 -26 9 -9 8 -14
-3 -21 -18 -11 -12 -18 58 -55 31 -16 57 -37 58 -45 2 -33 5 -38 22 -42 10 -3
50 -41 88 -85 38 -44 84 -90 103 -102 22 -15 30 -26 22 -30 -11 -7 66 -47 197
-101 28 -13 52 -28 52 -35 0 -18 -94 -72 -260 -147 -280 -128 -365 -166 -388
-173 -13 -4 -22 -9 -19 -11 2 -3 28 4 56 16 90 35 79 21 -19 -26 -85 -41 -124
-58 -280 -124 -173 -73 -429 -179 -450 -185 -14 -4 -70 -27 -125 -50 -55 -23
-147 -60 -205 -81 l-105 -39 56 -3 c60 -3 76 3 449 159 63 26 151 61 195 77
44 17 150 58 235 92 522 209 882 340 935 340 18 0 52 -14 84 -35 29 -19 57
-35 62 -35 6 0 34 -18 63 -40 29 -22 74 -47 100 -56 25 -9 46 -20 46 -25 0
-26 -208 -125 -660 -316 -124 -52 -261 -110 -305 -129 l-80 -34 2318 0 2317 0
0 3010 c0 1656 -1 3009 -2 3009 -2 -1 -11 -3 -21 -6z m-3794 -3300 c-7 -2 -21
-2 -30 0 -10 3 -4 5 12 5 17 0 24 -2 18 -5z m590 -810 c24 -7 16 -26 -16 -37
-18 -7 -35 -6 -54 3 l-28 13 24 19 c14 12 31 17 40 13 9 -3 24 -9 34 -11z
m-1013 -233 c-19 -13 -30 -13 -30 0 0 6 10 10 23 10 18 0 19 -2 7 -10z"/>
<path d="M13580 5720 c0 -16 30 -39 51 -40 31 0 116 -30 136 -47 31 -27 24
-122 -11 -160 -30 -32 -32 -46 -10 -67 8 -9 13 -16 11 -16 -3 0 3 -22 13 -49
15 -42 16 -53 4 -73 -32 -56 -33 -62 -12 -81 41 -34 53 -19 56 68 4 128 4 156
-3 235 -4 41 -8 106 -9 143 -2 37 -8 73 -15 80 -17 17 -211 23 -211 7z"/>
<path d="M14004 5686 c-3 -8 -4 -27 -2 -43 6 -56 78 -36 78 23 0 33 -65 50
-76 20z"/>
<path d="M11165 5434 c-10 -8 -22 -11 -28 -7 -6 4 -7 1 -2 -6 4 -7 16 -11 26
-8 11 3 17 2 14 -3 -9 -15 54 -33 93 -25 20 4 58 7 84 6 89 -1 54 26 -47 36
-16 1 -51 6 -76 11 -34 6 -52 5 -64 -4z"/>
<path d="M10953 5399 c-24 -4 -50 -12 -60 -17 -9 -5 -28 -6 -42 -2 -15 4 -65
-1 -116 -10 -49 -10 -107 -20 -129 -24 -61 -11 -36 -18 73 -18 84 -1 104 2
121 17 25 22 87 27 117 9 15 -10 29 -11 45 -5 13 5 35 12 50 15 19 4 26 12 25
26 -1 22 -14 23 -84 9z"/>
<path d="M11660 5381 c0 -15 31 -29 80 -37 50 -8 80 -34 80 -68 0 -22 -5 -24
-67 -29 -50 -5 -98 -1 -180 15 -106 21 -113 21 -131 5 -10 -9 -35 -17 -55 -17
-20 0 -38 -4 -42 -10 -7 -11 -36 -2 -50 15 -17 20 -49 25 -75 12 -22 -11 -28
-11 -38 0 -17 17 -42 17 -42 -2 0 -8 6 -12 13 -10 6 3 34 -6 61 -20 32 -16 57
-23 73 -19 15 4 30 0 42 -10 28 -25 120 -56 168 -56 23 0 64 -4 90 -9 26 -5
64 -12 85 -16 28 -4 38 -12 46 -33 5 -15 6 -36 1 -47 -4 -11 -8 -30 -8 -42 -1
-28 25 -29 143 -8 88 16 99 22 102 65 3 40 -17 53 -87 56 -32 1 -66 8 -75 15
-44 36 -41 93 4 86 38 -7 137 -55 158 -78 9 -10 29 -19 43 -19 36 0 101 -19
101 -30 0 -5 25 -20 56 -35 47 -22 64 -25 105 -20 68 10 88 38 62 88 -23 46
-158 118 -292 157 -53 16 -139 44 -191 63 -107 39 -180 55 -180 38z"/>
<path d="M12377 5223 c-13 -13 -6 -21 39 -48 40 -24 49 -25 75 -15 42 18 36
34 -18 53 -50 18 -85 22 -96 10z"/>
<path d="M12922 5148 c-6 -8 -9 -18 -5 -21 9 -10 -17 -36 -31 -31 -39 15 -16
-85 29 -124 23 -20 42 -23 160 -22 22 0 93 -7 157 -16 132 -19 154 -14 143 35
-3 14 -7 55 -9 90 -6 87 -12 91 -116 80 -47 -5 -101 -7 -120 -4 -19 3 -53 7
-75 10 -22 2 -58 7 -80 10 -30 5 -44 3 -53 -7z"/>
<path d="M13556 5108 c-9 -12 -16 -35 -16 -50 0 -28 -26 -62 -41 -53 -4 3 -14
24 -20 45 -13 43 -23 50 -33 24 -10 -25 -7 -92 4 -99 6 -3 10 -14 10 -24 0
-34 91 -63 224 -73 66 -5 123 -5 127 -1 9 9 -6 168 -19 203 -8 20 -20 26 -78
36 -108 19 -140 18 -158 -8z"/>
<path d="M10418 5078 c-3 -7 -3 -24 -1 -38 2 -14 5 -37 5 -51 1 -19 12 -33 41
-53 38 -24 42 -25 59 -9 27 25 22 39 -22 53 -21 7 -37 17 -34 21 3 5 0 9 -7 9
-8 0 -6 7 5 19 24 26 13 61 -19 61 -12 0 -25 -6 -27 -12z"/>
<path d="M11315 5053 c-170 -31 -305 -63 -330 -79 -30 -18 -92 -27 -97 -13 -2
6 -19 14 -38 18 -29 6 -36 12 -40 36 -3 19 -12 31 -25 34 -16 3 -17 1 -6 -12
7 -9 11 -26 9 -39 -4 -30 -51 -37 -79 -12 -18 16 -19 16 -19 -4 0 -12 8 -25
18 -31 9 -5 24 -29 32 -53 19 -53 43 -60 60 -18 14 33 53 50 79 33 9 -6 20
-31 25 -57 9 -53 18 -56 79 -25 36 19 47 20 87 11 28 -7 60 -8 85 -3 90 20
105 24 105 28 0 2 -10 17 -21 33 -24 32 -20 60 10 60 10 0 32 7 47 15 28 14
84 21 84 10 0 -3 -5 -14 -12 -24 -9 -15 -9 -23 1 -35 20 -24 42 -19 70 15 26
31 29 32 116 26 52 -3 59 22 13 46 -18 9 -44 25 -58 36 -39 30 -56 30 -195 4z"/>
<path d="M12406 5015 c-16 -9 -49 -20 -73 -26 -77 -20 -50 -33 55 -26 74 5
100 11 109 24 29 38 -34 57 -91 28z"/>
<path d="M12050 4970 c-25 -5 -71 -11 -102 -15 -32 -3 -58 -10 -58 -15 0 -11
50 -17 166 -19 98 -2 102 -1 118 23 9 14 16 28 16 31 0 7 -87 4 -140 -5z"/>
<path d="M10592 4920 c1 -42 25 -61 44 -35 21 28 17 52 -8 59 -35 9 -37 8 -36
-24z"/>
<path d="M11820 4930 c-11 -11 -20 -27 -20 -36 0 -13 -9 -15 -64 -9 -35 4 -82
4 -103 0 -35 -5 -41 -11 -51 -41 -9 -29 -8 -36 4 -41 20 -7 99 2 188 23 104
23 98 21 84 43 -10 17 -9 23 6 40 34 37 -8 57 -44 21z"/>
<path d="M11157 4724 c-13 -13 5 -24 39 -24 19 0 34 4 34 9 0 17 -59 29 -73
15z"/>
<path d="M11941 4221 c-8 -5 -11 -16 -6 -30 5 -17 13 -21 33 -19 14 2 27 9 28
16 1 7 0 8 -3 2 -2 -5 -14 -10 -25 -10 -16 0 -19 5 -16 25 3 14 5 25 4 25 0 0
-7 -4 -15 -9z"/>
<path d="M11975 4220 c3 -5 8 -10 11 -10 2 0 4 5 4 10 0 6 -5 10 -11 10 -5 0
-7 -4 -4 -10z"/>
<path d="M11287 4124 c-3 -4 -21 -8 -39 -10 -18 -2 -44 -16 -58 -30 -23 -23
-24 -26 -7 -38 9 -7 17 -18 17 -24 0 -19 36 -23 72 -8 22 9 49 13 72 9 38 -6
38 -5 50 50 6 25 3 29 -28 42 -37 16 -69 19 -79 9z"/>
<path d="M12100 3913 c1 -5 8 -19 16 -33 8 -14 13 -17 10 -7 -3 10 -6 25 -6
33 0 8 -4 14 -10 14 -5 0 -10 -3 -10 -7z"/>
<path d="M12047 3904 c-3 -3 -1 -19 5 -35 7 -20 15 -28 25 -25 8 3 20 6 26 6
8 0 8 3 -1 9 -7 4 -14 18 -15 29 -1 21 -26 30 -40 16z m31 -39 c-3 -3 -9 2
-12 12 -6 14 -5 15 5 6 7 -7 10 -15 7 -18z"/>
<path d="M11353 3830 c-30 -12 -64 -70 -57 -95 9 -30 45 -65 81 -80 66 -28
127 23 112 93 -7 36 -37 74 -53 69 -6 -2 -17 2 -24 10 -15 15 -28 16 -59 3z
m67 -85 c0 -19 -20 -29 -32 -17 -15 15 -2 43 17 36 8 -3 15 -12 15 -19z"/>
<path d="M10915 3719 c-4 -6 1 -16 11 -24 20 -14 30 -4 20 20 -6 18 -22 20
-31 4z"/>
<path d="M10720 3596 c0 -9 -4 -16 -10 -16 -5 0 -10 -9 -10 -21 0 -11 4 -17
10 -14 13 8 68 -21 103 -53 17 -16 40 -27 61 -27 32 -2 34 0 40 36 4 23 18 49
37 68 17 17 29 31 27 32 -2 0 -60 3 -130 5 -111 5 -128 3 -128 -10z"/>
<path d="M11459 3493 c0 -12 -2 -13 -6 -5 -4 10 -8 10 -19 1 -20 -17 -17 -73
6 -119 20 -39 33 -49 44 -32 3 5 19 7 37 4 26 -4 29 -6 15 -14 -9 -5 -21 -6
-28 -2 -7 4 -8 3 -4 -4 10 -17 41 -15 65 6 43 34 26 162 -21 162 -10 0 -18 5
-18 10 0 6 -16 10 -35 10 -26 0 -35 -4 -36 -17z m76 -47 c32 -32 24 -66 -16
-66 -22 0 -34 8 -49 32 l-20 33 23 12 c30 17 35 16 62 -11z m-92 -26 c3 -11 1
-18 -4 -14 -5 3 -9 12 -9 20 0 20 7 17 13 -6z m147 -54 c0 -2 -8 -10 -17 -17
-16 -13 -17 -12 -4 4 13 16 21 21 21 13z"/>
<path d="M11480 3439 c0 -5 5 -7 10 -4 6 3 10 8 10 11 0 2 -4 4 -10 4 -5 0
-10 -5 -10 -11z"/>
<path d="M11500 3425 c-10 -12 -10 -19 -2 -27 9 -9 12 -7 12 8 0 15 2 16 10 4
11 -18 25 -7 17 15 -8 19 -21 19 -37 0z"/>
<path d="M10674 3469 c-30 -11 -39 -28 -19 -35 18 -7 50 18 44 34 -2 6 -13 6
-25 1z"/>
<path d="M10765 3412 c-120 -46 -111 -41 -87 -58 18 -12 32 -13 89 -3 95 16
100 20 70 52 -13 15 -26 27 -28 26 -2 -1 -22 -8 -44 -17z"/>
<path d="M10575 3380 c3 -5 8 -10 11 -10 2 0 4 5 4 10 0 6 -5 10 -11 10 -5 0
-7 -4 -4 -10z"/>
<path d="M13018 3343 c15 -27 33 -39 59 -41 18 -1 22 4 21 24 -2 22 -7 25 -33
23 -17 -2 -36 1 -44 5 -10 7 -11 4 -3 -11z"/>
<path d="M11063 3173 c9 -17 23 -33 32 -36 8 -4 15 -13 15 -21 0 -7 7 -16 15
-20 8 -3 15 -2 15 3 0 15 -45 74 -69 90 l-24 15 16 -31z"/>
<path d="M11565 3172 c-16 -9 -32 -18 -34 -20 -3 -1 0 -7 6 -13 7 -7 25 -6 59
2 53 13 101 39 72 39 -8 0 -28 2 -44 4 -17 3 -42 -2 -59 -12z"/>
<path d="M11710 3016 c-6 -8 -26 -17 -43 -19 l-32 -4 31 -1 c20 -1 37 5 49 18
10 11 16 20 13 20 -3 0 -11 -6 -18 -14z"/>
<path d="M10140 2900 c0 -6 29 -10 68 -10 47 0 63 3 52 10 -20 13 -120 13
-120 0z"/>
<path d="M9835 2849 c-69 -15 -126 -40 -119 -51 4 -6 2 -8 -3 -5 -17 11 -57
-27 -50 -46 9 -23 73 -53 144 -67 97 -19 314 -9 384 19 68 26 98 55 83 79 -15
25 -92 61 -145 68 -46 6 -47 6 -42 -20 5 -23 2 -26 -24 -26 -35 0 -76 27 -69
46 4 11 -6 14 -47 13 -29 -1 -43 -3 -32 -6 47 -10 50 -13 34 -28 -8 -7 -27
-15 -44 -17 -27 -3 -30 -1 -27 25 1 15 1 27 0 26 -2 -1 -21 -5 -43 -10z m-32
-33 c4 -10 1 -13 -9 -9 -10 4 -12 0 -8 -11 4 -11 1 -16 -10 -16 -27 0 -11 49
15 50 4 0 9 -7 12 -14z m-6 -52 c-3 -3 -12 -4 -19 -1 -8 3 -5 6 6 6 11 1 17
-2 13 -5z"/>
<path d="M10380 2741 c0 -11 46 -20 71 -14 35 10 19 23 -26 23 -25 0 -45 -4
-45 -9z"/>
<path d="M11582 2698 c-1 -27 8 -42 45 -78 l46 -45 -22 39 -22 39 26 -17 26
-17 -20 39 c-16 32 -58 72 -74 72 -2 0 -4 -15 -5 -32z"/>
<path d="M11786 2671 c-4 -5 3 -7 14 -4 23 6 26 13 6 13 -8 0 -17 -4 -20 -9z"/>
<path d="M9640 2640 c0 -5 25 -10 56 -10 34 0 53 4 49 10 -3 6 -28 10 -56 10
-27 0 -49 -4 -49 -10z"/>
<path d="M10150 2643 c-55 -10 -44 -24 18 -21 34 2 63 8 65 13 2 11 -44 15
-83 8z"/>
<path d="M9150 2520 c-18 -17 -30 -36 -27 -43 3 -7 -1 -21 -8 -30 -7 -10 -11
-27 -8 -37 5 -20 -2 -19 -72 5 -16 6 -17 5 -5 -4 12 -9 9 -11 -14 -11 -20 0
-27 -4 -23 -14 3 -7 1 -18 -5 -24 -5 -5 -6 -12 -1 -15 5 -3 7 -22 5 -42 -3
-29 -8 -35 -21 -30 -9 3 3 -10 27 -30 23 -20 42 -44 42 -53 0 -22 -63 -65 -87
-59 -15 3 -14 5 7 14 l24 10 -23 12 c-20 11 -23 10 -28 -8 -3 -12 -17 -22 -34
-26 -17 -4 -34 -17 -41 -32 -11 -21 -36 -33 -148 -70 -117 -38 -146 -44 -217
-43 -51 0 -83 -3 -83 -10 0 -5 -13 -10 -30 -10 -36 0 -39 17 -9 69 l21 36 -22
-25 c-11 -14 -32 -37 -44 -52 -13 -15 -22 -28 -21 -30 2 -2 -19 -1 -47 1 -47
3 -50 2 -43 -18 8 -25 -1 -27 -23 -5 -14 15 -17 15 -27 0 -7 -9 -22 -16 -35
-16 -16 0 -20 -4 -16 -15 4 -10 -1 -15 -17 -16 -21 0 -21 -1 3 -10 14 -6 43
-14 65 -19 32 -6 34 -8 13 -9 -16 -1 -28 -5 -28 -11 0 -5 -10 -10 -22 -10 -18
-1 -20 -2 -8 -9 8 -5 68 -11 134 -15 65 -3 151 -11 190 -17 118 -19 391 9 412
42 3 5 -17 20 -45 32 -28 12 -49 27 -48 32 2 6 23 17 48 24 29 10 51 26 64 45
17 25 31 33 78 42 71 14 87 27 87 69 l0 33 70 -29 c86 -37 269 -83 420 -106
163 -25 614 -25 785 0 247 37 419 84 558 154 69 34 149 99 169 137 6 12 -9 3
-35 -21 -39 -36 -51 -42 -79 -38 -19 2 -56 -4 -86 -15 -80 -30 -76 -24 14 19
44 22 100 58 125 80 l44 40 -47 44 c-29 26 -48 52 -48 66 l0 21 -37 -18 c-61
-30 -163 -65 -170 -58 -3 3 -2 6 4 6 6 0 8 11 5 25 -4 26 5 31 51 27 13 -2 17
4 15 18 -2 10 6 26 17 35 l20 17 -20 -7 c-133 -48 -420 -113 -575 -132 -36 -4
-55 -9 -42 -11 12 -2 20 -8 17 -13 -3 -5 1 -6 9 -3 12 5 16 0 16 -17 0 -13 -4
-29 -8 -35 -4 -7 -65 -17 -142 -24 -224 -21 -558 2 -760 51 -75 19 -150 47
-127 49 5 0 -3 20 -18 45 -24 42 -27 85 -5 85 4 0 10 9 13 20 7 28 -6 25 -43
-10z m387 -246 c-3 -3 -12 -4 -19 -1 -8 3 -5 6 6 6 11 1 17 -2 13 -5z m-37
-29 c58 -8 202 -18 320 -22 208 -7 213 -7 165 -21 -41 -12 -74 -13 -205 -3
-85 7 -193 13 -240 14 -65 2 -96 8 -132 26 -48 23 -64 37 -30 27 9 -3 64 -13
122 -21z m197 -61 c-3 -3 -12 -4 -19 -1 -8 3 -5 6 6 6 11 1 17 -2 13 -5z
m-347 -69 c199 -47 325 -59 605 -59 176 0 245 -3 215 -9 -25 -5 -53 -16 -62
-24 -10 -9 -18 -11 -18 -5 0 6 6 13 13 15 7 4 6 6 -4 6 -9 1 -19 -5 -22 -12
-2 -7 -33 -21 -67 -31 -54 -16 -85 -18 -243 -13 -240 7 -467 43 -450 70 20 33
10 47 -49 63 -32 9 -61 21 -65 27 -4 6 3 8 18 3 13 -4 71 -18 129 -31z m907
-51 c-3 -3 -12 -4 -19 -1 -8 3 -5 6 6 6 11 1 17 -2 13 -5z m-1826 -203 c-8 -5
-20 -7 -28 -4 -21 8 -15 13 15 13 20 0 23 -3 13 -9z"/>
<path d="M9060 2504 c0 -8 5 -12 10 -9 6 3 10 10 10 16 0 5 -4 9 -10 9 -5 0
-10 -7 -10 -16z"/>
<path d="M9080 2475 c-7 -8 -9 -15 -6 -15 4 0 14 7 22 15 9 8 11 15 6 15 -5 0
-15 -7 -22 -15z"/>
<path d="M8676 2390 c-22 -11 -53 -20 -69 -20 -15 0 -47 -11 -70 -24 -23 -13
-60 -29 -82 -36 -34 -11 -37 -14 -20 -21 11 -4 35 -8 53 -8 44 -1 41 -19 -15
-92 -83 -107 -88 -113 -75 -105 16 10 142 176 142 188 0 4 20 8 45 8 47 0 138
45 119 59 -12 8 -11 21 4 49 7 12 11 22 10 22 -2 -1 -21 -10 -42 -20z"/>
<path d="M8967 2189 c7 -7 15 -10 18 -7 3 3 -2 9 -12 12 -14 6 -15 5 -6 -5z"/>
<path d="M7960 2050 c0 -5 5 -10 11 -10 5 0 7 5 4 10 -3 6 -8 10 -11 10 -2 0
-4 -4 -4 -10z"/>
<path d="M8003 1955 c21 -20 42 -33 45 -29 4 3 1 9 -6 11 -7 3 -27 16 -45 30
-26 20 -24 18 6 -12z"/>
<path d="M10907 1943 c-26 -8 -45 -18 -42 -23 4 -6 13 -6 23 -1 9 5 33 16 52
24 43 19 30 20 -33 0z"/>
<path d="M10760 1900 c-30 -9 -56 -23 -59 -31 -3 -11 -1 -12 11 -2 8 7 39 18
69 23 29 6 58 15 63 20 15 15 -20 11 -84 -10z"/>
<path d="M7990 1896 c0 -2 9 -6 20 -9 11 -3 20 -1 20 4 0 5 -9 9 -20 9 -11 0
-20 -2 -20 -4z"/>
<path d="M10424 1797 c-93 -28 -101 -32 -98 -54 1 -13 -5 -27 -14 -32 -14 -7
-77 -16 -145 -20 -5 -1 -5 -6 -2 -12 4 -6 23 -8 42 -6 34 5 34 5 16 -15 -18
-20 -18 -20 22 -15 86 10 324 77 392 109 12 6 29 8 37 5 9 -4 19 0 23 7 5 7
32 21 61 31 83 27 56 27 -53 0 l-98 -24 -29 20 c-15 11 -28 25 -28 30 0 13
-13 11 -126 -24z m148 -39 c-9 -9 -15 -9 -24 0 -9 9 -7 12 12 12 19 0 21 -3
12 -12z"/>
<path d="M10789 1543 c-1 -4 -1 -15 0 -24 2 -17 -38 -39 -69 -39 -10 0 -22 -5
-25 -10 -7 -12 63 -3 104 12 17 6 29 4 42 -8 21 -18 99 -32 99 -16 0 11 -71
42 -95 42 -8 0 -15 7 -15 15 0 15 -39 42 -41 28z"/>
</g>
</svg>
