<?xml version="1.0" standalone="no"?>
<!DOCTYPE svg PUBLIC "-//W3C//DTD SVG 20010904//EN"
 "http://www.w3.org/TR/2001/REC-SVG-20010904/DTD/svg10.dtd">
<svg version="1.0" xmlns="http://www.w3.org/2000/svg"
 width="1586.000000pt" height="992.000000pt" viewBox="0 0 1586.000000 992.000000"
 preserveAspectRatio="xMidYMid meet">

<g transform="translate(0.000000,992.000000) scale(0.100000,-0.100000)"
fill="#000000" stroke="none">
<path d="M11405 9843 c5 -43 9 -207 9 -365 1 -166 5 -288 10 -288 5 0 32 17
60 38 28 21 58 41 67 44 23 9 31 166 17 337 -7 94 -7 146 0 170 6 20 14 60 18
89 l7 52 -98 0 -98 0 8 -77z"/>
<path d="M11674 9889 c9 -45 20 -304 19 -431 -1 -121 1 -123 72 -94 35 15 35
15 35 83 2 203 8 325 17 334 7 7 15 5 26 -5 14 -14 16 -14 21 0 3 9 6 45 6 80
l0 64 -101 0 -101 0 6 -31z"/>
<path d="M12100 9414 c-14 -3 -81 -14 -149 -25 -151 -25 -271 -69 -406 -150
-200 -120 -332 -254 -346 -352 -12 -80 -10 -289 3 -414 l11 -114 54 -36 c30
-20 62 -47 71 -61 9 -13 26 -34 38 -46 12 -11 25 -30 31 -41 16 -34 4 -1160
-14 -1232 -6 -27 -22 -21 -25 10 -5 64 -15 -460 -17 -888 -1 -368 -5 -493 -14
-502 -12 -12 -310 -118 -432 -153 -55 -16 -235 -102 -235 -112 0 -4 7 -8 16
-8 8 0 12 -4 9 -10 -3 -5 -26 -10 -51 -10 -44 0 -90 -18 -168 -67 l-38 -25 23
-24 c26 -28 41 -30 72 -9 21 13 68 11 67 -4 -1 -3 -33 -26 -73 -51 -83 -51
-166 -126 -209 -188 -25 -36 -34 -43 -54 -38 -18 5 -22 3 -18 -9 4 -8 10 -15
15 -15 5 0 9 -4 9 -10 0 -5 -6 -7 -13 -4 -8 3 -19 -2 -26 -10 -10 -12 -8 -15
16 -14 15 0 33 -1 38 -2 26 -6 37 3 54 43 22 50 150 179 238 240 32 22 65 45
73 52 8 6 36 19 62 29 28 10 56 30 69 47 15 22 26 28 42 24 12 -3 39 1 59 10
21 8 53 15 72 15 21 0 36 6 40 16 3 8 10 12 16 9 16 -10 12 -23 -14 -37 -13
-7 -54 -34 -92 -59 -38 -26 -90 -58 -116 -73 -58 -33 -228 -195 -228 -218 0
-9 12 -30 26 -47 l26 -31 -31 0 c-35 0 -48 -15 -24 -28 11 -6 26 -7 42 -1 37
14 122 1 209 -34 42 -16 117 -43 165 -60 l88 -31 -32 -13 c-36 -15 -34 -33 7
-47 16 -5 42 -18 59 -29 l30 -19 -35 6 c-19 4 -58 17 -86 31 -28 14 -58 25
-66 25 -8 0 -69 22 -136 49 -67 27 -161 59 -209 71 -48 12 -100 27 -117 34
-17 7 -53 15 -81 18 -27 2 -42 3 -32 1 22 -6 22 -12 -5 -41 l-23 -24 40 7 c22
4 47 11 56 16 36 18 198 -53 217 -97 10 -20 8 -26 -11 -38 -12 -7 -38 -17 -58
-20 -38 -7 -78 -30 -68 -40 3 -3 28 1 55 9 27 9 74 23 104 31 30 8 65 22 77
30 20 12 30 12 83 -3 33 -9 60 -20 60 -24 0 -11 -28 -19 -46 -12 -10 4 -17 -1
-21 -16 -6 -22 -18 -27 -28 -11 -9 15 -58 0 -76 -23 -20 -25 -136 -38 -149
-17 -10 15 -73 3 -67 -13 2 -6 23 -19 48 -28 24 -9 64 -26 89 -38 37 -18 40
-20 15 -16 -28 5 -27 4 10 -16 26 -14 64 -23 110 -26 38 -3 73 -9 76 -15 4 -6
18 -8 32 -4 16 4 29 1 37 -9 7 -8 8 -15 3 -15 -5 0 -10 -7 -10 -14 0 -8 21
-24 46 -35 89 -38 341 -131 353 -130 7 0 4 4 -7 9 l-20 9 20 0 c11 0 29 -4 40
-9 l20 -9 -20 -1 c-37 -2 177 -91 460 -190 66 -23 126 -46 134 -50 17 -9 -9
-14 -194 -35 -77 -9 -221 -27 -320 -40 -393 -53 -586 -60 -726 -26 -87 21
-245 51 -289 56 -58 6 -207 49 -301 86 -55 22 -102 39 -104 37 -7 -7 66 -103
75 -101 12 4 23 -34 14 -49 -4 -6 -9 -37 -10 -67 -4 -76 -20 -111 -55 -118
-31 -6 -37 -17 -17 -29 9 -6 5 -10 -12 -14 -23 -6 -21 -9 35 -45 53 -34 137
-90 215 -142 169 -114 165 -112 300 -127 l105 -12 -60 -18 c-122 -37 -153 -36
-277 5 -62 20 -156 53 -208 74 -59 23 -96 33 -98 26 -2 -6 -12 -11 -22 -11
-28 0 -109 37 -142 66 -42 35 -92 60 -86 43 6 -19 177 -148 300 -226 68 -43
107 -74 108 -85 0 -10 -4 -18 -10 -18 -5 0 -10 6 -10 13 0 7 -33 29 -73 49
l-72 35 -17 -22 c-16 -22 -16 -23 2 -28 11 -3 17 -12 16 -23 -2 -11 1 -25 7
-31 6 -8 6 -13 0 -13 -14 0 -12 -28 2 -34 7 -2 11 -25 10 -60 -1 -30 1 -53 5
-51 20 12 4 -48 -16 -64 -16 -13 -22 -25 -18 -36 4 -10 1 -20 -6 -25 -10 -6
-8 -11 7 -19 11 -5 28 -22 38 -37 l17 -27 -26 7 c-35 9 -33 -10 2 -22 17 -7
21 -11 9 -11 -17 -1 -71 25 -152 74 -26 16 -42 20 -46 13 -4 -7 -27 8 -61 38
-100 92 -105 96 -105 79 0 -8 5 -15 10 -15 6 0 8 -3 4 -6 -14 -14 88 -167 115
-172 9 -2 18 5 21 15 3 10 5 1 6 -19 0 -21 -2 -38 -5 -38 -11 0 -91 60 -131
99 l-43 42 0 -28 c0 -22 47 -100 84 -140 1 -2 36 4 77 11 166 32 304 44 430
39 126 -6 127 -6 141 18 57 92 82 128 85 125 3 -2 0 -13 -5 -23 -11 -21 -5
-46 9 -37 5 3 9 2 9 -3 0 -10 50 -69 56 -65 2 1 10 1 17 1 6 -1 -1 -5 -18 -9
l-30 -8 30 -1 c17 0 98 -12 180 -26 282 -46 466 -111 613 -214 15 -11 52 -25
82 -32 33 -8 47 -15 36 -17 -34 -7 -44 -26 -39 -73 3 -33 -1 -52 -17 -78 -16
-25 -24 -31 -30 -22 -5 9 -21 11 -51 7 -24 -4 -56 -8 -71 -9 -14 -1 -30 -5
-34 -10 -11 -11 -19 -9 -44 13 -29 25 -33 25 -55 0 -18 -19 -17 -20 6 -20 20
0 21 -2 9 -11 -12 -9 -11 -9 5 -4 48 17 55 18 50 3 -7 -17 48 -48 84 -48 12 0
21 -4 21 -9 0 -16 -155 -89 -235 -111 -43 -12 -82 -23 -85 -25 -3 -2 -73 -15
-155 -29 -140 -25 -184 -36 -138 -36 11 0 26 -7 34 -16 9 -11 22 -14 48 -9 20
4 40 10 46 13 5 3 28 7 50 8 22 1 57 7 78 12 20 5 37 6 37 1 0 -5 -10 -11 -22
-13 -99 -21 -146 -29 -238 -42 -108 -14 -238 -19 -227 -8 4 4 17 8 29 9 38 4
39 5 33 15 -4 6 -3 10 2 9 8 -2 63 18 63 23 0 2 -108 4 -240 4 -132 1 -268 4
-302 7 -50 5 -57 4 -33 -4 17 -5 52 -12 79 -15 46 -5 75 -23 76 -48 1 -24
-366 29 -530 77 -47 13 -118 41 -159 61 -40 20 -75 36 -77 36 -2 0 -4 -13 -4
-29 0 -17 -5 -33 -11 -37 -8 -5 -6 -10 5 -16 11 -6 15 -16 11 -28 -6 -19 13
-60 27 -60 5 0 8 7 8 16 0 29 25 8 30 -26 5 -32 9 -34 90 -62 98 -33 117 -34
123 -10 4 14 5 13 6 -4 1 -17 13 -23 74 -37 254 -60 644 -70 1007 -27 108 13
301 60 408 99 45 16 82 28 82 25 0 -9 -139 -72 -198 -89 -55 -16 -64 -22 -69
-46 -4 -22 -12 -29 -40 -34 -23 -4 -40 -2 -47 6 -8 9 -8 10 2 5 6 -4 19 -1 27
7 8 9 20 17 27 20 7 2 10 7 7 10 -3 4 -55 -3 -116 -14 -99 -19 -112 -23 -117
-44 -4 -17 -16 -25 -42 -30 -20 -3 -39 -4 -42 -1 -3 3 3 6 14 6 12 0 20 7 20
18 0 16 -22 17 -318 17 -203 0 -311 -3 -298 -9 13 -6 20 -17 18 -30 -3 -18
-10 -21 -63 -21 -33 0 -63 3 -66 7 -3 5 -53 17 -112 28 -90 16 -165 39 -134
40 4 0 3 9 -3 21 -9 16 -14 18 -26 9 -7 -7 -11 -16 -8 -21 11 -18 -40 -8 -144
26 -128 43 -259 111 -281 145 -8 14 -18 27 -21 30 -3 3 -7 14 -9 25 -3 20 -3
20 18 1 12 -11 21 -17 21 -14 0 2 -14 17 -32 34 -18 16 -26 21 -19 11 11 -14
11 -17 -2 -17 -28 0 -37 31 -41 140 l-1 36 -40 -9 c-114 -27 -145 -38 -145
-53 0 -8 -4 -13 -9 -10 -4 3 -26 -10 -47 -30 -22 -19 -32 -32 -24 -28 13 7 13
5 2 -8 -7 -8 -9 -23 -6 -33 6 -14 15 -16 48 -12 99 14 130 17 119 11 -7 -3
-13 -12 -13 -20 0 -10 16 -14 63 -15 52 0 58 -2 40 -11 -13 -6 -23 -15 -23
-20 0 -5 4 -7 9 -4 4 3 17 -2 28 -12 15 -12 20 -28 18 -57 -2 -46 11 -128 26
-165 6 -14 26 -48 45 -77 19 -28 34 -58 34 -65 0 -20 39 -53 165 -143 61 -43
153 -110 205 -149 159 -117 230 -169 343 -250 60 -43 106 -80 103 -83 -3 -3
-62 34 -133 83 -70 48 -191 130 -268 183 -77 52 -203 138 -280 190 -77 53
-158 107 -180 120 l-40 24 28 -30 c26 -28 27 -34 16 -54 -11 -22 -11 -23 4
-11 13 11 15 10 12 -5 -2 -10 -4 -24 -4 -31 -1 -7 -5 -11 -9 -8 -5 3 -9 -2 -9
-10 0 -8 6 -13 14 -10 17 7 10 -36 -12 -70 -17 -26 -19 -35 -7 -33 20 3 28 -3
30 -28 1 -15 7 -30 14 -34 6 -4 8 -14 5 -23 -4 -9 -2 -16 3 -16 5 0 7 -11 4
-25 -3 -20 5 -31 51 -66 30 -23 55 -43 55 -46 0 -9 -52 26 -224 151 -191 138
-253 182 -289 205 -21 13 -21 13 -2 -3 11 -9 50 -40 87 -69 36 -28 64 -55 62
-59 -3 -4 37 -39 88 -77 51 -38 203 -153 338 -255 269 -204 436 -329 928 -693
l327 -243 1580 0 1581 0 274 96 c758 265 1449 501 1521 519 66 17 88 12 51
-12 -21 -15 -21 -16 -4 -32 21 -19 22 -37 4 -69 -7 -12 -11 -34 -10 -49 3 -26
-2 -29 -112 -71 -63 -24 -252 -93 -420 -153 -168 -60 -375 -135 -460 -167
l-155 -57 437 -3 437 -2 106 39 c147 56 204 64 164 24 -6 -6 -9 -21 -7 -34 3
-22 8 -24 76 -27 l72 -3 0 2182 0 2182 -47 -7 c-87 -12 -343 -19 -343 -10 0 5
64 10 143 11 78 1 165 6 192 10 l50 8 3 1765 2 1764 -42 44 c-56 57 -305 283
-433 393 -87 73 -213 172 -335 260 -263 191 -842 432 -1490 620 -231 67 -587
148 -680 154 -30 2 -113 11 -185 20 -128 15 -546 28 -595 19z m-266 -182 c-44
-32 -121 -54 -93 -27 14 14 103 53 123 55 5 0 -9 -13 -30 -28z m-254 -137 c0
-8 -4 -15 -9 -15 -4 0 -20 -9 -35 -21 -19 -15 -24 -24 -16 -33 13 -17 2 -27
-25 -20 -15 4 -30 -4 -52 -26 -30 -31 -56 -33 -67 -5 -5 15 47 65 67 65 7 0
37 16 67 35 62 39 70 41 70 20z m-249 -86 c-24 -22 -47 -37 -50 -33 -3 3 14
24 38 45 24 22 47 37 50 33 3 -3 -14 -24 -38 -45z m246 45 c-3 -3 -12 -4 -19
-1 -8 3 -5 6 6 6 11 1 17 -2 13 -5z m468 -44 c10 -11 16 -22 14 -25 -7 -6 -49
24 -49 36 0 15 16 10 35 -11z m410 -90 c18 -20 17 -20 -8 -20 -20 0 -27 5 -27
20 0 11 4 20 8 20 5 0 17 -9 27 -20z m-383 -12 c-7 -7 -12 -8 -12 -2 0 14 12
26 19 19 2 -3 -1 -11 -7 -17z m-822 -8 c0 -5 -5 -10 -11 -10 -5 0 -7 5 -4 10
3 6 8 10 11 10 2 0 4 -4 4 -10z m925 -30 c18 -20 18 -20 -13 -9 -18 6 -32 15
-32 20 0 16 26 10 45 -11z m-125 -24 c0 -8 -4 -17 -9 -21 -12 -7 -24 12 -16
25 9 15 25 12 25 -4z m400 3 c-14 -6 -33 -8 -42 -5 -11 2 -15 0 -12 -6 4 -6 1
-9 -6 -6 -8 2 -16 10 -18 16 -2 8 13 12 50 11 45 0 49 -2 28 -10z m-160 -16
c0 -9 8 -22 18 -29 15 -12 15 -13 -10 -14 -14 0 -34 -3 -42 -6 -12 -4 -15 -2
-10 9 3 10 -3 20 -18 28 l-23 13 25 6 c45 11 60 9 60 -7z m285 7 c-3 -5 -13
-10 -21 -10 -8 0 -12 5 -9 10 3 6 13 10 21 10 8 0 12 -4 9 -10z m-59 -7 c-11
-11 -136 -31 -136 -22 0 4 21 11 48 14 26 4 52 8 57 10 19 7 38 5 31 -2z
m-1133 -89 c-4 -154 15 -276 68 -449 5 -16 28 -57 50 -92 23 -34 39 -67 37
-73 -3 -11 -163 143 -180 173 -5 9 -2 19 7 27 10 8 12 18 6 29 -20 38 -31 365
-15 444 3 15 11 26 17 24 8 -3 11 -30 10 -83z m2469 -760 c21 -13 42 -24 48
-24 5 0 15 -9 22 -19 9 -15 15 -17 25 -9 10 8 13 7 13 -5 0 -16 44 -18 68 -4
8 5 12 3 12 -7 0 -20 12 -20 53 -2 54 24 62 33 49 48 -9 11 -8 19 4 36 19 27
34 28 67 1 15 -11 33 -19 42 -17 8 2 39 -15 69 -36 l54 -39 -54 -50 c-88 -80
-190 -246 -271 -437 l-11 -25 -7 30 c-14 60 -15 62 -30 42 -12 -17 -14 -16
-20 12 -5 26 -11 31 -35 31 -16 0 -30 5 -32 11 -2 6 -22 11 -45 12 -34 1 -44
5 -53 26 -8 18 -14 22 -19 12 -6 -9 -11 -10 -15 -2 -4 6 -17 9 -30 5 -15 -3
-27 1 -37 13 -13 16 -12 17 4 4 9 -7 17 -9 17 -3 0 10 -104 93 -132 104 -24
10 -48 61 -55 119 -4 34 -2 49 6 49 8 0 9 5 1 19 -30 58 13 124 78 120 20 -1
44 1 52 4 23 9 82 14 105 9 11 -3 37 -16 57 -28z m-2223 -22 c81 -86 75 -47
72 -502 -1 -224 -7 -425 -13 -450 -5 -25 -12 -70 -14 -99 -7 -73 -7 -75 -19
-83 -7 -5 -6 -8 0 -8 6 0 10 -12 9 -27 -1 -16 -3 -37 -3 -47 -1 -19 -2 -19
-14 -2 -13 17 -14 17 -30 1 -15 -14 -17 -15 -17 -1 0 9 6 16 13 16 8 0 7 4 -3
11 -13 9 -13 10 0 8 36 -4 40 0 28 26 -12 26 -28 34 -28 13 0 -6 -3 -9 -6 -5
-17 17 -28 242 -33 690 -7 551 -9 529 58 459z m3004 -60 c21 -18 34 -32 30
-32 -4 0 -33 24 -64 53 -54 51 -44 44 34 -21z m-2805 -2 c28 0 46 -13 117 -82
92 -90 104 -111 65 -112 -19 -1 -24 -6 -21 -21 3 -20 3 -20 -20 0 -36 32 -88
89 -89 98 0 4 9 7 19 7 42 0 33 32 -13 50 -23 8 -31 8 -37 -2 -6 -9 -21 -1
-54 32 -48 47 -60 72 -23 46 12 -9 37 -16 56 -16z m1330 -118 c12 -7 22 -18
22 -24 0 -20 51 -78 68 -78 9 0 37 12 62 26 54 31 118 29 154 -5 24 -23 46
-28 46 -10 0 6 7 8 16 5 15 -6 15 -3 -1 21 l-18 28 32 -29 c29 -28 43 -55 21
-41 -5 3 -10 -2 -10 -13 0 -11 12 -24 28 -32 15 -7 22 -15 15 -17 -22 -8 -14
-23 12 -23 14 0 25 5 25 12 0 6 7 4 18 -5 30 -27 35 -19 11 16 l-22 32 36 -34
c27 -25 33 -37 24 -43 -9 -6 -8 -8 3 -8 9 0 33 -9 55 -20 30 -15 41 -17 47 -7
5 8 8 5 8 -10 0 -12 -4 -24 -10 -28 -5 -3 -6 -13 -3 -23 6 -15 4 -14 -16 2
l-22 20 3 -35 c2 -27 0 -34 -14 -33 -22 2 -23 -4 -2 -27 16 -17 15 -18 -19
-16 -21 2 -35 -1 -34 -7 1 -6 -12 -10 -30 -8 -32 2 -44 -10 -23 -23 6 -4 8
-11 4 -16 -3 -5 0 -16 6 -24 6 -8 13 -24 15 -37 1 -13 6 -31 10 -40 9 -23 -12
-24 -61 -3 -19 8 -40 14 -47 12 -6 -1 -17 10 -24 25 -8 15 -28 37 -45 49 l-31
22 17 -25 c20 -30 14 -51 -20 -66 -13 -7 -24 -15 -24 -20 0 -18 -40 -54 -54
-49 -7 3 -24 36 -36 74 -12 37 -34 94 -49 126 -27 57 -24 72 11 41 16 -15 18
-15 24 -1 4 11 12 14 27 8 44 -15 55 -5 46 47 -12 73 -17 82 -54 82 -31 0
-126 -33 -153 -54 -7 -5 -11 -18 -8 -28 8 -33 -17 -14 -52 38 -18 27 -47 65
-66 84 -41 42 -62 80 -49 89 5 3 15 20 22 38 9 22 18 30 28 26 13 -5 14 -3 6
12 -21 38 25 54 75 27z m-1317 -34 c55 -42 231 -220 360 -365 93 -105 132
-144 299 -301 l65 -61 -4 -143 c-1 -78 -5 -146 -8 -150 -2 -5 -33 -8 -68 -8
-72 0 -80 8 -80 85 0 48 -24 59 -45 20 -7 -14 -18 -25 -24 -25 -19 0 -66 68
-66 94 0 14 -5 28 -11 32 -16 10 -259 8 -268 -2 -5 -5 -11 -62 -14 -126 l-6
-118 137 6 c149 6 192 -2 192 -35 0 -32 -31 -41 -137 -41 -85 1 -149 9 -255
36 -36 8 -37 3 -42 -228 -5 -210 -6 -206 66 -215 24 -3 49 -12 56 -21 9 -12
12 -74 12 -229 l0 -213 -27 -11 c-16 -6 -59 -15 -98 -19 -38 -5 -99 -18 -135
-29 -36 -12 -76 -21 -89 -21 -21 0 -22 2 -10 17 11 13 14 69 13 277 -1 144 -5
293 -10 331 -10 81 -5 149 11 125 5 -8 9 -44 8 -79 -2 -79 7 -97 52 -105 76
-15 70 -58 69 535 0 292 1 542 4 555 2 13 10 24 17 24 12 0 34 -59 37 -101 4
-73 12 86 10 191 -4 127 -14 137 -28 30 -16 -121 -44 -4 -44 185 0 74 4 135 9
135 5 0 28 -15 52 -32z m3214 -28 c13 -5 14 -9 5 -9 -8 0 -24 4 -35 9 -13 5
-14 9 -5 9 8 0 24 -4 35 -9z m-1450 -40 c3 -5 0 -10 -7 -11 -10 0 -10 -2 0 -6
6 -2 10 -9 6 -14 -8 -14 -24 0 -24 22 0 20 15 26 25 9z m1625 -12 c10 -6 7 -7
-10 -2 -14 3 -32 11 -40 16 -10 6 -7 7 10 2 14 -3 32 -11 40 -16z m-3092 -51
c29 -26 28 -37 -3 -37 -17 0 -25 -6 -25 -17 0 -13 -8 -9 -32 16 -23 23 -29 35
-20 38 7 3 18 11 25 18 13 14 21 12 55 -18z m2772 -7 c0 -13 -28 -20 -76 -20
-24 0 -44 5 -44 10 0 6 -6 10 -14 10 -8 0 -17 3 -19 8 -3 4 30 6 74 4 43 -2
79 -7 79 -12z m450 -5 c9 -11 7 -12 -9 -8 -14 3 -55 -14 -118 -50 -54 -30
-147 -80 -208 -110 -178 -91 -301 -200 -461 -407 -42 -55 -79 -98 -81 -96 -3
3 33 53 78 113 158 205 320 343 509 432 107 50 252 135 244 143 -3 4 3 4 15 1
11 -3 25 -11 31 -18z m-3079 -151 c17 -25 29 -46 27 -48 -1 -1 -11 -8 -20 -15
-15 -11 -24 -6 -68 35 -53 49 -63 70 -30 61 10 -3 24 1 31 9 15 18 22 12 60
-42z m121 -126 c24 -29 35 -49 26 -45 -10 4 -25 10 -33 13 -10 4 -15 0 -15
-12 0 -15 -5 -13 -30 11 -34 32 -38 45 -14 45 11 0 14 6 9 20 -11 35 12 22 57
-32z m98 -177 c0 -9 -14 -1 -36 20 -55 52 -63 78 -11 33 26 -21 46 -46 47 -53z
m1157 -1 c-1 -22 -12 -26 -23 -9 -3 6 0 15 7 20 18 12 18 12 16 -11z m-934
-162 l32 -28 -50 6 c-59 8 -62 9 -75 35 -10 18 -8 20 25 17 22 -1 48 -13 68
-30z m133 -295 c3 -12 18 -26 33 -33 42 -17 250 -243 257 -279 4 -17 12 -31
19 -31 24 0 45 -38 54 -101 5 -35 14 -77 20 -92 6 -16 11 -30 11 -32 0 -2 -24
-17 -52 -33 -29 -16 -90 -52 -136 -80 -89 -54 -200 -97 -229 -88 -17 5 -18 21
-15 198 4 249 17 499 26 519 9 21 -18 28 -137 39 -57 4 -94 12 -103 22 -17 17
-33 231 -19 265 6 15 28 -4 136 -117 71 -74 132 -145 135 -157z m-1466 151 c0
-35 -4 -53 -10 -49 -6 4 -10 31 -9 60 3 71 19 60 19 -11z m1505 16 c3 -6 -1
-7 -9 -4 -18 7 -21 14 -7 14 6 0 13 -4 16 -10z m-699 -61 c19 -21 27 -69 11
-69 -19 0 -70 58 -64 74 9 22 30 20 53 -5z m926 -11 c-9 -9 -15 -9 -24 0 -9 9
-7 12 12 12 19 0 21 -3 12 -12z m-171 -8 c25 -14 25 -33 0 -25 -13 4 -23 0
-30 -12 -9 -17 -11 -17 -25 2 -20 26 -20 33 2 38 28 8 33 7 53 -3z m-1300 -83
c-10 -9 -11 -8 -5 6 3 10 9 15 12 12 3 -3 0 -11 -7 -18z m1581 -29 c-10 -10
-44 0 -37 12 3 5 14 6 26 3 12 -3 17 -9 11 -15z m-1575 -83 c0 -8 -4 -15 -9
-15 -4 0 -8 7 -8 15 0 8 4 15 8 15 5 0 9 -7 9 -15z m1008 -5 c4 -6 -5 -10 -20
-10 -15 0 -24 4 -20 10 3 6 12 10 20 10 8 0 17 -4 20 -10z m-140 -9 c-16 -4
-47 -15 -67 -24 -46 -21 -72 -22 -88 -2 -22 27 -1 35 93 34 57 -1 81 -4 62 -8z
m-865 -26 c0 -8 -4 -15 -10 -15 -5 0 -10 7 -10 15 0 8 5 15 10 15 6 0 10 -7
10 -15z m898 -82 c3 -20 -1 -22 -80 -25 -97 -4 -108 -2 -108 22 0 26 14 29
105 27 74 -2 80 -4 83 -24z m192 7 c0 -5 -4 -10 -10 -10 -5 0 -10 5 -10 10 0
6 5 10 10 10 6 0 10 -4 10 -10z m1017 -62 c-8 -121 -17 -150 -52 -160 -17 -5
-52 -18 -80 -29 -42 -16 -244 -58 -281 -59 -35 0 -61 154 -29 167 18 6 124
-30 172 -59 l33 -20 10 27 c5 14 10 30 10 35 0 19 97 114 144 141 76 43 78 41
73 -43z m70 21 c1 -24 0 -26 -4 -9 -3 14 -10 31 -16 39 -10 11 -9 13 3 9 9 -3
16 -18 17 -39z m-1087 -58 c0 -14 -10 -20 -42 -25 -44 -7 -64 3 -55 28 5 11
20 16 52 16 37 0 45 -3 45 -19z m-170 -21 c0 -16 -6 -20 -27 -20 -16 1 -64 -2
-108 -6 -69 -6 -82 -4 -95 10 -23 28 3 36 123 36 101 0 107 -1 107 -20z m180
-115 c17 -20 10 -26 -39 -32 -36 -5 -41 -3 -41 15 0 32 57 45 80 17z m-160 -4
c0 -6 0 -14 0 -18 0 -5 -17 -9 -37 -9 -21 -1 -71 -7 -112 -13 -75 -11 -107 -4
-98 23 7 20 247 36 247 17z m1085 -257 c-7 -50 -17 -59 -45 -44 -34 18 -19 79
29 118 14 11 16 10 19 -9 2 -12 1 -42 -3 -65z m-921 60 c21 -21 20 -31 -6 -45
-18 -10 -24 -8 -35 7 -18 25 -16 42 5 47 9 3 18 5 19 6 1 0 9 -6 17 -15z
m-124 -19 c0 -24 -2 -25 -72 -25 -39 0 -100 -5 -136 -11 -55 -10 -66 -9 -80 5
-35 35 7 44 246 54 39 2 42 0 42 -23z m900 -28 c0 -20 41 -53 83 -67 52 -16
48 -34 -5 -26 -72 12 -93 26 -96 69 -2 21 1 37 7 37 6 0 11 -6 11 -13z m-312
-52 c27 -25 27 -25 4 -25 -34 0 -62 18 -56 35 8 21 21 19 52 -10z m-82 -119
l0 -54 -35 -5 c-20 -2 -91 -2 -159 1 -121 5 -123 5 -105 24 17 17 25 18 67 8
35 -8 58 -7 89 2 44 12 111 50 122 68 14 22 20 8 21 -44z m-499 -56 c15 0 23
-6 23 -16 0 -15 -12 -16 -98 -12 -104 5 -135 13 -111 30 8 5 47 7 88 4 41 -3
85 -6 98 -6z m170 -6 c-3 -3 -12 -4 -19 -1 -8 3 -5 6 6 6 11 1 17 -2 13 -5z
m840 -22 c62 -57 204 -114 387 -154 31 -6 44 -13 36 -18 -7 -5 -18 -6 -25 -4
-6 3 -23 -4 -36 -15 -22 -19 -23 -20 -4 -21 19 -1 19 -1 2 -15 -13 -9 -17 -20
-12 -33 4 -15 0 -22 -15 -27 -22 -7 -26 -20 -9 -30 6 -5 4 -12 -8 -20 -10 -7
-21 -11 -26 -8 -4 2 -7 1 -6 -4 1 -4 -2 -18 -6 -30 -8 -24 -25 -32 -25 -11 0
6 -3 9 -6 6 -3 -4 -1 -15 5 -26 13 -25 -16 -55 -51 -52 -42 4 -48 0 -48 -25 0
-20 5 -25 25 -25 35 0 50 -40 30 -80 -23 -45 -32 -48 -138 -55 -48 -4 -76 -11
-94 -25 -14 -11 -30 -17 -36 -13 -6 3 -7 1 -3 -5 10 -17 -37 -25 -110 -19 -67
5 -129 -7 -153 -31 -7 -7 -22 -10 -32 -7 -10 4 -26 2 -36 -4 -10 -5 -24 -6
-34 -1 -11 7 -23 3 -38 -11 -12 -12 -28 -18 -35 -16 -8 3 -23 -3 -35 -14 -12
-11 -26 -17 -31 -14 -6 3 -10 -3 -10 -14 0 -12 -6 -21 -14 -21 -7 0 -19 -7
-26 -15 -10 -12 -16 -13 -27 -3 -11 9 -13 26 -8 71 10 107 51 168 138 210 51
24 90 63 116 117 10 19 4 16 -24 -13 -24 -25 -40 -36 -47 -29 -16 16 -22 90
-8 107 7 9 84 63 171 121 88 57 168 115 180 127 11 12 37 57 56 100 20 42 37
77 39 77 1 0 15 -12 31 -28z m-1587 -72 c0 -5 -5 -10 -11 -10 -5 0 -7 5 -4 10
3 6 8 10 11 10 2 0 4 -4 4 -10z m-460 -4 c0 -2 -7 -6 -15 -10 -8 -3 -15 -1
-15 4 0 6 7 10 15 10 8 0 15 -2 15 -4z m-215 -66 c-3 -5 -12 -10 -18 -10 -7 0
-6 4 3 10 19 12 23 12 15 0z m851 -62 c-29 -16 -122 -22 -131 -8 -11 18 13 28
55 23 22 -3 40 -1 44 6 5 8 13 8 28 0 19 -10 20 -12 4 -21z m173 -53 c22 -22
-2 -44 -29 -27 -10 6 -26 9 -34 6 -17 -7 -30 12 -22 33 8 19 62 11 85 -12z
m-373 -16 c13 -24 13 -24 14 -1 0 24 25 30 58 13 9 -5 30 -14 45 -20 23 -9 28
-16 25 -39 -3 -27 -3 -27 -98 -32 -85 -4 -95 -7 -98 -25 -2 -11 -11 -28 -19
-37 -15 -17 -10 -58 8 -58 5 0 9 -8 9 -18 0 -13 -9 -18 -41 -18 -29 -1 -48 -9
-68 -28 -15 -14 -34 -26 -43 -26 -9 0 -20 -4 -23 -10 -9 -15 -77 -11 -99 5
-10 8 -42 22 -70 31 -28 9 -55 20 -60 24 -20 19 7 62 72 113 106 86 164 118
227 124 31 3 55 11 55 17 0 7 18 11 46 11 38 -1 49 -5 60 -26z m744 14 c27
-11 -41 -21 -152 -22 -114 -1 -138 3 -138 25 0 12 23 14 138 8 75 -3 144 -8
152 -11z m355 -48 c38 -13 34 -13 -56 -8 -56 3 -104 1 -115 -4 -10 -6 -46 -14
-79 -18 -48 -5 -58 -4 -48 6 7 7 40 15 73 17 33 2 63 8 66 13 8 13 114 9 159
-6z m-705 -9 c0 -3 -4 -8 -10 -11 -5 -3 -10 -1 -10 4 0 6 5 11 10 11 6 0 10
-2 10 -4z m76 -11 c18 -14 18 -14 -8 -15 -27 0 -43 12 -31 24 9 9 17 8 39 -9z
m-1401 -25 c-3 -5 -11 -10 -17 -10 -7 0 -40 -14 -75 -32 -35 -17 -66 -28 -70
-25 -12 12 11 26 82 51 80 28 88 30 80 16z m1052 -56 c9 -23 -13 -40 -32 -24
-8 7 -15 19 -15 26 0 19 39 18 47 -2z m-1262 -14 c3 -5 -1 -10 -9 -10 -9 0
-16 5 -16 10 0 6 4 10 9 10 6 0 13 -4 16 -10z m1605 -65 c0 -2 -10 -9 -22 -15
-22 -11 -22 -10 -4 4 21 17 26 19 26 11z m-1080 -14 c0 -5 -6 -14 -14 -20 -16
-13 -32 2 -21 19 8 12 35 13 35 1z m490 -45 c0 -3 -4 -8 -10 -11 -5 -3 -10 -1
-10 4 0 6 5 11 10 11 6 0 10 -2 10 -4z m452 -36 c10 -10 14 -21 10 -24 -12 -7
-45 22 -37 33 8 14 8 14 27 -9z m-1152 0 c0 -5 -9 -10 -21 -10 -11 0 -17 5
-14 10 3 6 13 10 21 10 8 0 14 -4 14 -10z m330 -39 c0 -14 -13 -20 -67 -32
-95 -20 -101 -21 -108 -9 -10 16 13 30 50 30 17 0 37 5 45 10 19 12 80 13 80
1z m57 3 c-3 -3 -12 -4 -19 -1 -8 3 -5 6 6 6 11 1 17 -2 13 -5z m589 -31 c-11
-11 -17 4 -9 23 7 18 8 18 11 1 2 -10 1 -21 -2 -24z m-889 -20 c6 -17 -36 -38
-49 -25 -17 17 -1 44 24 40 12 -2 23 -8 25 -15z m48 6 c10 -15 -1 -23 -20 -15
-9 3 -13 10 -10 16 8 13 22 13 30 -1z m769 -14 c-7 -17 -20 -20 -28 -6 -7 10
3 21 20 21 8 0 11 -6 8 -15z m-1146 -2 c-10 -2 -26 -2 -35 0 -10 3 -2 5 17 5
19 0 27 -2 18 -5z m1077 -24 c4 -6 13 -8 21 -5 16 6 64 -13 64 -25 0 -13 -13
-17 -88 -24 -80 -8 -90 0 -49 40 25 26 43 30 52 14z m-1075 -28 c67 -5 75 -8
80 -30 3 -13 17 -28 34 -35 24 -10 36 -7 95 21 88 43 172 53 238 29 27 -10 54
-19 60 -21 25 -8 0 -34 -57 -58 -32 -14 -65 -36 -74 -48 l-15 -22 -103 30
c-130 39 -204 48 -212 26 -6 -14 -8 -14 -26 2 -12 11 -28 15 -41 12 -12 -3
-29 -1 -39 5 -25 16 -66 -12 -85 -58 -8 -19 -19 -33 -25 -29 -5 3 -10 -1 -10
-9 0 -9 -8 -16 -17 -15 -28 1 -131 24 -138 30 -3 4 -10 31 -14 60 -7 43 -6 57
6 71 22 25 203 62 248 50 11 -3 54 -8 95 -11z m727 -27 c-9 -9 -28 6 -21 18 4
6 10 6 17 -1 6 -6 8 -13 4 -17z m649 16 c15 0 19 -26 5 -34 -14 -9 -58 18 -53
32 2 7 11 11 19 8 8 -3 21 -6 29 -6z m-50 -51 c8 -14 -11 -33 -25 -25 -11 7
-4 36 9 36 5 0 12 -5 16 -11z m189 -5 c67 -17 85 -28 68 -45 -7 -7 -27 -5 -69
7 -73 21 -96 32 -89 45 8 12 21 12 90 -7z m-276 -54 c26 -13 34 -50 12 -50 -9
0 -22 5 -27 10 -13 13 -44 2 -39 -13 3 -7 -7 -20 -20 -30 -25 -18 -25 -18 -23
8 1 15 8 31 15 37 19 16 16 27 -12 38 -14 5 -25 17 -25 26 0 13 6 15 29 11 17
-4 36 0 47 8 17 12 19 11 22 -11 2 -13 11 -28 21 -34z m-564 20 c8 -12 -40
-31 -59 -24 -8 3 -17 12 -20 20 -4 11 4 14 34 14 21 0 42 -5 45 -10z m-157
-32 c2 -12 -2 -15 -17 -11 -12 3 -21 12 -21 20 0 20 34 12 38 -9z m-572 -3
c-22 -17 -36 -19 -36 -7 0 14 12 22 34 22 21 -1 21 -1 2 -15z m494 -16 c0 -12
70 -8 105 5 13 5 6 -5 -17 -28 -36 -34 -38 -35 -70 -22 -18 7 -41 16 -52 20
-15 5 -16 9 -6 21 15 17 40 20 40 4z m212 -18 c-29 -17 -60 -39 -70 -50 -13
-15 -22 -17 -39 -11 -31 12 -29 30 2 30 14 0 24 5 23 12 -2 7 19 20 47 30 78
27 97 21 37 -11z m168 9 c0 -5 -11 -10 -25 -10 -14 0 -25 -5 -25 -11 0 -13
-21 -8 -23 6 -1 5 12 13 28 16 45 10 45 10 45 -1z m734 -38 c5 -8 -102 -32
-140 -32 -49 1 47 31 123 39 6 0 14 -3 17 -7z m-1478 -42 c14 0 22 -4 19 -10
-3 -5 -22 -10 -41 -10 -25 0 -34 4 -34 16 0 11 5 14 16 10 9 -3 27 -6 40 -6z
m605 -14 c33 -15 46 -25 33 -25 -29 -1 -114 29 -114 40 0 15 25 10 81 -15z
m1557 2 c-3 -7 -14 -17 -26 -23 -12 -5 -22 -15 -22 -22 0 -23 -18 -14 -24 12
-4 14 -13 25 -21 25 -8 0 -15 5 -15 10 0 6 25 10 56 10 40 0 55 -4 52 -12z
m-1360 -19 c-32 -18 -19 -29 30 -23 41 5 45 4 30 -9 -13 -10 -14 -17 -6 -25
16 -16 -17 -27 -45 -15 -12 6 -48 18 -79 27 -60 18 -83 43 -28 31 18 -4 30 -3
30 3 0 12 23 19 60 21 22 0 23 -1 8 -10z m1624 -121 c17 -17 17 -18 -2 -18
-23 0 -90 31 -90 41 0 14 73 -4 92 -23z m-1442 -38 c0 -5 -4 -10 -10 -10 -5 0
-10 5 -10 10 0 6 5 10 10 10 6 0 10 -4 10 -10z m120 -18 c0 -4 -7 -18 -16 -30
-15 -22 -16 -22 -47 -5 -18 10 -34 19 -36 20 -1 1 0 6 4 12 7 12 95 15 95 3z
m-1257 -8 c10 -10 -4 -34 -20 -34 -12 0 -13 3 -4 13 6 8 8 17 4 20 -3 4 -2 7
4 7 5 0 12 -3 16 -6z m314 -15 c26 -12 43 -23 36 -26 -6 -2 -33 7 -60 21 -59
31 -43 34 24 5z m997 -4 c21 -16 21 -17 -12 -34 -36 -19 -58 9 -30 37 15 15
19 15 42 -3z m-1067 -55 c12 0 24 -4 27 -9 7 -10 -110 -45 -123 -36 -6 3 -31
-8 -57 -25 -53 -33 -81 -38 -81 -15 0 9 20 22 51 33 27 9 64 31 80 48 28 27
33 29 56 17 14 -7 35 -13 47 -13z m-393 -5 c-9 -14 -19 -24 -21 -21 -7 7 16
46 28 46 5 0 2 -11 -7 -25z m664 -25 c115 -55 196 -99 190 -106 -4 -3 -295
141 -307 152 -14 13 23 -2 117 -46z m548 26 c17 -18 18 -36 1 -36 -14 0 -39
35 -30 44 9 9 13 8 29 -8z m488 -52 c31 -14 56 -28 56 -31 0 -4 -7 -14 -16
-24 -13 -14 -21 -16 -47 -7 -50 16 -102 88 -63 88 7 0 39 -12 70 -26z m-1255
-20 c2 -2 -7 -4 -22 -4 -14 0 -29 5 -32 10 -6 10 42 4 54 -6z m49 -22 c2 -7
-2 -10 -12 -6 -9 3 -16 11 -16 16 0 13 23 5 28 -10z m1362 -26 c100 -10 98
-26 -3 -23 -48 2 -90 6 -93 10 -4 3 -4 14 0 23 4 11 10 13 19 6 6 -5 41 -12
77 -16z m-865 -88 c17 -11 21 -17 10 -13 -11 4 -30 10 -42 12 -12 3 -28 12
-35 21 -11 13 -10 14 12 7 14 -4 39 -16 55 -27z m285 -8 c-36 -12 -62 -12 -55
0 3 6 23 10 43 9 33 -1 34 -2 12 -9z m-109 -45 l44 -15 -50 7 c-27 3 -66 12
-85 19 l-35 14 41 -6 c23 -3 61 -12 85 -19z m369 15 c9 -3 -45 -21 -93 -32
-53 -11 -101 -4 -94 15 5 17 52 25 122 22 33 -2 62 -4 65 -5z m1785 -20 c7 0
15 -5 17 -11 2 -5 10 -11 18 -12 8 -1 16 -6 17 -11 2 -15 57 -66 70 -66 7 0
17 -9 23 -20 6 -11 19 -20 29 -20 17 0 32 -34 36 -80 0 -8 9 -27 19 -42 10
-15 20 -44 23 -65 5 -38 3 -41 -80 -115 l-84 -77 -218 87 c-161 64 -226 95
-249 118 -50 50 -196 91 -379 107 l-148 12 98 52 c54 28 112 57 128 62 27 10
28 10 11 -4 -18 -14 -18 -15 9 -25 17 -6 57 -8 99 -4 39 3 87 7 106 9 19 1
123 32 230 69 164 56 196 64 203 51 4 -8 14 -15 22 -15z m-2372 3 c19 -9 27
-18 19 -21 -18 -6 -73 18 -66 29 7 12 10 12 47 -8z m1077 7 c0 -5 -4 -10 -9
-10 -6 0 -13 5 -16 10 -3 6 1 10 9 10 9 0 16 -4 16 -10z m-342 -17 c-10 -2
-28 -2 -40 0 -13 2 -5 4 17 4 22 1 32 -1 23 -4z m-521 -58 c100 -23 103 -25
66 -40 -18 -8 -33 -21 -33 -28 0 -14 -20 -27 -42 -27 -6 0 -6 6 2 15 11 13 8
15 -19 15 -19 0 -30 -4 -26 -10 4 -6 -15 -10 -49 -10 -30 0 -61 -3 -70 -6 -9
-3 -16 -1 -16 5 0 6 11 11 25 11 18 0 25 5 25 20 0 18 7 20 58 21 55 2 55 2
17 9 -36 6 -37 7 -10 9 l30 2 -30 14 c-41 18 -12 18 72 0z m146 -52 c-7 -2
-19 -2 -25 0 -7 3 -2 5 12 5 14 0 19 -2 13 -5z m-43 -7 c0 -2 -7 -7 -16 -10
-8 -3 -12 -2 -9 4 6 10 25 14 25 6z m1059 -13 c94 -6 113 -16 38 -18 -87 -4
-183 -5 -212 -3 -16 1 -104 -1 -195 -5 -91 -3 -183 -3 -205 2 -49 11 -45 11
160 21 223 10 312 11 414 3z m-1222 -39 c-30 -16 -68 -16 -74 1 -1 6 20 11 50
12 52 3 52 3 24 -13z m493 6 c0 -6 -26 -9 -62 -8 l-63 1 55 7 c30 4 58 7 63 8
4 1 7 -2 7 -8z m95 0 c7 -11 -38 -24 -57 -17 -8 3 -4 9 12 15 32 14 38 14 45
2z m48 -7 c-7 -2 -19 -2 -25 0 -7 3 -2 5 12 5 14 0 19 -2 13 -5z m17 -44 c-25
-4 -56 -7 -70 -7 -23 0 -22 1 5 8 17 4 48 8 70 8 l40 -1 -45 -8z m653 4 c-7
-2 -19 -2 -25 0 -7 3 -2 5 12 5 14 0 19 -2 13 -5z m-1133 -13 c12 -8 11 -10
-7 -10 -12 0 -25 5 -28 10 -8 13 15 13 35 0z m54 -9 c4 -5 3 -11 -1 -14 -5 -2
-2 -2 6 0 17 4 92 10 216 18 65 4 86 2 75 -6 -12 -8 -8 -9 15 -5 17 3 66 7
110 10 102 6 47 -10 -67 -20 -43 -4 -75 -10 -73 -15 5 -7 -75 -22 -205 -38
-73 -8 -72 -8 58 -10 73 0 141 3 150 8 41 21 240 22 227 1 -5 -8 133 -19 249
-21 77 -1 60 -15 -24 -19 -44 -3 -44 -3 15 -10 33 -4 96 -3 140 1 86 9 168 11
147 2 -20 -8 -3 -23 26 -23 35 0 72 -26 72 -49 0 -10 -13 -36 -28 -57 -16 -22
-34 -49 -40 -61 -10 -19 -9 -20 10 -15 14 3 19 1 14 -6 -4 -7 3 -14 19 -18 32
-8 55 11 122 106 26 38 55 72 63 75 8 4 71 14 140 24 69 10 134 22 144 27 18
7 18 4 -4 -27 -13 -19 -43 -58 -68 -86 -24 -29 -40 -53 -35 -53 5 0 14 5 21
12 7 7 12 10 12 7 0 -3 -14 -18 -32 -35 -17 -16 -28 -22 -23 -14 4 8 -41 -34
-101 -95 -60 -60 -108 -115 -106 -122 15 -50 88 11 269 227 58 69 110 135 116
148 6 12 16 22 23 22 13 0 155 -55 336 -130 l78 -32 -38 -43 c-20 -24 -80 -90
-132 -147 l-95 -104 -72 -13 c-40 -7 -73 -16 -73 -21 0 -5 -10 -10 -22 -12
-14 -3 -3 -7 27 -11 28 -4 82 -15 122 -23 39 -9 85 -13 101 -10 16 4 56 2 88
-4 194 -35 244 -46 254 -56 6 -6 10 -24 7 -40 -4 -28 -5 -28 -12 -6 -6 18 -10
20 -21 11 -18 -14 -18 -34 -1 -51 8 -7 19 -23 26 -36 6 -12 18 -22 26 -22 21
0 85 -39 125 -75 19 -18 47 -35 63 -39 28 -7 35 -24 16 -43 -14 -14 24 -83 65
-122 15 -14 26 -35 26 -50 0 -37 36 -91 59 -91 24 0 51 -36 51 -67 0 -24 -15
-31 -23 -10 -3 9 -7 9 -19 0 -8 -7 -39 -15 -69 -17 -46 -3 -55 -7 -59 -27 -6
-25 -45 -34 -68 -16 -10 8 -16 7 -21 -2 -5 -7 -11 -12 -15 -11 -16 3 -82 -14
-87 -22 -4 -6 -15 -6 -28 2 -26 13 -61 5 -61 -16 0 -8 -9 -14 -20 -14 -12 0
-24 -9 -29 -22 -12 -32 14 -40 106 -34 65 4 77 2 94 -15 14 -14 24 -17 32 -11
17 13 67 21 67 11 0 -5 -4 -9 -10 -9 -5 0 -7 -13 -4 -29 l6 -29 -63 -6 c-35
-3 -108 -7 -162 -10 -90 -4 -98 -3 -108 16 -9 18 -8 19 10 13 17 -5 20 -3 14
10 -4 13 -14 16 -38 12 -30 -5 -55 6 -55 25 0 4 11 8 23 8 51 0 97 82 76 136
-6 16 -8 15 -8 -8 -1 -30 -20 -39 -22 -10 -1 9 -3 39 -5 65 -4 45 -3 48 16 42
11 -3 20 -2 20 3 0 18 228 21 240 2 5 -9 12 -6 24 11 9 13 16 27 16 31 0 5
-65 8 -145 8 -116 0 -145 -3 -145 -14 0 -10 -20 -14 -80 -15 -105 -2 -134 -15
-50 -21 l65 -5 3 -47 c2 -28 -3 -59 -12 -77 -21 -40 -20 -50 7 -60 22 -9 22
-9 -6 -20 -16 -6 -66 -11 -112 -11 -67 0 -86 3 -93 16 -8 14 -15 11 -51 -25
-23 -23 -55 -44 -71 -48 -51 -10 -33 -23 33 -23 65 0 107 18 107 46 0 24 14
15 31 -19 15 -30 19 -32 65 -29 46 2 86 -10 73 -23 -12 -11 -166 -18 -173 -7
-4 6 2 8 14 5 25 -7 26 13 1 26 -14 8 -25 6 -44 -9 -20 -16 -41 -20 -97 -20
-63 0 -71 2 -68 18 2 10 -7 24 -24 35 -34 21 -38 21 -38 3 0 -15 -21 -26 -51
-26 -10 0 -19 -4 -19 -10 0 -5 4 -10 9 -10 5 0 14 -12 20 -27 10 -24 17 -28
54 -28 36 0 42 -3 45 -23 2 -13 -3 -31 -11 -40 -13 -15 -47 -76 -47 -84 0 -9
136 6 141 15 4 6 24 7 50 3 42 -7 43 -6 22 9 -29 21 -30 40 -2 24 12 -6 50
-12 85 -14 36 -2 72 -9 81 -16 14 -13 13 -15 -13 -20 -16 -4 -65 -7 -109 -8
-44 0 -105 -8 -135 -16 -90 -25 -121 -29 -129 -17 -9 15 -64 0 -87 -22 -11
-11 -35 -16 -79 -16 l-64 0 6 -32 c3 -18 14 -40 25 -49 11 -9 18 -24 16 -35
-3 -15 -14 -20 -62 -24 -68 -6 -81 5 -88 80 -4 37 -2 46 11 47 9 1 23 3 31 6
8 2 28 8 44 12 16 4 41 14 55 21 14 8 43 14 64 14 58 0 114 21 126 48 17 37
13 43 -26 40 -40 -3 -42 1 -28 47 6 19 2 20 -47 17 -29 -2 -60 -10 -69 -18 -9
-8 -33 -17 -52 -21 -33 -5 -39 -12 -68 -72 -31 -64 -32 -65 -38 -36 -4 18 -1
42 7 58 8 15 11 34 8 42 -3 9 1 15 9 15 8 0 16 7 16 15 5 58 8 76 20 126 11
51 11 60 -4 83 -21 32 -52 36 -42 6 8 -26 -7 -26 -30 0 -17 19 -17 20 0 20 17
0 16 3 -5 25 l-23 25 26 0 c17 0 37 -11 54 -30 33 -37 40 -38 39 -3 -1 21 -11
33 -41 51 -22 13 -32 21 -22 18 47 -15 65 -17 71 -7 8 13 -16 23 -99 43 l-60
14 -3 47 c-3 41 -1 47 17 47 11 0 23 -9 27 -22 7 -21 9 -20 14 11 3 19 10 36
16 38 15 5 34 -41 34 -82 0 -38 19 -57 27 -27 2 11 14 23 25 25 14 4 19 11 14
22 -3 9 -6 34 -6 56 0 34 -4 41 -27 50 -20 7 -23 13 -15 21 14 14 15 57 3 77
-7 11 -13 7 -25 -17 -16 -30 -85 -84 -126 -97 -14 -4 -19 -12 -16 -22 11 -28
18 -92 13 -107 -9 -24 -61 -1 -74 32 l-10 27 -13 -27 c-16 -33 -7 -63 17 -54
9 4 19 3 22 -1 3 -5 23 -21 45 -37 28 -21 40 -25 46 -16 6 9 10 7 15 -9 9 -30
-3 -46 -23 -29 -36 30 -133 64 -153 55 -8 -4 -22 -12 -31 -19 -14 -10 -22 -10
-38 0 -11 7 -20 8 -20 2 0 -19 41 -33 66 -21 13 6 24 7 24 2 0 -5 -8 -12 -17
-15 -12 -5 -13 -10 -5 -18 8 -8 15 -8 24 -1 7 6 21 7 32 4 17 -7 17 -8 2 -24
-23 -23 -53 -21 -68 3 -7 11 -19 20 -26 20 -8 0 -27 14 -43 31 -16 18 -33 29
-37 25 -4 -4 1 -14 12 -21 10 -8 15 -19 11 -25 -9 -15 13 -40 31 -33 10 4 14
-3 14 -22 0 -28 -8 -27 -47 8 -18 16 -25 18 -38 7 -8 -7 -22 -10 -30 -6 -12 4
-10 10 10 30 28 28 30 38 15 67 -17 31 -27 22 -35 -28 -9 -63 -21 -84 -43 -76
-13 4 -13 3 3 -10 15 -12 24 -13 40 -4 19 9 19 9 5 -8 -31 -39 -76 -74 -94
-75 -15 0 -16 3 -7 14 13 16 -2 32 -19 21 -15 -9 -12 -24 10 -52 24 -30 26
-45 5 -37 -8 4 -15 14 -15 25 0 10 -7 22 -16 27 -23 13 -9 48 20 56 15 4 28
18 34 36 6 16 22 35 36 41 20 9 28 24 38 68 7 31 11 65 10 76 -2 11 0 40 3 63
6 40 8 42 20 25 10 -13 17 -15 25 -7 9 9 4 20 -19 43 -17 18 -31 37 -31 44 0
7 -3 22 -6 35 -4 13 -2 22 4 22 6 0 14 -17 18 -37 7 -35 24 -63 39 -63 4 0 13
7 21 15 12 11 13 19 4 35 -10 18 -14 19 -27 8 -14 -11 -15 -11 -11 2 3 8 -5
26 -17 40 -27 30 -50 93 -36 98 5 2 8 9 5 17 -3 8 -12 11 -20 8 -8 -3 -14 -1
-14 5 0 6 5 12 12 14 6 2 8 10 4 17 -5 7 -15 10 -23 7 -16 -6 -45 23 -37 36 2
3 16 3 32 -1 31 -8 54 -48 75 -131 10 -38 20 -56 32 -59 15 -2 17 2 12 30 -3
19 -9 43 -13 53 -14 37 16 6 32 -32 11 -27 17 -33 23 -23 5 7 14 10 20 7 16
-10 14 36 -3 59 -12 17 -12 21 2 31 14 10 13 12 -6 18 -22 7 -31 26 -12 26 6
0 10 25 10 56 0 63 15 65 23 3 3 -23 11 -45 17 -49 8 -5 11 -32 8 -79 -2 -50
1 -71 9 -71 11 0 23 48 38 145 7 46 25 84 24 50 0 -11 -6 -59 -13 -107 -12
-86 -12 -86 11 -91 19 -4 22 -1 17 18 -3 13 -1 26 5 29 6 4 11 18 11 31 0 14
7 43 16 66 14 33 21 40 37 35 15 -4 17 -2 8 7 -17 17 -13 32 14 47 22 12 23
15 11 39 -8 14 -24 35 -36 46 -13 11 -35 37 -51 58 -29 41 -120 117 -138 117
-7 0 -11 -29 -11 -82 0 -46 -3 -93 -6 -106 -8 -28 -30 -23 -26 6 3 18 -2 22
-25 22 -37 0 -97 -53 -90 -79 3 -14 -8 -27 -44 -51 -27 -17 -49 -34 -49 -37 0
-4 8 -15 17 -25 12 -14 13 -17 2 -13 -21 8 -59 71 -59 99 0 20 -13 32 -75 66
-58 32 -82 40 -102 35 -40 -10 -83 -44 -83 -66 0 -11 -11 -24 -24 -31 -26 -11
-40 -38 -52 -98 -4 -19 -13 -44 -20 -55 -7 -11 -19 -56 -25 -98 -10 -65 -9
-89 4 -145 8 -37 18 -93 21 -126 7 -64 46 -151 102 -229 19 -26 39 -45 44 -42
6 3 18 1 27 -5 16 -10 16 -11 -4 -7 -12 3 -24 0 -26 -7 -3 -8 -8 -7 -19 2 -13
10 -17 10 -20 0 -3 -8 -7 -6 -11 6 -4 10 -3 15 3 11 19 -12 10 12 -11 31 -12
10 -30 39 -41 64 -11 25 -27 53 -35 63 -9 9 -20 34 -24 55 l-8 37 3 -35 c2
-19 6 -44 10 -55 7 -19 7 -19 -7 -2 -14 17 -33 24 -24 10 3 -5 -2 -14 -9 -21
-12 -11 -18 -6 -36 37 -23 56 -23 56 -79 40 -30 -9 -50 -9 -101 4 -35 9 -101
21 -146 28 -46 6 -79 15 -72 19 8 5 9 10 2 14 -13 8 -9 61 4 61 5 0 14 4 21 8
7 4 18 -2 27 -15 9 -12 16 -17 16 -10 0 7 13 12 31 12 17 0 45 10 62 22 21 15
32 18 35 10 5 -17 29 -15 36 3 7 19 26 20 26 1 0 -8 10 -14 23 -14 30 -1 58
-7 81 -17 31 -14 38 10 41 155 0 19 7 67 14 106 12 64 12 75 -3 104 -9 18 -16
44 -16 58 0 24 -1 25 -62 19 -35 -4 -358 -9 -718 -12 -704 -7 -754 -10 -815
-59 l-29 -23 -53 55 c-51 55 -53 55 -73 37 -24 -22 -26 -14 -3 23 34 55 200
196 353 299 45 31 170 75 245 87 40 7 41 6 63 -33 13 -22 43 -65 68 -95 29
-36 38 -54 27 -50 -10 3 -7 -1 7 -9 39 -23 333 -50 690 -63 137 -5 184 -10
218 -24 23 -11 42 -24 42 -29 0 -14 -36 -14 -61 -1 -32 18 -21 1 14 -20 38
-24 85 -26 93 -5 7 17 34 21 34 5 0 -5 7 -10 15 -10 16 0 20 36 9 77 -5 18
-18 25 -66 34 -33 7 -65 17 -71 24 -8 8 -85 14 -237 19 -226 7 -469 27 -547
46 -61 14 -101 42 -134 92 -16 23 -29 46 -29 51 0 4 16 7 35 7 24 0 37 -6 45
-20 8 -14 8 -20 0 -20 -6 0 -8 -4 -5 -10 3 -5 2 -10 -4 -10 -7 0 -7 -8 1 -25
8 -18 20 -25 42 -26 17 -1 42 -3 56 -5 14 -3 75 -8 135 -13 61 -5 140 -12 178
-16 47 -5 67 -4 67 4 0 15 77 14 82 0 3 -9 12 -9 32 -3 17 6 59 7 105 1 42 -4
177 -6 301 -3 194 4 238 8 320 29 l95 24 45 67 c26 36 63 98 84 136 l38 70
-59 -6 c-107 -13 -108 -13 -110 -74 -3 -53 -37 -141 -58 -147 -6 -2 -19 3 -29
10 -17 13 -17 14 9 31 15 10 24 13 21 7 -4 -6 -3 -11 2 -11 6 0 12 7 16 15 3
8 0 15 -7 15 -34 -1 -57 -15 -66 -43 -16 -43 -22 -29 -13 29 9 61 5 94 -12 94
-8 0 -19 7 -26 15 -10 12 -10 15 4 15 9 0 16 5 16 10 0 6 -20 8 -55 4 -38 -5
-55 -3 -55 5 0 6 19 11 48 12 26 0 41 3 35 6 -7 2 -13 14 -13 25 0 20 1 20 18
5 27 -25 37 -21 18 8 -21 32 -20 38 4 25 12 -6 33 -9 48 -7 26 4 26 4 5 12
-32 10 -29 25 5 25 33 -1 53 -16 69 -52 13 -28 27 -36 38 -19 3 5 31 15 63 21
31 6 65 14 75 16 9 3 17 1 17 -5 0 -5 -19 -14 -42 -19 l-43 -10 42 -1 c38 -1
43 2 49 25 8 31 1 39 -51 59 l-40 15 60 -4 c75 -4 133 3 114 15 -21 13 -105
10 -184 -6 -38 -8 -162 -19 -275 -25 -424 -20 -605 -32 -615 -38 -5 -3 -21 -5
-34 -3 -13 1 -103 -2 -200 -8 -326 -19 -501 -23 -501 -12 0 6 8 11 18 11 14 0
15 2 2 10 -8 5 -27 10 -42 10 -16 0 -28 4 -28 9 0 14 103 23 179 15 56 -5 72
-4 76 7 4 11 40 15 163 17 86 1 161 7 166 12 4 4 24 6 44 3 25 -4 33 -3 28 5
-5 9 15 12 71 13 107 1 57 16 -62 19 -71 1 -85 3 -65 11 14 6 54 13 90 16 60
6 118 31 103 46 -3 3 6 9 21 13 14 3 26 12 26 20 0 16 26 19 34 5z m539 -18
c-7 -2 -21 -2 -30 0 -10 3 -4 5 12 5 17 0 24 -2 18 -5z m-643 -13 c0 -5 -4
-10 -10 -10 -5 0 -10 5 -10 10 0 6 5 10 10 10 6 0 10 -4 10 -10z m557 4 c-3
-3 -12 -4 -19 -1 -8 3 -5 6 6 6 11 1 17 -2 13 -5z m1033 -24 c0 -5 -17 -14
-37 -19 -46 -12 -324 -51 -355 -50 -42 1 32 27 154 52 117 26 238 34 238 17z
m-3344 -119 c49 -21 127 -51 174 -66 47 -16 80 -30 74 -32 -24 -8 -364 116
-364 132 0 12 33 2 116 -34z m967 -38 c-7 -2 -19 -2 -25 0 -7 3 -2 5 12 5 14
0 19 -2 13 -5z m1340 -90 c4 -49 9 -103 13 -121 3 -18 2 -32 -2 -31 -46 8 -56
-12 -22 -48 12 -13 17 -23 11 -23 -12 0 -47 38 -63 70 -7 14 -14 51 -14 82
l-1 58 -47 0 c-66 0 -71 18 -6 22 50 3 53 5 58 32 5 28 30 50 30 27 0 -6 5
-11 10 -11 6 0 10 7 10 15 0 8 4 15 9 15 5 0 11 -39 14 -87z m704 66 c-9 -6
-15 -14 -12 -20 4 -5 -1 -9 -10 -9 -13 0 -14 4 -5 20 6 11 18 20 28 20 16 -1
16 -1 -1 -11z m-1376 -41 c-16 -69 17 -142 38 -86 9 23 9 22 16 -7 13 -58 13
-65 5 -65 -5 0 -12 9 -15 20 -10 31 -25 23 -25 -13 0 -35 15 -61 40 -71 10 -4
8 -5 -5 -3 -57 7 -99 191 -58 260 10 17 12 0 4 -35z m169 8 c11 -33 11 -33 55
-25 46 9 75 4 75 -12 0 -5 -11 -9 -25 -9 -14 0 -25 -4 -25 -9 0 -4 11 -6 25
-3 15 2 25 0 25 -7 0 -7 -22 -11 -60 -11 l-60 0 -1 -32 c0 -18 -5 -42 -10 -53
-6 -15 -7 -9 -4 20 5 38 -5 118 -20 158 -4 9 -3 17 3 17 6 0 15 -15 22 -34z
m1243 17 c-7 -2 -19 -2 -25 0 -7 3 -2 5 12 5 14 0 19 -2 13 -5z m-1618 -12 c3
-5 1 -12 -4 -15 -13 -9 -72 5 -65 15 7 12 61 11 69 0z m706 -1 c11 0 19 -4 19
-10 0 -11 -33 -13 -79 -4 -17 4 -28 11 -25 16 4 6 20 7 36 4 17 -3 39 -6 49
-6z m-2166 -39 c44 -17 112 -46 150 -63 39 -17 99 -41 135 -54 40 -15 51 -21
30 -18 -19 3 -62 16 -95 29 -33 13 -78 29 -100 36 -54 17 -225 96 -225 104 0
4 6 5 13 2 6 -3 48 -19 92 -36z m410 5 c28 -8 41 -15 30 -15 -11 0 -40 6 -65
13 -58 19 -30 20 35 2z m1030 -16 c-3 -5 -12 -10 -18 -10 -7 0 -6 4 3 10 19
12 23 12 15 0z m-942 -7 c-7 -2 -19 -2 -25 0 -7 3 -2 5 12 5 14 0 19 -2 13 -5z
m842 -3 c8 -13 -25 -13 -45 0 -12 8 -9 10 12 10 15 0 30 -4 33 -10z m-255 -82
c0 -20 -18 -4 -33 30 l-17 37 25 -30 c14 -16 25 -33 25 -37z m868 30 c-3 -8
-24 -14 -49 -15 l-44 -2 35 14 c45 17 63 18 58 3z m485 -24 c5 -30 -8 -20 -18
15 -4 15 -3 21 3 17 5 -3 12 -17 15 -32z m867 33 c0 -2 -10 -12 -22 -23 l-23
-19 19 23 c18 21 26 27 26 19z m-1490 -11 c0 -3 -4 -8 -10 -11 -5 -3 -10 -1
-10 4 0 6 5 11 10 11 6 0 10 -2 10 -4z m655 -17 c11 -17 -1 -21 -15 -4 -8 9
-8 15 -2 15 6 0 14 -5 17 -11z m-1252 -46 c3 -5 -24 -8 -59 -8 -35 -1 -64 3
-64 7 0 10 117 11 123 1z m16 -97 c10 -12 8 -13 -8 -9 -12 3 -21 9 -21 14 0
14 16 11 29 -5z m1259 9 c-9 -9 -92 -12 -113 -4 -13 5 5 8 49 8 38 1 67 -1 64
-4z m-1168 -15 c0 -5 -4 -10 -10 -10 -5 0 -10 5 -10 10 0 6 5 10 10 10 6 0 10
-4 10 -10z m1602 -182 c3 -26 0 -38 -9 -38 -14 0 -19 71 -6 84 9 8 10 4 15
-46z m1484 -71 c141 -44 292 -60 574 -61 140 -1 269 3 285 7 25 7 28 6 17 -5
-21 -21 -533 -17 -677 5 -126 19 -283 60 -299 78 -8 9 -7 11 5 6 8 -3 51 -16
95 -30z m41 -89 c-3 -7 -5 -2 -5 12 0 14 2 19 5 13 2 -7 2 -19 0 -25z m43 7
c0 -8 -3 -16 -7 -18 -5 -3 -8 5 -8 18 0 13 3 21 8 18 4 -2 7 -10 7 -18z
m-2520 -45 c0 -5 -4 -10 -10 -10 -5 0 -10 5 -10 10 0 6 5 10 10 10 6 0 10 -4
10 -10z m-1630 -49 c0 -12 -20 -25 -27 -18 -7 7 6 27 18 27 5 0 9 -4 9 -9z
m2830 -271 c-23 -18 -50 -26 -50 -15 0 4 58 33 70 34 3 0 -6 -8 -20 -19z m-80
-34 c0 -11 -19 -15 -25 -6 -3 5 1 10 9 10 9 0 16 -2 16 -4z m-1372 -44 c6 -9
12 -19 12 -24 0 -12 -34 -9 -49 5 -11 10 -13 9 -8 -5 4 -12 2 -15 -9 -11 -8 3
-12 8 -10 11 3 3 1 12 -6 19 -9 11 -9 16 1 23 18 10 53 1 69 -18z m-80 -40 c2
-7 -3 -12 -12 -12 -9 0 -16 7 -16 16 0 17 22 14 28 -4z m-128 4 c0 -3 -4 -8
-10 -11 -5 -3 -10 -1 -10 4 0 6 5 11 10 11 6 0 10 -2 10 -4z m75 -16 c13 -5
14 -9 5 -9 -8 0 -24 4 -35 9 -13 5 -14 9 -5 9 8 0 24 -4 35 -9z m1475 -34 c0
-3 -4 -8 -10 -11 -5 -3 -10 -1 -10 4 0 6 5 11 10 11 6 0 10 -2 10 -4z m-80
-61 c20 -24 4 -29 -19 -6 -14 14 -17 21 -7 21 7 0 19 -7 26 -15z m1023 -29 c6
-16 -2 -28 -14 -20 -12 7 -11 34 0 34 5 0 11 -6 14 -14z m425 -34 c-5 -2 -16
-1 -26 3 -16 6 -15 8 3 21 17 13 20 13 26 -3 3 -10 2 -20 -3 -21z m-1348 1
c14 -9 26 -17 28 -18 1 -1 -1 -11 -5 -23 -7 -19 -10 -17 -36 19 -30 42 -26 49
13 22z m-945 -3 c3 -5 1 -10 -4 -10 -6 0 -11 5 -11 10 0 6 2 10 4 10 3 0 8 -4
11 -10z m-152 -7 c-7 -2 -19 -2 -25 0 -7 3 -2 5 12 5 14 0 19 -2 13 -5z m2407
-3 c0 -5 -15 -10 -32 -9 -31 1 -32 1 -8 9 35 11 40 11 40 0z m-1487 -19 c3
-12 -1 -22 -11 -26 -20 -7 -25 -1 -17 24 8 26 21 27 28 2z m122 -11 c10 -11
25 -19 33 -18 19 4 42 -33 24 -39 -6 -3 -10 -9 -6 -14 3 -5 1 -9 -4 -9 -6 0
-12 -10 -16 -22 -3 -13 -19 -29 -36 -36 -20 -9 -30 -21 -30 -35 0 -21 0 -21
-19 -2 -21 22 -42 133 -22 121 6 -4 11 -15 11 -24 0 -9 5 -24 10 -32 6 -10 8
-3 4 25 l-5 40 20 -23 20 -24 -3 39 c-3 21 -8 46 -11 56 -10 23 8 22 30 -3z
m-800 -40 c3 -6 0 -10 -7 -10 -15 0 -38 19 -38 32 0 10 36 -8 45 -22z m-440
-6 c-9 -9 -24 -12 -47 -7 -32 7 -32 7 -8 13 14 4 35 7 47 7 19 0 20 -2 8 -13z
m2624 -6 c9 -24 3 -58 -9 -58 -4 0 -11 11 -14 25 -4 14 -11 25 -16 25 -14 0
-13 -23 2 -38 13 -13 6 -17 -55 -27 -27 -4 -37 -3 -32 4 3 6 13 11 21 11 8 0
14 5 14 10 0 21 44 70 62 70 10 0 22 -10 27 -22z m-1219 -42 c0 -18 -3 -17
-19 8 -11 17 -17 34 -14 39 8 14 33 -22 33 -47z m-297 -33 c5 -44 3 -53 -10
-53 -11 0 -14 6 -9 23 3 12 6 37 6 56 0 48 6 36 13 -26z m39 -7 c2 -33 -1 -51
-9 -53 -10 -4 -13 12 -13 58 0 74 16 70 22 -5z m-342 34 c0 -11 -5 -20 -11
-20 -5 0 -7 5 -4 10 3 6 -3 10 -14 10 -12 0 -21 -5 -21 -10 0 -6 -8 -5 -20 2
-19 12 -18 13 17 19 21 3 41 7 46 8 4 0 7 -8 7 -19z m573 -25 c25 -29 33 -45
23 -45 -14 0 -76 67 -76 82 0 18 18 5 53 -37z m-1234 9 c49 -26 98 -85 86
-105 -4 -5 -1 -9 4 -9 13 0 10 -22 -4 -32 -5 -5 -21 -6 -35 -5 -14 2 -19 2
-13 0 10 -3 10 -10 2 -25 -8 -14 -18 -19 -35 -15 -14 2 -23 2 -20 -1 8 -7 -21
-32 -37 -32 -7 0 -14 -6 -14 -14 0 -20 18 -15 42 11 14 16 27 21 43 16 18 -4
20 -8 11 -20 -9 -11 -8 -17 7 -28 10 -8 24 -13 31 -10 6 2 16 -2 22 -9 8 -10
3 -20 -19 -39 -17 -15 -30 -31 -30 -35 0 -15 -74 -44 -125 -49 -59 -6 -120 16
-130 47 -4 12 4 43 19 77 14 32 30 93 36 136 11 85 29 120 75 148 16 11 31 19
32 19 0 0 24 -12 52 -26z m896 6 c3 -5 1 -10 -4 -10 -6 0 -11 5 -11 10 0 6 2
10 4 10 3 0 8 -4 11 -10z m-1583 -27 c69 -72 60 -163 -24 -238 -18 -16 -27
-23 -20 -15 17 20 15 55 -8 123 -18 53 -18 62 -5 87 8 16 15 38 15 50 0 27 11
25 42 -7z m1584 -20 c-7 -7 -26 7 -26 19 0 6 6 6 15 -2 9 -7 13 -15 11 -17z
m-536 7 c0 -5 -7 -10 -15 -10 -8 0 -15 5 -15 10 0 6 7 10 15 10 8 0 15 -4 15
-10z m813 -32 c19 -28 26 -52 23 -68 -2 -15 2 -32 11 -43 23 -25 8 -32 -16 -8
-12 12 -25 21 -31 21 -5 0 -7 6 -4 14 3 9 -7 24 -25 37 -17 13 -31 31 -31 41
0 21 11 23 28 6 9 -9 12 -9 12 -1 0 7 -4 15 -10 18 -14 9 -12 25 3 25 7 0 25
-19 40 -42z m-1402 16 c10 -9 16 -21 13 -26 -3 -5 3 -12 15 -15 25 -6 29 -48
6 -57 -9 -3 -13 -14 -11 -28 4 -27 -9 -56 -36 -79 -13 -12 -17 -25 -13 -47 4
-26 1 -31 -25 -40 -54 -19 -133 -10 -174 21 -38 30 -46 47 -20 47 9 0 12 -5 8
-12 -4 -7 -3 -8 4 -4 7 4 12 2 12 -4 0 -22 29 -40 74 -46 33 -5 46 -3 46 6 0
7 -6 10 -14 7 -16 -7 -40 16 -29 27 4 4 -4 3 -18 -2 -15 -6 -31 -7 -40 -1 -8
5 -10 9 -6 9 18 0 -26 34 -46 35 -19 1 -22 8 -21 43 1 50 14 67 57 78 l32 8
-35 4 c-40 4 -53 18 -39 44 18 33 60 46 153 47 70 1 93 -3 107 -15z m973 -15
c-3 -5 -12 -9 -20 -9 -24 0 -16 -17 12 -24 17 -5 30 -19 41 -44 26 -62 32 -76
54 -111 23 -38 18 -66 -10 -58 -10 2 -24 1 -30 -2 -11 -7 29 -32 73 -46 10 -3
16 -8 13 -11 -3 -4 -30 4 -59 16 -60 25 -89 63 -60 79 16 9 16 10 0 16 -10 4
-25 5 -33 1 -8 -3 -33 6 -56 19 -23 13 -48 21 -56 18 -8 -3 -20 2 -26 12 -9
11 -23 15 -42 13 -28 -4 -26 -6 35 -36 36 -18 70 -32 77 -32 12 0 28 -18 21
-25 -2 -3 -50 18 -107 45 -106 52 -121 68 -135 144 -6 31 -2 32 24 6 12 -12
33 -20 55 -20 20 0 47 -7 60 -16 26 -17 45 -12 45 12 0 26 18 14 25 -17 9 -40
25 -20 25 30 0 33 1 34 16 15 15 -18 15 -18 10 8 -5 20 -2 27 11 30 24 6 44
-2 37 -13z m265 -161 c15 -42 14 -71 -1 -65 -7 2 -22 -4 -34 -14 -19 -18 -21
-18 -19 -2 0 10 4 24 8 30 5 7 3 21 -3 32 -13 26 -13 31 5 31 8 0 15 4 15 10
0 5 -6 7 -12 5 -7 -3 -24 5 -38 16 l-25 21 24 -6 c32 -7 51 9 52 43 1 14 5 5
9 -22 5 -27 13 -62 19 -79z m1281 97 c0 -11 -51 -27 -59 -19 -9 8 31 35 47 32
7 -2 13 -7 12 -13z m-1200 -42 c0 -7 -4 -13 -9 -13 -10 0 -21 25 -21 48 1 15
3 14 15 -2 8 -11 15 -26 15 -33z m-680 -7 c-12 -12 -30 8 -30 33 0 11 5 10 20
-4 15 -13 17 -22 10 -29z m1760 34 c0 -15 -13 -18 -114 -24 -77 -6 -87 -4 -77
8 17 21 191 35 191 16z m-1035 -20 c-3 -5 -11 -10 -16 -10 -6 0 -7 5 -4 10 3
6 11 10 16 10 6 0 7 -4 4 -10z m-65 -79 c0 -62 -13 -121 -26 -121 -8 0 -14 7
-14 15 0 7 -8 19 -17 24 -16 9 -16 10 5 11 17 0 22 6 22 28 0 37 10 72 21 72
5 0 9 -13 9 -29z m-3720 -23 c0 -5 -7 -8 -15 -8 -17 0 -18 2 -9 25 5 13 8 14
15 3 5 -7 9 -16 9 -20z m2705 21 c11 -16 1 -19 -13 -3 -7 8 -8 14 -3 14 5 0
13 -5 16 -11z m-2601 -81 c-3 -5 -12 -4 -20 3 -7 6 -11 15 -8 21 3 5 12 4 20
-3 7 -6 11 -15 8 -21z m3657 7 c-1 -15 -24 -12 -29 3 -3 9 2 13 12 10 10 -1
17 -7 17 -13z m-3527 -42 c5 -17 3 -23 -7 -23 -19 0 -25 16 -19 48 5 26 13 18
26 -25z m3596 -6 c14 -13 31 -22 38 -19 14 4 15 0 6 -22 -9 -24 -30 -19 -58
15 -42 49 -31 68 14 26z m-250 -23 c0 -8 -4 -14 -9 -14 -12 0 -32 26 -25 33
10 9 34 -4 34 -19z m-3743 -26 c-3 -8 -6 -5 -6 6 -1 11 2 17 5 13 3 -3 4 -12
1 -19z m593 2 c0 -5 -2 -10 -4 -10 -3 0 -8 5 -11 10 -3 6 -1 10 4 10 6 0 11
-4 11 -10z m4297 -6 c-3 -3 -12 -4 -19 -1 -8 3 -5 6 6 6 11 1 17 -2 13 -5z
m-3632 -23 c3 -5 1 -12 -5 -16 -5 -3 -10 1 -10 9 0 18 6 21 15 7z m2650 -1 c3
-5 2 -10 -4 -10 -5 0 -13 5 -16 10 -3 6 -2 10 4 10 5 0 13 -4 16 -10z m-2845
-10 c0 -5 -5 -10 -11 -10 -5 0 -7 5 -4 10 3 6 8 10 11 10 2 0 4 -4 4 -10z
m4235 0 c-3 -5 -10 -10 -16 -10 -5 0 -9 5 -9 10 0 6 7 10 16 10 8 0 12 -4 9
-10z m-85 -29 c0 -29 -13 -33 -51 -17 l-34 15 25 10 c40 16 60 13 60 -8z
m-1385 -22 c4 -11 5 -23 2 -25 -6 -6 -37 25 -37 37 0 18 29 9 35 -12z m825 1
c13 -9 13 -11 0 -20 -13 -9 -13 -12 3 -24 10 -8 42 -20 70 -26 182 -42 379
-91 417 -103 25 -8 65 -20 90 -27 78 -22 165 -53 175 -62 5 -5 1 -14 -13 -24
-12 -8 -29 -28 -37 -44 -15 -29 -16 -29 -48 -16 -106 45 -171 65 -183 56 -8
-7 -13 -6 -18 5 -3 8 -10 15 -16 15 -11 0 -243 84 -348 125 -62 25 -133 45
-162 47 -8 1 -17 4 -20 7 -3 4 -34 16 -70 28 -49 16 -65 25 -65 39 0 22 35 24
102 4 38 -11 45 -10 70 9 32 24 33 24 53 11z m1000 -30 c0 -5 -2 -10 -4 -10
-3 0 -8 5 -11 10 -3 6 -1 10 4 10 6 0 11 -4 11 -10z m-1515 -61 c69 -18 77
-19 97 -5 28 20 39 20 63 2 16 -11 17 -17 7 -29 -10 -12 -8 -16 15 -25 41 -16
272 -80 318 -88 22 -4 110 -24 195 -45 85 -22 169 -39 187 -39 18 0 33 -5 33
-11 0 -6 7 -17 15 -25 12 -12 19 -13 36 -3 17 9 35 8 83 -7 34 -9 65 -21 69
-24 5 -4 -3 -24 -17 -44 -13 -20 -26 -42 -28 -48 -3 -9 -15 -9 -49 2 -24 8
-53 14 -64 15 -11 1 -36 8 -55 17 -19 8 -64 23 -100 32 -104 27 -298 92 -387
129 -46 20 -91 33 -102 30 -18 -5 -137 27 -196 52 -16 7 -66 20 -110 30 -117
26 -131 37 -105 86 13 23 4 23 95 -2z m-327 -46 c2 -8 -6 -13 -22 -13 -13 0
-28 -4 -31 -10 -3 -5 -16 -10 -28 -10 -21 -1 -22 -1 -3 -15 11 -8 17 -18 13
-22 -8 -7 -47 26 -47 40 0 6 8 19 17 29 19 22 94 22 101 1z m-561 -27 c-6 -18
-57 -20 -57 -2 0 8 6 16 13 19 19 6 48 -4 44 -17z m243 4 c0 -5 -17 -10 -37
-10 -28 0 -34 3 -23 10 20 13 60 13 60 0z m-2793 -36 c-3 -3 -12 -4 -19 -1 -8
3 -5 6 6 6 11 1 17 -2 13 -5z m2448 -4 c3 -6 -1 -7 -9 -4 -18 7 -21 14 -7 14
6 0 13 -4 16 -10z m325 -25 c16 -15 40 -25 65 -27 31 -2 40 -7 39 -20 -1 -11
5 -18 17 -18 24 0 25 -16 2 -23 -10 -2 -25 -8 -34 -12 -12 -4 -29 6 -56 33
-21 21 -62 50 -91 63 -28 13 -52 28 -52 33 0 17 85 -5 110 -29z m-394 15 c12
-12 179 -17 212 -6 31 10 29 -12 -4 -24 -14 -6 -71 -12 -127 -14 -56 -3 -223
-25 -372 -51 -148 -25 -350 -60 -449 -76 -98 -17 -190 -29 -203 -26 -15 3 -27
-1 -30 -9 -8 -21 -71 -34 -142 -30 -67 5 -77 8 -66 25 3 6 39 11 81 11 73 0
74 1 64 21 -10 18 -19 20 -73 18 -34 -2 -68 -7 -75 -13 -19 -14 -37 8 -18 23
22 19 115 30 149 18 38 -13 167 -4 331 23 70 12 142 19 160 16 20 -4 25 -3 12
2 -14 6 -2 11 46 20 36 7 76 12 89 11 l24 -1 -25 -8 c-14 -4 -20 -8 -14 -9 18
-2 396 58 402 64 3 3 0 5 -6 5 -7 0 -12 5 -12 10 0 13 33 13 46 0z m-2410 -15
c21 -20 100 -20 112 0 9 18 45 10 39 -9 -7 -22 -53 -36 -116 -36 -46 0 -62 -3
-54 -11 17 -17 135 -15 173 4 40 21 40 21 40 2 0 -9 -17 -23 -37 -31 -21 -9
-46 -20 -55 -25 -33 -17 -127 -10 -169 11 -51 26 -57 44 -28 75 31 32 53 33
47 1 -4 -21 -3 -23 13 -13 12 8 15 15 9 21 -6 6 -10 14 -10 18 0 13 20 9 36
-7z m5829 -15 c-11 -5 -27 -9 -35 -9 -13 -1 -13 0 0 9 8 5 24 9 35 9 l20 0
-20 -9z m-70 -20 c-11 -5 -27 -9 -35 -9 -9 0 -8 4 5 9 11 5 27 9 35 9 9 0 8
-4 -5 -9z m-3069 -71 c19 -11 34 -25 34 -30 0 -12 -37 -34 -95 -54 -27 -10
-68 -26 -91 -36 -22 -11 -43 -19 -47 -19 -4 0 -44 -18 -90 -39 -161 -77 -245
-111 -259 -106 -8 3 -34 -6 -59 -19 -54 -32 -73 -32 -93 -4 l-16 22 -55 -23
c-53 -22 -57 -22 -81 -6 -25 16 -25 17 -7 29 24 16 138 66 150 66 6 0 21 8 34
18 31 24 114 52 153 52 17 0 50 8 75 17 30 12 46 14 48 6 3 -7 16 -8 41 -2 20
5 51 6 68 3 41 -8 51 9 18 31 -25 16 -25 17 -6 30 10 8 48 19 82 24 39 7 78
20 99 36 43 30 54 31 97 4z m844 17 c0 -11 -19 -15 -25 -6 -3 5 1 10 9 10 9 0
16 -2 16 -4z m1230 -48 c-1 -35 -50 -63 -65 -38 -3 6 1 10 9 10 8 0 20 9 26
20 12 22 30 27 30 8z m-858 -10 c-16 -16 -15 -28 2 -28 20 0 31 -19 18 -32 -8
-8 -15 -8 -25 1 -8 6 -22 9 -31 5 -27 -10 -33 26 -7 48 26 21 63 26 43 6z
m-542 -13 c6 -3 10 -22 10 -41 0 -42 44 -127 99 -192 23 -26 41 -53 41 -59 0
-31 -116 -29 -151 3 -11 10 -19 30 -19 50 0 18 -11 58 -25 88 -14 30 -29 66
-35 80 -5 14 -14 26 -20 26 -14 0 -13 33 2 48 12 12 77 10 98 -3z m-3315 -15
c3 -6 -1 -13 -10 -16 -19 -8 -30 0 -20 15 8 14 22 14 30 1z m2945 -10 c13 -9
13 -11 0 -20 -21 -14 -44 -8 -48 13 -4 19 23 23 48 7z m-2686 -9 c3 -5 -1 -11
-9 -15 -9 -3 -15 0 -15 9 0 16 16 20 24 6z m2758 -79 c9 -15 17 -31 17 -37 1
-5 14 -10 29 -10 31 0 80 -28 89 -51 15 -39 -52 -58 -95 -28 -21 15 -25 15
-41 0 -28 -26 -34 -19 -28 34 5 43 3 54 -18 79 -14 16 -25 36 -25 44 0 25 53
2 72 -31z m2498 9 c0 -10 -50 -30 -55 -22 -2 4 3 18 11 30 13 17 19 20 30 10
8 -6 14 -14 14 -18z m-5135 -14 l30 -17 -30 6 c-49 9 -94 25 -100 33 -7 13 67
-4 100 -22z m3310 3 c0 -8 10 -19 23 -25 12 -5 21 -17 19 -25 -4 -20 -92 -14
-118 8 -32 27 -23 48 18 43 6 -1 15 3 18 9 10 16 40 8 40 -10z m875 -1 c0 -23
-22 -49 -40 -49 -24 0 -25 4 -4 35 16 25 44 34 44 14z m-4068 -46 c38 -14 66
-28 64 -30 -4 -5 -106 30 -132 46 -33 19 -1 12 68 -16z m5009 -7 c7 4 10 2 7
-6 -2 -8 -12 -18 -21 -24 -21 -13 -42 5 -33 29 5 14 9 15 21 5 8 -6 19 -8 26
-4z m-3885 -101 c28 -8 62 -28 78 -44 26 -27 28 -33 17 -59 -7 -16 -26 -42
-42 -58 -16 -15 -29 -33 -29 -40 0 -15 -35 -28 -50 -19 -6 4 -8 11 -5 16 5 8
-12 10 -117 13 -14 1 -23 -5 -23 -13 0 -18 -16 -23 -35 -11 -12 8 -13 11 -1
19 10 6 -1 16 -40 37 -29 16 -60 42 -69 57 -15 28 -14 29 22 61 21 18 53 38
70 44 49 15 168 14 224 -3z m4064 -65 c0 -13 -7 -20 -19 -20 -27 0 -35 17 -14
29 26 15 33 13 33 -9z m-4610 -40 c8 -5 11 -10 5 -10 -5 0 -17 5 -25 10 -8 5
-10 10 -5 10 6 0 17 -5 25 -10z m4425 -21 c0 -18 -5 -24 -22 -23 -13 0 -21 -2
-18 -4 9 -9 -17 -32 -36 -32 -20 0 -25 15 -9 25 6 3 10 15 10 25 0 11 11 22
28 28 37 14 47 10 47 -19z m-390 -120 c-3 -3 3 -15 13 -25 18 -20 43 -30 41
-16 -4 26 2 41 17 35 12 -4 12 -8 4 -13 -9 -5 -6 -10 9 -15 11 -3 25 -3 31 0
13 8 60 17 60 11 0 -3 -225 -77 -244 -80 -5 0 -9 9 -11 21 -1 13 0 21 3 18 3
-2 13 0 23 6 11 5 19 6 19 1 0 -20 26 -7 28 15 1 13 -2 23 -7 23 -5 0 -11 6
-14 14 -4 10 0 14 13 13 10 -1 17 -4 15 -8z m-3485 -29 c0 -16 -4 -30 -10 -30
-11 0 -14 43 -3 53 11 12 13 8 13 -23z m3415 -1 c-4 -5 -12 -9 -18 -8 -9 0 -8
2 1 6 6 2 9 10 6 15 -4 7 -2 8 5 4 6 -4 9 -12 6 -17z m115 11 c0 -5 -2 -10 -4
-10 -3 0 -8 5 -11 10 -3 6 -1 10 4 10 6 0 11 -4 11 -10z m80 6 c0 -2 -7 -6
-15 -10 -8 -3 -15 -1 -15 4 0 6 7 10 15 10 8 0 15 -2 15 -4z m-255 -36 c-3 -5
-14 -10 -23 -9 -14 0 -13 2 3 9 27 11 27 11 20 0z m-157 -54 c12 15 52 15 52
-1 0 -18 -17 -28 -25 -15 -10 16 -25 12 -19 -5 4 -8 10 -12 15 -9 5 3 9 -1 9
-8 0 -9 3 -9 10 2 7 11 10 11 10 2 0 -7 5 -10 10 -7 6 4 7 11 4 17 -4 7 -2 8
4 4 7 -4 12 -2 12 3 0 6 4 11 8 11 4 0 8 -8 8 -19 0 -14 -20 -25 -93 -51 -51
-17 -97 -29 -103 -25 -5 3 -10 2 -10 -4 0 -12 -639 -223 -651 -215 -5 3 -9 1
-9 -5 0 -12 -190 -75 -199 -66 -3 4 2 11 12 16 21 12 22 35 2 43 -20 7 -19 26
1 26 8 0 12 5 9 10 -6 9 14 14 43 11 8 -1 21 4 30 11 9 7 14 9 10 4 -8 -9 14
-36 24 -30 4 3 4 12 1 22 -3 9 8 3 25 -15 26 -26 33 -29 43 -17 6 7 16 11 22
7 6 -4 7 -1 2 7 -5 9 -2 11 11 6 22 -6 69 28 59 44 -4 6 0 7 10 4 9 -4 14 -13
10 -22 -4 -12 -3 -13 10 -2 12 10 15 10 15 0 0 -8 3 -10 7 -6 5 4 -1 14 -11
22 -11 7 -16 17 -13 21 12 12 56 9 61 -4 3 -7 10 -13 16 -13 6 0 2 10 -10 22
-11 12 -20 27 -20 32 0 6 4 5 9 -2 4 -8 12 -12 17 -11 13 4 43 43 38 49 -3 2
-10 -2 -15 -10 -9 -13 -10 -13 -6 0 4 17 57 24 57 8 0 -7 6 -6 15 2 8 7 15 9
15 4 1 -5 9 1 20 14 16 20 20 20 33 7 13 -13 17 -13 27 0 7 8 16 12 21 9 5 -3
9 0 9 6 0 7 6 8 19 0 22 -11 36 1 28 24 -4 9 2 11 20 8 20 -4 24 -2 18 9 -7
11 -5 11 10 -1 17 -13 18 -13 13 1 -5 13 -2 16 14 11 14 -3 19 -1 14 6 -10 16
7 15 23 0 10 -11 11 -9 5 6 -5 14 -4 17 5 11 8 -4 16 -3 20 3 4 7 17 13 29 15
12 2 25 6 28 10 4 4 12 7 18 7 6 0 5 -4 -3 -9 -9 -6 -2 -8 22 -8 20 1 35 4 35
7 -2 27 3 32 18 19 9 -7 18 -9 22 -3z m-63 -6 c3 -5 1 -10 -4 -10 -6 0 -11 5
-11 10 0 6 2 10 4 10 3 0 8 -4 11 -10z m-999 -11 c7 -12 -45 -60 -61 -55 -17
5 -17 33 0 50 19 18 51 21 61 5z m-44 -100 c3 -9 10 -9 27 0 20 11 22 11 19
-6 -5 -25 -61 -25 -66 0 -4 19 14 24 20 6z m378 -119 c7 11 12 12 20 4 8 -8 8
-14 1 -18 -5 -4 -8 -14 -5 -24 5 -14 4 -15 -5 -2 -6 8 -11 11 -11 5 0 -5 -5
-3 -10 5 -8 13 -10 12 -10 -3 0 -10 -4 -15 -10 -12 -5 3 -10 1 -10 -5 0 -24
-25 -2 -27 23 -1 19 2 24 13 20 11 -4 12 -9 5 -16 -19 -19 -12 -31 8 -13 11
10 17 25 14 34 -4 15 -3 15 6 2 10 -13 12 -13 21 0z m-224 -32 c4 -6 3 -8 -4
-4 -6 3 -16 0 -24 -7 -12 -11 -22 -13 -45 -8 -11 2 39 30 54 31 6 0 15 -5 19
-12z m-82 -75 c-16 -25 -31 -27 -43 -4 -9 15 -7 23 5 36 15 15 18 15 33 1 12
-12 13 -21 5 -33z m-134 8 c0 -4 11 -6 24 -4 30 6 51 -27 41 -64 -4 -16 -2
-22 5 -18 5 3 10 2 10 -3 0 -11 -24 -22 -46 -22 -8 0 -19 11 -24 25 -5 14 -14
25 -20 25 -6 0 -8 5 -4 12 5 7 1 9 -13 6 -27 -7 -47 6 -40 25 5 13 15 18 60
26 4 0 7 -3 7 -8z m158 -76 c-10 -10 -68 -24 -68 -16 0 15 13 21 43 21 17 0
28 -2 25 -5z m-258 -27 c0 -5 -4 -6 -10 -3 -5 3 -10 -1 -10 -10 0 -9 -4 -13
-10 -10 -5 3 -10 0 -10 -8 0 -7 7 -14 15 -14 8 0 12 3 10 7 -7 12 29 38 47 35
10 -2 24 -10 32 -17 12 -13 8 -17 -35 -33 -48 -17 -51 -17 -70 1 -12 11 -16
21 -10 27 5 5 7 17 4 26 -4 14 -3 14 6 1 10 -13 15 -8 12 12 0 4 6 5 14 2 8
-4 15 -10 15 -16z"/>
<path d="M13585 7950 c-15 -17 -16 -24 -7 -46 14 -30 75 -58 111 -50 24 6 24
5 9 -7 -24 -19 -22 -36 7 -72 26 -32 29 -30 40 37 5 35 3 39 -27 58 -18 11
-43 19 -56 17 -16 -3 -22 0 -18 9 3 8 -4 19 -15 25 -25 13 -20 31 12 40 22 6
22 7 -7 8 -19 1 -38 -7 -49 -19z"/>
<path d="M13670 7956 c0 -3 9 -10 20 -16 11 -6 20 -8 20 -6 0 3 -9 10 -20 16
-11 6 -20 8 -20 6z"/>
<path d="M14130 7915 c-10 -12 -10 -15 3 -15 8 0 20 7 27 15 10 12 10 15 -3
15 -8 0 -20 -7 -27 -15z"/>
<path d="M13827 7798 c7 -59 10 -68 28 -68 25 0 19 63 -9 89 l-24 23 5 -44z"/>
<path d="M13790 7680 c-9 -6 -10 -10 -3 -10 6 0 15 5 18 10 8 12 4 12 -15 0z"/>
<path d="M13710 7542 c0 -13 39 -46 46 -39 3 3 3 10 -1 16 -9 15 -45 33 -45
23z"/>
<path d="M13636 7519 c-19 -19 -19 -19 3 -19 14 0 20 4 15 12 -5 8 -2 9 12 4
58 -24 71 -19 19 6 -28 14 -32 14 -49 -3z"/>
<path d="M13640 7480 c11 -9 12 -13 3 -17 -17 -6 -16 -23 1 -23 18 0 15 42 -4
47 -13 4 -13 3 0 -7z"/>
<path d="M13620 7421 c0 -6 5 -11 10 -11 6 0 10 -6 10 -14 0 -15 29 -30 39
-21 3 3 -1 10 -9 15 -8 5 -15 15 -15 22 0 7 -8 14 -17 16 -10 2 -18 -1 -18 -7z"/>
<path d="M13926 5585 c-5 -13 14 -26 37 -24 7 0 3 4 -8 9 -15 6 -16 9 -4 9 23
1 30 -9 19 -30 -17 -30 8 -33 41 -5 17 14 27 26 22 26 -4 0 -29 7 -55 14 -39
12 -47 12 -52 1z m84 -25 c0 -5 -5 -10 -11 -10 -5 0 -7 5 -4 10 3 6 8 10 11
10 2 0 4 -4 4 -10z"/>
<path d="M11918 4083 c7 -3 16 -2 19 1 4 3 -2 6 -13 5 -11 0 -14 -3 -6 -6z"/>
<path d="M12253 3933 c9 -2 25 -2 35 0 9 3 1 5 -18 5 -19 0 -27 -2 -17 -5z"/>
<path d="M12148 3923 c12 -2 30 -2 40 0 9 3 -1 5 -23 4 -22 0 -30 -2 -17 -4z"/>
<path d="M12068 3913 c6 -2 18 -2 25 0 6 3 1 5 -13 5 -14 0 -19 -2 -12 -5z"/>
<path d="M12738 3833 c6 -2 18 -2 25 0 6 3 1 5 -13 5 -14 0 -19 -2 -12 -5z"/>
<path d="M12853 3693 c9 -2 23 -2 30 0 6 3 -1 5 -18 5 -16 0 -22 -2 -12 -5z"/>
<path d="M12713 3673 c9 -2 25 -2 35 0 9 3 1 5 -18 5 -19 0 -27 -2 -17 -5z"/>
<path d="M13105 3584 c-15 -20 -25 -36 -24 -37 2 -1 18 -10 36 -20 l31 -17 31
37 c33 40 32 45 -16 61 -30 10 -33 8 -58 -24z"/>
<path d="M12707 3593 c-7 -6 -10 -63 -3 -63 1 0 17 5 35 11 31 11 56 41 44 53
-8 8 -68 8 -76 -1z"/>
<path d="M12976 3528 c-11 -35 -14 -60 -7 -52 10 11 23 64 16 64 -3 0 -7 -6
-9 -12z"/>
<path d="M13041 3476 c-13 -16 -4 -46 14 -46 7 0 16 -6 18 -12 3 -7 6 1 6 18
1 38 -21 61 -38 40z"/>
<path d="M11027 3438 c-25 -9 -27 -13 -21 -46 12 -73 13 -75 48 -67 17 4 44 9
60 11 33 5 56 21 56 39 0 15 -27 28 -41 19 -14 -8 -40 23 -33 40 7 19 -24 21
-69 4z"/>
<path d="M13136 3421 c-9 -14 23 -81 38 -81 22 0 27 29 11 61 -15 28 -38 38
-49 20z"/>
<path d="M10907 3365 c-37 -30 -55 -50 -50 -58 4 -7 7 -21 5 -32 -2 -17 -1
-17 8 3 9 22 30 31 30 12 0 -11 53 -6 90 9 18 7 20 10 7 10 -12 1 -17 9 -16
29 3 45 -1 72 -8 72 -5 0 -34 -20 -66 -45z"/>
<path d="M12810 3392 c0 -6 -21 -14 -47 -18 -27 -4 -65 -13 -85 -21 l-38 -15
0 -63 0 -62 39 -11 c21 -7 44 -19 51 -27 13 -16 40 -21 40 -7 0 17 -31 51 -44
46 -21 -8 -35 18 -25 45 l9 23 21 -26 c26 -33 30 -33 51 4 11 19 22 28 31 24
14 -5 31 11 32 29 0 4 4 7 9 6 5 0 12 5 16 11 4 7 10 -4 15 -26 6 -36 31 -94
40 -94 2 0 1 25 -2 55 -5 50 -4 55 14 55 11 0 31 9 45 20 19 14 28 16 36 8 9
-9 12 -8 12 4 0 8 -6 21 -14 27 -19 16 -206 28 -206 13z"/>
<path d="M13227 3324 c-12 -12 -8 -51 6 -63 16 -13 27 -5 27 19 0 21 -24 53
-33 44z"/>
<path d="M10813 3288 c-17 -19 -19 -31 -14 -63 3 -22 12 -41 19 -43 10 -2 10
2 3 16 -12 23 -10 62 4 62 5 0 11 11 11 25 2 30 2 30 -23 3z"/>
<path d="M12317 3303 c18 -2 50 -2 70 0 21 2 7 4 -32 4 -38 0 -55 -2 -38 -4z"/>
<path d="M12454 3265 c-6 -25 9 -55 27 -55 10 0 12 41 3 64 -9 24 -23 19 -30
-9z"/>
<path d="M12565 3269 c-7 -11 22 -49 37 -49 4 0 8 14 8 30 0 23 -5 30 -19 30
-11 0 -23 -5 -26 -11z"/>
<path d="M12811 3234 c0 -11 3 -14 6 -6 3 7 2 16 -1 19 -3 4 -6 -2 -5 -13z"/>
<path d="M12524 3219 c-3 -6 -1 -16 5 -22 8 -8 11 -5 11 11 0 24 -5 28 -16 11z"/>
<path d="M13280 3215 c0 -8 5 -15 10 -15 6 0 10 7 10 15 0 8 -4 15 -10 15 -5
0 -10 -7 -10 -15z"/>
<path d="M14068 3223 c7 -3 16 -2 19 1 4 3 -2 6 -13 5 -11 0 -14 -3 -6 -6z"/>
<path d="M14172 3181 c2 -25 8 -46 14 -48 8 -3 9 8 4 37 -10 57 -22 64 -18 11z"/>
<path d="M14113 3193 c-13 -2 -23 -8 -23 -13 0 -11 47 -40 54 -33 9 9 7 53 -1
52 -5 -1 -18 -4 -30 -6z"/>
<path d="M12804 3165 c-4 -9 4 -23 17 -34 28 -23 38 -7 19 28 -13 25 -28 27
-36 6z"/>
<path d="M13310 3162 c0 -11 9 -27 20 -37 22 -20 26 -9 8 30 -13 29 -28 33
-28 7z"/>
<path d="M12485 3150 c-3 -5 -1 -10 4 -10 6 0 11 5 11 10 0 6 -2 10 -4 10 -3
0 -8 -4 -11 -10z"/>
<path d="M12380 3109 c0 -25 17 -59 30 -59 13 0 13 36 0 61 -14 25 -30 24 -30
-2z"/>
<path d="M12802 3084 c1 -9 9 -19 16 -22 9 -3 13 2 10 14 -1 9 -9 19 -16 22
-9 3 -13 -2 -10 -14z"/>
<path d="M13310 3081 c0 -16 12 -41 20 -41 4 0 5 11 2 25 -4 23 -22 36 -22 16z"/>
<path d="M10700 3036 c0 -2 7 -9 15 -16 9 -7 15 -8 15 -2 0 5 -7 12 -15 16 -8
3 -15 4 -15 2z"/>
<path d="M13375 3020 c-7 -12 12 -40 27 -40 13 0 6 43 -9 47 -6 2 -14 -1 -18
-7z"/>
<path d="M12401 3004 c0 -11 3 -14 6 -6 3 7 2 16 -1 19 -3 4 -6 -2 -5 -13z"/>
<path d="M13917 2998 c-7 -4 -1 -11 17 -17 31 -12 46 -7 46 14 0 15 -40 17
-63 3z"/>
<path d="M13790 2985 c0 -16 36 -20 78 -9 39 11 24 24 -28 24 -38 0 -50 -4
-50 -15z"/>
<path d="M14006 2991 c-4 -7 -5 -15 -2 -18 9 -9 19 4 14 18 -4 11 -6 11 -12 0z"/>
<path d="M13350 2974 c0 -9 -23 -49 -52 -90 l-52 -75 25 -25 26 -25 -5 31 c-4
26 2 38 34 71 21 21 44 39 51 39 14 0 16 21 7 57 -7 26 -34 39 -34 17z"/>
<path d="M14023 2951 c-58 -7 -72 -16 -55 -33 7 -7 12 -19 12 -28 0 -12 10
-14 54 -12 63 4 77 -9 102 -95 14 -48 34 -79 34 -53 0 15 -38 131 -50 152 -6
10 -10 31 -10 48 0 33 4 32 -87 21z"/>
<path d="M14138 2953 c7 -3 16 -2 19 1 4 3 -2 6 -13 5 -11 0 -14 -3 -6 -6z"/>
<path d="M13795 2935 c-33 -8 -79 -14 -103 -14 -40 -1 -42 -2 -32 -21 12 -22
59 -27 78 -8 8 8 15 8 25 -1 8 -6 21 -9 29 -6 8 3 21 -1 28 -10 15 -18 100
-21 118 -3 17 17 15 38 -3 38 -8 0 -20 9 -27 20 -15 23 -30 24 -113 5z"/>
<path d="M14258 2943 c17 -2 47 -2 65 0 17 2 3 4 -33 4 -36 0 -50 -2 -32 -4z"/>
<path d="M12381 2894 c0 -11 3 -14 6 -6 3 7 2 16 -1 19 -3 4 -6 -2 -5 -13z"/>
<path d="M13443 2894 c-8 -20 8 -48 31 -52 17 -4 22 22 10 52 -8 21 -33 21
-41 0z"/>
<path d="M12367 2853 c-11 -10 -8 -43 3 -43 6 0 10 11 10 25 0 26 -2 29 -13
18z"/>
<path d="M13542 2842 c-26 -8 -66 -68 -58 -88 4 -9 22 -14 54 -14 41 0 53 5
80 33 18 18 32 43 32 55 0 19 -5 22 -42 21 -24 -1 -53 -4 -66 -7z"/>
<path d="M13164 2825 c-7 -17 10 -35 34 -35 18 0 15 14 -8 35 -18 17 -20 17
-26 0z"/>
<path d="M13027 2824 c-9 -9 15 -54 28 -54 14 0 27 38 19 52 -6 9 -38 11 -47
2z"/>
<path d="M13102 2818 c5 -15 28 -18 29 -3 0 6 -7 12 -17 13 -10 3 -15 -1 -12
-10z"/>
<path d="M13714 2801 c-23 -10 -54 -35 -69 -56 -25 -32 -30 -49 -36 -128 -6
-88 -5 -93 17 -118 13 -14 24 -37 24 -52 0 -34 33 -56 96 -63 59 -6 98 15 143
76 85 117 53 288 -63 341 -22 10 -48 19 -56 19 -8 0 -34 -9 -56 -19z m147
-295 c-21 -23 -29 -42 -12 -32 5 4 7 -3 4 -14 -3 -11 -10 -20 -15 -20 -6 0 -8
7 -5 14 4 11 1 13 -11 9 -10 -4 -4 8 16 30 17 21 32 43 33 50 0 8 2 8 6 -1 3
-7 -4 -24 -16 -36z"/>
<path d="M13113 2764 c23 -24 29 -27 37 -14 14 22 12 30 -9 30 -11 0 -28 3
-38 6 -13 5 -10 -1 10 -22z"/>
<path d="M13226 2773 c-12 -12 -6 -33 9 -33 8 0 15 6 15 14 0 17 -14 28 -24
19z"/>
<path d="M13172 2746 c1 -10 8 -17 13 -17 15 1 12 24 -3 29 -9 3 -13 -2 -10
-12z"/>
<path d="M14487 2739 c-9 -5 -21 -8 -25 -5 -4 2 -14 1 -21 -3 -9 -6 -4 -10 15
-15 18 -5 30 -3 32 3 2 6 9 8 15 4 18 -11 81 -3 97 12 12 13 8 15 -40 15 -30
0 -63 -5 -73 -11z"/>
<path d="M13024 2718 c-15 -18 -15 -20 -2 -9 10 8 34 12 57 9 31 -3 37 -1 29
9 -17 21 -63 15 -84 -9z"/>
<path d="M14300 2720 c-11 -7 4 -10 53 -10 37 0 67 3 67 8 0 11 -103 13 -120
2z"/>
<path d="M12352 2699 c1 -13 8 -23 13 -21 15 3 12 35 -3 40 -9 3 -13 -3 -10
-19z"/>
<path d="M13185 2700 c-3 -6 0 -13 9 -16 8 -3 13 -11 10 -17 -6 -17 9 -66 21
-69 12 -4 7 69 -6 94 -11 20 -25 23 -34 8z"/>
<path d="M13026 2685 c-15 -11 -19 -26 -17 -62 2 -53 9 -68 18 -35 7 27 15 28
30 3 6 -10 23 -21 37 -23 35 -7 35 22 1 66 -15 20 -23 40 -19 50 8 21 -23 21
-50 1z"/>
<path d="M14008 2693 c17 -2 47 -2 65 0 17 2 3 4 -33 4 -36 0 -50 -2 -32 -4z"/>
<path d="M14527 2663 c-15 -14 -6 -24 20 -21 34 4 43 28 11 28 -14 0 -28 -3
-31 -7z"/>
<path d="M12950 2638 c1 -23 21 -58 34 -58 11 0 6 56 -6 68 -18 18 -28 14 -28
-10z"/>
<path d="M12357 2623 c-15 -24 -17 -99 -4 -117 24 -32 36 -11 30 52 -5 56 -16
82 -26 65z"/>
<path d="M13970 2580 c0 -5 5 -10 10 -10 6 0 10 5 10 10 0 6 -4 10 -10 10 -5
0 -10 -4 -10 -10z"/>
<path d="M13453 2444 c-6 -16 15 -64 28 -64 12 0 21 38 14 60 -8 24 -33 26
-42 4z"/>
<path d="M13560 2401 c-36 -10 -39 -41 -5 -41 14 0 35 5 46 10 15 8 19 7 19
-5 0 -11 10 -15 37 -15 l37 0 -29 30 c-29 30 -54 35 -105 21z"/>
<path d="M12855 2381 c-7 -12 12 -24 25 -16 11 7 4 25 -10 25 -5 0 -11 -4 -15
-9z"/>
<path d="M14408 2353 c7 -3 16 -2 19 1 4 3 -2 6 -13 5 -11 0 -14 -3 -6 -6z"/>
<path d="M13470 2271 c0 -23 25 -46 35 -32 7 13 -12 51 -25 51 -6 0 -10 -8
-10 -19z"/>
<path d="M13710 2070 c0 -5 4 -10 9 -10 6 0 13 5 16 10 3 6 -1 10 -9 10 -9 0
-16 -4 -16 -10z"/>
<path d="M12490 3690 c0 -5 5 -10 11 -10 5 0 7 5 4 10 -3 6 -8 10 -11 10 -2 0
-4 -4 -4 -10z"/>
<path d="M12488 3643 c-27 -6 -22 -38 5 -39 16 -1 23 4 24 17 2 22 -5 27 -29
22z"/>
<path d="M12058 3633 c7 -3 16 -2 19 1 4 3 -2 6 -13 5 -11 0 -14 -3 -6 -6z"/>
<path d="M11901 2634 c0 -11 3 -14 6 -6 3 7 2 16 -1 19 -3 4 -6 -2 -5 -13z"/>
<path d="M12122 2008 c7 -13 11 -27 10 -31 -3 -9 24 -20 38 -15 6 2 -2 18 -18
36 -33 37 -48 42 -30 10z"/>
<path d="M12035 1950 c3 -5 11 -10 16 -10 6 0 7 5 4 10 -3 6 -11 10 -16 10 -6
0 -7 -4 -4 -10z"/>
<path d="M12100 1951 c0 -10 25 -21 48 -21 12 1 10 5 -8 15 -29 17 -40 18 -40
6z"/>
<path d="M12083 1923 c4 -6 1 -13 -5 -16 -8 -2 -9 -8 -4 -13 5 -5 11 -4 13 3
2 7 12 9 21 6 18 -7 17 -5 -12 17 -11 8 -17 10 -13 3z"/>
<path d="M11880 2211 c13 -10 13 -11 0 -11 -13 0 -13 -1 0 -10 13 -9 13 -11 0
-20 -13 -8 -13 -10 2 -10 22 0 34 20 18 30 -6 4 -11 11 -10 16 1 5 -4 10 -12
12 -9 2 -8 0 2 -7z"/>
<path d="M11790 2196 c-9 -12 -8 -15 8 -13 12 0 18 6 15 14 -6 16 -8 16 -23
-1z"/>
<path d="M11768 2153 c-10 -2 -18 -9 -18 -15 0 -5 7 -7 16 -4 9 3 24 6 35 6
10 0 19 5 19 10 0 10 -21 11 -52 3z"/>
<path d="M11846 2145 c21 -16 70 -20 78 -7 3 5 -8 7 -23 4 -16 -2 -32 1 -35 7
-4 6 -15 11 -24 11 -13 0 -13 -2 4 -15z"/>
<path d="M11660 2081 c0 -6 4 -13 10 -16 6 -3 7 1 4 9 -7 18 -14 21 -14 7z"/>
<path d="M11802 1976 c7 -8 16 -12 21 -9 11 7 -2 23 -19 23 -12 0 -12 -2 -2
-14z"/>
<path d="M12860 2145 c0 -19 39 -99 46 -93 6 7 -26 97 -37 104 -5 3 -9 -2 -9
-11z"/>
<path d="M11915 1480 c-16 -7 -17 -9 -3 -9 9 -1 20 4 23 9 7 11 7 11 -20 0z"/>
<path d="M11390 1386 c0 -9 5 -16 10 -16 6 0 10 4 10 9 0 6 -4 13 -10 16 -5 3
-10 -1 -10 -9z"/>
<path d="M12050 1210 c-8 -5 -12 -12 -9 -15 8 -8 39 5 39 16 0 11 -11 11 -30
-1z"/>
<path d="M13395 1140 c28 -12 45 -12 45 0 0 6 -15 10 -32 9 -28 0 -30 -2 -13
-9z"/>
<path d="M13110 1190 c20 -13 40 -13 40 0 0 6 -12 10 -27 10 -22 0 -25 -2 -13
-10z"/>
<path d="M11440 1055 c-24 -29 39 -55 133 -55 63 0 97 12 97 35 0 17 -78 35
-102 23 -9 -4 -19 -4 -23 1 -7 13 -94 9 -105 -4z"/>
<path d="M14709 683 c-13 -14 -19 -23 -12 -20 6 4 14 1 17 -5 3 -7 4 -4 3 7
-1 11 3 19 9 18 6 -1 11 5 11 13 0 18 1 19 -28 -13z"/>
<path d="M14750 692 c0 -12 3 -12 15 -2 8 7 15 13 15 15 0 1 -7 2 -15 2 -8 0
-15 -7 -15 -15z"/>
<path d="M14437 604 c9 -15 19 -21 21 -15 4 13 -16 41 -29 41 -5 0 -2 -12 8
-26z"/>
<path d="M14470 619 c0 -5 5 -7 10 -4 6 3 10 8 10 11 0 2 -4 4 -10 4 -5 0 -10
-5 -10 -11z"/>
<path d="M14510 615 c0 -8 2 -15 4 -15 2 0 6 7 10 15 3 8 1 15 -4 15 -6 0 -10
-7 -10 -15z"/>
<path d="M14410 599 c0 -5 -5 -7 -11 -3 -8 4 -8 0 0 -15 15 -27 16 -26 19 4 1
14 0 25 -3 25 -3 0 -5 -5 -5 -11z"/>
<path d="M14033 451 c1 -12 6 -17 16 -13 10 4 11 7 3 10 -7 2 -10 8 -6 13 3 5
1 9 -5 9 -5 0 -9 -9 -8 -19z"/>
<path d="M14005 440 c3 -5 8 -10 11 -10 2 0 4 5 4 10 0 6 -5 10 -11 10 -5 0
-7 -4 -4 -10z"/>
<path d="M14943 9314 c4 -55 8 -130 8 -169 2 -61 3 -55 11 45 16 202 15 214
-6 218 -18 4 -19 -1 -13 -94z"/>
<path d="M10612 9255 c0 -16 2 -22 5 -12 2 9 2 23 0 30 -3 6 -5 -1 -5 -18z"/>
<path d="M10684 9169 c9 -147 9 -155 7 -852 -1 -415 2 -634 9 -646 5 -11 9
-41 9 -68 -1 -26 2 -73 6 -104 5 -37 4 -63 -4 -77 -9 -17 -8 -27 5 -47 13 -20
16 -41 12 -93 -3 -37 -7 -74 -9 -82 -3 -9 5 -16 20 -18 21 -3 23 -1 15 20 -13
36 -17 2004 -3 2029 13 26 11 28 -36 36 l-38 6 7 -104z"/>
<path d="M10797 8272 c1 -543 3 -1009 5 -1037 4 -43 8 -50 27 -53 13 -2 28 1
33 6 6 6 9 372 8 1011 0 735 2 1006 11 1022 14 27 -1 39 -51 39 l-35 0 2 -988z"/>
<path d="M14944 8980 c0 -52 1 -74 3 -47 2 26 2 68 0 95 -2 26 -3 4 -3 -48z"/>
<path d="M15436 8502 c-3 -5 -1 -24 4 -43 6 -19 10 -63 11 -99 1 -58 2 -62 10
-32 21 71 0 214 -25 174z"/>
<path d="M10602 8085 c0 -16 2 -22 5 -12 2 9 2 23 0 30 -3 6 -5 -1 -5 -18z"/>
<path d="M10601 8034 c0 -11 3 -14 6 -6 3 7 2 16 -1 19 -3 4 -6 -2 -5 -13z"/>
<path d="M10605 7169 c-13 -56 -16 -590 -4 -621 6 -15 20 -28 32 -30 32 -4 33
-37 3 -62 l-26 -21 -4 -255 c-3 -140 -8 -376 -11 -525 -4 -148 -3 -287 2 -309
l8 -38 25 20 c24 20 24 20 23 193 -1 96 -4 236 -7 311 l-7 137 28 18 c23 15
49 18 159 18 73 0 130 3 127 8 -2 4 -9 5 -14 2 -5 -4 -9 5 -9 19 0 14 5 26 10
26 6 0 10 34 10 83 0 62 -4 89 -17 107 -14 19 -18 46 -19 120 0 62 -5 102 -14
116 -12 19 -11 24 3 39 24 23 22 25 -23 25 -37 0 -40 -2 -40 -28 0 -30 -16
-52 -37 -52 -8 0 -13 14 -13 40 0 40 0 40 -39 40 -44 0 -92 15 -103 33 -4 7
-7 136 -6 287 1 227 -2 280 -14 304 l-15 29 -8 -34z m248 -761 c33 -40 38 -50
27 -63 -17 -20 -26 -19 -51 6 -12 12 -31 23 -43 24 -12 1 -24 3 -28 4 -13 2
-9 56 4 69 21 21 49 9 91 -40z m-43 -123 c9 -10 9 -19 2 -27 -13 -17 -12 -71
2 -80 8 -6 7 -11 -4 -18 -16 -10 -28 4 -35 43 -3 12 -7 34 -11 49 -9 45 19 66
46 33z m50 -186 c0 -12 -67 -12 -74 0 -3 4 -3 10 -1 13 8 7 75 -4 75 -13z"/>
<path d="M10945 6861 c-3 -5 -1 -12 5 -16 5 -3 10 1 10 9 0 18 -6 21 -15 7z"/>
<path d="M10980 6326 c0 -9 5 -16 10 -16 6 0 10 4 10 9 0 6 -4 13 -10 16 -5 3
-10 -1 -10 -9z"/>
<path d="M10241 6174 c0 -11 3 -14 6 -6 3 7 2 16 -1 19 -3 4 -6 -2 -5 -13z"/>
<path d="M10236 6074 c-9 -22 -8 -24 9 -24 8 0 15 9 15 20 0 24 -15 27 -24 4z"/>
<path d="M10120 6060 c-13 -9 -13 -11 0 -20 10 -6 16 -6 18 0 7 20 -3 30 -18
20z"/>
<path d="M10991 5969 c5 -11 14 -17 20 -14 15 10 10 22 -11 28 -17 4 -18 2 -9
-14z"/>
<path d="M10927 5823 c-4 -3 -7 -18 -7 -32 l1 -26 14 25 c8 14 14 28 15 33 0
9 -14 9 -23 0z"/>
<path d="M10102 5604 c3 -3 2 -20 -2 -38 -6 -30 -5 -34 21 -43 27 -11 29 -10
29 16 0 29 -25 71 -42 71 -6 0 -9 -2 -6 -6z"/>
<path d="M10936 5565 c4 -8 8 -15 10 -15 2 0 4 7 4 15 0 8 -4 15 -10 15 -5 0
-7 -7 -4 -15z"/>
<path d="M10070 5430 c-9 -6 -10 -10 -3 -10 14 0 13 -102 -2 -112 -6 -5 -5
-12 3 -20 16 -16 16 -45 0 -51 -7 -3 1 -6 17 -6 17 -1 41 -8 54 -18 l24 -16
-8 44 c-4 24 -6 66 -6 93 3 80 -6 106 -37 106 -15 0 -34 -5 -42 -10z"/>
<path d="M10037 5134 c-3 -4 5 -15 18 -26 14 -11 25 -28 25 -39 0 -23 3 -23
40 -4 32 17 33 18 24 53 -5 19 -13 22 -53 22 -26 0 -51 -3 -54 -6z"/>
<path d="M10528 4993 c7 -3 16 -2 19 1 4 3 -2 6 -13 5 -11 0 -14 -3 -6 -6z"/>
<path d="M10565 4990 c4 -6 11 -8 16 -5 14 9 11 15 -7 15 -8 0 -12 -5 -9 -10z"/>
<path d="M10477 4923 c-4 -3 -7 -12 -7 -20 0 -16 46 -18 56 -2 11 19 -33 39
-49 22z"/>
<path d="M10457 4856 c-8 -9 -24 -12 -36 -9 -12 3 -21 1 -21 -6 0 -8 17 -11
52 -9 41 2 54 7 56 21 4 21 -30 23 -51 3z"/>
<path d="M10094 4781 c-2 -2 -4 -12 -4 -22 0 -12 10 -18 38 -22 47 -6 54 -2
41 27 -8 17 -19 23 -41 22 -16 -1 -31 -3 -34 -5z"/>
<path d="M10410 4608 c-27 -8 -31 -12 -19 -18 18 -10 85 5 94 20 8 12 -29 11
-75 -2z"/>
<path d="M9840 4074 c1 -18 14 -43 35 -68 l34 -39 11 27 c15 39 13 50 -12 65
-13 8 -33 21 -45 29 -22 14 -23 13 -23 -14z"/>
<path d="M9830 3942 c0 -17 9 -37 24 -51 l23 -22 7 23 c10 37 7 43 -24 61
l-30 18 0 -29z"/>
<path d="M9922 3925 c-15 -32 -15 -35 -2 -35 6 0 10 7 10 16 0 8 5 12 10 9 6
-3 10 -30 10 -58 0 -52 30 -137 48 -137 6 0 6 18 0 46 -7 31 -6 59 1 90 8 30
8 51 1 63 -12 23 -37 34 -44 18 -3 -9 -7 -9 -14 1 -6 9 -12 6 -20 -13z"/>
<path d="M10029 3813 c0 -32 -3 -70 -5 -85 -6 -37 12 -36 31 2 17 33 20 86 5
95 -5 3 -10 15 -10 26 0 10 -4 19 -10 19 -5 0 -10 -26 -11 -57z"/>
<path d="M9793 3852 c-16 -10 3 -40 60 -91 50 -46 56 -44 33 11 -17 39 -77 90
-93 80z"/>
<path d="M9975 3680 c3 -5 14 -10 23 -10 15 0 15 2 2 10 -20 13 -33 13 -25 0z"/>
<path d="M9616 2715 c4 -8 8 -15 10 -15 2 0 4 7 4 15 0 8 -4 15 -10 15 -5 0
-7 -7 -4 -15z"/>
<path d="M9680 2690 c0 -5 5 -10 11 -10 5 0 7 5 4 10 -3 6 -8 10 -11 10 -2 0
-4 -4 -4 -10z"/>
<path d="M10220 2671 l-25 -7 25 -7 c14 -4 40 -7 59 -7 29 0 32 2 21 15 -13
16 -38 18 -80 6z"/>
<path d="M10333 2663 c9 -2 23 -2 30 0 6 3 -1 5 -18 5 -16 0 -22 -2 -12 -5z"/>
<path d="M10586 2631 c-6 -9 40 -21 85 -21 35 0 46 16 16 24 -33 9 -95 7 -101
-3z"/>
<path d="M9900 2620 c0 -5 22 -10 49 -10 28 0 53 5 56 10 4 6 -15 10 -49 10
-31 0 -56 -4 -56 -10z"/>
<path d="M10338 2613 c6 -2 18 -2 25 0 6 3 1 5 -13 5 -14 0 -19 -2 -12 -5z"/>
<path d="M10042 2594 c-80 -21 -129 -51 -151 -92 -11 -20 -8 -27 24 -59 35
-35 40 -36 90 -18 14 4 12 2 -4 -8 l-25 -15 34 -17 c25 -13 45 -15 86 -10 30
3 54 9 54 13 0 9 -67 52 -80 52 -6 0 -8 5 -5 10 4 6 10 8 15 5 5 -3 11 -1 15
5 3 5 11 10 16 10 6 0 8 -4 5 -9 -12 -18 29 -51 67 -53 20 -1 37 -7 37 -13 0
-5 4 -4 8 2 6 10 49 12 164 10 86 -1 154 -5 151 -9 -2 -5 -13 -8 -24 -8 -18 0
-19 -2 -6 -15 9 -8 17 -20 19 -26 3 -8 19 -8 63 1 167 34 240 110 166 173 -26
21 -147 66 -223 82 -30 6 -30 7 -32 -73 -1 -31 -3 -32 -41 -31 -40 0 -131 16
-107 18 14 1 16 47 2 56 -6 4 -7 11 -4 17 4 6 1 9 -7 6 -8 -3 -14 -14 -14 -26
0 -11 -3 -24 -7 -28 -4 -4 -3 -13 3 -21 9 -10 5 -13 -18 -13 -17 0 -59 -2 -94
-5 -49 -4 -59 -3 -40 5 18 8 22 15 17 33 -3 12 -6 32 -6 45 0 20 -5 22 -47 21
-27 0 -72 -7 -101 -15z m95 -100 c-3 -3 -12 -4 -19 -1 -8 3 -5 6 6 6 11 1 17
-2 13 -5z m443 -14 c8 -5 11 -10 5 -10 -5 0 -17 5 -25 10 -8 5 -10 10 -5 10 6
0 17 -5 25 -10z m100 -45 c11 -13 10 -14 -4 -9 -9 3 -16 10 -16 15 0 13 6 11
20 -6z"/>
<path d="M10455 2588 c-13 -58 -11 -73 14 -76 13 -2 21 0 18 5 -3 5 -7 28 -8
51 -3 45 -15 56 -24 20z"/>
<path d="M10750 2571 c0 -13 26 -21 66 -21 35 0 46 13 18 24 -24 9 -84 7 -84
-3z"/>
<path d="M9795 2550 c-4 -6 9 -10 32 -10 28 0 34 3 23 10 -20 13 -47 13 -55 0z"/>
<path d="M10833 2543 c-32 -6 -28 -20 7 -28 37 -8 55 1 39 21 -6 8 -14 13 -18
13 -3 -1 -16 -4 -28 -6z"/>
<path d="M10966 2394 c-16 -19 -46 -44 -67 -55 -33 -16 -39 -25 -39 -50 0 -27
3 -30 20 -25 11 3 30 9 42 13 30 9 14 -15 -18 -27 -34 -13 -30 -30 9 -30 49 0
117 67 117 115 0 19 -4 35 -10 35 -5 0 -10 -4 -10 -8 0 -5 -7 -17 -16 -28 -8
-10 -12 -13 -9 -6 7 14 19 103 13 101 -2 0 -16 -16 -32 -35z"/>
<path d="M9792 2408 c5 -15 77 -18 81 -3 1 6 -18 11 -42 13 -32 2 -42 0 -39
-10z"/>
<path d="M10837 2413 c-15 -15 -5 -23 28 -23 39 0 47 14 13 24 -29 7 -33 7
-41 -1z"/>
<path d="M10310 2383 c-68 -9 -140 -27 -140 -34 0 -11 27 -16 118 -24 78 -7
212 3 212 15 0 24 -125 52 -190 43z"/>
<path d="M9700 2336 c0 -2 8 -10 18 -17 15 -13 16 -12 3 4 -13 16 -21 21 -21
13z"/>
<path d="M10070 2320 c0 -5 12 -10 28 -9 24 0 25 1 7 9 -27 12 -35 12 -35 0z"/>
<path d="M10578 2323 c-22 -6 -23 -19 -2 -27 22 -8 37 -7 54 4 13 9 13 11 0
20 -16 10 -24 11 -52 3z"/>
<path d="M10650 2320 c0 -5 14 -10 30 -10 17 0 30 5 30 10 0 6 -13 10 -30 10
-16 0 -30 -4 -30 -10z"/>
<path d="M10226 2291 c-7 -12 33 -25 59 -19 9 1 17 8 18 13 3 13 -69 19 -77 6z"/>
<path d="M10245 2208 c0 -29 4 -33 28 -36 19 -2 27 1 27 12 0 8 9 21 20 29 21
14 21 14 -2 21 -13 3 -34 6 -48 6 -22 0 -25 -4 -25 -32z"/>
<path d="M10117 2210 c-3 -12 0 -20 7 -20 6 0 12 9 13 20 1 11 -2 20 -6 20 -5
0 -11 -9 -14 -20z"/>
<path d="M10250 2141 c0 -19 22 -23 38 -7 15 15 14 16 -11 16 -15 0 -27 -4
-27 -9z"/>
<path d="M10110 2130 c0 -5 5 -10 11 -10 5 0 7 5 4 10 -3 6 -8 10 -11 10 -2 0
-4 -4 -4 -10z"/>
<path d="M9362 2107 c-15 -16 -17 -25 -9 -32 20 -18 47 -6 47 20 0 34 -14 38
-38 12z"/>
<path d="M8865 1950 c-3 -5 -1 -10 4 -10 6 0 11 5 11 10 0 6 -2 10 -4 10 -3 0
-8 -4 -11 -10z"/>
<path d="M9050 1900 c0 -5 5 -10 10 -10 6 0 10 5 10 10 0 6 -4 10 -10 10 -5 0
-10 -4 -10 -10z"/>
<path d="M9808 1773 c6 -2 9 -10 5 -16 -4 -7 0 -8 11 -4 10 4 25 7 34 7 15 0
15 2 2 10 -8 5 -26 9 -40 9 -14 0 -19 -3 -12 -6z"/>
<path d="M8765 1482 c2 -9 4 -21 4 -26 1 -4 8 -5 17 -2 9 4 29 -1 43 -9 23
-14 22 -13 -4 10 -46 40 -64 48 -60 27z"/>
<path d="M8752 1410 c0 -14 2 -19 5 -12 2 6 2 18 0 25 -3 6 -5 1 -5 -13z"/>
<path d="M9246 1333 c-6 -14 -5 -15 5 -6 7 7 10 15 7 18 -3 3 -9 -2 -12 -12z"/>
<path d="M8759 1216 c-1 -3 -2 -15 -3 -25 0 -11 -4 -23 -8 -27 -4 -4 -3 -13 3
-21 9 -10 7 -13 -10 -13 -11 0 -21 -3 -22 -7 0 -5 -2 -18 -5 -31 -2 -13 4 -30
14 -40 13 -13 16 -26 11 -44 -4 -15 -4 -30 0 -34 3 -4 -4 -4 -16 -1 -19 4 -21
2 -14 -12 5 -9 7 -28 4 -43 -3 -15 2 -41 10 -57 9 -17 12 -31 7 -31 -9 0 -5
-53 5 -69 3 -5 0 -11 -6 -13 -12 -4 -14 -72 -5 -178 3 -35 -1 -64 -10 -82 -11
-21 -14 -79 -14 -258 l0 -230 34 0 c21 0 36 6 40 15 6 16 51 12 70 -6 6 -5
120 -9 255 -9 l246 1 -30 24 c-221 181 -556 475 -561 493 -3 12 -2 62 2 110 8
81 11 87 35 96 32 11 83 0 73 -16 -4 -6 -3 -9 2 -6 18 11 114 -49 195 -122
158 -143 179 -163 179 -171 0 -11 -32 -4 -70 16 -18 9 -29 11 -25 5 4 -7 120
-106 258 -221 l252 -209 342 0 c189 0 343 2 343 4 0 2 -64 53 -142 113 -79 60
-249 190 -378 289 -129 99 -347 265 -485 369 -137 104 -306 234 -375 290 -158
127 -200 159 -201 151z m242 -533 c13 -16 12 -17 -3 -4 -10 7 -18 15 -18 17 0
8 8 3 21 -13z m84 -67 c6 -4 1 -4 -10 2 -11 6 -29 21 -40 34 -19 22 -19 22 10
-2 17 -14 35 -29 40 -34z"/>
</g>
</svg>
