<?xml version="1.0" standalone="no"?>
<!DOCTYPE svg PUBLIC "-//W3C//DTD SVG 20010904//EN"
 "http://www.w3.org/TR/2001/REC-SVG-20010904/DTD/svg10.dtd">
<svg version="1.0" xmlns="http://www.w3.org/2000/svg"
 width="1586.000000pt" height="992.000000pt" viewBox="0 0 1586.000000 992.000000"
 preserveAspectRatio="xMidYMid meet">

<g transform="translate(0.000000,992.000000) scale(0.100000,-0.100000)"
fill="#000000" stroke="none">
<path d="M15580 9835 c-25 -12 -31 -18 -21 -24 11 -7 10 -13 -4 -35 -10 -15
-19 -47 -21 -73 -1 -25 -8 -49 -15 -53 -6 -4 -8 -13 -4 -20 11 -18 27 -247 25
-359 -1 -62 -6 -101 -16 -115 -21 -34 -7 -226 17 -226 20 0 3 -45 -21 -57 -76
-37 -94 -43 -101 -32 -9 15 -19 419 -14 619 2 91 9 185 15 210 6 25 14 62 17
82 5 34 2 39 -28 57 -19 12 -42 21 -52 21 -17 0 -70 -53 -73 -72 -1 -4 -2 -13
-3 -18 0 -6 -12 -15 -26 -20 -22 -8 -24 -13 -15 -30 7 -13 19 -20 32 -18 16 2
23 -6 35 -42 10 -29 12 -50 6 -60 -5 -8 -8 -51 -6 -95 1 -44 3 -199 2 -344 0
-145 3 -284 7 -309 l7 -44 36 5 c20 3 90 17 156 31 66 14 170 36 230 49 l110
22 3 207 2 207 -37 3 -38 3 38 20 37 19 0 152 0 152 -30 12 c-16 7 -30 16 -30
21 0 13 -47 11 -55 -2 -8 -12 -61 -3 -92 17 -42 26 -17 104 33 104 13 0 24 3
24 8 -1 36 -74 51 -130 27z m104 -221 c26 -26 20 -42 -15 -41 -38 2 -63 32
-39 47 21 14 36 12 54 -6z m-5 -148 c0 -31 7 -68 16 -86 20 -38 7 -60 -35 -60
-38 0 -57 24 -41 53 6 12 13 48 14 80 4 55 19 83 38 71 4 -2 8 -29 8 -58z
m-20 -222 c-6 -8 -14 -12 -17 -9 -3 2 1 11 8 20 9 11 9 15 1 15 -7 0 -9 5 -5
11 5 8 10 6 16 -5 6 -11 6 -22 -3 -32z m21 -214 c0 -8 -5 -22 -10 -30 -17 -25
-29 7 -17 41 11 28 27 22 27 -11z m158 -52 c-5 -15 -58 -24 -58 -9 0 11 17 19
43 20 11 1 17 -4 15 -11z m-158 -53 c0 -25 -36 -37 -54 -19 -9 8 -16 17 -16
19 0 2 7 11 16 19 18 18 54 6 54 -19z"/>
<path d="M15809 9759 c-6 -31 -5 -42 8 -54 24 -25 43 -18 43 15 0 17 -4 30 -9
30 -5 0 -16 3 -25 6 -9 3 -16 5 -17 3z"/>
<path d="M15130 9618 c0 -52 3 -67 17 -72 15 -6 32 8 33 27 0 5 4 5 10 2 11
-7 -7 46 -19 55 -4 3 -15 16 -24 30 -17 24 -17 24 -17 -42z"/>
<path d="M15021 9536 c-13 -54 -15 -193 -2 -200 6 -4 7 -134 4 -316 -5 -340
-9 -319 57 -300 l35 10 -1 417 c-1 399 -2 417 -20 424 -46 18 -61 11 -73 -35z"/>
<path d="M14604 9437 c-6 -17 2 -191 11 -235 l7 -33 -48 29 c-65 38 -80 42
-92 30 -13 -13 -32 -2 -32 17 0 8 -13 21 -30 30 -40 21 -38 7 5 -35 29 -28 32
-36 20 -43 -10 -5 -24 -2 -40 10 -29 22 -33 38 -5 23 25 -13 26 1 3 22 -27 23
-54 30 -68 18 -9 -7 -15 -8 -19 -1 -5 7 -15 6 -31 -1 -33 -15 -43 -3 -19 23
14 16 27 20 51 16 18 -3 33 -2 33 4 0 24 -86 5 -118 -27 -8 -9 -20 -10 -35 -5
-12 5 -33 7 -47 5 -14 -1 -29 -3 -35 -3 -5 -1 -18 -15 -27 -31 -9 -17 -25 -30
-34 -30 -15 0 -16 2 -2 18 8 9 15 28 16 41 1 22 -1 23 -56 19 -31 -3 -58 -10
-60 -17 -2 -6 -9 -8 -14 -5 -7 4 -8 2 -4 -4 3 -6 -2 -16 -13 -21 -25 -14 -34
-14 -25 0 5 8 2 9 -7 3 -8 -5 -31 -20 -51 -33 -36 -22 -53 -49 -24 -38 7 3 -1
-19 -20 -50 -18 -30 -35 -60 -37 -67 -2 -6 -7 -8 -11 -4 -4 3 0 20 9 37 8 17
12 31 8 31 -5 1 3 10 16 20 15 13 18 20 9 20 -41 0 -72 -74 -54 -127 7 -21 4
-22 -23 -19 -21 2 -28 -1 -24 -10 2 -7 -4 -22 -15 -34 -16 -17 -21 -18 -30 -7
-25 29 -15 106 11 91 7 -4 9 -3 4 1 -8 9 20 45 36 45 5 0 2 -11 -7 -25 -17
-26 -21 -45 -8 -45 5 0 16 15 25 34 12 26 13 36 4 39 -14 5 30 57 49 57 6 0
17 7 24 15 19 23 -3 18 -41 -10 -19 -13 -43 -29 -55 -34 -26 -12 -125 -107
-153 -148 -12 -18 -19 -37 -16 -43 3 -6 0 -7 -9 -4 -17 7 -36 -31 -39 -79 -1
-19 -9 -29 -23 -33 -16 -4 -20 -11 -16 -32 3 -20 1 -24 -7 -17 -6 6 -12 23
-13 38 l-2 27 -28 -27 c-15 -14 -32 -41 -39 -60 -6 -18 -17 -33 -25 -33 -18 0
-45 -60 -41 -91 1 -15 -6 -27 -21 -34 -35 -18 -37 -23 -17 -45 14 -15 15 -20
4 -20 -8 0 -20 4 -28 9 -19 12 -41 3 -34 -15 3 -8 -1 -14 -11 -14 -14 0 -16
-10 -14 -57 2 -39 -1 -58 -9 -58 -6 0 -15 -3 -19 -7 -4 -5 0 -8 8 -8 9 0 23
-11 32 -25 9 -14 12 -25 7 -25 -6 0 -14 6 -18 14 -4 8 -17 16 -28 18 -11 2
-18 10 -16 19 2 8 3 26 3 42 0 15 3 27 7 27 5 0 11 26 15 57 4 31 14 65 22 74
14 15 14 23 3 54 -17 45 -8 60 54 100 50 33 58 45 27 45 -30 0 -27 58 5 92 32
34 31 35 -5 30 -16 -2 -30 0 -30 5 0 29 -32 46 -116 63 l-89 18 -19 -21 c-16
-19 -18 -33 -13 -98 4 -51 2 -80 -5 -87 -7 -7 -11 -35 -9 -64 3 -63 31 -108
67 -108 33 0 66 -18 58 -31 -4 -7 -23 -8 -50 -4 -38 5 -45 3 -58 -17 -17 -26
-24 -199 -11 -256 7 -34 8 -34 52 -27 24 3 67 13 96 22 29 8 63 15 77 14 78
-1 90 -3 90 -12 0 -6 7 -9 15 -5 9 3 15 -1 15 -11 0 -12 3 -13 15 -3 8 6 18 9
24 6 5 -3 14 18 21 46 11 55 45 114 69 123 17 7 38 -11 58 -48 15 -29 20 -55
25 -127 3 -39 -2 -38 114 -25 l61 7 41 -49 c37 -43 46 -49 74 -45 29 3 36 -1
52 -30 20 -35 35 -24 16 11 -6 12 -7 21 -2 21 5 0 15 -13 22 -30 10 -25 10
-32 -4 -45 -9 -9 -16 -12 -16 -6 0 6 -5 11 -11 11 -6 0 -8 -7 -5 -15 3 -9 1
-24 -6 -34 -9 -15 -6 -27 16 -65 15 -25 24 -46 20 -46 -3 0 -1 -6 5 -14 9 -11
9 -15 -1 -20 -11 -5 -11 -7 0 -12 7 -3 17 -17 23 -31 5 -13 13 -21 19 -18 6 4
4 17 -5 35 -13 25 -13 29 0 32 12 3 12 8 -3 37 -12 26 -13 36 -4 39 7 2 9 9 6
14 -5 7 -2 8 5 4 7 -5 10 -14 7 -22 -3 -7 2 -17 10 -22 8 -5 17 -15 18 -23 7
-34 54 -119 72 -131 6 -4 11 -22 12 -40 1 -27 -1 -30 -9 -15 -6 9 -8 21 -5 25
2 4 -4 8 -14 8 -15 0 -17 -4 -8 -19 7 -15 7 -22 -3 -28 -12 -8 -6 -13 12 -11
4 1 4 -8 1 -20 -5 -19 -6 -19 -17 -4 -20 26 -27 18 -9 -10 13 -20 15 -27 5
-33 -7 -5 -13 -22 -13 -38 l-1 -31 -25 27 -25 26 8 -25 c4 -14 16 -33 27 -42
11 -10 15 -18 9 -18 -7 0 -9 -4 -6 -10 3 -5 1 -10 -5 -10 -6 0 -9 -4 -6 -9 3
-4 -6 -6 -19 -3 -14 2 -25 9 -25 14 0 5 9 6 20 3 27 -8 25 1 -7 49 -42 61 -50
68 -57 50 -3 -8 -2 -13 3 -10 10 6 34 -44 26 -53 -3 -3 -10 1 -14 8 -7 11 -9
11 -13 0 -3 -8 1 -23 8 -34 7 -11 12 -29 10 -40 -2 -11 3 -32 10 -47 21 -41
18 -41 -38 -3 -75 50 -78 53 -78 83 0 15 -9 38 -19 52 l-19 24 -19 -32 c-10
-17 -24 -32 -31 -32 -24 0 -92 -40 -92 -54 0 -7 10 -21 23 -29 17 -13 18 -16
6 -16 -9 -1 -27 8 -40 18 -22 17 -24 26 -21 90 l2 71 -27 -6 c-41 -10 -41 -10
-36 -58 3 -26 1 -46 -6 -50 -6 -4 -11 -27 -11 -50 0 -26 -6 -48 -15 -56 -15
-12 -14 -14 24 -88 20 -39 21 -45 7 -70 -8 -15 -18 -54 -23 -86 -7 -48 -12
-60 -31 -67 -15 -6 -21 -5 -17 1 3 6 -5 10 -20 10 -14 0 -24 4 -21 8 3 5 -1 9
-8 9 -7 0 -13 -6 -13 -14 0 -7 4 -13 9 -13 4 0 8 -9 8 -21 0 -11 4 -18 9 -14
5 3 13 1 16 -5 9 -14 -14 -42 -28 -33 -6 3 -7 1 -3 -5 4 -7 2 -12 -5 -12 -7 0
-2 -11 10 -24 23 -24 21 -53 -2 -39 -7 4 -16 8 -22 9 -5 0 -16 2 -23 2 -7 1
-10 7 -6 13 4 8 9 7 15 -2 6 -10 8 -8 7 7 -2 16 -8 20 -26 18 -14 -1 -29 -8
-33 -16 -6 -10 -17 -4 -45 22 -20 19 -34 30 -31 24 3 -6 -3 -17 -14 -24 -10
-8 -19 -20 -19 -28 0 -7 -7 -20 -15 -28 -8 -9 -15 -12 -15 -7 0 5 5 14 12 21
7 7 8 12 4 12 -5 0 -3 7 4 15 10 12 9 16 -4 21 -9 3 -23 4 -30 1 -18 -7 -26
14 -25 68 1 22 -4 58 -10 80 -6 26 -7 54 -1 80 5 21 8 115 7 208 -1 92 0 173
4 178 3 5 35 11 71 14 100 6 117 13 133 51 10 25 22 35 52 43 54 15 175 31
185 25 4 -3 8 13 8 35 0 22 -4 43 -10 46 -5 3 -10 10 -10 16 0 5 5 9 10 9 6 0
10 -7 10 -16 0 -8 4 -13 9 -9 5 3 12 1 16 -5 3 -5 15 -10 26 -10 17 0 18 3 9
20 -9 16 -8 18 5 14 21 -8 20 43 -1 96 -12 29 -23 42 -43 46 -14 3 -33 8 -41
11 -26 11 -34 10 -57 -4 -12 -7 -29 -10 -37 -7 -16 6 -20 -5 -18 -56 l1 -25
-13 25 c-8 14 -17 48 -20 75 -13 92 -25 126 -44 122 -9 -3 -60 -14 -112 -26
-52 -12 -201 -46 -330 -76 -129 -30 -266 -59 -305 -65 -38 -6 -119 -22 -180
-35 -60 -13 -168 -36 -240 -50 -189 -37 -209 -43 -195 -60 9 -11 15 -11 38 1
30 14 59 12 302 -26 69 -11 154 -23 190 -26 67 -6 323 -42 350 -49 8 -2 42 -6
75 -9 104 -11 139 -18 163 -32 34 -22 27 -32 -25 -37 -58 -6 -125 -21 -142
-31 -9 -6 -10 -44 -5 -150 7 -155 1 -186 -39 -186 -13 0 -31 -6 -42 -13 -16
-12 -17 -25 -13 -110 6 -107 0 -121 -49 -115 -19 2 -32 12 -41 31 -19 39 -42
35 -42 -7 0 -19 -4 -38 -10 -41 -5 -3 -10 -25 -10 -49 0 -73 -57 -101 -80 -40
-10 25 -6 79 16 205 6 32 3 39 -31 67 -28 22 -40 41 -44 69 l-6 38 -60 0 -60
0 -2 -40 c-2 -38 0 -42 44 -70 68 -43 103 -140 39 -105 -35 18 -51 8 -80 -50
-32 -63 -32 -66 -2 -74 34 -8 42 -37 16 -58 -12 -10 -30 -18 -40 -18 -9 0 -29
-9 -43 -20 l-25 -20 -16 41 c-9 22 -13 45 -10 51 4 6 9 58 11 115 l3 104 -45
56 c-34 41 -45 63 -45 89 l0 34 -54 -6 c-35 -4 -56 -3 -60 5 -9 14 -96 15 -96
0 0 -5 -5 -7 -10 -4 -6 4 -9 9 -6 13 2 4 0 15 -3 26 -7 17 -9 17 -23 3 -14
-14 -15 -59 -14 -359 l1 -343 75 3 c41 2 122 7 180 13 58 5 164 12 235 15 72
3 146 10 165 15 19 5 124 14 233 20 109 5 223 16 254 24 32 8 75 15 98 15 50
0 286 19 343 28 l44 7 -21 27 c-25 31 -27 51 -6 68 8 7 15 24 15 39 0 14 7 34
15 45 9 12 11 25 6 35 -12 22 -39 146 -46 207 -4 43 -2 54 15 69 11 10 20 22
20 27 0 5 6 16 14 24 12 12 19 9 50 -22 20 -20 36 -41 37 -47 0 -7 4 -3 8 8 5
11 4 28 -1 38 -7 14 -4 25 14 45 12 15 24 28 25 30 1 2 19 -7 41 -19 36 -21
43 -22 66 -10 22 12 28 12 51 -3 30 -20 32 -37 5 -56 -14 -10 -17 -17 -8 -27
6 -7 16 -13 23 -13 30 0 58 -37 57 -73 -1 -21 6 -45 17 -59 21 -26 20 -52 -3
-77 -9 -10 -13 -21 -9 -25 5 -5 -1 -7 -12 -6 -11 1 -27 2 -35 1 -13 -1 -13 -2
0 -11 11 -8 8 -9 -12 -4 -18 4 -32 0 -45 -13 -37 -35 -66 -58 -59 -45 4 6 2
12 -3 12 -6 0 -11 -6 -11 -12 0 -9 -4 -8 -10 2 -5 8 -10 10 -10 4 0 -40 99
-51 170 -19 32 15 42 15 55 5 19 -16 20 -58 1 -79 -35 -40 -158 -274 -140
-267 21 8 7 -11 -16 -24 -16 -8 -18 -8 -14 5 8 19 7 19 -231 0 -619 -49 -849
-66 -1010 -76 -99 -6 -183 -15 -188 -18 -4 -4 102 -13 235 -20 134 -7 257 -14
273 -16 17 -2 57 -7 90 -10 74 -8 120 -27 135 -54 12 -23 5 -330 -8 -343 -17
-17 -154 -26 -487 -34 -150 -3 -257 -10 -269 -16 -20 -11 -245 -12 -256 -2
-10 11 27 24 60 22 l35 -3 3 74 c2 41 -1 78 -6 83 -4 4 -45 2 -91 -6 -46 -8
-89 -12 -97 -9 -19 7 -29 52 -17 72 7 11 6 22 -4 38 -12 18 -13 29 -4 54 11
33 15 131 5 141 -3 3 -14 4 -25 1 -17 -5 -19 -14 -19 -79 0 -73 14 -124 34
-124 6 0 0 -9 -14 -20 l-25 -19 -3 -406 c-1 -265 1 -412 8 -425 20 -37 135
-49 536 -55 l222 -3 6 36 c3 20 3 38 1 40 -3 3 -33 0 -68 -6 -59 -9 -89 -7
-166 15 -22 6 -6 103 22 127 20 17 35 18 157 13 92 -3 147 -10 172 -21 46 -20
78 -22 60 -4 -7 7 -12 22 -12 34 0 13 -4 26 -10 29 -5 3 -10 19 -10 35 0 48
24 54 185 45 77 -4 147 -7 155 -6 8 0 61 4 117 7 122 7 117 1 115 152 -1 82 2
109 15 129 16 25 16 26 -6 44 -15 12 -39 19 -66 19 -63 0 -71 13 -78 123 -5
88 10 259 26 284 3 5 50 13 104 17 54 4 147 14 207 22 59 8 111 13 114 10 3
-3 -7 -34 -21 -68 -32 -75 -53 -160 -62 -244 l-7 -62 -56 5 c-69 6 -101 -11
-84 -44 15 -28 69 -37 99 -18 37 25 44 11 37 -72 -6 -65 -12 -82 -50 -141 -50
-75 -52 -89 -23 -126 18 -23 20 -34 14 -123 -4 -54 -17 -155 -31 -225 -13 -69
-24 -143 -24 -165 l0 -38 21 25 c11 14 17 18 13 10 -4 -8 -13 -22 -20 -30 -7
-8 -22 -44 -34 -80 -24 -71 -34 -89 -28 -50 3 24 1 25 -72 31 -290 24 -371 30
-580 40 -129 6 -291 14 -359 19 -68 4 -133 5 -145 1 -28 -8 -32 -31 -6 -38 11
-3 17 -10 13 -17 -4 -6 2 -4 13 4 10 8 16 10 12 6 -10 -11 118 -75 152 -76 14
-1 52 -7 85 -14 70 -16 61 -20 -73 -36 -59 -7 -90 -6 -104 1 -24 13 -79 7
-125 -12 -49 -20 -85 -4 -96 44 -5 20 -13 37 -17 37 -5 0 -39 -7 -76 -16 -55
-12 -69 -13 -76 -2 -17 27 -21 63 -10 102 6 23 9 42 7 44 -7 8 -88 22 -93 17
-3 -3 -6 -155 -6 -338 l-1 -332 23 -10 c12 -5 22 -15 22 -21 0 -6 6 -17 14
-23 12 -10 20 -9 40 4 24 16 30 16 97 0 51 -13 69 -21 65 -31 -3 -8 -2 -14 2
-14 4 0 13 -10 21 -21 12 -20 11 -21 -8 -16 -12 3 -19 1 -15 -4 3 -6 0 -16 -6
-24 -16 -19 -1 -19 24 0 11 8 25 15 30 15 6 0 4 -4 -4 -10 -12 -8 -12 -10 3
-16 9 -3 14 -10 11 -15 -3 -5 -1 -9 5 -9 5 0 13 5 16 10 3 6 12 10 18 10 7 0
-1 -11 -17 -25 -31 -26 -28 -32 5 -14 11 5 28 8 37 6 14 -3 12 -6 -8 -16 -24
-11 -24 -11 8 -7 17 3 32 1 32 -4 0 -6 -5 -10 -11 -10 -6 0 -4 -7 5 -15 8 -8
26 -15 39 -15 24 0 161 -58 142 -60 -36 -5 -85 -7 -81 -3 3 3 -1 11 -8 18 -22
22 -216 50 -233 34 -9 -9 -84 6 -123 25 -45 21 -105 -11 -109 -57 -1 -5 4 -5
11 -1 7 4 8 3 4 -4 -4 -6 -13 -9 -21 -6 -8 4 -13 10 -10 14 3 4 -3 11 -12 14
-10 4 -14 4 -11 0 4 -3 1 -13 -7 -21 -20 -20 -41 -12 -163 60 -96 56 -144 99
-128 114 3 4 57 5 118 4 167 -4 134 9 -68 25 -75 6 -85 9 -100 32 -17 25 -16
26 17 54 18 15 40 26 49 23 8 -2 42 1 75 8 l60 12 8 75 c4 41 6 316 5 610 -3
523 -4 536 -25 580 -22 46 -25 77 -53 500 -5 80 -12 258 -16 395 -6 250 -23
404 -38 340 -14 -65 -17 -147 -21 -637 -3 -371 -7 -514 -16 -530 -15 -29 -35
-48 -48 -48 -5 0 -12 -21 -16 -47 -3 -27 -9 -68 -14 -93 -27 -135 -33 -244
-18 -335 13 -72 15 -179 15 -525 -1 -279 -5 -443 -11 -458 -9 -19 -6 -27 16
-49 22 -22 28 -24 41 -13 17 14 21 3 7 -19 -5 -7 -14 -11 -20 -7 -7 5 -8 1 -4
-11 6 -17 5 -17 -14 -1 -19 17 -20 17 -41 -5 -27 -29 -28 -49 -2 -72 18 -16
20 -27 15 -74 -5 -49 -2 -62 23 -106 23 -41 34 -51 60 -53 29 -3 39 -15 48
-57 1 -5 3 -14 5 -20 2 -9 -5 -60 -17 -128 -5 -31 -14 -38 -34 -27 -23 12 -46
4 -55 -18 -8 -22 5 -144 17 -159 14 -17 77 -16 108 2 14 8 41 14 61 15 24 0
39 6 43 16 12 31 6 94 -14 131 -20 39 -25 103 -20 248 2 67 3 68 11 31 12 -52
31 -71 88 -93 88 -33 104 -46 126 -104 18 -48 26 -57 71 -79 28 -14 63 -39 77
-56 18 -21 39 -33 65 -38 22 -3 45 -13 52 -22 8 -8 30 -24 49 -34 20 -11 30
-19 24 -20 -17 0 -17 -30 0 -30 7 0 48 -4 92 -10 44 -5 95 -11 113 -12 17 -1
32 -6 32 -11 0 -4 4 -6 9 -3 8 6 6 -44 -4 -76 -3 -9 -2 -19 3 -22 5 -3 3 -28
-5 -58 -8 -29 -16 -60 -17 -68 -5 -32 -25 -66 -58 -97 -29 -28 -40 -32 -79
-31 -57 3 -102 -23 -97 -55 4 -26 -1 -25 259 -31 97 -2 199 -8 225 -14 27 -6
85 -16 128 -21 69 -8 82 -13 102 -38 21 -27 23 -27 56 -14 18 8 67 18 108 22
186 19 190 20 190 7 0 -9 3 -8 10 2 8 12 9 10 9 -10 -2 -33 -16 -90 -18 -68
-1 21 -24 15 -64 -19 -16 -13 -40 -23 -53 -23 -53 0 -80 -33 -51 -62 30 -30
27 -58 -11 -94 -43 -40 -42 -41 75 -29 l73 7 -6 -33 c-4 -19 -17 -75 -30 -126
-18 -71 -54 -325 -54 -381 0 -9 -270 66 -530 148 -69 21 -138 42 -155 45 -16
4 -64 17 -105 30 -195 59 -232 66 -244 46 -3 -5 -26 -12 -51 -15 -33 -5 -45
-12 -45 -24 0 -31 16 -42 76 -52 32 -6 81 -18 109 -27 47 -15 48 -17 25 -26
l-25 -9 29 -13 c36 -15 82 -14 78 3 -2 14 3 13 147 -25 51 -14 114 -34 140
-45 l46 -20 -100 -28 c-105 -30 -190 -37 -285 -23 -30 5 -73 5 -95 0 -25 -5
-69 -4 -117 3 l-77 12 -26 -28 c-19 -22 -23 -23 -13 -6 28 49 -32 87 -169 109
-231 35 -425 -19 -342 -95 63 -60 312 -88 441 -51 37 10 52 3 18 -9 -15 -6
-19 -11 -12 -16 9 -5 9 -13 2 -27 -14 -24 2 -55 32 -65 38 -12 141 -7 204 10
34 9 64 16 67 16 9 0 -5 -83 -19 -119 -17 -41 -17 -41 -1 -41 8 0 14 -12 15
-29 0 -20 -6 -32 -23 -41 l-24 -13 22 -18 c12 -10 18 -18 13 -19 -10 0 102
-70 111 -70 3 0 17 -9 32 -19 15 -11 45 -21 67 -23 39 -4 39 -4 13 -15 -63
-27 -310 -47 -559 -45 -388 4 -725 53 -995 144 -189 63 -316 135 -370 208 -33
45 -32 60 1 21 14 -17 39 -40 55 -51 25 -19 33 -20 69 -9 37 11 42 17 55 63
21 70 9 80 -87 78 -40 0 -90 -4 -110 -7 -34 -6 -38 -4 -38 13 0 23 28 36 54
26 9 -4 16 -1 16 6 0 10 3 10 14 1 11 -9 15 -9 19 1 3 10 7 10 17 1 9 -8 19
-9 32 -2 10 5 23 7 28 4 5 -3 18 -1 29 4 20 11 29 43 47 169 l6 43 -37 -15
c-47 -20 -43 -21 -48 12 -4 25 -4 25 -6 -5 -2 -48 -19 -40 -24 10 -3 39 -4 38
-5 -12 -3 -83 -15 -52 -22 57 l-7 97 -2 -115 c-1 -78 -4 -110 -11 -100 -6 9
-10 132 -10 296 0 238 2 283 15 294 13 11 15 8 16 -21 1 -28 3 -29 6 -9 5 29
23 52 23 29 0 -9 3 -10 8 -3 4 6 30 21 57 34 51 24 74 45 75 67 0 8 -15 5 -46
-9 -26 -11 -90 -25 -145 -31 -225 -25 -509 40 -409 93 16 9 18 8 14 -5 -9 -22
1 -19 29 9 25 25 115 46 194 46 l41 0 4 257 c2 142 0 272 -5 290 -4 18 -24 57
-45 87 -45 66 -198 242 -218 250 -28 11 -21 -12 17 -57 43 -50 42 -58 -6 -29
-16 10 -60 29 -98 42 -64 23 -69 23 -102 7 -18 -9 -51 -39 -71 -66 -21 -28
-39 -49 -41 -47 -2 2 8 27 22 57 25 55 33 95 16 84 -6 -3 -34 -49 -62 -103
-69 -127 -105 -183 -112 -175 -4 3 -4 17 -1 29 9 36 -3 29 -26 -16 -23 -45
-45 -51 -81 -20 l-24 19 28 1 c31 0 58 25 145 134 111 141 200 211 222 176 7
-11 15 -10 43 3 19 10 42 17 51 17 11 0 16 9 16 28 0 16 2 31 5 34 3 3 29 -1
58 -9 65 -17 107 -10 100 17 -3 11 -16 31 -29 45 -21 22 -30 25 -79 23 -30 -2
-55 0 -55 5 0 4 -8 3 -18 -2 -16 -8 -17 -3 -13 70 l3 80 -28 -8 c-16 -4 -98
-8 -181 -7 l-153 0 0 -67 c0 -44 4 -69 13 -72 6 -3 2 -6 -11 -6 -18 -1 -22 -6
-18 -26 6 -34 14 -45 34 -45 9 0 24 -5 32 -11 11 -8 2 -9 -32 -4 -46 6 -48 5
-54 -22 -3 -15 -8 -37 -10 -48 -4 -16 -2 -15 10 5 23 38 21 -1 -2 -48 -11 -20
-38 -91 -62 -157 -24 -65 -45 -115 -47 -109 -2 5 15 61 37 123 22 62 36 110
31 107 -5 -4 -17 -29 -26 -56 -9 -27 -21 -52 -25 -55 -8 -5 -32 -74 -34 -97
-2 -15 -22 -27 -51 -30 -30 -3 -30 -4 -27 -58 2 -39 9 -61 24 -77 20 -21 20
-22 1 -17 -25 7 -33 -17 -33 -98 0 -52 3 -59 28 -73 l27 -16 -27 6 c-27 5 -28
4 -28 -42 0 -83 13 -242 19 -241 3 1 16 -1 29 -6 26 -9 32 -56 6 -56 -23 0
-44 -25 -44 -54 0 -16 -6 -26 -15 -26 -9 0 -14 10 -14 28 -1 15 -3 61 -7 103
l-6 76 -46 -13 c-50 -15 -183 -18 -249 -5 l-43 8 0 -31 c0 -17 -3 -48 -6 -68
-6 -34 -4 -38 21 -48 15 -6 26 -13 23 -16 -3 -2 -17 0 -32 5 -24 10 -26 8 -26
-13 0 -42 57 -60 187 -61 87 0 107 -2 91 -11 -19 -10 -19 -12 -3 -18 10 -3 24
-1 32 5 10 9 17 9 25 1 7 -7 21 -12 32 -12 11 0 39 -7 63 -16 35 -14 40 -19
29 -30 -11 -11 -23 -10 -71 2 -33 9 -61 12 -64 6 -12 -18 -136 -102 -151 -102
-8 0 -24 6 -35 13 -20 14 -65 28 -65 22 0 -2 11 -15 25 -29 31 -32 33 -54 3
-51 -13 1 -34 3 -46 4 -23 1 -24 3 -19 69 3 37 10 83 16 102 13 42 13 40 2 40
-12 0 -41 -120 -41 -169 0 -35 4 -43 30 -56 16 -8 38 -15 49 -15 11 0 23 -4
26 -10 3 -5 0 -10 -7 -10 -7 0 -23 -3 -36 -6 -17 -5 -21 -3 -17 9 5 10 -1 15
-19 15 -21 0 -26 -5 -26 -25 0 -22 -4 -25 -25 -21 -14 3 -33 -1 -42 -8 -26
-19 -8 -32 95 -68 50 -17 90 -34 91 -38 7 -48 -1 -67 -30 -77 -45 -16 -49 -14
-49 18 0 25 5 31 30 36 16 4 30 10 30 15 0 12 -31 21 -59 15 -33 -6 -39 -15
-10 -15 l24 -1 -25 -13 c-14 -8 -79 -29 -144 -47 -88 -25 -120 -38 -124 -51
-5 -22 -7 -22 -36 -2 -27 17 -38 8 -41 -34 -1 -21 -8 -27 -50 -38 -51 -12 -64
-8 -65 24 0 17 -15 15 -130 -18 -105 -30 -124 -42 -114 -72 2 -9 1 -19 -4 -22
-9 -5 -226 60 -350 105 -29 10 -55 19 -58 19 -3 0 -3 -42 -2 -92 l3 -93 205
-68 c196 -65 207 -67 250 -56 47 12 150 42 185 54 16 6 17 5 5 -4 -13 -9 -13
-11 0 -11 13 -1 13 -2 0 -9 -27 -16 -204 -72 -230 -73 -19 0 -229 55 -373 98
-15 5 -17 1 -11 -22 6 -24 5 -26 -15 -21 -20 5 -21 2 -21 -62 0 -97 12 -115
95 -147 38 -15 97 -39 130 -52 33 -14 92 -38 130 -53 39 -15 99 -39 133 -54
35 -14 72 -28 83 -31 10 -2 29 -6 41 -9 12 -2 24 -9 27 -14 3 -5 24 -9 46 -9
42 0 32 9 -30 24 -21 5 -25 8 -12 11 9 3 15 9 12 14 -4 5 -2 9 4 9 5 0 13 9
16 21 4 11 21 26 38 34 33 14 271 85 286 85 15 0 18 -44 6 -80 -8 -23 -18 -35
-30 -35 -12 0 -26 -15 -39 -42 -23 -47 -31 -49 -82 -28 -34 14 -36 13 -60 -10
-38 -38 -31 -57 29 -83 29 -13 73 -29 98 -37 40 -12 78 -28 209 -87 153 -70
268 -118 440 -184 107 -41 240 -92 295 -113 55 -22 143 -56 195 -76 52 -20
116 -45 142 -55 26 -11 52 -20 58 -20 6 0 35 -11 63 -25 64 -30 131 -41 123
-19 -3 8 -1 14 4 14 5 0 12 9 15 20 3 11 11 20 16 20 6 0 7 -4 4 -10 -3 -6 4
-10 17 -11 13 0 17 -3 10 -6 -6 -2 -10 -9 -7 -13 3 -5 -5 -16 -17 -24 -14 -10
-17 -16 -8 -16 7 0 24 -10 37 -22 18 -17 35 -21 80 -21 32 0 76 4 98 8 22 4
54 8 70 9 17 1 40 6 52 10 29 9 37 -8 17 -39 -9 -14 -12 -25 -6 -25 5 0 13 7
16 16 3 8 10 12 16 9 6 -4 7 -11 4 -17 -4 -6 -3 -8 3 -5 5 3 19 -1 31 -9 l22
-15 -21 -22 c-15 -16 -19 -30 -15 -51 8 -39 11 -40 43 -28 86 32 256 83 266
79 11 -3 -75 -47 -93 -47 -7 0 -39 -13 -135 -55 -16 -7 -60 -22 -97 -35 -37
-12 -70 -25 -73 -30 -3 -4 -29 -14 -57 -20 -29 -7 -64 -19 -79 -27 -22 -13
-31 -13 -75 0 -81 25 -577 237 -570 244 2 2 38 -10 81 -28 122 -48 132 -48
189 5 27 25 52 44 55 41 4 -2 13 0 21 5 12 7 11 12 -5 30 -10 11 -24 19 -30
16 -7 -2 -12 2 -12 10 0 8 5 14 11 14 22 1 -40 29 -78 36 -50 8 -111 30 -251
89 -60 25 -139 57 -175 70 -36 12 -144 55 -240 95 -376 155 -467 191 -530 210
-36 11 -96 36 -135 56 -84 43 -224 96 -239 91 -6 -2 7 -13 29 -25 48 -25 43
-28 -16 -6 -82 30 -111 34 -147 18 -19 -8 -45 -14 -58 -14 -12 0 -25 -4 -28
-9 -6 -9 12 -17 309 -145 105 -46 273 -121 375 -168 102 -47 259 -118 350
-158 394 -172 461 -202 456 -207 -6 -7 -389 149 -596 243 -41 18 -156 68 -255
110 -208 89 -420 179 -520 222 -72 31 -99 29 -93 -7 2 -9 -2 -15 -8 -14 -6 1
-11 -5 -11 -13 0 -7 4 -14 8 -14 5 0 6 -6 3 -14 -3 -7 2 -20 10 -29 19 -19 20
-34 4 -40 -10 -3 -10 -7 1 -20 11 -14 11 -18 -3 -23 -9 -3 -30 -1 -47 6 -16 7
-32 11 -34 8 -3 -2 78 -44 180 -93 102 -48 183 -90 181 -92 -4 -4 -155 56
-243 97 -24 11 -43 15 -43 10 0 -6 5 -10 11 -10 8 0 7 -5 -1 -15 -7 -9 -10
-18 -6 -22 3 -3 6 -1 6 5 0 7 5 12 10 12 7 0 7 -6 1 -19 -6 -10 -7 -21 -4 -25
6 -6 -30 -9 -43 -3 -3 1 -10 -5 -15 -15 -9 -17 -2 -51 10 -44 4 3 7 -4 7 -14
0 -10 -4 -16 -9 -13 -5 3 -2 -8 7 -25 8 -16 12 -32 9 -35 -3 -4 -1 -13 5 -20
9 -10 8 -14 -3 -14 -14 0 -19 11 -16 31 1 5 -5 4 -13 -4 -18 -14 -22 -25 -6
-15 10 6 12 0 14 -41 1 -12 9 -31 19 -41 14 -16 14 -20 2 -20 -8 0 -12 3 -10
7 3 4 -5 16 -16 26 -15 14 -20 15 -17 4 2 -8 -3 -14 -10 -12 -8 1 -11 -2 -7
-8 4 -6 12 -9 19 -7 8 3 12 -12 11 -51 0 -47 4 -60 25 -81 16 -16 20 -26 12
-29 -7 -2 -12 -10 -12 -17 0 -8 -5 -17 -12 -21 -7 -5 -8 -3 -3 7 8 12 6 12 -8
1 -10 -8 -16 -27 -15 -46 1 -18 -2 -38 -6 -44 -4 -7 -3 -12 3 -12 7 0 7 -8 -1
-25 -6 -14 -16 -25 -21 -25 -6 0 -8 -3 -4 -6 7 -8 -16 -33 -25 -28 -4 2 -9 0
-12 -5 -4 -5 -1 -13 5 -17 8 -5 9 -3 4 6 -5 9 -4 11 3 6 9 -5 9 -13 1 -27 -6
-12 -8 -23 -5 -27 3 -3 6 0 6 7 0 7 4 10 10 6 6 -3 6 -15 0 -29 -5 -15 -5 -27
2 -34 8 -8 7 -13 -6 -18 -15 -6 -15 -8 -1 -18 11 -8 12 -15 4 -26 -9 -12 -10
-11 -4 5 5 16 4 17 -6 8 -10 -10 -9 -15 1 -28 11 -13 9 -15 -10 -15 l-23 0 23
-20 c13 -11 18 -20 13 -20 -6 0 -13 -7 -16 -14 -4 -10 -1 -13 9 -9 7 3 14 1
14 -5 0 -6 -6 -13 -12 -15 -7 -3 742 -6 1664 -6 l1677 -1 58 26 c32 14 141 59
243 101 102 41 226 92 275 113 305 128 415 174 450 190 22 10 123 52 225 93
102 42 262 108 355 147 251 106 586 240 601 240 8 0 14 -25 19 -71 4 -38 6
-72 4 -73 -2 -2 -56 -26 -119 -54 -63 -28 -189 -83 -280 -123 -91 -39 -205
-89 -255 -109 -130 -54 -523 -225 -710 -309 -88 -40 -207 -93 -265 -119 l-105
-47 491 -3 491 -2 119 56 c260 123 608 274 615 267 4 -5 9 -38 11 -75 l3 -66
-180 -91 -180 -90 1103 0 1102 -1 0 1678 c0 1649 -1 1677 -20 1702 -25 32 -25
50 0 45 20 -4 20 2 20 1635 l0 1638 -27 6 c-82 15 -115 16 -180 2 -39 -8 -99
-26 -134 -39 -35 -14 -85 -30 -111 -37 -64 -17 -149 -74 -249 -169 -98 -94
-154 -136 -168 -126 -19 11 -12 21 37 55 56 40 124 96 203 167 61 55 151 106
209 118 19 4 72 20 117 35 101 36 175 43 245 24 29 -7 54 -14 56 -14 1 0 2
126 2 279 l0 279 -31 11 c-18 6 -39 11 -46 11 -8 0 -29 6 -46 14 -18 8 -52 19
-77 25 -41 10 -39 10 28 6 l72 -5 -63 62 c-35 35 -45 47 -22 27 45 -40 85 -69
97 -69 5 0 8 32 8 70 l0 70 40 0 40 0 0 580 c0 319 -2 580 -3 580 -9 0 -306
-62 -427 -89 -253 -56 -434 -91 -447 -87 -7 3 -13 18 -13 33 -1 27 -9 65 -44
198 -27 100 -91 216 -182 325 -47 55 -82 105 -79 110 3 4 1 19 -4 33 -7 18 -5
32 10 56 23 38 26 126 5 176 -12 27 -21 35 -41 35 -14 0 -28 -6 -31 -13z
m-714 -204 c0 -5 -13 -17 -28 -27 l-27 -19 24 26 c26 28 31 32 31 20z m400
-23 c7 -13 16 -18 23 -13 16 10 50 4 59 -11 13 -19 9 -38 -7 -33 -8 4 -17 2
-21 -4 -4 -6 -15 -4 -31 7 -21 13 -27 14 -34 3 -7 -11 -16 -7 -40 19 -31 35
-33 57 -2 30 10 -8 25 -19 33 -23 12 -6 13 -5 3 6 -15 15 -17 39 -3 39 5 0 14
-9 20 -20z m-114 -58 c-12 -11 -16 6 -9 39 l8 34 3 -33 c2 -19 1 -36 -2 -40z
m-102 36 c-4 -7 -7 -27 -6 -45 2 -28 -1 -33 -19 -33 -15 0 -19 -4 -15 -16 4
-10 1 -14 -6 -11 -19 6 -11 48 12 69 11 10 20 25 20 33 0 8 5 15 11 15 5 0 7
-5 3 -12z m72 -41 c16 -9 9 -27 -11 -27 -17 0 -27 28 -18 54 7 20 7 21 11 1 2
-11 11 -24 18 -28z m343 -7 c0 -10 -3 -8 -9 5 -12 27 -12 43 0 25 5 -8 9 -22
9 -30z m-402 8 c-3 -8 -6 -5 -6 6 -1 11 2 17 5 13 3 -3 4 -12 1 -19z m147 14
c8 -13 -11 -35 -23 -28 -16 10 -14 36 3 36 8 0 17 -4 20 -8z m-380 -65 c-6
-38 -9 -45 -20 -36 -11 9 -14 6 -14 -15 0 -14 -5 -26 -11 -26 -6 0 -8 7 -5 16
3 9 6 24 6 35 0 12 5 16 15 13 10 -4 15 0 15 14 0 23 11 55 16 49 2 -2 1 -25
-2 -50z m152 -25 c-9 -8 -13 0 -20 38 l-6 35 16 -34 c8 -18 13 -36 10 -39z
m-114 24 c2 -19 0 -32 -4 -30 -8 5 -12 64 -4 64 2 0 6 -15 8 -34z m68 24 c0
-5 -5 -10 -11 -10 -5 0 -7 5 -4 10 3 6 8 10 11 10 2 0 4 -4 4 -10z m144 -6 c3
-8 2 -12 -4 -9 -6 3 -10 10 -10 16 0 14 7 11 14 -7z m-161 -45 c-3 -12 -9 -17
-15 -11 -10 10 0 44 12 37 5 -3 6 -14 3 -26z m-333 -69 c-6 -12 -8 -30 -4 -42
4 -14 2 -18 -5 -14 -19 12 -10 76 10 76 6 0 5 -9 -1 -20z m-22 -69 c2 -1 0 -6
-3 -11 -5 -8 -11 -8 -19 -1 -7 6 -17 7 -21 3 -5 -4 -5 -2 -2 5 6 9 18 10 45 4z
m-48 -46 c-14 -8 -32 -14 -40 -14 -8 0 -1 6 15 14 40 18 57 18 25 0z m27 -31
c-3 -3 -12 -4 -19 -1 -8 3 -5 6 6 6 11 1 17 -2 13 -5z m-162 -94 c3 -5 1 -10
-4 -10 -6 0 -11 5 -11 10 0 6 2 10 4 10 3 0 8 -4 11 -10z m-81 -86 c9 -24 7
-28 -9 -14 -17 14 -20 30 -6 30 5 0 12 -7 15 -16z m60 7 c3 -5 -1 -11 -9 -14
-9 -4 -12 -1 -8 9 6 16 10 17 17 5z m710 -202 c28 -16 52 -22 82 -20 66 4 92
-14 198 -135 20 -23 36 -46 36 -53 0 -6 9 -16 20 -23 11 -7 20 -18 20 -24 0
-7 12 -15 26 -18 14 -4 35 -15 46 -26 12 -11 24 -17 28 -15 3 2 19 -7 35 -21
19 -16 40 -24 67 -24 26 0 38 -4 38 -14 0 -9 7 -12 20 -9 16 4 19 2 14 -12 -6
-14 -3 -16 15 -10 11 3 33 8 48 9 15 2 29 9 32 17 14 44 59 50 123 16 34 -18
48 -21 66 -13 12 6 22 18 22 27 0 12 24 20 103 36 107 21 228 25 225 8 -3 -11
-157 -52 -233 -61 -94 -12 -94 -7 -20 -129 35 -59 63 -110 61 -112 -2 -2 -36
-13 -77 -24 -163 -45 -405 -210 -576 -393 -55 -58 -85 -83 -69 -57 3 4 -6 23
-20 42 -26 35 -26 45 -8 149 3 16 -1 13 -9 -10 l-14 -35 -6 30 c-3 17 -8 47
-12 68 -5 29 -10 37 -21 33 -9 -4 -19 4 -26 19 -6 14 -17 25 -25 25 -7 0 -13
7 -13 15 0 23 -31 53 -50 48 -14 -4 -17 0 -12 22 3 20 1 26 -8 23 -7 -2 -34
16 -60 41 -56 56 -89 77 -91 59 -1 -7 -4 1 -8 17 -3 17 -10 29 -15 27 -12 -5
-35 30 -29 45 3 7 0 13 -6 13 -6 0 -11 8 -11 17 0 10 -19 35 -42 56 -38 35
-41 42 -42 90 -1 109 12 165 36 151 5 -4 3 8 -6 24 -24 47 -20 80 14 114 36
36 70 35 134 -3z m1114 -176 c12 -3 22 -9 22 -14 0 -17 -54 -30 -142 -36 l-88
-6 0 38 0 38 93 -7 c50 -4 102 -10 115 -13z m262 -73 c0 -11 -4 -20 -9 -20 -5
0 -7 9 -4 20 3 11 7 20 9 20 2 0 4 -9 4 -20z m-1934 -265 c-8 -17 -14 -21 -23
-13 -26 21 -7 52 23 41 9 -3 9 -10 0 -28z m47 -37 c4 -12 4 -24 2 -26 -7 -8
-35 20 -35 34 0 23 27 16 33 -8z m439 -3 c-8 -16 -9 -16 -15 -1 -4 10 -3 15 3
11 6 -3 10 -1 10 6 0 7 3 10 6 6 3 -3 2 -13 -4 -22z m1762 -29 c10 4 17 -2 22
-20 11 -46 3 -51 -72 -48 -73 4 -88 10 -79 33 8 22 77 49 97 38 9 -5 23 -6 32
-3z m-1706 -61 c-3 -3 -9 2 -12 12 -6 14 -5 15 5 6 7 -7 10 -15 7 -18z m1492
-1 c0 -17 -57 -47 -76 -40 -27 10 -16 43 19 53 37 11 57 7 57 -13z m-1468 -39
c-2 -14 -8 -22 -13 -19 -13 8 -11 32 4 37 6 3 13 6 13 6 1 1 -1 -10 -4 -24z
m-343 -311 c3 -15 1 -16 -11 -6 -8 6 -18 9 -21 5 -4 -3 -7 -2 -7 4 0 29 33 27
39 -3z m1734 -101 c15 -3 45 -12 65 -20 l37 -14 -52 6 c-62 7 -113 23 -113 37
0 6 8 7 18 3 9 -3 30 -9 45 -12z m-3255 -134 c56 -54 58 -61 41 -138 -10 -47
-31 -71 -44 -51 -9 15 -115 13 -115 -2 -1 -7 -8 0 -16 16 -26 46 -15 144 19
190 16 20 36 36 45 36 9 0 41 -23 70 -51z m2422 26 c0 -2 -10 -9 -22 -15 -22
-11 -22 -10 -4 4 21 17 26 19 26 11z m55 -25 c-11 -5 -29 -9 -40 -9 l-20 0 20
9 c11 5 29 9 40 9 l20 0 -20 -9z m-152 -47 c-30 -46 -57 -74 -68 -70 -5 2 -19
1 -30 -3 -10 -4 -25 -2 -31 4 -9 8 -2 17 25 33 33 21 112 62 119 63 1 0 -6
-12 -15 -27z m32 -3 c-3 -5 -11 -10 -16 -10 -6 0 -7 5 -4 10 3 6 11 10 16 10
6 0 7 -4 4 -10z m292 4 c-3 -3 -12 -4 -19 -1 -8 3 -5 6 6 6 11 1 17 -2 13 -5z
m-117 -14 c-14 -4 -44 -8 -67 -9 -22 -1 -69 -9 -102 -20 -60 -19 -60 -19 -50
1 6 11 16 17 23 15 7 -3 39 1 72 8 67 15 167 19 124 5z m-480 -39 c-12 -23
-30 -28 -30 -10 0 12 32 40 38 34 2 -2 -1 -13 -8 -24z m1380 8 c0 -4 -7 -6
-15 -3 -8 4 -15 10 -15 15 0 4 7 6 15 3 8 -4 15 -10 15 -15z m160 -16 c5 -5
-59 4 -92 14 -14 3 -16 0 -12 -14 4 -11 2 -14 -3 -7 -4 6 -17 16 -28 23 -20
12 -20 12 1 8 12 -3 27 -1 34 3 10 6 87 -14 100 -27z m-1434 -18 c-11 -8 -25
-15 -30 -15 -6 1 0 7 14 15 32 19 40 18 16 0z m556 -31 c-19 -8 -84 -21 -145
-29 -118 -16 -236 -19 -202 -6 19 8 19 8 0 19 -20 11 -20 11 0 12 44 3 303 16
340 17 l40 1 -33 -14z m-637 -10 c-19 -14 -18 -15 20 -9 22 3 51 8 65 11 19 4
14 -2 -18 -21 -23 -15 -40 -30 -37 -35 8 -14 -130 -61 -185 -63 -45 -2 -49 0
-33 11 90 64 109 76 118 78 6 1 26 11 45 23 41 24 54 27 25 5z m181 -39 c-16
-16 -30 -20 -22 -6 4 5 0 12 -6 14 -7 3 0 6 15 6 25 1 27 -1 13 -14z m-1066
-25 c0 -5 -5 -10 -11 -10 -5 0 -7 5 -4 10 3 6 8 10 11 10 2 0 4 -4 4 -10z
m-1294 -31 c4 -7 25 -9 57 -5 54 6 77 -4 77 -35 0 -28 -34 -40 -103 -37 -60 3
-62 4 -65 31 -6 47 15 76 34 46z m2594 -19 c13 -9 13 -10 0 -9 -8 0 -24 4 -35
9 l-20 9 20 0 c11 0 27 -4 35 -9z m-1533 -19 c11 10 14 10 9 2 -4 -8 -1 -13 8
-13 9 0 16 -5 16 -11 0 -5 -5 -7 -12 -3 -6 4 -8 3 -4 -4 3 -6 20 -13 36 -17
25 -5 30 -12 30 -35 0 -38 -27 -52 -88 -48 l-47 3 -1 50 c-2 69 4 89 22 74 11
-9 18 -8 31 2z m299 0 c-3 -5 1 -14 9 -21 15 -13 20 -47 9 -73 -7 -20 -84 -12
-101 10 -21 27 -15 41 25 67 37 25 68 34 58 17z m1359 -20 c39 -12 81 -28 95
-36 25 -16 25 -16 -10 -9 -35 6 -181 61 -190 71 -6 6 10 3 105 -26z m-750 -81
c-3 -5 -20 -19 -38 -30 l-32 -22 35 31 c35 32 46 38 35 21z m-1267 -37 c4 -25
-12 -31 -83 -33 -75 -2 -82 -1 -89 15 -13 36 3 44 87 42 76 -2 82 -4 85 -24z
m2273 11 c17 -8 28 -18 25 -21 -3 -3 -20 4 -38 16 -39 24 -30 28 13 5z m-2717
-10 c23 -23 19 -43 -11 -55 -20 -7 -28 -6 -35 3 -11 19 -10 42 4 56 16 16 23
15 42 -4z m-208 -3 c5 -5 22 -11 39 -13 20 -2 31 -9 33 -22 5 -27 -17 -37 -48
-21 -21 11 -29 11 -50 -1 -35 -19 -48 -17 -60 7 -9 16 -8 25 6 40 18 20 63 26
80 10z m1087 -432 c10 -76 0 -290 -14 -304 -6 -6 -15 -4 -24 6 -19 19 -24 314
-5 348 19 36 35 18 43 -50z m618 -216 c-10 -21 -27 -47 -35 -58 -9 -11 -2 8
16 42 18 34 34 60 36 58 2 -2 -6 -20 -17 -42z m-127 -183 c-15 -22 -29 -40
-31 -40 -5 0 3 15 29 53 30 43 31 32 2 -13z m-1374 -10 c0 -22 -16 -35 -25
-20 -9 14 4 52 16 45 5 -4 9 -15 9 -25z m-150 -14 c0 -7 16 -21 35 -30 45 -21
45 -42 0 -55 -61 -16 -94 5 -79 53 12 40 44 63 44 32z m158 -160 c2 -3 1 -14
-3 -25 -7 -24 -34 -26 -193 -15 -79 6 -92 9 -92 25 0 11 10 19 28 23 30 5 253
-2 260 -8z m1427 -103 c-4 -10 -10 -33 -14 -52 -3 -19 -12 -36 -19 -39 -10 -3
-11 3 -6 25 5 15 8 37 8 48 0 20 13 35 30 35 4 0 5 -8 1 -17z m-62 -88 c-3 -9
-8 -14 -10 -11 -3 3 -2 9 2 15 9 16 15 13 8 -4z m-1380 -196 c-7 -7 -20 -8
-30 -5 -17 7 -17 8 1 22 23 17 48 2 29 -17z m249 -4 c0 -5 -5 -11 -11 -13 -6
-2 -11 4 -11 13 0 9 5 15 11 13 6 -2 11 -8 11 -13z m1202 -33 c-81 -73 -194
-125 -194 -90 0 19 32 48 54 48 12 1 53 19 91 40 87 50 102 50 49 2z m-324
-469 c-10 -16 -11 -15 -6 7 3 14 6 32 7 40 1 8 4 5 6 -7 2 -12 -1 -30 -7 -40z
m-1270 -48 c18 -21 5 -45 -25 -45 -20 0 -25 5 -25 23 0 39 26 50 50 22z m677
-211 c101 -11 185 -13 318 -9 98 4 183 9 187 11 13 8 58 -8 58 -21 0 -9 -26
-15 -87 -20 -55 -4 -104 -14 -129 -26 -23 -10 -48 -19 -57 -19 -9 0 -23 -13
-32 -30 -14 -27 -21 -30 -63 -31 -26 0 -60 -2 -77 -3 -39 -4 -95 19 -95 38 0
18 -16 22 -22 5 -3 -8 -32 -5 -97 10 -60 14 -104 20 -125 15 -32 -7 -41 -9
-116 -18 -25 -2 -74 -12 -110 -21 -89 -22 -180 -31 -180 -16 0 6 17 11 38 11
35 0 103 11 255 41 57 11 67 17 67 34 0 11 7 31 16 43 19 27 56 28 251 6z
m436 -241 c-3 -10 -14 -30 -25 -44 -10 -15 -23 -37 -28 -50 l-11 -24 5 23 c5
23 4 23 -16 5 -36 -32 -49 -93 -13 -63 10 8 15 9 15 1 0 -12 -59 -45 -67 -38
-10 10 29 75 84 140 31 37 57 67 59 67 2 0 1 -8 -3 -17z m-146 -103 c-14 -16
-28 -39 -32 -50 -3 -11 -11 -19 -17 -17 -7 1 -17 -10 -24 -24 -8 -14 -23 -34
-36 -45 l-22 -19 19 30 c10 17 25 42 32 57 12 22 89 97 101 98 2 0 -8 -13 -21
-30z m-792 -10 c-3 -5 -11 -10 -16 -10 -6 0 -7 5 -4 10 3 6 11 10 16 10 6 0 7
-4 4 -10z m-145 -115 c0 -8 -61 -37 -67 -32 -3 3 8 12 24 21 29 16 43 19 43
11z m477 -29 c3 -3 -1 -6 -9 -6 -8 0 -27 -9 -40 -20 -14 -10 -28 -17 -31 -14
-3 4 -20 -4 -37 -16 -17 -12 -34 -19 -37 -16 -4 3 0 6 7 6 7 0 10 3 7 6 -4 4
-13 1 -21 -5 -8 -7 -29 -11 -46 -9 l-32 3 24 35 c18 27 33 36 63 41 47 8 143
5 152 -5z m326 -21 c-3 -9 -8 -14 -10 -11 -3 3 -2 9 2 15 9 16 15 13 8 -4z
m-3206 -111 c-3 -3 -12 -4 -19 -1 -8 3 -5 6 6 6 11 1 17 -2 13 -5z m323 -55
c0 -5 -10 -9 -21 -9 -18 0 -19 2 -9 15 12 15 30 12 30 -6z m-257 -26 c-7 -2
-19 -2 -25 0 -7 3 -2 5 12 5 14 0 19 -2 13 -5z m115 0 c-10 -2 -28 -2 -40 0
-13 2 -5 4 17 4 22 1 32 -1 23 -4z m3022 -13 c0 -11 -4 -20 -10 -20 -5 0 -10
9 -10 20 0 11 5 20 10 20 6 0 10 -9 10 -20z m427 -426 c-3 -3 -12 -4 -19 -1
-8 3 -5 6 6 6 11 1 17 -2 13 -5z m-3850 -356 c-3 -7 -5 -2 -5 12 0 14 2 19 5
13 2 -7 2 -19 0 -25z m0 -40 c-3 -8 -6 -5 -6 6 -1 11 2 17 5 13 3 -3 4 -12 1
-19z m-1 -106 c-13 -13 -17 9 -10 50 l9 43 3 -44 c2 -23 1 -46 -2 -49z m-9
-99 c-2 -16 -4 -5 -4 22 0 28 2 40 4 28 2 -13 2 -35 0 -50z m609 -84 c9 -15
94 -50 105 -43 5 3 10 -19 11 -48 1 -47 2 -48 5 -13 3 22 9 44 14 50 11 11 10
-589 -1 -705 -5 -52 -8 10 -10 205 l-4 280 -5 -272 c-4 -149 -9 -275 -13 -279
-5 -4 -9 28 -10 72 l-2 79 -3 -72 c-2 -40 -8 -73 -13 -73 -6 0 -10 4 -10 10 0
5 -3 9 -7 9 -36 -6 -102 39 -89 60 3 5 6 176 6 380 1 342 4 395 26 360z m165
-765 c-6 -50 -9 32 -10 292 0 199 2 377 7 395 10 49 14 -604 3 -687z m39 324
c0 -223 -4 -387 -9 -379 -17 26 -12 771 5 771 2 0 4 -177 4 -392z m31 -18 l-8
-385 -1 395 c-1 232 2 390 7 385 5 -6 6 -171 2 -395z m66 -138 c-1 -97 -2 -15
-2 183 0 198 1 278 2 177 2 -101 2 -263 0 -360z m42 246 c0 -161 -4 -315 -9
-343 -4 -30 -8 88 -9 293 -1 222 3 342 9 342 6 0 10 -104 9 -292z m41 24 c0
-339 -13 -444 -20 -162 -6 256 -2 432 11 425 5 -4 9 -114 9 -263z m-118 -307
c-9 -209 -9 -207 -10 171 -1 209 1 384 6 388 11 11 13 -320 4 -559z m3948 178
c92 -14 182 -18 455 -18 200 0 311 -3 270 -7 -38 -4 -189 -9 -335 -10 -238 -3
-279 -1 -400 20 -154 26 -170 30 -170 42 0 5 15 4 32 -1 18 -5 85 -17 148 -26z
m112 -69 c14 -31 1 -57 -31 -62 -28 -4 -51 14 -51 42 0 50 62 65 82 20z
m-4597 -105 c39 -12 94 -29 124 -38 l54 -17 -42 -18 c-53 -21 -71 -38 -71 -68
0 -13 -3 -40 -7 -61 -6 -38 -6 -39 -42 -32 -20 4 -41 11 -48 16 -7 7 -19 6
-35 -2 -13 -7 -30 -15 -38 -19 -8 -4 -16 -16 -18 -28 -4 -24 64 -136 77 -128
5 3 15 -2 22 -11 12 -15 12 -16 -4 -10 -15 6 -17 3 -11 -16 4 -12 10 -24 14
-27 18 -13 29 -47 18 -58 -8 -8 -8 -15 2 -27 7 -8 15 -13 18 -10 3 2 -1 11 -8
20 -10 12 -10 15 3 15 8 0 17 6 20 13 4 10 7 10 18 0 11 -11 10 -13 -4 -13
-21 0 -21 -7 -3 -26 18 -17 27 -18 20 -1 -3 9 4 12 23 11 18 0 29 -7 31 -18 2
-9 0 -16 -5 -15 -20 3 -30 -2 -30 -16 0 -8 4 -15 9 -15 4 0 8 7 8 17 0 9 3 13
6 10 4 -3 15 -2 26 4 16 9 17 13 6 26 -7 9 -13 26 -13 39 -1 19 2 21 17 13 14
-7 18 -6 18 6 0 9 5 13 10 10 9 -5 14 6 12 26 -1 3 6 6 14 6 8 0 13 -7 12 -15
-2 -8 4 -17 12 -19 12 -4 12 -3 2 5 -11 7 -10 10 3 16 33 12 66 5 89 -19 27
-29 36 -31 36 -10 0 23 35 18 37 -5 2 -19 49 -69 66 -70 4 0 3 9 -3 19 -14 27
-13 30 10 24 20 -5 23 -10 23 -38 0 -33 -4 -42 -34 -78 l-31 -38 -25 25 c-14
14 -22 30 -18 36 3 5 -1 10 -9 10 -9 0 -23 -14 -31 -31 -11 -20 -22 -29 -31
-25 -12 4 -12 2 -4 -15 6 -11 16 -17 23 -13 8 5 9 4 2 -4 -14 -15 -84 -32 -90
-22 -3 5 -30 16 -60 25 -30 8 -55 20 -55 25 0 5 6 7 14 4 8 -3 17 0 22 7 4 7
3 10 -3 6 -6 -4 -24 -2 -42 3 -19 5 -29 5 -26 -1 14 -21 -18 -7 -40 19 -20 22
-24 24 -25 9 0 -10 -7 -34 -15 -54 -12 -28 -18 -34 -27 -25 -17 17 -25 15 -31
-8 -6 -25 -32 -35 -159 -61 l-102 -20 -134 67 c-139 70 -172 99 -172 152 0 40
-28 82 -53 79 -35 -3 -34 35 2 75 l30 33 1 -32 c0 -38 12 -42 31 -12 12 17 36
24 139 40 69 10 153 19 188 19 34 0 62 4 62 10 0 16 -61 140 -68 139 -4 -1
-19 -1 -34 0 -27 1 -28 2 -28 64 0 60 1 63 37 92 37 29 37 29 13 35 -20 5 -8
11 55 28 93 25 149 23 250 -9z m-338 -25 c-3 -3 -12 -4 -19 -1 -8 3 -5 6 6 6
11 1 17 -2 13 -5z m-1480 -58 c-3 -7 -1 -18 5 -24 12 -12 -7 -27 -22 -17 -15
9 -8 55 8 55 8 0 12 -6 9 -14z m4093 -8 c10 -6 3 -7 -20 -2 -19 3 -39 10 -45
16 -12 11 42 0 65 -14z m-4153 -10 c-3 -8 -6 -5 -6 6 -1 11 2 17 5 13 3 -3 4
-12 1 -19z m141 -17 c9 -5 34 -17 55 -26 20 -9 37 -20 37 -25 0 -18 -39 -10
-61 13 -12 12 -19 16 -15 10 4 -7 4 -13 -1 -13 -14 1 -43 27 -43 39 0 13 5 14
28 2z m953 0 c-11 -7 -11 -9 0 -13 8 -3 -40 -21 -105 -42 -82 -26 -122 -34
-129 -27 -12 12 -21 8 118 55 100 35 144 45 116 27z m3396 -43 c16 5 46 8 68
8 22 -1 45 1 50 5 6 3 44 9 85 13 41 3 101 9 133 12 55 6 60 5 90 -24 25 -24
58 -37 149 -62 l116 -32 11 -43 c19 -77 23 -75 -95 -44 l-80 21 -13 44 c-15
51 -29 66 -23 25 l4 -29 -64 3 c-35 1 -78 10 -95 19 -36 18 -47 20 -39 8 8
-13 -177 -19 -246 -8 -35 6 -38 5 -38 -18 0 -14 -4 -27 -9 -30 -4 -3 -6 5 -4
18 6 30 -38 101 -77 125 -17 10 -27 21 -24 24 4 3 22 -5 40 -19 28 -22 38 -24
61 -16z m-491 11 c43 -26 44 -41 2 -26 -32 12 -48 24 -48 40 0 11 10 8 46 -14z
m-3459 -45 c-3 -3 -12 -4 -19 -1 -8 3 -5 6 6 6 11 1 17 -2 13 -5z m3777 -9
c-4 -8 -10 -15 -15 -15 -5 0 -9 7 -9 15 0 8 7 15 15 15 9 0 12 -6 9 -15z m116
-94 c0 -27 -16 -51 -34 -51 -5 0 -2 8 7 18 23 25 21 53 -4 88 l-21 29 26 -28
c15 -16 26 -40 26 -56z m-3045 39 c-3 -5 -14 -10 -23 -10 -15 0 -15 2 -2 10
20 13 33 13 25 0z m785 -50 c8 -5 11 -10 5 -10 -5 0 -17 5 -25 10 -8 5 -10 10
-5 10 6 0 17 -5 25 -10z m2494 -25 c23 -10 36 -22 36 -34 0 -20 -52 -49 -58
-32 -2 5 -10 7 -18 4 -10 -4 -12 0 -8 11 4 11 1 16 -10 16 -19 0 -20 4 -4 30
15 24 16 24 62 5z m-354 -5 c0 -5 -4 -10 -10 -10 -5 0 -10 5 -10 10 0 6 5 10
10 10 6 0 10 -4 10 -10z m-2058 -37 c18 -16 18 -16 12 2 -7 18 -6 18 22 -2 16
-11 37 -30 48 -41 18 -21 18 -21 -35 -17 -30 2 -63 4 -74 5 -17 0 -17 2 -5 10
8 5 11 10 5 10 -5 0 -15 11 -22 25 -10 22 -9 25 10 25 11 0 29 -8 39 -17z
m-1532 -58 c0 -8 -2 -15 -4 -15 -2 0 -6 7 -10 15 -3 8 -1 15 4 15 6 0 10 -7
10 -15z m266 -41 c-3 -14 -6 -27 -8 -29 -9 -6 -287 -85 -301 -85 -33 0 -20 40
18 56 44 18 45 27 3 20 l-33 -7 38 21 c27 15 37 27 37 45 0 14 5 25 10 25 6 0
10 -9 10 -20 0 -27 41 -26 140 3 82 25 95 21 86 -29z m949 15 c-3 -4 7 -14 21
-24 19 -12 23 -20 15 -28 -7 -7 -19 -2 -40 20 -16 17 -28 33 -25 35 7 8 33 5
29 -3z m-1325 -29 c0 -5 -5 -10 -11 -10 -5 0 -7 5 -4 10 3 6 8 10 11 10 2 0 4
-4 4 -10z m4230 -5 c-32 -39 -197 -93 -310 -101 l-45 -3 40 14 c22 7 54 14 70
15 17 1 80 21 140 44 61 24 112 44 114 45 2 0 -2 -6 -9 -14z m-3631 -137 c1
-16 5 -28 10 -28 5 0 11 -14 15 -30 8 -44 8 -45 -8 -48 -21 -4 -43 33 -61 105
-13 50 -14 67 -4 85 12 22 13 22 30 -17 10 -22 18 -52 18 -67z m1431 26 c0 -2
-9 0 -20 6 -11 6 -20 13 -20 16 0 2 9 0 20 -6 11 -6 20 -13 20 -16z m136 -72
c-5 -4 -126 56 -126 63 0 3 29 -10 65 -27 35 -18 63 -34 61 -36z m-511 8 c3
-5 2 -10 -4 -10 -5 0 -18 -3 -28 -7 -16 -6 -16 -5 -4 10 15 19 27 22 36 7z
m3390 2 c-16 -13 -102 -49 -250 -103 -293 -107 -330 -121 -340 -131 -13 -12
46 1 59 13 6 5 31 9 57 9 36 0 52 5 72 25 31 32 91 45 100 21 7 -17 -27 -46
-54 -46 -8 0 -47 -15 -85 -34 -39 -19 -106 -44 -150 -55 -43 -12 -88 -26 -99
-31 -11 -5 -59 -14 -108 -20 -48 -6 -99 -15 -114 -21 -14 -5 -28 -7 -31 -5 -3
3 1 8 9 10 223 75 351 125 322 126 -7 0 -36 -9 -65 -21 -29 -11 -136 -50 -238
-86 -102 -36 -239 -84 -305 -108 -66 -24 -149 -50 -185 -59 -112 -28 -105 -28
-80 -1 12 13 44 29 74 35 137 32 923 303 1191 411 155 62 242 90 220 71z
m-955 -82 c-8 -5 -19 -10 -25 -10 -5 0 -3 5 5 10 8 5 20 10 25 10 6 0 3 -5 -5
-10z m1030 -11 c0 -5 -4 -8 -9 -5 -5 3 -12 -1 -15 -10 -9 -23 -7 -34 4 -34 6
0 10 7 10 15 0 8 5 15 10 15 15 0 12 -26 -5 -40 -8 -6 -19 -9 -25 -5 -11 7
-14 58 -3 68 10 11 33 8 33 -4z m-120 -54 c-7 -9 -15 -13 -18 -10 -3 2 1 11 8
20 7 9 15 13 18 10 3 -2 -1 -11 -8 -20z m-2790 -6 c0 -6 9 -8 20 -4 12 4 20 2
20 -5 0 -6 -5 -8 -10 -5 -6 3 -13 -1 -16 -9 -5 -12 -11 -13 -25 -6 -27 15
-126 -35 -109 -55 13 -15 87 -25 210 -27 47 -1 97 -7 111 -14 16 -8 41 -11 63
-7 31 5 36 3 36 -14 0 -18 13 -20 148 -32 151 -13 182 -21 182 -46 0 -17 -28
-24 -57 -14 -12 5 -102 13 -200 20 -98 6 -182 15 -188 19 -5 4 -39 8 -75 9
-140 3 -232 13 -237 27 -2 7 -24 23 -48 34 l-44 21 -39 -20 c-21 -11 -50 -22
-63 -24 -13 -2 -31 -7 -39 -10 -86 -35 -120 -36 -120 -1 0 7 -15 21 -32 32
-36 23 -32 26 42 37 76 10 118 26 123 47 5 17 12 19 49 14 29 -4 74 2 138 18
105 26 160 32 160 15z m648 -16 c-10 -2 -26 -2 -35 0 -10 3 -2 5 17 5 19 0 27
-2 18 -5z m2447 -41 c-2 -9 -6 -29 -9 -44 -7 -32 -33 -42 -70 -29 -16 7 -35 7
-51 1 -15 -6 -26 -6 -30 0 -4 6 -14 9 -23 9 -15 -1 -15 -2 1 -6 9 -2 17 -11
17 -19 0 -8 7 -14 16 -14 9 0 12 -5 8 -12 -5 -8 -2 -9 10 -5 11 4 16 3 14 -4
-2 -6 -24 -19 -48 -29 -153 -61 -700 -275 -885 -347 -121 -46 -357 -139 -525
-205 -168 -66 -334 -131 -370 -143 -36 -13 -94 -35 -129 -50 -47 -19 -66 -23
-71 -14 -4 6 -13 8 -19 5 -6 -4 -11 -2 -11 3 0 6 -7 11 -15 11 -8 0 -15 5 -15
11 0 8 -15 10 -45 6 -26 -2 -44 -3 -42 0 23 22 2054 825 2267 895 21 7 29 1
25 -20z m-4985 -43 c26 -15 29 -18 10 -13 -35 9 -78 33 -60 33 8 0 31 -9 50
-20z m1378 -41 c22 -22 13 -47 -21 -62 -18 -7 -68 -22 -110 -31 -62 -15 -79
-16 -91 -5 -24 19 -20 28 17 35 17 4 37 11 43 16 8 7 126 54 145 58 3 0 10 -4
17 -11z m1439 -104 c-3 -3 -12 -4 -19 -1 -8 3 -5 6 6 6 11 1 17 -2 13 -5z
m291 -49 c55 -8 80 -24 40 -26 -41 -2 -81 1 -173 14 -81 10 -86 12 -50 18 43
7 99 5 183 -6z m619 -31 c2 -5 -6 -15 -18 -22 -29 -18 -46 -1 -23 22 17 17 35
17 41 0z m13 -68 c0 -16 -28 -42 -36 -33 -8 7 14 47 26 47 6 0 10 -6 10 -14z
m-865 -127 c-52 -24 -80 -24 -35 1 19 11 44 19 55 19 13 0 7 -7 -20 -20z
m-1835 -179 c8 -5 11 -10 5 -10 -5 0 -17 5 -25 10 -8 5 -10 10 -5 10 6 0 17
-5 25 -10z m1530 -78 c0 -13 -12 -22 -22 -16 -10 6 -1 24 13 24 5 0 9 -4 9 -8z
m80 -181 c0 -5 -11 -12 -24 -15 -14 -3 -31 -12 -38 -19 -13 -13 -118 -41 -125
-33 -2 2 9 8 24 14 15 6 57 22 93 36 36 13 66 25 68 25 1 1 2 -3 2 -8z m-26
-53 c5 -10 7 -10 12 0 3 6 11 12 17 12 6 0 4 -8 -6 -17 -16 -16 -18 -16 -34 0
-10 9 -12 17 -6 17 6 0 14 -6 17 -12z m-289 -76 c-40 -24 -65 -33 -65 -23 0 5
17 15 38 24 51 21 63 20 27 -1z m-75 -32 c0 -5 -6 -10 -14 -10 -8 0 -23 -3
-33 -6 -10 -3 -7 2 7 10 30 18 40 20 40 6z m-137 -56 c-3 -8 -12 -13 -19 -10
-7 3 -16 1 -19 -5 -4 -5 -11 -6 -18 -2 -9 5 5 13 60 32 1 1 0 -6 -4 -15z
m-107 -39 c-23 -17 -36 -19 -36 -6 0 5 10 12 23 14 12 2 24 5 27 5 3 1 -4 -5
-14 -13z m90 -40 l28 -14 -29 -11 c-40 -15 -54 -10 -44 18 10 26 9 26 45 7z"/>
<path d="M13970 8443 c-15 -19 -19 -35 -15 -53 9 -33 18 -44 73 -80 38 -25 42
-30 22 -30 -21 0 -22 -1 -8 -17 9 -10 19 -37 23 -60 6 -39 35 -83 35 -53 0 6
7 27 16 46 15 31 15 37 -2 80 -10 27 -26 49 -36 52 -10 2 -18 12 -18 22 0 9
-9 29 -20 43 -27 34 -25 47 8 47 26 1 26 1 8 15 -30 23 -62 18 -86 -12z m125
-163 c3 -5 1 -10 -4 -10 -6 0 -11 5 -11 10 0 6 2 10 4 10 3 0 8 -4 11 -10z"/>
<path d="M14206 8288 c5 -18 9 -69 9 -114 0 -75 2 -82 29 -107 34 -32 41 -29
49 19 6 37 -16 97 -51 137 -13 14 -13 22 -3 44 11 23 10 29 -5 40 -29 21 -37
16 -28 -19z"/>
<path d="M14150 8025 c-10 -12 -10 -15 3 -15 8 0 17 7 21 15 3 8 2 15 -3 15
-5 0 -14 -7 -21 -15z"/>
<path d="M14490 7170 c0 -5 4 -10 9 -10 6 0 13 5 16 10 3 6 -1 10 -9 10 -9 0
-16 -4 -16 -10z"/>
<path d="M10301 2034 c0 -11 3 -14 6 -6 3 7 2 16 -1 19 -3 4 -6 -2 -5 -13z"/>
<path d="M14510 2275 c-11 -13 -11 -19 3 -32 21 -21 49 -9 45 19 -4 28 -30 35
-48 13z"/>
<path d="M9680 2016 c0 -17 14 -29 23 -20 8 8 -3 34 -14 34 -5 0 -9 -6 -9 -14z"/>
<path d="M9930 1995 c-8 -9 -8 -15 -2 -15 12 0 26 19 19 26 -2 2 -10 -2 -17
-11z"/>
<path d="M9960 2000 c0 -6 11 -10 25 -10 14 0 25 4 25 8 0 4 -11 9 -25 10 -14
1 -25 -3 -25 -8z"/>
<path d="M9760 1986 c0 -9 5 -16 10 -16 6 0 10 4 10 9 0 6 -4 13 -10 16 -5 3
-10 -1 -10 -9z"/>
<path d="M10246 1675 c4 -8 11 -15 16 -15 6 0 5 6 -2 15 -7 8 -14 15 -16 15
-2 0 -1 -7 2 -15z"/>
<path d="M10160 1655 c-7 -8 -8 -15 -2 -15 5 0 15 7 22 15 7 8 8 15 2 15 -5 0
-15 -7 -22 -15z"/>
<path d="M10255 1630 c-3 -5 -1 -10 4 -10 6 0 11 5 11 10 0 6 -2 10 -4 10 -3
0 -8 -4 -11 -10z"/>
<path d="M10315 1620 c21 -24 26 -25 19 -6 -3 8 -13 17 -22 21 -13 5 -13 2 3
-15z"/>
<path d="M10375 1630 c-3 -5 -1 -10 4 -10 6 0 11 5 11 10 0 6 -2 10 -4 10 -3
0 -8 -4 -11 -10z"/>
<path d="M10200 1626 c0 -2 7 -7 16 -10 8 -3 12 -2 9 4 -6 10 -25 14 -25 6z"/>
<path d="M10142 1584 c2 -11 12 -19 26 -20 24 -1 49 21 34 30 -6 3 -15 -1 -22
-9 -13 -16 -35 -21 -25 -6 3 5 0 13 -6 16 -7 5 -10 0 -7 -11z"/>
<path d="M10360 1586 c0 -2 7 -9 15 -16 13 -11 14 -10 9 4 -5 14 -24 23 -24
12z"/>
<path d="M10266 1572 c-3 -5 1 -9 9 -9 8 0 12 4 9 9 -3 4 -7 8 -9 8 -2 0 -6
-4 -9 -8z"/>
<path d="M10100 1560 c0 -5 7 -7 15 -4 8 4 15 8 15 10 0 2 -7 4 -15 4 -8 0
-15 -4 -15 -10z"/>
<path d="M10221 1551 c-9 -6 -6 -8 13 -8 14 0 23 3 20 8 -7 11 -15 11 -33 0z"/>
<path d="M13773 1218 c-13 -6 -23 -18 -23 -26 0 -14 2 -14 13 -1 6 8 19 20 27
27 17 14 13 14 -17 0z"/>
<path d="M11880 470 c-12 -8 -11 -10 8 -10 12 0 22 5 22 10 0 13 -11 13 -30 0z"/>
<path d="M13525 9080 c-3 -6 -3 -19 0 -30 6 -19 7 -19 36 2 16 12 29 25 29 30
0 12 -58 10 -65 -2z"/>
<path d="M13640 9035 c0 -8 5 -15 10 -15 6 0 10 7 10 15 0 8 -4 15 -10 15 -5
0 -10 -7 -10 -15z"/>
<path d="M13440 8895 c0 -8 2 -15 4 -15 2 0 6 7 10 15 3 8 1 15 -4 15 -6 0
-10 -7 -10 -15z"/>
<path d="M15165 8765 l-30 -25 35 7 c56 10 88 21 67 22 -10 1 -15 6 -12 11 12
20 -31 9 -60 -15z"/>
<path d="M13237 8636 c-3 -8 -2 -18 3 -21 13 -8 20 9 11 24 -6 10 -10 9 -14
-3z"/>
<path d="M12762 8310 c-18 -11 -38 -18 -44 -14 -6 4 -8 -1 -3 -15 4 -13 1 -28
-5 -36 -10 -12 -8 -15 11 -15 66 0 121 33 103 61 -3 6 0 16 6 24 19 23 -28 19
-68 -5z"/>
<path d="M12384 8288 c-8 -15 -12 -28 -9 -28 3 0 -2 -16 -10 -36 -21 -51 -19
-74 6 -74 13 0 23 10 31 30 14 41 54 52 79 22 33 -41 103 -24 114 28 4 17 16
35 27 41 l20 11 -20 14 c-14 9 -55 15 -122 17 l-102 3 -14 -28z"/>
<path d="M12090 8105 l-25 -14 30 0 c29 0 82 17 58 18 -6 1 -17 3 -25 6 -7 2
-24 -2 -38 -10z"/>
<path d="M13882 7865 c13 -28 41 -35 31 -7 -7 17 -22 32 -35 32 -4 0 -2 -11 4
-25z"/>
<path d="M13972 7868 c-14 -14 -16 -28 -3 -28 9 0 24 30 18 36 -2 2 -9 -2 -15
-8z"/>
<path d="M13865 7811 c-6 -21 3 -51 16 -51 5 0 9 7 9 15 0 9 6 12 15 9 21 -8
19 2 -5 26 -25 25 -27 25 -35 1z"/>
<path d="M13926 7817 c3 -10 9 -15 12 -12 3 3 0 11 -7 18 -10 9 -11 8 -5 -6z"/>
<path d="M12014 7802 c-21 -14 -23 -41 -4 -62 l19 -22 7 27 c8 31 -6 68 -22
57z"/>
<path d="M13965 7770 c3 -5 8 -10 11 -10 2 0 4 5 4 10 0 6 -5 10 -11 10 -5 0
-7 -4 -4 -10z"/>
<path d="M13886 7721 c21 -21 29 -19 21 4 -4 8 -14 15 -23 15 -16 0 -16 -2 2
-19z"/>
<path d="M15841 7476 c-9 -11 -14 -42 -14 -87 0 -50 4 -74 14 -80 11 -7 15 2
17 42 2 27 2 71 0 96 -3 41 -5 44 -17 29z"/>
<path d="M13900 7381 c0 -5 5 -13 10 -16 6 -3 10 -2 10 4 0 5 -4 13 -10 16 -5
3 -10 2 -10 -4z"/>
<path d="M13704 7272 c-11 -7 -17 -40 -27 -147 -3 -27 -10 -51 -16 -53 -7 -2
-6 -12 3 -30 15 -30 18 -138 5 -164 -15 -29 15 -34 123 -22 57 7 117 13 133
15 28 2 28 2 5 6 -14 3 -30 9 -37 15 -7 5 -17 7 -23 3 -5 -3 -10 -2 -10 4 0 6
-11 7 -28 2 -16 -5 -42 -4 -62 3 -35 11 -35 11 -36 76 -1 36 3 79 8 97 15 52
16 146 1 176 -14 28 -21 32 -39 19z"/>
<path d="M13356 5681 c-12 -33 -54 -92 -75 -107 -30 -22 -26 -31 18 -38 55 -8
70 -30 42 -59 -21 -23 -29 -67 -12 -67 5 0 17 -7 26 -16 14 -15 14 -19 0 -40
-14 -22 -14 -23 18 -29 19 -4 47 -5 63 -3 l29 3 2 170 c1 94 -1 175 -5 181 -4
6 -28 13 -54 16 -37 4 -48 2 -52 -11z"/>
<path d="M13116 5635 c-10 -8 -22 -16 -26 -17 -4 -2 -10 -15 -13 -29 -5 -19
-1 -33 13 -49 19 -22 19 -24 4 -42 -31 -33 -188 -22 -200 14 -4 13 -13 18 -27
16 -18 -2 -22 -10 -22 -38 0 -32 3 -35 32 -38 17 -2 37 -10 43 -18 7 -8 23
-14 36 -14 12 0 25 -4 28 -9 9 -14 -20 -32 -39 -25 -16 6 -34 -9 -35 -28 0 -5
34 -8 75 -8 67 0 76 2 73 18 -2 10 3 17 12 17 8 0 15 -9 15 -20 0 -18 7 -20
85 -21 47 -1 65 1 40 3 -55 5 -84 27 -69 54 6 11 21 19 37 19 15 0 36 7 46 15
11 8 28 15 38 15 10 0 18 5 18 10 0 6 -23 10 -51 10 -28 0 -59 5 -70 10 -25
14 -24 46 1 60 12 6 20 21 20 35 0 13 7 28 16 33 14 8 11 12 -16 26 -39 19
-40 19 -64 1z"/>
<path d="M13005 5620 c-4 -6 7 -10 25 -10 18 0 29 4 25 10 -3 6 -15 10 -25 10
-10 0 -22 -4 -25 -10z"/>
<path d="M11325 5421 c-8 -15 14 -53 28 -48 18 6 15 51 -5 55 -9 2 -19 -2 -23
-7z"/>
<path d="M11095 5249 c-16 -5 -52 -7 -79 -4 -69 9 -163 -26 -230 -85 -82 -73
-126 -120 -161 -174 -68 -106 -137 -147 -172 -103 -38 46 -50 51 -68 24 -9
-14 -18 -38 -21 -53 -6 -31 -30 -64 -48 -64 -6 0 -19 -7 -30 -15 -18 -14 -18
-15 2 -67 11 -29 26 -78 32 -108 7 -30 20 -68 30 -85 30 -50 7 -135 -48 -174
-55 -39 -124 -58 -227 -65 -94 -5 -225 -23 -233 -31 -4 -4 35 -9 203 -25 189
-18 242 -26 266 -44 30 -20 83 -21 114 0 36 24 61 10 81 -44 9 -26 26 -67 36
-92 18 -42 18 -45 2 -57 -10 -7 -24 -13 -31 -13 -23 0 -14 -20 10 -21 37 -1
59 -5 116 -19 108 -26 395 10 583 74 42 14 87 26 100 26 40 0 58 21 69 85 9
51 7 69 -9 120 -13 42 -16 69 -10 90 4 17 11 57 14 90 9 88 6 695 -4 729 -9
33 -5 30 -119 80 -84 37 -115 41 -168 25z m-11 -389 c14 -5 33 -21 42 -35 15
-22 15 -27 2 -38 -8 -7 -20 -19 -26 -28 -17 -22 -42 -159 -30 -159 5 0 25 17
44 38 41 44 64 106 46 124 -21 21 -13 27 19 16 17 -6 46 -26 65 -45 29 -28 34
-41 34 -79 0 -25 7 -58 15 -73 10 -21 14 -59 12 -144 -2 -102 -5 -119 -24
-146 -13 -17 -23 -40 -23 -52 0 -23 -53 -115 -80 -137 -43 -36 -112 -62 -163
-62 -85 0 -132 30 -195 124 -65 97 -68 134 -13 152 19 6 52 31 73 55 22 24 48
54 60 65 12 13 16 24 10 28 -6 3 -13 2 -17 -4 -3 -6 -26 -9 -50 -8 -24 0 -58
-5 -76 -12 -30 -13 -33 -12 -51 10 -15 19 -18 33 -14 64 4 21 10 44 14 50 3 6
8 22 9 36 6 46 33 107 61 133 15 14 45 45 67 67 62 65 125 85 189 60z"/>
<path d="M11011 4786 c-9 -11 -10 -20 -1 -35 14 -28 28 -26 36 3 10 41 -12 60
-35 32z"/>
<path d="M10873 4750 c-19 -17 -20 -23 -10 -62 11 -47 41 -94 65 -103 8 -3 25
4 37 15 20 19 21 26 13 58 -5 20 -12 48 -15 62 -11 49 -54 64 -90 30z"/>
<path d="M11183 4581 c-32 -26 -43 -51 -24 -51 16 0 71 51 71 66 0 20 -11 17
-47 -15z"/>
<path d="M10814 4590 c-12 -5 -25 -13 -28 -18 -13 -21 70 -66 102 -55 19 7 14
38 -11 61 -25 24 -31 25 -63 12z"/>
<path d="M11140 4474 c-45 -19 -43 -16 -29 -64 10 -33 10 -46 0 -62 -10 -17
-9 -22 6 -34 10 -7 26 -14 35 -14 15 0 16 4 7 27 -12 31 -6 53 15 53 15 0 58
51 69 82 10 29 -47 36 -103 12z"/>
<path d="M11006 4246 c-31 -100 -32 -116 -7 -116 23 0 81 52 81 73 0 9 6 18
13 20 8 4 6 6 -4 6 -17 1 -39 41 -39 71 0 47 -20 23 -44 -54z"/>
<path d="M10055 4713 c-16 -2 -55 -11 -85 -20 -53 -16 -54 -17 -25 -23 37 -8
153 -1 178 12 9 5 17 15 17 23 0 15 -19 17 -85 8z"/>
<path d="M10089 4566 c-2 -3 -29 -6 -59 -7 -30 -1 -61 -4 -68 -7 -20 -7 26
-52 53 -52 12 0 39 -12 60 -26 34 -23 44 -25 97 -19 32 4 61 11 64 16 3 5 -4
29 -15 54 l-20 45 -54 0 c-29 0 -56 -2 -58 -4z"/>
<path d="M12168 4463 c7 -3 16 -2 19 1 4 3 -2 6 -13 5 -11 0 -14 -3 -6 -6z"/>
<path d="M12050 4451 c0 -5 7 -12 16 -15 9 -4 14 -13 10 -22 -3 -8 -2 -12 4
-9 5 3 18 1 27 -5 15 -8 12 -10 -17 -8 -19 2 -34 8 -33 14 1 6 -4 11 -12 11
-8 0 -12 -4 -9 -9 3 -4 -13 -8 -36 -8 -25 0 -39 -4 -35 -10 3 -5 22 -10 42
-10 29 0 35 -3 31 -18 -4 -14 1 -19 21 -19 59 -3 70 -7 59 -20 -13 -16 28 -34
92 -39 31 -3 37 -1 20 4 -14 4 -29 17 -34 28 -5 11 -19 25 -30 30 -12 5 -20
16 -18 23 2 8 -7 24 -19 37 -12 13 -19 24 -15 24 5 0 3 7 -4 15 -13 16 -60 21
-60 6z m20 -91 c0 -5 -4 -10 -10 -10 -5 0 -10 5 -10 10 0 6 5 10 10 10 6 0 10
-4 10 -10z m43 -7 c-7 -2 -19 -2 -25 0 -7 3 -2 5 12 5 14 0 19 -2 13 -5z"/>
<path d="M9570 4447 c0 -11 38 -44 55 -49 11 -3 28 -9 39 -13 33 -14 1 31 -35
49 -30 15 -59 21 -59 13z"/>
<path d="M11557 4408 c-7 -27 2 -45 14 -27 11 18 11 49 0 49 -5 0 -11 -10 -14
-22z"/>
<path d="M12177 4413 c-4 -3 -7 -11 -7 -17 0 -6 4 -6 11 1 6 6 19 9 28 6 14
-4 14 -3 1 6 -18 13 -24 13 -33 4z"/>
<path d="M11925 4390 c3 -5 11 -10 16 -10 6 0 7 5 4 10 -3 6 -11 10 -16 10 -6
0 -7 -4 -4 -10z"/>
<path d="M12250 4360 c0 -5 7 -10 16 -10 8 0 12 5 9 10 -3 6 -10 10 -16 10 -5
0 -9 -4 -9 -10z"/>
<path d="M11960 4329 c0 -5 5 -7 10 -4 6 3 10 8 10 11 0 2 -4 4 -10 4 -5 0
-10 -5 -10 -11z"/>
<path d="M12227 4319 c-4 -16 -2 -17 14 -8 23 12 23 15 5 22 -8 3 -16 -2 -19
-14z"/>
<path d="M11796 4321 c-3 -5 2 -12 11 -15 13 -5 14 -9 5 -15 -9 -5 -6 -11 11
-18 17 -8 24 -8 24 0 0 17 -45 58 -51 48z"/>
<path d="M12070 4320 c0 -5 6 -10 14 -10 8 0 18 5 21 10 3 6 -3 10 -14 10 -12
0 -21 -4 -21 -10z"/>
<path d="M12036 4312 c-3 -6 -1 -14 5 -17 15 -10 25 3 12 16 -7 7 -13 7 -17 1z"/>
<path d="M11950 4280 c6 -11 15 -20 20 -20 17 0 11 15 -11 28 -19 12 -19 11
-9 -8z"/>
<path d="M12310 4280 c8 -5 20 -10 25 -10 6 0 3 5 -5 10 -8 5 -19 10 -25 10
-5 0 -3 -5 5 -10z"/>
<path d="M11900 4249 c0 -5 5 -7 10 -4 6 3 10 8 10 11 0 2 -4 4 -10 4 -5 0
-10 -5 -10 -11z"/>
<path d="M11940 4229 c0 -11 4 -18 10 -14 5 3 7 12 3 20 -7 21 -13 19 -13 -6z"/>
<path d="M11970 3773 c-1 -57 2 -430 3 -483 2 -48 5 -55 22 -55 18 0 21 9 26
111 4 61 11 120 17 130 6 12 7 48 1 99 -4 44 -8 105 -8 136 -1 49 -4 59 -26
73 -32 21 -35 21 -35 -11z"/>
<path d="M11396 3595 c-2 -7 2 -16 10 -19 25 -10 34 -7 28 8 -8 20 -31 27 -38
11z"/>
<path d="M11977 3194 c-4 -4 -7 -58 -7 -120 0 -93 3 -115 16 -122 15 -8 15
-10 0 -15 -13 -5 -16 -24 -16 -107 l0 -100 35 0 c40 0 55 21 34 47 -10 12 -15
68 -19 217 -4 171 -7 201 -20 204 -9 1 -19 0 -23 -4z"/>
<path d="M11140 3094 c-8 -1 -40 -6 -71 -9 -44 -5 -58 -10 -62 -25 -4 -17 -2
-18 41 -5 25 8 76 17 114 21 71 7 95 25 31 23 -21 -1 -45 -3 -53 -5z"/>
<path d="M11299 3075 c35 -7 85 -23 112 -35 53 -26 67 -23 48 8 -14 23 -103
43 -180 41 -43 -1 -43 -2 20 -14z"/>
<path d="M10970 3060 c-8 -5 -10 -10 -5 -10 6 0 17 5 25 10 8 5 11 10 5 10 -5
0 -17 -5 -25 -10z"/>
<path d="M11134 3039 c-12 -21 14 -30 87 -32 83 -1 107 6 88 29 -14 17 -164
20 -175 3z"/>
<path d="M11391 3021 c-10 -7 -7 -9 12 -8 14 1 23 5 20 10 -6 9 -15 9 -32 -2z"/>
<path d="M10925 2988 c11 -31 15 -588 5 -588 -5 0 -10 -27 -12 -61 l-3 -61 30
5 c17 3 86 16 155 30 69 14 201 33 295 42 160 15 218 25 147 25 l-32 0 0 285
c0 194 4 292 12 310 15 33 6 41 -25 20 -31 -20 -179 -45 -267 -45 -78 0 -224
24 -276 46 l-37 15 8 -23z m50 -298 c3 -5 2 -10 -4 -10 -5 0 -13 5 -16 10 -3
6 -2 10 4 10 5 0 13 -4 16 -10z m10 -70 c3 -5 -1 -10 -9 -10 -9 0 -16 5 -16
10 0 6 4 10 9 10 6 0 13 -4 16 -10z"/>
<path d="M11440 3000 c-13 -8 -13 -10 2 -10 9 0 20 5 23 10 8 13 -5 13 -25 0z"/>
<path d="M11390 2990 c0 -5 5 -10 10 -10 6 0 10 5 10 10 0 6 -4 10 -10 10 -5
0 -10 -4 -10 -10z"/>
<path d="M13093 2813 c-13 -5 -7 -33 7 -33 11 0 21 28 12 33 -4 3 -12 2 -19 0z"/>
<path d="M12536 2723 c-9 -53 19 -76 81 -67 32 5 48 2 61 -8 21 -19 81 -40 93
-32 13 8 11 60 -3 72 -7 5 -29 13 -48 17 -19 4 -46 15 -60 25 -14 10 -46 21
-71 25 l-46 7 -7 -39z"/>
<path d="M9056 2664 c-8 -21 -8 -24 3 -24 12 0 22 28 12 35 -5 3 -12 -2 -15
-11z"/>
<path d="M9140 2641 c0 -6 5 -13 10 -16 6 -3 10 1 10 9 0 9 -4 16 -10 16 -5 0
-10 -4 -10 -9z"/>
<path d="M11956 2489 c-3 -34 -6 -77 -6 -95 0 -33 1 -34 44 -34 36 0 45 4 49
22 3 12 2 29 -4 39 -5 10 -9 38 -9 63 0 35 -5 48 -19 56 -40 21 -48 13 -55
-51z"/>
<path d="M8615 2340 c3 -5 14 -10 23 -10 15 0 15 2 2 10 -20 13 -33 13 -25 0z"/>
<path d="M8685 2316 c17 -7 41 -16 55 -20 20 -5 19 -3 -5 8 -16 7 -41 16 -55
20 -20 5 -19 3 5 -8z"/>
<path d="M8795 2275 c17 -8 37 -14 45 -14 8 0 -1 7 -20 14 -46 18 -64 17 -25
0z"/>
<path d="M11538 2263 c-29 -7 -21 -31 13 -38 41 -9 121 3 116 18 -6 20 -83 32
-129 20z"/>
<path d="M12017 2239 c-9 -6 -15 -14 -12 -20 8 -12 125 -12 125 1 0 26 -78 39
-113 19z"/>
<path d="M12128 2183 c7 -3 16 -2 19 1 4 3 -2 6 -13 5 -11 0 -14 -3 -6 -6z"/>
<path d="M12280 2174 c-23 -13 -20 -14 45 -14 64 1 68 2 51 15 -24 18 -62 18
-96 -1z"/>
<path d="M11097 2085 c-20 -14 -37 -27 -37 -28 0 -1 -4 -16 -9 -33 -6 -23 -5
-40 6 -63 16 -32 33 -41 33 -18 0 7 13 25 28 40 l28 27 0 -61 c0 -56 2 -63 30
-88 17 -14 38 -38 48 -53 21 -36 44 -37 42 -2 -1 19 -16 39 -48 66 -59 50 -71
77 -16 38 23 -17 45 -30 50 -30 6 0 24 -6 41 -14 77 -34 214 -74 239 -69 26 5
26 5 11 40 -8 20 -12 46 -9 58 7 26 -18 39 -91 49 -23 3 -50 9 -60 12 -15 5
-15 4 2 -6 49 -30 58 -65 19 -74 -36 -9 -54 9 -54 54 0 36 -3 39 -43 55 -24 9
-70 41 -102 71 -33 30 -62 54 -65 54 -3 0 -22 -11 -43 -25z"/>
<path d="M11365 2103 c-32 -8 -39 -20 -16 -32 23 -13 98 -4 108 11 13 22 -39
34 -92 21z"/>
<path d="M11543 2073 c-24 -9 -13 -23 17 -23 20 0 30 5 30 15 0 15 -22 19 -47
8z"/>
<path d="M11800 2020 c-21 -6 -22 -8 -8 -14 22 -10 59 -4 59 9 0 13 -20 15
-51 5z"/>
<path d="M11940 2019 c-12 -8 -10 -10 9 -5 14 3 31 0 38 -6 8 -7 13 -7 13 0 0
9 -23 22 -38 22 -4 0 -14 -5 -22 -11z"/>
<path d="M11526 2002 c-7 -12 45 -32 85 -32 29 0 46 14 29 25 -19 12 -107 18
-114 7z"/>
<path d="M11666 1981 c-13 -20 4 -29 69 -36 99 -11 199 10 138 29 -41 12 -201
17 -207 7z"/>
<path d="M12180 1915 c-8 -2 -47 -9 -87 -16 -70 -12 -72 -13 -67 -39 6 -27 -7
-43 -49 -65 -11 -5 -23 -16 -25 -24 -4 -12 9 -13 72 -8 76 5 116 -7 54 -17
-18 -4 -55 -10 -83 -15 -49 -9 -50 -9 -10 -9 22 0 78 3 124 7 54 4 95 3 117
-5 l33 -11 -15 28 c-8 16 -16 29 -18 29 -2 0 -17 -5 -34 -11 -21 -7 -37 -7
-49 -1 -14 9 -11 11 22 17 22 3 55 13 72 20 l33 15 -20 32 c-12 20 -17 41 -14
55 5 19 2 23 -17 22 -13 -1 -31 -3 -39 -4z"/>
<path d="M11585 1849 c0 -60 1 -63 30 -75 25 -11 27 -13 8 -14 -24 0 -43 -20
-20 -20 8 0 30 -3 48 -6 31 -5 32 -4 17 9 -26 21 -22 27 17 27 38 0 42 5 20
34 -18 23 -19 58 -4 73 15 15 1 21 -62 29 l-54 6 0 -63z"/>
<path d="M8638 1893 c7 -3 16 -2 19 1 4 3 -2 6 -13 5 -11 0 -14 -3 -6 -6z"/>
<path d="M11760 1858 c0 -18 -6 -45 -14 -59 -13 -25 -12 -28 13 -39 15 -8 21
-14 13 -17 -28 -11 3 -23 56 -22 l57 1 -40 13 -40 12 35 8 c50 11 53 15 34 36
-12 14 -15 29 -11 59 l5 40 -54 0 -54 0 0 -32z"/>
<path d="M11300 1810 c20 -13 33 -13 25 0 -3 6 -14 10 -23 10 -15 0 -15 -2 -2
-10z"/>
<path d="M11420 1782 c0 -9 100 -35 107 -28 3 3 -9 12 -26 20 -32 17 -81 22
-81 8z"/>
<path d="M8292 1594 c-11 -12 -7 -14 24 -14 40 0 40 1 9 18 -15 7 -23 6 -33
-4z"/>
<path d="M8477 1503 c-7 -6 23 -22 73 -38 21 -7 22 -6 9 7 -30 30 -69 45 -82
31z"/>
<path d="M8610 1441 c8 -5 29 -11 45 -14 l30 -6 -30 14 c-34 16 -72 21 -45 6z"/>
<path d="M8609 1410 c13 -11 27 -20 32 -20 18 0 8 10 -23 25 l-33 16 24 -21z"/>
<path d="M10530 645 c0 -8 276 -135 294 -135 6 0 23 -7 39 -15 21 -11 34 -11
58 -3 34 12 34 32 -2 36 -35 4 -268 81 -311 103 -35 18 -78 25 -78 14z"/>
<path d="M8500 537 c0 -2 6 -10 14 -16 11 -9 16 -9 22 1 4 7 4 10 -1 6 -4 -4
-14 -3 -22 3 -7 6 -13 9 -13 6z"/>
<path d="M10673 503 c-20 -8 -15 -33 8 -41 20 -8 20 -9 4 -25 -14 -15 -15 -18
-1 -23 17 -7 116 23 116 35 0 15 -13 20 -30 11 -12 -7 -23 -4 -39 11 -11 11
-21 24 -21 29 0 11 -17 12 -37 3z"/>
<path d="M7851 54 c0 -11 3 -14 6 -6 3 7 2 16 -1 19 -3 4 -6 -2 -5 -13z"/>
</g>
</svg>
